<svg width="300" height="300" viewBox="0 0 300 300" fill="none" xmlns="http://www.w3.org/2000/svg">
<path d="M62.844 265.2C111.186 290.682 189.564 290.682 237.906 265.2C286.248 239.718 286.254 198.414 237.906 172.938C189.558 147.462 111.186 147.456 62.838 172.938C14.49 198.42 14.496 239.706 62.844 265.2Z" fill="#F5F5F5"/>
<path d="M42.114 233.31L44.358 234.6C44.7606 234.804 45.2056 234.91 45.657 234.91C46.1084 234.91 46.5534 234.804 46.956 234.6L150.648 174.738C150.805 174.686 150.943 174.586 151.04 174.452C151.137 174.318 151.189 174.157 151.189 173.991C151.189 173.825 151.137 173.664 151.04 173.53C150.943 173.396 150.805 173.296 150.648 173.244L148.422 171.972C148.019 171.768 147.574 171.662 147.123 171.662C146.672 171.662 146.227 171.768 145.824 171.972L42.114 231.81C41.9573 231.863 41.8211 231.964 41.7247 232.099C41.6283 232.233 41.5765 232.395 41.5765 232.56C41.5765 232.726 41.6283 232.887 41.7247 233.021C41.8211 233.156 41.9573 233.257 42.114 233.31V233.31Z" fill="#E0E0E0"/>
<path d="M191.808 254.874C209.284 254.874 223.452 247.108 223.452 237.528C223.452 227.948 209.284 220.182 191.808 220.182C174.331 220.182 160.164 227.948 160.164 237.528C160.164 247.108 174.331 254.874 191.808 254.874Z" fill="#E0E0E0"/>
<path d="M228.366 207.672C241.849 207.672 252.78 201.679 252.78 194.286C252.78 186.893 241.849 180.9 228.366 180.9C214.882 180.9 203.952 186.893 203.952 194.286C203.952 201.679 214.882 207.672 228.366 207.672Z" fill="#E0E0E0"/>
<path d="M240.306 180.834C240.27 177.768 242.412 171.396 245.544 167.376C248.676 163.356 253.638 160.386 257.208 161.562C260.532 162.654 260.208 166.998 256.242 169.92C252.276 172.842 246.276 176.52 244.566 181.524L240.936 187.668L240.306 180.834Z" fill="#BA68C8"/>
<path opacity="0.1" d="M240.306 180.834C240.27 177.768 242.412 171.396 245.544 167.376C248.676 163.356 253.638 160.386 257.208 161.562C260.532 162.654 260.208 166.998 256.242 169.92C252.276 172.842 246.276 176.52 244.566 181.524L240.936 187.668L240.306 180.834Z" fill="black"/>
<path d="M240.132 185.034C240.181 185.028 240.226 185.007 240.262 184.974C240.297 184.94 240.321 184.896 240.33 184.848C242.256 174.36 250.62 165.756 255.66 163.818C255.716 163.796 255.762 163.753 255.787 163.698C255.812 163.643 255.813 163.581 255.792 163.524C255.781 163.497 255.766 163.472 255.745 163.451C255.725 163.43 255.701 163.413 255.674 163.401C255.647 163.39 255.619 163.383 255.589 163.383C255.56 163.382 255.531 163.387 255.504 163.398C250.362 165.372 241.842 174.12 239.904 184.77C239.899 184.799 239.899 184.828 239.906 184.857C239.912 184.885 239.924 184.912 239.94 184.936C239.957 184.96 239.978 184.981 240.003 184.997C240.028 185.012 240.055 185.023 240.084 185.028L240.132 185.034Z" fill="white"/>
<path d="M241.8 191.712C242.274 189.984 244.344 187.116 247.716 184.722C251.454 182.082 256.206 180.828 257.28 178.794C258.57 176.346 256.494 174.078 252.63 174.594C248.766 175.11 242.034 180.48 241.038 188.436L241.8 191.712Z" fill="#BA68C8"/>
<path d="M241.002 189.912C241.045 189.908 241.086 189.891 241.12 189.865C241.154 189.838 241.179 189.803 241.194 189.762C244.29 180.762 251.094 177.534 254.256 177.084C254.314 177.075 254.367 177.044 254.403 176.997C254.439 176.95 254.455 176.891 254.448 176.832C254.444 176.803 254.435 176.774 254.42 176.749C254.405 176.723 254.386 176.701 254.362 176.683C254.339 176.665 254.312 176.652 254.283 176.645C254.255 176.637 254.225 176.636 254.196 176.64C250.698 177.138 243.936 180.426 240.768 189.618C240.759 189.646 240.755 189.675 240.756 189.704C240.758 189.733 240.766 189.761 240.779 189.788C240.791 189.814 240.809 189.837 240.831 189.856C240.853 189.876 240.878 189.891 240.906 189.9C240.936 189.913 240.969 189.917 241.002 189.912V189.912Z" fill="white"/>
<path d="M44.91 231.798L44.454 231.534C44.0705 231.284 43.7512 230.948 43.5218 230.552C43.2925 230.155 43.1597 229.711 43.134 229.254V75.498C43.1601 75.0403 43.2932 74.5951 43.5224 74.1982C43.7516 73.8012 44.0707 73.4634 44.454 73.212L143.526 16.02C143.935 15.8128 144.387 15.7048 144.846 15.7048C145.305 15.7048 145.757 15.8128 146.166 16.02L146.616 16.284C147.001 16.534 147.321 16.8714 147.55 17.2687C147.78 17.666 147.912 18.1119 147.936 18.57V172.32C147.912 172.778 147.78 173.224 147.55 173.621C147.321 174.019 147.001 174.356 146.616 174.606L47.55 231.798C47.1408 232.005 46.6886 232.113 46.23 232.113C45.7714 232.113 45.3192 232.005 44.91 231.798V231.798Z" fill="#BA68C8"/>
<path opacity="0.4" d="M147.924 18.36C147.834 17.676 147.282 17.424 146.622 17.802L47.544 75C47.1561 75.2445 46.8362 75.5829 46.614 75.984L43.524 74.184C43.7492 73.7832 44.0709 73.4449 44.46 73.2L143.526 16.02C143.935 15.8128 144.387 15.7048 144.846 15.7048C145.305 15.7048 145.757 15.8128 146.166 16.02L146.622 16.284C146.973 16.5189 147.27 16.8253 147.495 17.183C147.719 17.5407 147.865 17.9418 147.924 18.36V18.36Z" fill="white"/>
<path opacity="0.1" d="M47.328 231.9C46.9434 232.053 46.5307 232.123 46.1171 232.106C45.7034 232.088 45.2982 231.983 44.928 231.798L44.466 231.534C44.0825 231.283 43.7636 230.946 43.5352 230.548C43.3069 230.151 43.1756 229.706 43.152 229.248V75.498C43.1659 75.0401 43.2982 74.5936 43.536 74.202L46.626 76.002C46.3809 76.3864 46.2345 76.8254 46.2 77.28V231.036C46.2 231.792 46.704 232.146 47.328 231.9Z" fill="black"/>
<path d="M57.912 176.19L57.456 175.926C57.0725 175.676 56.7531 175.34 56.5238 174.944C56.2945 174.547 56.1616 174.103 56.136 173.646V146.01C56.1617 145.552 56.2945 145.107 56.5238 144.71C56.753 144.313 57.0723 143.975 57.456 143.724L147.402 91.746C147.81 91.5389 148.261 91.4309 148.719 91.4309C149.177 91.4309 149.628 91.5389 150.036 91.746L150.492 92.01C150.877 92.26 151.197 92.5974 151.426 92.9947C151.656 93.392 151.788 93.8379 151.812 94.296V121.932C151.788 122.389 151.655 122.834 151.426 123.231C151.197 123.627 150.877 123.963 150.492 124.212L60.552 176.19C60.1428 176.397 59.6906 176.505 59.232 176.505C58.7734 176.505 58.3212 176.397 57.912 176.19V176.19Z" fill="#EBEBEB"/>
<path d="M151.8 94.086C151.71 93.402 151.158 93.15 150.492 93.528L60.546 145.512C60.1581 145.756 59.8382 146.095 59.616 146.496L56.526 144.696C56.7485 144.292 57.0707 143.951 57.462 143.706L147.402 91.728C147.81 91.5209 148.261 91.4129 148.719 91.4129C149.177 91.4129 149.628 91.5209 150.036 91.728L150.492 91.992C150.848 92.2262 151.149 92.5346 151.375 92.896C151.601 93.2574 151.746 93.6633 151.8 94.086Z" fill="#FAFAFA"/>
<path d="M60.324 176.298C59.9391 176.451 59.5261 176.521 59.1124 176.502C58.6986 176.483 58.2935 176.377 57.924 176.19L57.456 175.932C57.0752 175.679 56.7587 175.34 56.5317 174.944C56.3046 174.547 56.1732 174.102 56.148 173.646V146.01C56.1619 145.552 56.2942 145.106 56.532 144.714L59.622 146.514C59.3867 146.907 59.2527 147.352 59.232 147.81V175.452C59.226 176.184 59.706 176.538 60.324 176.298Z" fill="#E0E0E0"/>
<path d="M73.266 143.658C78.396 140.694 82.554 142.998 82.554 148.806C82.554 154.614 78.39 161.67 73.254 164.568C68.118 167.466 63.96 165.168 63.96 159.42C63.96 153.672 68.136 146.622 73.266 143.658Z" fill="#BA68C8"/>
<path d="M57.912 213.642L57.456 213.378C57.0725 213.128 56.7531 212.792 56.5238 212.396C56.2945 211.999 56.1616 211.555 56.136 211.098V183.462C56.1617 183.004 56.2945 182.559 56.5238 182.162C56.753 181.765 57.0723 181.427 57.456 181.176L147.402 129.198C147.81 128.991 148.261 128.883 148.719 128.883C149.177 128.883 149.628 128.991 150.036 129.198L150.492 129.462C150.877 129.712 151.197 130.049 151.427 130.446C151.656 130.844 151.788 131.29 151.812 131.748V159.384C151.788 159.841 151.655 160.286 151.426 160.683C151.197 161.079 150.877 161.415 150.492 161.664L60.552 213.642C60.1428 213.849 59.6906 213.957 59.232 213.957C58.7734 213.957 58.3212 213.849 57.912 213.642V213.642Z" fill="#EBEBEB"/>
<path d="M151.8 131.532C151.71 130.848 151.158 130.602 150.492 130.98L60.546 182.964C60.1597 183.208 59.8401 183.544 59.616 183.942L56.526 182.142C56.7535 181.754 57.0755 181.43 57.462 181.2L147.402 129.222C147.81 129.015 148.261 128.907 148.719 128.907C149.177 128.907 149.628 129.015 150.036 129.222L150.492 129.486C150.843 129.714 151.141 130.015 151.367 130.368C151.592 130.721 151.74 131.118 151.8 131.532Z" fill="#FAFAFA"/>
<path d="M60.324 213.744C59.9396 213.898 59.5268 213.969 59.113 213.951C58.6992 213.933 58.2939 213.828 57.924 213.642L57.456 213.378C57.0742 213.126 56.757 212.788 56.5298 212.391C56.3026 211.994 56.1718 211.549 56.148 211.092V183.462C56.1611 183.004 56.2934 182.557 56.532 182.166L59.622 183.966C59.3873 184.361 59.2534 184.809 59.232 185.268V212.91C59.226 213.636 59.706 213.99 60.324 213.744Z" fill="#E0E0E0"/>
<path d="M73.266 181.11C78.396 178.146 82.554 180.45 82.554 186.258C82.554 192.066 78.39 199.122 73.254 202.02C68.118 204.918 63.96 202.62 63.96 196.872C63.96 191.124 68.136 184.068 73.266 181.11Z" fill="#BA68C8"/>
<path d="M57.912 113.562L57.456 113.298C57.0723 113.047 56.753 112.709 56.5238 112.312C56.2945 111.915 56.1617 111.47 56.136 111.012V83.4C56.1616 82.943 56.2945 82.4985 56.5238 82.1024C56.7531 81.7063 57.0725 81.3698 57.456 81.12L147.402 29.118C147.81 28.9109 148.261 28.8029 148.719 28.8029C149.177 28.8029 149.628 28.9109 150.036 29.118L150.492 29.382C150.877 29.6307 151.197 29.967 151.426 30.3633C151.655 30.7596 151.788 31.2047 151.812 31.662V59.298C151.788 59.7561 151.656 60.202 151.426 60.5993C151.197 60.9966 150.877 61.334 150.492 61.584L60.552 113.562C60.1428 113.769 59.6906 113.877 59.232 113.877C58.7734 113.877 58.3212 113.769 57.912 113.562Z" fill="#EBEBEB"/>
<path d="M151.8 31.452C151.71 30.768 151.158 30.522 150.492 30.9L60.546 82.884C60.157 83.1245 59.8367 83.4614 59.616 83.862L56.526 82.062C56.7471 81.6581 57.0697 81.319 57.462 81.078L147.402 29.1C147.81 28.8929 148.261 28.7849 148.719 28.7849C149.177 28.7849 149.628 28.8929 150.036 29.1L150.492 29.364C150.848 29.597 151.149 29.9042 151.375 30.2647C151.601 30.6251 151.746 31.0302 151.8 31.452V31.452Z" fill="#FAFAFA"/>
<path d="M60.324 113.664C59.9396 113.818 59.5268 113.889 59.113 113.871C58.6993 113.853 58.294 113.748 57.924 113.562L57.456 113.298C57.0716 113.045 56.7522 112.706 56.5238 112.306C56.2955 111.907 56.1647 111.459 56.142 111V83.4C56.1549 82.94 56.2872 82.4913 56.526 82.098L59.616 83.898C59.3804 84.2931 59.2464 84.7404 59.226 85.2V112.8C59.226 113.556 59.706 113.904 60.324 113.664Z" fill="#E0E0E0"/>
<path d="M73.266 81.03C78.396 78.066 82.554 80.37 82.554 86.172C82.554 91.974 78.39 99.036 73.254 101.94C68.118 104.844 63.96 102.54 63.96 96.792C63.96 91.044 68.136 84 73.266 81.03Z" fill="#BA68C8"/>
<path d="M64.236 148.65L63.78 148.386C63.3954 148.136 63.0753 147.799 62.8459 147.401C62.6165 147.004 62.4842 146.558 62.46 146.1V118.464C62.4852 118.006 62.6178 117.561 62.8471 117.163C63.0765 116.766 63.396 116.429 63.78 116.178L153.72 64.2C154.129 63.9928 154.581 63.8848 155.04 63.8848C155.499 63.8848 155.951 63.9928 156.36 64.2L156.816 64.458C157.199 64.7094 157.518 65.0472 157.748 65.4442C157.977 65.8411 158.11 66.2863 158.136 66.744V94.38C158.11 94.8378 157.978 95.2831 157.748 95.6802C157.519 96.0773 157.2 96.4149 156.816 96.666L66.87 148.65C66.4619 148.857 66.0107 148.965 65.553 148.965C65.0953 148.965 64.6441 148.857 64.236 148.65V148.65Z" fill="#37474F"/>
<path d="M158.124 66.54C158.034 65.856 157.482 65.604 156.816 65.988L66.87 117.972C66.4806 118.214 66.1587 118.55 65.934 118.95L62.85 117.15C63.0703 116.746 63.3905 116.405 63.78 116.16L153.72 64.2C154.129 63.9928 154.581 63.8848 155.04 63.8848C155.499 63.8848 155.951 63.9928 156.36 64.2L156.816 64.458C157.171 64.6909 157.471 64.9974 157.697 65.3566C157.922 65.7159 158.068 66.1195 158.124 66.54Z" fill="#455A64"/>
<path d="M66.648 148.752C66.2634 148.905 65.8507 148.975 65.4371 148.958C65.0234 148.94 64.6182 148.835 64.248 148.65L63.786 148.386C63.4031 148.135 63.0847 147.797 62.8565 147.4C62.6282 147.003 62.4965 146.557 62.472 146.1V118.464C62.488 118.006 62.6223 117.559 62.862 117.168L65.946 118.968C65.7123 119.361 65.5803 119.807 65.562 120.264V147.906C65.55 148.638 66 148.992 66.648 148.752Z" fill="#263238"/>
<path d="M79.59 116.112C84.72 113.154 88.878 115.458 88.878 121.26C88.878 127.062 84.714 134.124 79.578 137.028C74.442 139.932 70.278 137.628 70.284 131.88C70.29 126.132 74.46 119.076 79.59 116.112Z" fill="#F5F5F5"/>
<path d="M79.8 132.81C79.6377 132.933 79.4419 133.004 79.2384 133.014C79.0348 133.024 78.8332 132.971 78.66 132.864L74.58 129.78C74.034 129.366 74.1 128.232 74.73 127.236C75.36 126.24 76.314 125.772 76.854 126.186L79.698 128.34L87.6 111.366C88.092 110.304 89.034 109.566 89.706 109.776C90.378 109.986 90.522 110.976 90.024 112.02L81 131.4C80.7504 131.957 80.3491 132.434 79.842 132.774L79.8 132.81Z" fill="#BA68C8"/>
<path d="M158.112 107.58L155.502 106.074C154.368 105.426 152.982 106.074 152.25 106.518L150.6 105.6C148.626 104.4 145.878 106.902 145.266 107.496L144.558 107.094C142.464 105.834 138.654 109.212 138.654 109.212V96.6L140.31 95.802L137.676 94.278C137.299 94.1105 136.884 94.0451 136.473 94.0883C136.062 94.1314 135.67 94.2817 135.336 94.524C134.361 95.1586 133.55 96.0142 132.968 97.0213C132.387 98.0284 132.051 99.1586 131.988 100.32V129.462C129.588 127.662 127.02 126.582 124.788 126.984C123.01 127.4 121.454 128.471 120.432 129.984C119.328 131.94 121.152 133.164 123.504 135.852C125.856 138.54 127.896 141.732 130.02 143.712C131.068 144.774 132.313 145.622 133.686 146.208V150L136.266 151.494L153.354 138.648V134.85C153.354 134.85 155.79 125.118 156.57 121.05C157.32 117.138 158.01 110.892 156.72 107.652L158.118 107.556L158.112 107.58Z" fill="#BA68C8"/>
<path opacity="0.4" d="M158.112 107.58L155.502 106.074C154.368 105.426 152.982 106.074 152.25 106.518L150.6 105.6C148.626 104.4 145.878 106.902 145.266 107.496L144.558 107.094C142.464 105.834 138.654 109.212 138.654 109.212V96.6L140.31 95.802L137.676 94.278C137.299 94.1105 136.884 94.0451 136.473 94.0883C136.062 94.1314 135.67 94.2817 135.336 94.524C134.361 95.1586 133.55 96.0142 132.968 97.0213C132.387 98.0284 132.051 99.1586 131.988 100.32V129.462C129.588 127.662 127.02 126.582 124.788 126.984C123.01 127.4 121.454 128.471 120.432 129.984C119.328 131.94 121.152 133.164 123.504 135.852C125.856 138.54 127.896 141.732 130.02 143.712C131.068 144.774 132.313 145.622 133.686 146.208V150L136.266 151.494L153.354 138.648V134.85C153.354 134.85 155.79 125.118 156.57 121.05C157.32 117.138 158.01 110.892 156.72 107.652L158.118 107.556L158.112 107.58Z" fill="white"/>
<path d="M138.846 141.072L125.922 133.614L120.264 130.344C119.544 132.108 121.29 133.344 123.498 135.87C125.832 138.54 127.89 141.75 130.014 143.73C131.062 144.792 132.308 145.64 133.68 146.226V150L136.26 151.494L140.034 148.656C139.548 145.452 138.846 141.072 138.846 141.072Z" fill="#BA68C8"/>
<path d="M134.574 101.826L131.994 100.332V130.902L134.574 130.968V101.826Z" fill="#BA68C8"/>
<path d="M154.848 109.542L156.852 108.066C156.804 107.934 156.768 107.802 156.714 107.676L157.446 107.628L155.838 107.556L153.156 106.074C152.843 106.2 152.54 106.35 152.25 106.524L153.09 107.01L154.848 109.542Z" fill="#BA68C8"/>
<path d="M147.75 109.104L149.628 107.676L147.036 106.104C146.41 106.506 145.826 106.968 145.29 107.484L147.09 108.528L147.75 109.104Z" fill="#BA68C8"/>
<path d="M143.826 108.966L141.258 107.466L141.27 107.442V110.688L144.258 109.596L143.826 108.966Z" fill="#BA68C8"/>
<g opacity="0.15">
<path opacity="0.15" d="M138.846 141.072L125.922 133.614L120.264 130.344C119.544 132.108 121.29 133.344 123.498 135.87C125.832 138.54 127.89 141.75 130.014 143.73C131.062 144.792 132.308 145.64 133.68 146.226V150L136.26 151.494L140.034 148.656C139.548 145.452 138.846 141.072 138.846 141.072Z" fill="black"/>
<path opacity="0.15" d="M134.574 101.826L131.994 100.332V130.902L134.574 130.968V101.826Z" fill="black"/>
<path opacity="0.15" d="M154.848 109.542L156.852 108.066C156.804 107.934 156.768 107.802 156.714 107.676L157.446 107.628L155.838 107.556L153.156 106.074C152.843 106.2 152.54 106.35 152.25 106.524L153.09 107.01L154.848 109.542Z" fill="black"/>
<path opacity="0.15" d="M147.75 109.104L149.628 107.676L147.036 106.104C146.41 106.506 145.826 106.968 145.29 107.484L147.09 108.528L147.75 109.104Z" fill="black"/>
<path opacity="0.15" d="M143.826 108.966L141.258 107.466L141.27 107.442V110.688L144.258 109.596L143.826 108.966Z" fill="black"/>
</g>
<path d="M136.26 151.518V147.72C134.888 147.126 133.645 146.27 132.6 145.2C130.476 143.22 128.4 140.004 126.084 137.34C123.768 134.676 121.884 133.422 123.012 131.472C124.034 129.959 125.59 128.888 127.368 128.472C129.612 128.07 132.168 129.168 134.568 130.95V101.826C134.63 100.665 134.965 99.5353 135.546 98.5283C136.126 97.5212 136.936 96.6653 137.91 96.03V96.03C139.758 94.962 141.258 95.826 141.258 97.962V110.688C141.258 110.688 145.872 106.596 147.732 109.104C147.732 109.104 152.268 104.358 154.332 108.366C154.332 108.366 157.656 105.684 159.132 108.798C160.608 111.912 159.912 118.5 159.132 122.568C158.352 126.636 155.91 136.368 155.91 136.368V140.166L136.26 151.518Z" fill="#BA68C8"/>
<path d="M141.27 116.154C141.27 116.154 141.69 110.346 143.826 108.954H143.748C142.864 109.431 142.033 110 141.27 110.652V110.544C141.262 110.561 141.258 110.579 141.258 110.598C141.258 110.617 141.262 110.635 141.27 110.652V116.154Z" fill="#455A64"/>
<path d="M147.75 109.104V114.42C147.75 114.42 148.35 108.954 149.55 107.634C148.898 108.057 148.294 108.549 147.75 109.104V109.104Z" fill="#455A64"/>
<path d="M154.326 108.366V113.7C154.326 113.7 154.65 108.33 155.808 107.538C155.276 107.74 154.777 108.019 154.326 108.366Z" fill="#455A64"/>
<path d="M135.324 90.864C134.904 91.104 134.568 90.966 134.568 90.546V86.346C134.59 86.1005 134.67 85.8637 134.802 85.6551C134.933 85.4465 135.112 85.2721 135.324 85.146V85.146C135.738 84.906 136.074 85.05 136.074 85.464V89.664C136.053 89.9091 135.974 90.1457 135.844 90.3543C135.713 90.563 135.535 90.7376 135.324 90.864V90.864Z" fill="#EBEBEB"/>
<path d="M129 97.518C128.706 98.022 128.232 98.298 127.938 98.118L125.496 96.708C125.202 96.54 125.202 95.988 125.496 95.508C125.79 94.998 126.264 94.722 126.558 94.908L129 96.318C129.318 96.456 129.318 97.008 129 97.518Z" fill="#EBEBEB"/>
<path d="M126.414 106.236V106.356C126.388 106.617 126.302 106.868 126.161 107.089C126.02 107.31 125.829 107.494 125.604 107.628L122.268 109.554C121.824 109.812 121.458 109.662 121.458 109.212V109.092C121.485 108.832 121.572 108.581 121.713 108.36C121.853 108.14 122.044 107.955 122.268 107.82L125.604 105.894C126.054 105.636 126.414 105.786 126.414 106.236Z" fill="#EBEBEB"/>
<path d="M144.228 96.072V95.952C144.253 95.6902 144.339 95.438 144.48 95.2159C144.621 94.9938 144.812 94.8081 145.038 94.674L148.374 92.748C148.818 92.49 149.184 92.646 149.184 93.09V93.21C149.157 93.4703 149.07 93.7208 148.929 93.9416C148.789 94.1624 148.598 94.3474 148.374 94.482L145.038 96.408C144.6 96.666 144.228 96.516 144.228 96.072Z" fill="#EBEBEB"/>
<path d="M141.6 90.24C141.306 90.072 141.306 89.526 141.6 89.04L144.042 84.84C144.336 84.33 144.81 84.054 145.104 84.24C145.398 84.414 145.398 84.96 145.104 85.47L142.662 89.67C142.392 90.138 141.912 90.414 141.6 90.24Z" fill="#EBEBEB"/>
<path d="M236.532 189.132V188.448C236.262 189.246 235.014 192.696 233.124 194.448C231.618 195.822 229.56 197.406 229.038 198.936C228.516 200.466 231.9 201.066 233.304 200.82C234.942 200.526 237.054 199.62 238.206 198.186C239.016 197.19 239.532 196.014 240.108 195.228C240.684 194.442 242.016 193.578 242.334 192.672C242.502 192.174 242.298 191.082 242.058 190.164C241.818 189.246 241.596 188.394 241.308 188.472V189C240.624 189.535 239.776 189.819 238.908 189.804C238.2 189.804 236.526 189.66 236.532 189.132Z" fill="#263238"/>
<path d="M231.756 195.63C232.224 195.216 232.698 194.808 233.124 194.43C234.444 193.23 235.452 191.178 236.034 189.78C236.363 188.983 236.532 188.128 236.532 187.266V184.548H241.332V188.976V189.096C241.104 190.086 238.932 192.696 237.666 194.448C236.832 195.6 235.266 197.064 233.352 197.322C231.51 197.562 230.592 196.992 231.756 195.63Z" fill="#FFA8A7"/>
<path d="M217.914 184.422V183.738C217.644 184.542 216.39 187.992 214.5 189.738C212.994 191.112 210.936 192.702 210.414 194.232C209.892 195.762 213.276 196.362 214.68 196.11C216.318 195.822 218.43 194.91 219.582 193.482C220.392 192.486 220.908 191.304 221.484 190.524C222.06 189.744 223.398 188.868 223.71 187.962C223.878 187.464 223.674 186.378 223.434 185.46C223.194 184.542 222.972 183.66 222.684 183.762V184.284C222.001 184.822 221.153 185.109 220.284 185.094C219.6 185.094 217.908 184.956 217.914 184.422Z" fill="#263238"/>
<path d="M213.138 190.926C213.6 190.506 214.074 190.104 214.5 189.726C215.82 188.526 216.828 186.468 217.41 185.07C217.741 184.275 217.913 183.423 217.914 182.562V179.838H222.684V184.266V184.386C222.456 185.382 220.284 188.016 219.018 189.738C218.184 190.89 216.618 192.36 214.704 192.612C212.886 192.852 211.968 192.288 213.138 190.926Z" fill="#FFA8A7"/>
<path d="M240.36 114.93C244.062 123.012 240.222 151.494 240.222 151.494C240.336 152.802 241.836 155.388 242.394 161.16C243.054 167.982 241.356 185.112 241.356 185.112C240.631 185.531 239.816 185.767 238.98 185.801C238.143 185.834 237.312 185.664 236.556 185.304C236.556 185.304 232.008 159.504 231.156 152.724C230.4 146.802 228.948 133.8 228.948 133.8L224.874 152.7C225.468 154.608 225.9 156.563 226.164 158.544C226.554 162.534 222.684 181.11 222.684 181.11C222.684 181.11 221.04 181.71 217.914 181.254C217.914 181.254 216.546 156.6 216.186 151.794C215.586 143.724 217.722 118.536 219.186 113.76L240.36 114.93Z" fill="#37474F"/>
<path d="M228.948 133.8L227.748 126.288C227.748 126.288 222.66 125.238 220.356 123.066C221.944 124.932 224.022 126.316 226.356 127.062L227.706 132.846L225.348 150.348L228.948 133.8Z" fill="#263238"/>
<path d="M225.93 86.622C224.769 86.5222 223.602 86.72 222.538 87.1966C221.475 87.6732 220.55 88.4129 219.852 89.346C217.944 91.842 210.63 101.346 210.63 101.346C210.63 101.346 199.83 95.946 199.32 95.31C198.81 94.674 199.092 93.378 199.236 92.67C199.38 91.962 199.626 90.372 199.782 89.928C200.058 89.154 198.912 89.364 198.234 90.09C197.556 90.816 197.262 92.232 196.92 92.49C196.578 92.748 194.022 89.784 192.774 88.362C191.526 86.94 190.974 85.962 190.116 86.532C189.516 86.952 189.9 87.798 190.794 89.016C191.21 89.5323 191.595 90.0733 191.946 90.636C192.048 90.852 191.724 91.026 191.592 91.146C191.352 91.362 190.92 91.746 190.89 92.052C190.896 92.2367 190.884 92.4216 190.854 92.604C190.74 93.012 190.254 93.204 190.098 93.6C189.996 93.882 190.098 94.2 190.05 94.506C190.014 94.698 189.906 94.872 189.87 95.07C189.858 95.2627 189.887 95.4558 189.957 95.636C190.026 95.8162 190.134 95.9793 190.272 96.114C191.142 97.158 192.336 97.554 193.482 98.19C194.436 98.718 195.42 98.946 196.518 99.432C197.616 99.918 210.348 108.75 212.364 107.634C214.38 106.518 224.784 94.434 224.784 94.434C227.784 89.448 225.93 86.622 225.93 86.622Z" fill="#FFA8A7"/>
<path d="M233.832 86.844C238.572 87.174 238.908 89.466 240.096 91.968C240.965 93.9009 241.045 96.0971 240.318 98.088L237 107.652C237 107.652 238.548 111.396 240.348 114.93C232.05 119.562 221.688 117.126 219.192 113.73C219.084 113.01 219.726 107.406 220.122 103.746C218.658 100.08 218.274 97.746 218.892 95.346C220.038 90.846 224.478 86.466 226.446 86.622L233.832 86.844Z" fill="#F5F5F5"/>
<path d="M229.266 82.914H231.108C232.383 82.914 233.646 82.6626 234.824 82.1743C236.001 81.686 237.072 80.9703 237.973 80.0681C238.874 79.1659 239.588 78.095 240.075 76.9165C240.562 75.738 240.812 74.4751 240.81 73.2V73.2C240.808 70.6136 239.78 68.1337 237.95 66.3053C236.121 64.477 233.64 63.45 231.054 63.45H229.32C226.739 63.4579 224.267 64.4887 222.445 66.3163C220.623 68.1439 219.6 70.6193 219.6 73.2C219.595 75.7695 220.611 78.2358 222.423 80.0571C224.235 81.8785 226.697 82.9061 229.266 82.914V82.914Z" fill="#263238"/>
<path d="M246 88.026C244.481 88.0244 243.024 87.4202 241.95 86.346C240.876 85.2717 240.272 83.8152 240.27 82.296V70.02C241.023 70.02 241.769 70.1684 242.464 70.4567C243.16 70.7451 243.792 71.1677 244.324 71.7004C244.856 72.2331 245.278 72.8655 245.566 73.5614C245.853 74.2573 246.001 75.003 246 75.756V88.026Z" fill="#263238"/>
<path d="M241.32 67.848L239.886 70.152C240.032 70.2542 240.198 70.3256 240.373 70.362C240.548 70.3984 240.728 70.3989 240.903 70.3635C241.078 70.3282 241.244 70.2577 241.391 70.1564C241.538 70.0551 241.663 69.925 241.758 69.774C241.946 69.458 242.005 69.082 241.923 68.7236C241.842 68.3652 241.626 68.0517 241.32 67.848V67.848Z" fill="#263238"/>
<path d="M223.056 67.758C221.934 68.418 220.548 71.238 220.686 77.154C220.8 82.17 222.426 83.406 223.242 83.754C224.058 84.102 225.642 83.892 227.16 83.634V86.634C227.16 86.634 225.048 89.088 225.18 90.468C225.312 91.848 228.234 92.172 230.214 90.828C231.495 89.9023 232.595 88.7492 233.46 87.426V80.178C233.62 80.3753 233.818 80.5387 234.042 80.6587C234.266 80.7787 234.512 80.8528 234.765 80.8768C235.018 80.9009 235.273 80.8742 235.516 80.7985C235.758 80.7229 235.984 80.5996 236.178 80.436C237.87 79.314 237.936 76.536 236.952 75.54C235.968 74.544 233.85 74.862 233.46 76.236C233.46 76.236 231.018 76.326 227.772 74.544C226.508 73.8633 225.422 72.894 224.602 71.715C223.783 70.5359 223.253 69.1802 223.056 67.758Z" fill="#FFA8A7"/>
<path d="M226.842 75.894C226.836 76.0181 226.867 76.1412 226.931 76.2477C226.996 76.3542 227.09 76.4393 227.202 76.4925C227.314 76.5456 227.44 76.5643 227.563 76.5462C227.686 76.5282 227.801 76.4742 227.893 76.391C227.985 76.3078 228.051 76.1992 228.082 76.0788C228.112 75.9584 228.107 75.8315 228.066 75.7143C228.025 75.597 227.95 75.4946 227.85 75.4198C227.751 75.345 227.632 75.3012 227.508 75.294C227.341 75.2904 227.18 75.3504 227.056 75.4619C226.932 75.5734 226.856 75.728 226.842 75.894V75.894Z" fill="#263238"/>
<path d="M226.116 80.148L224.652 80.61C224.678 80.7077 224.724 80.7992 224.786 80.879C224.848 80.9588 224.926 81.0253 225.014 81.0745C225.103 81.1238 225.2 81.1548 225.301 81.1657C225.401 81.1766 225.503 81.1672 225.6 81.138C225.797 81.0719 225.962 80.9318 226.058 80.7472C226.154 80.5625 226.175 80.3477 226.116 80.148Z" fill="#F28F8F"/>
<path d="M221.676 73.962L222.948 73.074C222.895 72.9885 222.824 72.9148 222.741 72.8573C222.659 72.7999 222.565 72.7598 222.466 72.7396C222.368 72.7194 222.266 72.7195 222.167 72.7398C222.068 72.7602 221.975 72.8004 221.892 72.858C221.721 72.9792 221.604 73.1613 221.563 73.3668C221.523 73.5723 221.563 73.7854 221.676 73.962V73.962Z" fill="#263238"/>
<path d="M222 75.438C221.993 75.5225 222.004 75.6075 222.031 75.6879C222.057 75.7683 222.1 75.8426 222.156 75.9063C222.212 75.97 222.28 76.0219 222.356 76.059C222.432 76.096 222.515 76.1175 222.6 76.122C222.73 76.1326 222.86 76.1042 222.973 76.0404C223.087 75.9767 223.179 75.8804 223.237 75.7641C223.296 75.6477 223.318 75.5165 223.302 75.3873C223.285 75.2581 223.231 75.1368 223.145 75.0389C223.059 74.941 222.946 74.8709 222.82 74.8377C222.694 74.8046 222.561 74.8097 222.438 74.8526C222.315 74.8955 222.208 74.9741 222.13 75.0784C222.051 75.1827 222.006 75.3079 222 75.438Z" fill="#263238"/>
<path d="M225.048 75.078L224.946 78.876L222.948 78.258L225.048 75.078Z" fill="#F28F8F"/>
<path d="M227.16 83.646C228.774 83.436 232.092 82.482 232.608 81.174C232.399 81.8374 231.993 82.4213 231.444 82.848C230.454 83.694 227.16 84.648 227.16 84.648V83.646Z" fill="#F28F8F"/>
<path opacity="0.1" d="M231.708 115.83C232.358 115.68 232.972 115.402 233.513 115.012C234.055 114.622 234.512 114.128 234.86 113.558C235.208 112.988 235.438 112.355 235.538 111.696C235.637 111.036 235.604 110.363 235.44 109.716C235.344 109.322 235.117 108.971 234.797 108.722C234.477 108.472 234.082 108.339 233.676 108.342V108.342C234.209 107.989 234.666 107.534 235.022 107.004C235.379 106.474 235.627 105.878 235.752 105.252L236.76 99.252C236.882 98.2747 236.794 97.2826 236.502 96.342L239.838 92.484L240.438 92.91C240.945 94.6046 240.896 96.4168 240.3 98.082L237 107.652C237 107.652 238.548 111.396 240.348 114.93C237.65 116.385 234.672 117.245 231.613 117.452C228.555 117.659 225.487 117.208 222.618 116.13C225.64 116.604 228.724 116.502 231.708 115.83V115.83Z" fill="black"/>
<path d="M248.85 110.658C244.542 93.048 241.356 87.174 236.124 87.258C234.594 89.058 235.02 94.602 237.432 97.95C237.432 97.95 242.832 109.308 243.678 113.346C244.428 116.892 245.286 121.356 245.232 124.404C245.215 124.945 245.002 125.461 244.632 125.856C243.648 126.924 243.648 127.782 243.006 128.958C242.508 129.882 241.962 130.23 242.118 130.434C242.324 130.653 242.605 130.788 242.905 130.81C243.205 130.832 243.502 130.741 243.738 130.554C244.192 130.211 244.595 129.808 244.938 129.354C244.768 130.484 244.441 131.585 243.966 132.624C242.862 135.114 243.132 136.386 246.492 135.498C248.598 134.94 249.924 133.188 250.242 128.118C250.394 126.254 250.412 124.381 250.296 122.514C249.87 117.714 249.546 113.49 248.85 110.658Z" fill="#FFA8A7"/>
<path d="M206.106 161.004C206.568 143.862 205.194 139.758 200.634 136.62L198.864 146.55C198.864 146.55 200.94 158.25 200.718 162.15C200.526 165.576 200.19 169.86 199.38 172.626C199.237 173.125 198.915 173.552 198.474 173.826C197.31 174.552 196.842 175.296 195.966 176.226C195.282 176.946 194.7 177.12 194.766 177.348C194.898 177.6 195.121 177.792 195.388 177.888C195.656 177.984 195.95 177.975 196.212 177.864C196.792 177.63 197.344 177.33 197.856 176.97C197.454 178.021 196.884 178.999 196.17 179.868C194.538 181.866 194.466 183.096 197.76 183.126C199.818 183.126 201.462 181.872 203.016 177.33C203.619 175.664 204.102 173.958 204.462 172.224C205.278 167.694 206.034 163.764 206.106 161.004Z" fill="#B16668"/>
<path d="M196.8 135.318C198.978 135 201.936 135.456 203.85 138.876C205.764 142.296 206.25 148.182 206.448 154.032C206.448 154.032 202.65 157.206 198.09 155.646L196.8 135.318Z" fill="#BA68C8"/>
<path opacity="0.1" d="M196.8 135.318C198.978 135 201.936 135.456 203.85 138.876C205.764 142.296 206.25 148.182 206.448 154.032C206.448 154.032 202.65 157.206 198.09 155.646L196.8 135.318Z" fill="black"/>
<path d="M203.202 229.584C203.544 229.716 203.634 230.376 203.688 231.684C203.724 232.674 203.94 234.408 202.776 234.75C201.612 235.092 199.914 234.918 199.176 233.988C198.246 232.788 197.622 231.792 196.296 230.388C195.144 229.152 193.896 227.988 193.44 226.272C193.02 224.706 193.368 224.028 194.436 223.572C195.9 222.972 198.21 224.994 199.356 225.312C200.34 225.6 202.854 229.452 203.202 229.584Z" fill="#263238"/>
<path d="M203.202 228.372V229.98C202.598 230.366 201.9 230.58 201.183 230.6C200.466 230.619 199.758 230.442 199.134 230.088C199.068 229.932 198.714 227.79 198.714 227.79L203.202 228.372Z" fill="#B16668"/>
<path d="M190.2 238.854C190.481 239.715 190.717 240.591 190.908 241.476C191.106 242.448 191.388 244.074 191.052 244.806C190.716 245.538 189.384 246.006 187.32 246.006C185.988 246.006 183.912 246.9 182.49 247.692C181.068 248.484 177.96 248.838 176.406 248.658C174.576 248.442 172.68 247.38 172.38 246.618C172.08 245.856 172.476 245.076 176.796 243.234C176.838 243.234 182.796 241.278 184.884 238.974L190.2 238.854Z" fill="#263238"/>
<path d="M190.2 237.114C190.2 237.114 190.2 238.314 190.2 238.992C190.2 239.67 189.402 240.69 187.314 240.612C185.85 240.564 184.83 240.168 184.914 238.962V237.222L190.2 237.114Z" fill="#B16668"/>
<path d="M204.246 207.03C203.89 204.175 203.255 201.361 202.35 198.63C202.35 198.63 202.92 191.43 203.196 184.554C203.496 177.15 203.196 167.85 203.322 166.002C203.322 166.002 179.442 161.202 179.016 169.722C178.59 178.242 179.958 200.058 180.216 203.814C180.474 207.57 181.146 210.9 181.926 217.014C182.706 223.128 184.836 237.222 184.836 237.222C185.663 237.642 186.58 237.853 187.508 237.834C188.435 237.815 189.343 237.568 190.152 237.114C190.152 237.114 191.832 220.008 191.658 215.67C191.522 212.458 190.97 209.277 190.014 206.208C190.014 206.208 190.464 199.152 190.866 193.008C191.268 186.864 191.688 183.924 191.778 181.26L192.294 181.002C192.294 181.002 192.816 191.586 193.098 195.348C193.38 199.11 193.98 202.71 195.066 209.688C196.014 215.748 198.822 228.558 198.822 228.558C201.546 230.034 203.178 228.366 203.178 228.366C203.178 228.366 204.984 212.286 204.246 207.03Z" fill="#37474F"/>
<path d="M191.802 181.266C191.802 181.266 197.598 178.41 200.496 175.836C200.496 175.836 197.802 179.628 194.268 181.308C194.268 181.308 193.014 194.46 193.02 194.196L192.294 181.242L191.802 181.266Z" fill="#263238"/>
<path d="M186.648 132.606L188.064 140.382L195.084 139.872L193.614 131.052L186.648 132.606Z" fill="#B16668"/>
<path d="M202.506 139.302C201.81 137.19 199.128 134.886 196.446 135.384C192.457 136.062 188.526 137.042 184.686 138.318C182.226 139.2 179.988 141.318 179.784 149.406C179.784 149.406 178.962 168.258 178.95 171.9C185.118 174.342 191.55 174.27 195.084 173.496C202.476 171.882 203.364 168.816 203.364 168.816C203.364 168.816 203.46 155.262 203.238 149.406C203.052 144.432 202.986 140.754 202.506 139.302Z" fill="#BA68C8"/>
<path d="M181.23 123.144C181.23 123.144 179.43 125.988 179.664 126.258C179.898 126.528 181.242 126.744 181.242 126.744L181.23 123.144Z" fill="#B16668"/>
<path d="M186.174 115.29C182.46 116.16 181.422 117.822 181.2 123.762C180.972 129.966 181.65 131.898 182.484 132.714C183.042 133.266 186.084 133.314 187.632 132.84C189.546 132.24 193.872 130.62 195.84 127.44C198.156 123.72 198.678 118.74 196.062 116.754C192.378 114 187.686 114.93 186.174 115.29Z" fill="#B16668"/>
<path d="M186.726 133.032C187.986 132.018 187.872 131.364 187.872 131.364C186.972 132.21 183.624 132.93 182.472 132.714C182.946 133.2 185.124 133.272 186.726 133.032Z" fill="#9A4A4D"/>
<path d="M181.242 116.832C182.334 118.698 184.698 119.592 184.698 119.592C185.412 120.402 185.016 123.57 186.27 124.068C186.27 124.068 186.81 121.764 188.748 122.01C190.686 122.256 191.016 124.728 189.822 126.258C188.628 127.788 187.482 127.242 187.482 127.242C187.482 127.242 187.614 130.512 189.108 132.336C189.108 132.336 190.77 132.834 193.788 132.114C195.648 131.676 198.234 129.282 199.284 126.792C201.516 121.512 201.57 116.808 198.204 115.476C197.79 113.076 195.87 112.038 193.698 111.588C189.024 110.628 186.012 113.544 182.412 113.292C180.348 113.148 179.964 114.642 181.242 116.832Z" fill="#263238"/>
<path d="M198.282 116.28L200.484 114.912C200.303 114.62 200.013 114.412 199.678 114.334C199.343 114.256 198.991 114.314 198.699 114.495C198.407 114.676 198.199 114.966 198.121 115.301C198.043 115.636 198.101 115.988 198.282 116.28V116.28Z" fill="#263238"/>
<path d="M184.878 138.288C184.878 138.288 181.386 138.936 179.562 141.696C177.738 144.456 169.842 154.356 169.842 154.356C169.842 154.356 158.49 148.674 157.932 147.996C157.374 147.318 157.686 145.962 157.842 145.212C157.998 144.462 158.25 142.812 158.442 142.332C158.73 141.51 157.524 141.732 156.81 142.494C156.096 143.256 155.784 144.75 155.43 145.008C155.076 145.266 152.37 142.158 151.062 140.658C149.754 139.158 149.136 138.108 148.254 138.726C147.624 139.176 148.032 140.064 148.968 141.348C149.408 141.886 149.809 142.456 150.168 143.052C150.282 143.28 149.934 143.466 149.802 143.586C149.544 143.814 149.094 144.186 149.058 144.546C149.077 144.746 149.077 144.946 149.058 145.146C148.932 145.572 148.404 145.746 148.254 146.19C148.146 146.496 148.254 146.832 148.206 147.15C148.164 147.354 148.056 147.534 148.014 147.75C148.002 147.954 148.034 148.158 148.108 148.348C148.181 148.538 148.295 148.711 148.44 148.854C149.358 149.952 150.618 150.372 151.824 151.038C152.826 151.596 153.864 151.836 155.022 152.352C156.18 152.868 169.788 162.924 171.912 161.754C174.036 160.584 184.92 147.864 184.92 147.864C185.84 146.435 186.325 144.769 186.317 143.07C186.31 141.37 185.81 139.709 184.878 138.288Z" fill="#B16668"/>
<path d="M186.096 137.88C184.596 138.048 182.496 137.772 179.55 140.928C177.185 143.636 174.981 146.481 172.95 149.448C173.337 151.007 174.166 152.42 175.336 153.52C176.507 154.619 177.97 155.357 179.55 155.646C179.55 155.646 184.698 150.372 186.15 147.462C187.602 144.552 187.86 139.836 186.096 137.88Z" fill="#BA68C8"/>
<path opacity="0.1" d="M186.096 137.88C184.596 138.048 182.496 137.772 179.55 140.928C177.185 143.636 174.981 146.481 172.95 149.448C173.337 151.007 174.166 152.42 175.336 153.52C176.507 154.619 177.97 155.357 179.55 155.646C179.55 155.646 184.698 150.372 186.15 147.462C187.602 144.552 187.86 139.836 186.096 137.88Z" fill="black"/>
</svg>
