<svg width="300" height="300" viewBox="0 0 300 300" fill="none" xmlns="http://www.w3.org/2000/svg">
<path d="M270.072 173.904C270.072 173.904 264.672 172.104 262.08 184.596C259.488 197.088 259.08 203.958 259.08 203.958C259.08 203.958 258.228 206.652 256.242 205.584C254.256 204.516 250.938 200.85 248.472 202.35C245.91 203.904 245.844 207.252 247.62 211.662C249.396 216.072 252.924 225.876 253.236 226.764C253.548 227.652 253.398 229.086 251.928 228.564C250.458 228.042 241.182 222.072 238.602 226.65C236.022 231.228 242.988 242.694 243.726 243.96C244.464 245.226 244.356 245.886 243.798 246.402C243.24 246.918 240.312 244.602 237.6 243.024C234.888 241.446 231.474 240.06 230.208 242.82C228.942 245.58 230.892 255.084 243.924 267.828L250.344 273.336L258.408 270.642C275.31 263.838 280.74 255.798 280.608 252.762C280.476 249.726 276.804 249.69 273.696 250.128C270.588 250.566 266.994 251.58 266.676 250.89C266.358 250.2 266.508 249.552 267.672 248.658C268.836 247.764 279.672 239.814 279.012 234.606C278.352 229.398 267.516 231.384 265.962 231.3C264.408 231.216 264.822 229.812 265.446 229.128C266.07 228.444 273.078 220.728 276.396 217.308C279.714 213.888 280.932 210.786 279.162 208.374C277.392 205.962 272.982 208.17 270.762 208.404C268.542 208.638 268.8 205.8 268.8 205.8C268.8 205.8 271.068 199.284 273.432 186.768C275.796 174.252 269.976 173.85 269.976 173.85" fill="#EBEBEB"/>
<path d="M250.326 271.56C252.126 262.374 254.646 249.708 257.526 235.728C260.406 221.748 262.974 209.088 264.798 199.914C265.698 195.336 266.43 191.628 266.94 189.048C267.192 187.776 267.39 186.78 267.54 186.096C267.606 185.766 267.66 185.496 267.702 185.328C267.744 185.16 267.762 185.07 267.762 185.07C267.762 185.07 267.762 185.16 267.726 185.334L267.6 186.108C267.474 186.798 267.294 187.794 267.066 189.072C266.598 191.64 265.896 195.36 265.008 199.956C263.238 209.136 260.688 221.802 257.808 235.782C254.928 249.762 252.36 262.428 250.536 271.602" fill="#E0E0E0"/>
<path d="M252.93 207.66C253.074 207.809 253.197 207.976 253.296 208.158C253.512 208.482 253.812 208.968 254.178 209.568C254.904 210.768 255.87 212.46 256.896 214.368C257.922 216.276 258.804 217.896 259.5 219.198L260.298 220.656C260.407 220.83 260.497 221.015 260.568 221.208C260.427 221.059 260.304 220.894 260.202 220.716C259.98 220.386 259.68 219.9 259.32 219.294C258.606 218.094 257.664 216.384 256.638 214.494L254.004 209.694C253.686 209.124 253.404 208.638 253.2 208.236C253.086 208.056 252.996 207.862 252.93 207.66V207.66Z" fill="#E0E0E0"/>
<path d="M261.354 221.124C261.312 221.052 264.702 218.916 268.926 216.324C273.15 213.732 276.6 211.746 276.654 211.8C276.708 211.854 273.306 214.002 269.076 216.6C264.846 219.198 261.396 221.19 261.354 221.124Z" fill="#E0E0E0"/>
<path d="M255.99 242.4C256.181 242.309 256.382 242.243 256.59 242.202L258.234 241.758C259.614 241.38 261.522 240.852 263.604 240.198C265.686 239.544 267.558 238.89 268.908 238.398L270.51 237.828C270.702 237.745 270.904 237.685 271.11 237.648C270.936 237.764 270.749 237.859 270.552 237.93C270.186 238.098 269.652 238.326 268.98 238.59C267.648 239.124 265.788 239.79 263.694 240.468C261.6 241.146 259.68 241.62 258.294 241.95C257.592 242.112 257.028 242.232 256.632 242.304C256.423 242.362 256.207 242.395 255.99 242.4V242.4Z" fill="#E0E0E0"/>
<path d="M245.688 231.894C245.853 231.997 246.004 232.12 246.138 232.26C246.414 232.512 246.804 232.86 247.284 233.334C248.244 234.252 249.552 235.53 250.986 236.934C252.42 238.338 253.71 239.658 254.628 240.612C255.09 241.086 255.462 241.476 255.714 241.752C255.853 241.885 255.976 242.034 256.08 242.196C255.913 242.096 255.762 241.973 255.63 241.83C255.354 241.584 254.964 241.23 254.484 240.756C253.53 239.844 252.216 238.56 250.782 237.156C249.348 235.752 248.058 234.426 247.14 233.472C246.678 232.998 246.306 232.608 246.06 232.338C245.918 232.206 245.793 232.057 245.688 231.894V231.894Z" fill="#E0E0E0"/>
<path d="M238.566 250.074C238.769 250.214 238.958 250.372 239.13 250.548L240.606 251.922C241.842 253.086 243.534 254.712 245.406 256.524C247.278 258.336 248.934 259.98 250.128 261.186L251.538 262.626C251.721 262.791 251.884 262.976 252.024 263.178C251.819 263.041 251.63 262.882 251.46 262.704L249.984 261.336C248.754 260.166 247.062 258.54 245.184 256.728C243.306 254.916 241.662 253.272 240.462 252.066L239.052 250.626C238.874 250.457 238.711 250.272 238.566 250.074Z" fill="#E0E0E0"/>
<path d="M251.778 262.8C252.017 262.687 252.266 262.596 252.522 262.53L254.58 261.894C256.314 261.354 258.714 260.598 261.336 259.692C263.958 258.786 266.31 257.892 268.014 257.292L270.03 256.53C270.272 256.426 270.523 256.343 270.78 256.284C270.555 256.424 270.318 256.542 270.072 256.638C269.604 256.848 268.932 257.136 268.086 257.484C266.406 258.18 264.06 259.092 261.426 259.992C258.792 260.892 256.392 261.624 254.634 262.116C253.758 262.356 253.044 262.548 252.552 262.662C252.299 262.733 252.04 262.779 251.778 262.8V262.8Z" fill="#E0E0E0"/>
<path d="M170.532 76.074H113.628V135.39H170.532V76.074Z" fill="#E0E0E0"/>
<path d="M166.68 76.074H109.776V135.39H166.68V76.074Z" fill="#EBEBEB"/>
<path d="M159.03 84.048H117.426V127.416H159.03V84.048Z" fill="#FAFAFA"/>
<path d="M117.426 127.704C117.121 128.138 116.773 128.54 116.388 128.904C115.716 129.6 114.78 130.548 113.736 131.58C112.692 132.612 111.726 133.53 111.024 134.184C110.659 134.563 110.257 134.905 109.824 135.204C110.123 134.768 110.469 134.365 110.856 134.004C111.522 133.308 112.464 132.36 113.514 131.322C114.564 130.284 115.524 129.366 116.226 128.712C116.592 128.338 116.994 128 117.426 127.704V127.704Z" fill="#E0E0E0"/>
<path d="M159.03 127.602C159.463 127.907 159.865 128.255 160.23 128.64C160.932 129.306 161.874 130.242 162.906 131.292C163.938 132.342 164.862 133.296 165.516 134.004C165.894 134.368 166.234 134.77 166.53 135.204C166.096 134.899 165.694 134.551 165.33 134.166C164.634 133.5 163.686 132.564 162.654 131.514C161.622 130.464 160.698 129.504 160.038 128.796C159.663 128.433 159.325 128.033 159.03 127.602V127.602Z" fill="#E0E0E0"/>
<path d="M158.916 84.162C159.221 83.7286 159.569 83.3267 159.954 82.962C160.62 82.266 161.556 81.318 162.606 80.286C163.656 79.254 164.61 78.336 165.318 77.676C165.684 77.2996 166.086 76.9599 166.518 76.662C166.216 77.0964 165.87 77.4985 165.486 77.862C164.814 78.558 163.878 79.506 162.828 80.538C161.778 81.57 160.818 82.5 160.11 83.154C159.75 83.5327 159.35 83.8708 158.916 84.162V84.162Z" fill="#E0E0E0"/>
<path d="M117.312 84.27C116.878 83.9655 116.476 83.6177 116.112 83.232C115.416 82.566 114.468 81.63 113.436 80.58C112.404 79.53 111.486 78.576 110.832 77.868C110.453 77.5042 110.113 77.1021 109.818 76.668C110.241 76.9724 110.633 77.3181 110.988 77.7C111.69 78.372 112.638 79.308 113.67 80.358C114.702 81.408 115.626 82.368 116.28 83.076C116.664 83.4378 117.01 83.8379 117.312 84.27V84.27Z" fill="#E0E0E0"/>
<path d="M158.916 127.416C158.916 127.416 158.916 127.344 158.916 127.206C158.916 127.068 158.916 126.864 158.916 126.606C158.916 126.066 158.916 125.28 158.916 124.266C158.916 122.214 158.916 119.226 158.88 115.428C158.88 107.838 158.838 97.008 158.808 84.048L158.946 84.186H117.456L117.612 84.03C117.612 99.948 117.612 114.84 117.612 127.398L117.48 127.266L147.528 127.332L155.964 127.368H158.196H158.97H158.784H158.226H156.018L147.618 127.404L117.486 127.476H117.348V127.338C117.348 114.78 117.348 99.888 117.348 83.97V83.814H117.504H158.994H159.132V83.952C159.132 96.948 159.078 107.808 159.06 115.422C159.06 119.208 159.03 122.184 159.024 124.224C159.024 125.232 159.024 126.024 159.024 126.54C159.024 126.792 159.024 126.984 159.024 127.14C159.024 127.296 158.916 127.416 158.916 127.416Z" fill="#E0E0E0"/>
<path d="M128.4 102.168C128.4 102.168 127.506 112.902 139.134 112.902C139.14 107.172 134.4 102.654 128.4 102.168Z" fill="#EBEBEB"/>
<path d="M149.682 102.174C149.682 102.174 138.948 101.286 138.948 112.914C144.678 112.914 149.202 108.186 149.682 102.174Z" fill="#EBEBEB"/>
<path d="M138.63 96.3C138.63 96.3 129.852 104.172 139.11 112.902C143.4 108.348 143.046 101.196 138.63 96.3Z" fill="#E0E0E0"/>
<path d="M81.096 36.39H32.844V86.688H81.096V36.39Z" fill="#E0E0E0"/>
<path d="M77.832 36.39H29.58V86.688H77.832V36.39Z" fill="#FAFAFA"/>
<path d="M77.844 86.7H29.562V36.372H77.844V86.7ZM29.592 86.67H77.814V36.402H29.592V86.67Z" fill="#E0E0E0"/>
<path d="M71.346 43.146H36.066V79.92H71.346V43.146Z" fill="#FAFAFA"/>
<path d="M36.066 80.166C35.8142 80.5349 35.5224 80.875 35.196 81.18C34.632 81.78 33.84 82.578 32.952 83.454C32.064 84.33 31.248 85.11 30.648 85.662C30.3417 85.9823 29.9994 86.2661 29.628 86.508C29.8746 86.1386 30.1646 85.8001 30.492 85.5C31.056 84.9 31.848 84.102 32.742 83.226C33.636 82.35 34.446 81.564 35.046 81.012C35.3524 80.6917 35.6946 80.4079 36.066 80.166V80.166Z" fill="#E0E0E0"/>
<path d="M71.34 80.076C71.7089 80.3278 72.049 80.6196 72.354 80.946C72.954 81.51 73.752 82.302 74.628 83.19C75.504 84.078 76.284 84.894 76.836 85.494C77.1563 85.8004 77.4401 86.1426 77.682 86.514C77.3126 86.2675 76.9741 85.9774 76.674 85.65C76.074 85.086 75.276 84.294 74.4 83.4C73.524 82.506 72.738 81.696 72.186 81.096C71.8657 80.7896 71.5819 80.4474 71.34 80.076V80.076Z" fill="#E0E0E0"/>
<path d="M71.244 43.248C71.4959 42.8791 71.7876 42.539 72.114 42.234C72.678 41.634 73.47 40.836 74.358 39.96C75.246 39.084 76.062 38.31 76.662 37.752C76.9684 37.4317 77.3106 37.1479 77.682 36.906C77.4299 37.2765 77.1337 37.6149 76.8 37.914C76.236 38.514 75.444 39.312 74.55 40.194C73.656 41.076 72.846 41.85 72.246 42.402C71.9453 42.7212 71.6091 43.005 71.244 43.248V43.248Z" fill="#E0E0E0"/>
<path d="M36 43.338C35.6292 43.0885 35.2889 42.7965 34.986 42.468C34.386 41.904 33.588 41.112 32.712 40.224C31.836 39.336 31.056 38.52 30.504 37.92C30.1821 37.6152 29.898 37.2727 29.658 36.9C30.0275 37.1465 30.3659 37.4366 30.666 37.764C31.266 38.328 32.064 39.12 32.94 40.014C33.816 40.908 34.602 41.718 35.154 42.324C35.4748 42.6276 35.7588 42.968 36 43.338V43.338Z" fill="#E0E0E0"/>
<path d="M71.244 79.926C71.244 79.926 71.244 79.86 71.244 79.746C71.244 79.632 71.244 79.452 71.244 79.23C71.244 78.774 71.244 78.108 71.244 77.244C71.244 75.504 71.244 72.972 71.208 69.75C71.208 63.312 71.166 54.15 71.142 43.146L71.274 43.284H36.096L36.252 43.128C36.252 56.628 36.252 69.258 36.252 79.908L36.12 79.77L61.59 79.842L68.748 79.878H70.638H71.13C71.1859 79.873 71.2421 79.873 71.298 79.878H70.698H68.832L61.71 79.914L36.15 79.98H36.012V79.848C36.012 69.198 36.012 56.568 36.012 43.068V42.912H36.168H71.346H71.4V43.044C71.4 54.072 71.346 63.276 71.334 69.738C71.334 72.942 71.334 75.468 71.298 77.202C71.298 78.054 71.298 78.708 71.298 79.158C71.298 79.374 71.298 79.536 71.298 79.656C71.2945 79.7483 71.2762 79.8394 71.244 79.926V79.926Z" fill="#E0E0E0"/>
<path d="M59.592 55.65H47.82V67.422H59.592V55.65Z" fill="#EBEBEB"/>
<path d="M249.222 127.122H222.84V154.626H249.222V127.122Z" fill="#E0E0E0"/>
<path d="M247.434 127.122H221.052V154.626H247.434V127.122Z" fill="#FAFAFA"/>
<path d="M247.446 154.632H221.046V127.116H247.446V154.632ZM221.046 154.632H247.41V127.128H221.064L221.046 154.632Z" fill="#E0E0E0"/>
<path d="M243.888 130.818H224.598V150.924H243.888V130.818Z" fill="#FAFAFA"/>
<path d="M224.598 151.062C224.463 151.265 224.304 151.45 224.124 151.614C223.818 151.938 223.386 152.382 222.924 152.856C222.462 153.33 221.994 153.762 221.664 154.056C221.496 154.232 221.309 154.389 221.106 154.524C221.239 154.32 221.398 154.134 221.58 153.972C221.886 153.648 222.318 153.204 222.81 152.724C223.302 152.244 223.74 151.818 224.07 151.524C224.228 151.35 224.405 151.195 224.598 151.062V151.062Z" fill="#E0E0E0"/>
<path d="M243.888 151.014C244.093 151.148 244.281 151.307 244.446 151.488C244.77 151.794 245.208 152.226 245.688 152.688C246.168 153.15 246.594 153.618 246.888 153.948C247.064 154.115 247.219 154.302 247.35 154.506C247.149 154.37 246.963 154.211 246.798 154.032C246.474 153.726 246.036 153.294 245.556 152.832C245.076 152.37 244.65 151.902 244.356 151.572C244.181 151.403 244.024 151.216 243.888 151.014V151.014Z" fill="#E0E0E0"/>
<path d="M243.84 130.872C243.975 130.669 244.134 130.484 244.314 130.32C244.62 129.996 245.058 129.552 245.514 129.078C245.97 128.604 246.45 128.172 246.774 127.878C246.941 127.701 247.129 127.544 247.332 127.41C247.199 127.614 247.04 127.8 246.858 127.962C246.552 128.286 246.12 128.73 245.658 129.21C245.196 129.69 244.722 130.116 244.392 130.41C244.225 130.583 244.04 130.738 243.84 130.872V130.872Z" fill="#E0E0E0"/>
<path d="M224.55 130.92C224.346 130.784 224.159 130.625 223.992 130.446C223.668 130.14 223.23 129.702 222.75 129.246C222.27 128.79 221.85 128.31 221.55 127.986C221.376 127.818 221.221 127.631 221.088 127.428C221.291 127.563 221.476 127.722 221.64 127.902C221.964 128.208 222.402 128.64 222.882 129.102C223.362 129.564 223.788 130.038 224.082 130.368C224.257 130.535 224.414 130.72 224.55 130.92V130.92Z" fill="#E0E0E0"/>
<path d="M243.84 150.93C243.834 150.896 243.834 150.862 243.84 150.828C243.84 150.762 243.84 150.666 243.84 150.546C243.84 150.294 243.84 149.946 243.84 149.466C243.84 148.512 243.84 147.126 243.84 145.362C243.84 141.846 243.84 136.824 243.798 130.818L243.876 130.896H224.598L224.688 130.812C224.688 138.192 224.688 145.098 224.688 150.918L224.61 150.846L238.542 150.888H242.454H242.484H238.59L224.61 150.93H224.538V150.852C224.538 145.032 224.538 138.126 224.538 130.746V130.662H224.628H243.864H243.936V130.8C243.936 136.83 243.936 141.864 243.9 145.392C243.9 147.15 243.9 148.53 243.9 149.478C243.9 149.94 243.9 150.3 243.9 150.546V150.912L243.84 150.93Z" fill="#E0E0E0"/>
<path d="M237.468 137.652H231.03V144.09H237.468V137.652Z" fill="#EBEBEB"/>
<path d="M140.82 28.458H114.438V55.962H140.82V28.458Z" fill="#E0E0E0"/>
<path d="M139.032 28.458H112.65V55.962H139.032V28.458Z" fill="#FAFAFA"/>
<path d="M139.038 55.968H112.638V28.446H139.038V55.968ZM112.638 55.968H139.038V28.464H112.638V55.968Z" fill="#E0E0E0"/>
<path d="M135.486 32.154H116.196V52.26H135.486V32.154Z" fill="#FAFAFA"/>
<path d="M116.196 52.398C116.061 52.6005 115.902 52.7859 115.722 52.95C115.41 53.274 114.978 53.712 114.492 54.192C114.006 54.672 113.562 55.098 113.232 55.392C113.065 55.568 112.878 55.7231 112.674 55.854C112.815 55.6576 112.973 55.4748 113.148 55.308C113.46 54.978 113.892 54.54 114.348 54.06C114.804 53.58 115.284 53.154 115.614 52.86C115.785 52.6792 115.981 52.5237 116.196 52.398V52.398Z" fill="#E0E0E0"/>
<path d="M135.486 52.344C135.687 52.4827 135.873 52.6437 136.038 52.824C136.362 53.13 136.806 53.562 137.28 54.024C137.754 54.486 138.186 54.954 138.48 55.284C138.659 55.4498 138.816 55.6372 138.948 55.842C138.745 55.707 138.56 55.5478 138.396 55.368C138.072 55.062 137.628 54.624 137.148 54.168C136.668 53.712 136.242 53.238 135.948 52.908C135.772 52.7395 135.617 52.5501 135.486 52.344V52.344Z" fill="#E0E0E0"/>
<path d="M135.432 32.208C135.571 32.0065 135.732 31.8214 135.912 31.656C136.218 31.326 136.65 30.888 137.112 30.408C137.574 29.928 138.042 29.508 138.372 29.208C138.539 29.032 138.726 28.8769 138.93 28.746C138.795 28.9486 138.636 29.1339 138.456 29.298C138.15 29.622 137.712 30.066 137.226 30.54C136.74 31.014 136.296 31.446 135.966 31.74C135.807 31.9166 135.628 32.0737 135.432 32.208V32.208Z" fill="#E0E0E0"/>
<path d="M116.142 32.256C115.939 32.121 115.754 31.9618 115.59 31.782C115.266 31.47 114.822 31.038 114.348 30.582C113.874 30.126 113.442 29.652 113.148 29.322C112.97 29.1557 112.813 28.9683 112.68 28.764C112.881 28.9015 113.066 29.0605 113.232 29.238C113.556 29.55 114 29.982 114.48 30.438C114.96 30.894 115.386 31.374 115.68 31.704C115.857 31.8675 116.012 32.053 116.142 32.256Z" fill="#E0E0E0"/>
<path d="M135.432 52.26V51.882C135.432 51.63 135.432 51.282 135.432 50.796C135.432 49.848 135.432 48.462 135.432 46.698C135.432 43.176 135.432 38.16 135.396 32.154L135.468 32.226H116.232L116.316 32.142C116.316 39.522 116.316 46.428 116.316 52.248L116.244 52.176L130.176 52.212H134.088H135.48C135.48 52.212 135.48 52.212 135.396 52.212H134.118H130.218L116.244 52.254H116.172V52.26C116.172 46.44 116.172 39.534 116.172 32.154V32.07H116.256H135.492H135.57V32.142C135.57 38.142 135.57 43.2 135.528 46.734C135.528 48.486 135.528 49.866 135.528 50.814C135.528 51.282 135.528 51.642 135.528 51.888V52.2C135.499 52.2249 135.467 52.2451 135.432 52.26V52.26Z" fill="#E0E0E0"/>
<path d="M129.06 38.988H122.622V45.426H129.06V38.988Z" fill="#EBEBEB"/>
<path d="M282.162 274.044C282.162 274.128 222.984 274.2 150.006 274.2C77.028 274.2 17.838 274.128 17.838 274.044C17.838 273.96 77.004 273.888 150.006 273.888C223.008 273.888 282.162 273.954 282.162 274.044Z" fill="#263238"/>
<path d="M116.676 273.876C137.817 273.876 154.956 256.737 154.956 235.596C154.956 214.455 137.817 197.316 116.676 197.316C95.5345 197.316 78.396 214.455 78.396 235.596C78.396 256.737 95.5345 273.876 116.676 273.876Z" fill="#407BFF"/>
<g opacity="0.3">
<path opacity="0.3" d="M84.558 256.404C88.44 256.59 91.53 254.232 93.288 250.764C95.046 247.296 95.412 243.324 95.748 239.454L97.116 223.716C97.35 221.028 97.596 218.28 98.646 215.79C99.696 213.3 101.688 211.056 104.31 210.39C107.028 209.724 110.196 210.78 112.53 209.232C114.756 207.762 115.23 204.528 117.39 202.968C119.688 201.306 122.91 202.17 125.478 203.364C130.422 205.667 134.847 208.949 138.486 213.012C142.122 217.086 145.248 222.138 150.408 223.938C151.92 224.466 153.768 224.61 154.986 223.56C156.786 222 156.024 219.072 154.95 216.96C151.928 211.071 147.67 205.905 142.466 201.814C137.262 197.724 131.236 194.806 124.8 193.26C118.938 191.898 112.704 191.73 106.962 193.536C101.22 195.342 96.03 199.254 93.342 204.642C90.294 210.756 91.758 218.046 90.522 224.766C88.536 235.596 86.256 246.024 84.564 256.404" fill="black"/>
</g>
<path d="M140.478 247.836C140.484 247.724 140.502 247.614 140.532 247.506C140.592 247.266 140.67 246.96 140.76 246.588C140.808 246.384 140.868 246.162 140.928 245.922C140.988 245.682 141.024 245.406 141.078 245.124C141.18 244.524 141.336 243.924 141.408 243.162C141.45 242.796 141.498 242.418 141.552 242.022C141.606 241.626 141.606 241.206 141.636 240.774C141.714 239.91 141.696 238.974 141.696 238.014C141.635 235.908 141.386 233.812 140.952 231.75C140.489 229.698 139.849 227.691 139.038 225.75C138.636 224.868 138.27 224.016 137.838 223.266C137.628 222.888 137.448 222.51 137.238 222.168L136.638 221.184C136.266 220.548 135.858 220.02 135.528 219.54C135.36 219.3 135.21 219.072 135.054 218.874L134.628 218.34L134.028 217.59C133.955 217.505 133.891 217.412 133.836 217.314C133.925 217.383 134.005 217.461 134.076 217.548L134.706 218.262L135.156 218.784C135.318 218.976 135.474 219.198 135.648 219.432C135.996 219.912 136.422 220.428 136.806 221.064L137.406 222.048C137.622 222.39 137.808 222.762 138.006 223.146C138.444 223.896 138.822 224.748 139.206 225.636C140.911 229.546 141.823 233.755 141.888 238.02C141.888 239.004 141.888 239.934 141.798 240.804C141.762 241.236 141.75 241.656 141.696 242.058C141.642 242.46 141.582 242.838 141.528 243.21C141.444 243.942 141.276 244.596 141.156 245.172C141.09 245.454 141.036 245.724 140.976 245.97L140.778 246.63C140.664 246.996 140.574 247.296 140.502 247.536C140.506 247.637 140.498 247.737 140.478 247.836V247.836Z" fill="#FAFAFA"/>
<path d="M138.93 252.876C138.294 254.995 137.17 256.935 135.648 258.54C135.576 258.486 136.452 257.304 137.352 255.744C138.252 254.184 138.846 252.84 138.93 252.876Z" fill="#FAFAFA"/>
<path d="M107.016 199.368C107.292 200.154 107.43 200.988 107.712 201.768C107.958 202.574 108.489 203.263 109.206 203.706C109.57 203.913 109.995 203.983 110.406 203.905C110.817 203.827 111.187 203.606 111.45 203.28C111.648 202.923 111.759 202.524 111.774 202.116C111.872 201.195 111.916 200.27 111.906 199.344C111.956 198.752 111.811 198.16 111.492 197.658C111.279 197.424 111.011 197.247 110.712 197.143C110.414 197.038 110.094 197.009 109.782 197.058C109.158 197.162 108.56 197.388 108.024 197.724C107.488 198.063 106.916 198.342 106.32 198.558" fill="#407BFF"/>
<g opacity="0.5">
<path opacity="0.5" d="M107.016 199.368C107.292 200.154 107.43 200.988 107.712 201.768C107.958 202.574 108.489 203.263 109.206 203.706C109.57 203.913 109.995 203.983 110.406 203.905C110.817 203.827 111.187 203.606 111.45 203.28C111.648 202.923 111.759 202.524 111.774 202.116C111.872 201.195 111.916 200.27 111.906 199.344C111.956 198.752 111.811 198.16 111.492 197.658C111.279 197.424 111.011 197.247 110.712 197.143C110.414 197.038 110.094 197.009 109.782 197.058C109.158 197.162 108.56 197.388 108.024 197.724C107.488 198.063 106.916 198.342 106.32 198.558" fill="black"/>
</g>
<path d="M68.664 219.6C68.7616 219.644 68.8479 219.709 68.916 219.792C69.1124 220.031 69.2091 220.336 69.186 220.644C69.175 220.892 69.0943 221.133 68.9532 221.338C68.8121 221.542 68.6162 221.703 68.388 221.802C68.0862 221.93 67.7563 221.978 67.4304 221.942C67.1045 221.905 66.7936 221.784 66.528 221.592C65.328 220.764 64.83 218.712 65.79 217.056C66.3517 216.264 67.0631 215.589 67.884 215.07C68.6983 214.491 69.3244 213.686 69.684 212.754C70.0318 211.818 70.1532 210.812 70.038 209.82C69.9263 208.892 69.6607 207.99 69.252 207.15C68.8861 206.381 68.446 205.65 67.938 204.966C67.4704 204.377 67.0338 203.764 66.63 203.13C66.2869 202.588 66.0809 201.97 66.03 201.33C65.9963 200.85 66.085 200.369 66.288 199.932C66.4289 199.655 66.6348 199.416 66.888 199.236C66.968 199.171 67.0597 199.122 67.158 199.092C66.8428 199.321 66.591 199.627 66.426 199.98C66.2493 200.402 66.1812 200.862 66.228 201.318C66.2922 201.918 66.4979 202.493 66.828 202.998C67.182 203.598 67.668 204.144 68.16 204.798C68.6843 205.492 69.1424 206.233 69.528 207.012C69.9536 207.882 70.2333 208.817 70.356 209.778C70.4782 210.819 70.3506 211.874 69.984 212.856C69.6051 213.842 68.9434 214.693 68.082 215.304C67.2894 215.796 66.5988 216.435 66.048 217.188C65.148 218.706 65.592 220.632 66.648 221.388C66.8824 221.565 67.1582 221.679 67.4492 221.719C67.7402 221.759 68.0366 221.723 68.31 221.616C68.4788 221.55 68.6305 221.447 68.7538 221.314C68.877 221.182 68.9687 221.023 69.0218 220.85C69.0749 220.676 69.0881 220.494 69.0604 220.315C69.0328 220.135 68.9649 219.965 68.862 219.816C68.748 219.684 68.658 219.6 68.664 219.6Z" fill="#263238"/>
<path d="M94.284 205.02L116.094 197.13L127.872 202.098L140.154 180.666L136.404 167.496L100.638 168.252L89.934 168.6L73.572 176.472L79.68 197.652L77.82 206.394L94.284 205.02Z" fill="#B78876"/>
<path d="M79.524 197.034C101.34 192.198 97.596 203.826 97.788 203.754C100.851 203.577 103.922 203.939 106.86 204.822C113.034 206.892 111.81 198.618 111.81 198.618C111.81 198.618 111.858 204.996 108.63 202.98C105.402 200.964 106.83 168.18 106.83 168.18H100.638C95.076 163.98 89.934 168.594 89.934 168.594L73.854 177.444L74.406 179.304C74.406 179.304 82.464 175.458 85.368 183.264C88.368 191.316 79.002 195.264 79.002 195.264L79.524 197.034Z" fill="#407BFF"/>
<path d="M122.766 178.446C122.766 178.53 122.466 178.584 122.112 178.56C121.758 178.536 121.464 178.452 121.47 178.362C121.476 178.272 121.77 178.224 122.13 178.248C122.49 178.272 122.772 178.356 122.766 178.446Z" fill="#AA6550"/>
<path d="M100.758 191.856C100.716 191.814 101.226 191.376 101.778 190.476C102.486 189.315 102.776 187.948 102.6 186.6C102.418 185.414 101.894 184.308 101.094 183.414C100.645 182.907 100.135 182.458 99.576 182.076V182.076C99.456 182.004 99.408 181.968 99.414 181.956C99.42 181.944 99.48 181.956 99.606 182.004C100.232 182.312 100.796 182.733 101.268 183.246C102.137 184.153 102.707 185.305 102.9 186.546C103.091 187.977 102.747 189.427 101.934 190.62C101.696 190.978 101.416 191.306 101.1 191.598C100.908 191.778 100.8 191.868 100.758 191.856Z" fill="#263238"/>
<path d="M116.01 192.894C116.254 194.374 116.29 195.88 116.118 197.37C115.944 196.637 115.873 195.884 115.908 195.132C115.84 194.385 115.874 193.632 116.01 192.894V192.894Z" fill="#AA6550"/>
<path d="M90.042 168.462C90.126 168.462 90.852 174.648 91.662 182.292C92.472 189.936 93.06 196.146 92.976 196.158C92.892 196.17 92.16 189.972 91.35 182.328C90.54 174.684 89.952 168.474 90.042 168.462Z" fill="#FAFAFA"/>
<path d="M90.936 196.2C90.852 196.2 90.048 190.296 89.136 183C88.224 175.704 87.57 169.764 87.654 169.752C87.738 169.74 88.542 175.656 89.454 182.952C90.366 190.248 91.02 196.2 90.936 196.2Z" fill="#FAFAFA"/>
<path d="M77.82 206.334L70.872 269.52C70.872 269.52 61.842 272.52 60.468 274.044H80.364C81.168 273.444 96.054 204.12 96.054 204.12L77.82 206.334Z" fill="#B78876"/>
<path d="M91.902 209.568C91.902 209.568 91.764 209.46 91.566 209.226C91.2894 208.889 91.0444 208.528 90.834 208.146C90.1352 206.874 89.7834 205.44 89.8139 203.989C89.8445 202.537 90.2563 201.12 91.008 199.878C91.2353 199.506 91.4942 199.155 91.782 198.828C91.992 198.6 92.118 198.492 92.136 198.504C92.154 198.516 91.716 199.038 91.2 199.986C90.5236 201.216 90.1551 202.591 90.1258 203.994C90.0966 205.398 90.4075 206.787 91.032 208.044C91.506 209.01 91.944 209.532 91.902 209.568Z" fill="#AA6550"/>
<path d="M89.934 168.6L88.242 161.112L91.668 106.902C91.566 103.38 91.164 100.968 91.218 98.658C91.29 95.802 91.116 94.626 90.582 94.644C89.868 94.644 90.144 94.644 89.28 99.798C89.28 99.798 90.45 92.412 88.938 93.798C88.266 94.398 87.234 100.548 87.234 100.548C88.518 95.7 88.236 93.672 87.492 93.516C86.412 93.294 85.218 100.716 85.218 100.716C85.218 100.716 86.244 95.052 86.112 94.008C85.98 92.964 85.11 93.888 84.6 94.86C84.036 95.952 81.642 102.762 80.844 104.694C80.8005 104.867 80.7189 105.029 80.6049 105.167C80.491 105.305 80.3477 105.415 80.1855 105.491C80.0233 105.566 79.8464 105.604 79.6676 105.602C79.4887 105.6 79.3126 105.559 79.152 105.48C76.608 103.83 73.752 103.902 72.984 104.28C72.216 104.658 72.492 105.84 73.428 105.984C74.4218 106.24 75.3764 106.63 76.266 107.142C76.9905 107.526 77.6455 108.029 78.204 108.63C78.852 109.332 79.368 109.95 79.794 110.484L73.23 160.116C73.23 160.116 70.83 170.316 73.692 176.838" fill="#B78876"/>
<path d="M88.752 102.702C88.884 102.702 89.214 101.148 89.496 99.186C89.778 97.224 89.892 95.616 89.76 95.586C89.628 95.556 89.298 97.146 89.022 99.102C88.746 101.058 88.626 102.678 88.752 102.702Z" fill="#AA6550"/>
<path d="M86.736 102.6C86.862 102.6 87.336 100.968 87.732 98.898C88.128 96.828 88.392 95.13 88.266 95.106C88.14 95.082 87.666 96.732 87.27 98.802C86.874 100.872 86.604 102.552 86.736 102.6Z" fill="#AA6550"/>
<path d="M84.642 102.438C84.768 102.468 85.242 100.902 85.644 98.952C86.046 97.002 86.31 95.394 86.184 95.352C86.058 95.31 85.584 96.882 85.176 98.838C84.768 100.794 84.51 102.408 84.642 102.438Z" fill="#AA6550"/>
<path d="M85.44 161.7C85.7958 163.057 86.3305 164.36 87.03 165.576C87.8193 166.737 88.7618 167.787 89.832 168.696C89.4494 168.527 89.0999 168.291 88.8 168C88.0127 167.354 87.3358 166.584 86.796 165.72C86.2439 164.861 85.8384 163.916 85.596 162.924C85.4726 162.528 85.4198 162.114 85.44 161.7V161.7Z" fill="#AA6550"/>
<path d="M68.634 187.452C68.706 190.98 70.104 194.442 68.478 197.568C67.776 198.912 66.786 200.208 66.714 201.702C66.63 203.598 68.058 205.302 68.19 207.186C68.418 210.594 64.47 213.342 64.782 216.744C64.9834 217.918 65.429 219.036 66.09 220.026C66.7462 221.017 67.1575 222.151 67.29 223.332C67.3357 223.933 67.1849 224.532 66.8602 225.04C66.5355 225.547 66.0546 225.936 65.49 226.146C65.2657 224.907 64.7053 223.753 63.87 222.81C62.004 223.98 63.522 227.064 62.07 228.672C61.5778 229.144 60.9723 229.481 60.312 229.65C57.9627 230.321 55.5495 230.743 53.112 230.91L51.72 228.558C51.5806 229.51 51.6923 230.482 52.044 231.378C49.0238 232.19 45.8996 232.548 42.774 232.44C41.112 232.38 39.306 232.128 38.148 231.006C37.14 230.034 36.828 228.606 36.744 227.244C36.6057 224.861 37.0163 222.478 37.944 220.278C38.544 218.79 39.426 217.332 39.468 215.736C39.534 212.868 36.954 210.51 36.468 207.672C35.82 203.754 39.27 200.256 39.726 196.314C39.966 194.25 39.366 192.18 39.45 190.104C39.534 188.028 40.65 185.712 42.78 185.232C42.78 185.232 43.38 181.674 46.56 180.828C49.74 179.982 68.508 181.056 68.634 187.452Z" fill="#263238"/>
<path d="M84 184.836C84.6434 186.614 84.558 188.574 83.7622 190.289C82.9665 192.004 81.525 193.335 79.752 193.992L51.552 204.432C51.004 204.634 50.4 204.623 49.8599 204.401C49.3197 204.179 48.8829 203.761 48.636 203.232L43.74 192.744C43.3408 191.888 43.1189 190.961 43.0878 190.017C43.0567 189.073 43.217 188.133 43.5589 187.253C43.9009 186.372 44.4175 185.571 45.0776 184.895C45.7378 184.22 46.5278 183.686 47.4 183.324C51.486 181.632 56.544 179.724 59.832 179.124C66.432 177.972 68.892 182.502 68.892 182.502L75.012 180.468C76.7832 179.877 78.715 180.001 80.396 180.814C82.0771 181.626 83.3745 183.063 84.012 184.818L84 184.836Z" fill="#B78876"/>
<path d="M51.816 184.002C52.0245 183.926 52.2544 183.936 52.4556 184.03C52.6568 184.123 52.813 184.292 52.89 184.5C52.9332 184.599 52.956 184.706 52.9573 184.814C52.9586 184.922 52.9382 185.029 52.8974 185.129C52.8566 185.229 52.7961 185.32 52.7197 185.397C52.6432 185.473 52.5521 185.533 52.452 185.574C52.2433 185.649 52.0139 185.639 51.8122 185.547C51.6106 185.455 51.4527 185.288 51.372 185.082C51.3289 184.982 51.3062 184.875 51.3053 184.766C51.3043 184.657 51.3252 184.549 51.3665 184.449C51.4079 184.348 51.469 184.257 51.5462 184.18C51.6233 184.103 51.7151 184.043 51.816 184.002V184.002Z" fill="#263238"/>
<path d="M50.448 183.522C50.586 183.588 50.34 184.35 50.64 185.214C50.94 186.078 51.588 186.564 51.516 186.696C51.444 186.828 51.264 186.696 50.964 186.516C50.5811 186.237 50.2923 185.847 50.136 185.4C49.9888 184.948 49.9888 184.46 50.136 184.008C50.22 183.642 50.4 183.492 50.448 183.522Z" fill="#263238"/>
<path d="M54.6 192.6C54.8095 192.527 55.0389 192.539 55.2403 192.632C55.4416 192.724 55.5992 192.892 55.68 193.098C55.7224 193.198 55.7448 193.305 55.7457 193.413C55.7466 193.521 55.7262 193.629 55.6855 193.729C55.6448 193.829 55.5846 193.921 55.5085 193.998C55.4324 194.075 55.3418 194.136 55.242 194.178C55.0326 194.252 54.8025 194.242 54.6007 194.149C54.399 194.056 54.2415 193.887 54.162 193.68C54.1196 193.58 54.0972 193.473 54.0963 193.365C54.0953 193.257 54.1158 193.149 54.1565 193.049C54.1972 192.949 54.2573 192.857 54.3335 192.78C54.4096 192.703 54.5001 192.642 54.6 192.6Z" fill="#263238"/>
<path d="M53.526 192C53.664 192.066 53.424 192.834 53.718 193.692C54.012 194.55 54.672 195 54.6 195.144C54.528 195.288 54.348 195.174 54.048 194.964C53.66 194.679 53.3705 194.281 53.22 193.824C53.0728 193.372 53.0728 192.884 53.22 192.432C53.304 192.096 53.46 191.94 53.526 192Z" fill="#263238"/>
<path d="M58.866 186.63C58.5641 186.226 58.316 185.784 58.128 185.316C58.032 185.1 57.912 184.908 57.75 184.92C57.5181 184.983 57.3096 185.112 57.15 185.292L55.692 186.522C53.61 188.25 51.864 189.582 51.798 189.522C51.732 189.462 53.358 187.968 55.446 186.24L56.922 185.04C57.1406 184.809 57.4338 184.662 57.75 184.626C57.839 184.632 57.9256 184.658 58.0034 184.701C58.0813 184.745 58.1484 184.805 58.2 184.878C58.2742 184.99 58.3347 185.111 58.38 185.238C58.5986 185.68 58.7618 186.148 58.866 186.63V186.63Z" fill="#263238"/>
<path d="M68.898 182.52C69.9538 185.458 70.176 188.631 69.54 191.688C69.54 191.688 73.2 188.22 70.464 182.142L68.898 182.52Z" fill="#AA6550"/>
<path d="M61.074 186.282C60.923 186.518 60.8348 186.788 60.818 187.067C60.8012 187.347 60.8563 187.626 60.978 187.878C61.061 188.063 61.1803 188.229 61.3286 188.367C61.477 188.505 61.6516 188.612 61.842 188.682C62.0253 188.749 62.2247 188.757 62.4128 188.705C62.6009 188.653 62.7683 188.545 62.892 188.394C63.0018 188.203 63.0509 187.983 63.0327 187.763C63.0145 187.543 62.9298 187.334 62.79 187.164C62.5062 186.804 62.1532 186.504 61.752 186.282C61.6484 186.21 61.5325 186.157 61.41 186.126C61.3523 186.109 61.2909 186.111 61.234 186.13C61.1772 186.149 61.1276 186.186 61.092 186.234" fill="#AA6550"/>
<path d="M60.336 189C60.282 188.862 61.218 188.538 61.608 187.506C61.998 186.474 61.554 185.514 61.68 185.46C61.806 185.406 61.944 185.622 62.1 186.06C62.299 186.606 62.299 187.206 62.1 187.752C61.9094 188.279 61.5194 188.71 61.014 188.952C60.6 189.066 60.354 189.042 60.336 189Z" fill="#263238"/>
<path d="M51.876 192.102C52.14 192.102 52.326 193.008 52.794 193.986C53.262 194.964 53.826 195.684 53.658 195.888C53.58 195.984 53.31 195.888 52.968 195.666C52.5367 195.32 52.1895 194.88 51.9526 194.38C51.7157 193.88 51.5951 193.333 51.6 192.78C51.63 192.354 51.75 192.102 51.876 192.102Z" fill="#263238"/>
<path d="M48.048 184.698C48.3 184.782 48.3 185.448 48.534 186.168C48.768 186.888 49.134 187.452 48.966 187.662C48.888 187.752 48.654 187.728 48.366 187.524C48.0159 187.249 47.7601 186.871 47.634 186.444C47.5009 186.02 47.5009 185.566 47.634 185.142C47.76 184.8 47.934 184.668 48.048 184.698Z" fill="#263238"/>
<path d="M42.096 188.964C42.504 186.564 43.758 193.842 46.158 194.334C47.2973 194.461 48.4442 194.507 49.59 194.472C50.736 194.538 51.99 194.892 52.59 195.834C53.19 196.776 53.19 198.036 54.09 198.672C54.846 199.23 55.89 199.02 56.838 199.092C58.932 199.266 60.63 200.994 61.428 202.944C62.226 204.894 62.31 207.036 62.448 209.136C62.586 211.236 62.826 213.402 63.876 215.22L48.798 207C48.798 207 41.124 194.742 42.096 188.964Z" fill="#263238"/>
<path d="M59.466 200.202C59.208 201.294 60.066 202.992 61.182 203.274C61.7315 203.392 62.3046 203.33 62.8159 203.097C63.3273 202.863 63.7496 202.471 64.02 201.978C64.548 200.988 64.704 200.214 64.02 199.302" fill="#B78876"/>
<path d="M45.978 229.608C46.0437 229.453 46.124 229.304 46.218 229.164L46.938 227.922C47.3113 227.267 47.6439 226.59 47.934 225.894C48.324 224.976 48.563 224.002 48.642 223.008C48.7475 221.823 48.4879 220.633 47.898 219.6C47.117 218.45 46.1521 217.437 45.042 216.6C44.4542 216.115 43.9027 215.588 43.392 215.022C42.8481 214.421 42.439 213.712 42.192 212.94C41.9742 212.125 41.9475 211.271 42.114 210.444C42.2836 209.609 42.5369 208.793 42.87 208.008C43.506 206.43 44.226 204.912 44.352 203.34C44.406 202.574 44.2807 201.805 43.986 201.096C43.6806 200.416 43.2981 199.774 42.846 199.182C42.42 198.582 41.976 198.012 41.586 197.424C41.2115 196.854 40.8882 196.251 40.62 195.624C40.1315 194.487 39.8803 193.262 39.882 192.024C39.8897 191.001 40.1254 189.992 40.572 189.072C40.8964 188.371 41.3481 187.736 41.904 187.2C42.262 186.866 42.6661 186.585 43.104 186.366C43.254 186.288 43.374 186.246 43.452 186.21L43.572 186.168C43.0029 186.469 42.478 186.846 42.012 187.29C41.482 187.821 41.0513 188.443 40.74 189.126C40.3294 190.03 40.1244 191.013 40.14 192.006C40.1518 193.209 40.4091 194.398 40.896 195.498C41.1605 196.116 41.4819 196.709 41.856 197.268C42.234 197.868 42.678 198.408 43.116 199.002C43.5891 199.611 43.9916 200.271 44.316 200.97C44.6315 201.729 44.767 202.55 44.712 203.37C44.58 205.026 43.842 206.574 43.212 208.14C42.582 209.706 42.096 211.344 42.54 212.862C42.984 214.38 44.202 215.436 45.3 216.396C46.4252 217.249 47.4006 218.283 48.186 219.456C48.8046 220.549 49.0648 221.808 48.93 223.056C48.8359 224.069 48.5765 225.061 48.162 225.99C47.8363 226.686 47.4613 227.358 47.04 228C46.716 228.534 46.44 228.942 46.272 229.2C46.1849 229.344 46.0866 229.48 45.978 229.608V229.608Z" fill="#455A64"/>
<path d="M56.61 230.958C56.8664 230.372 57.0868 229.771 57.27 229.158C57.7214 227.487 57.7028 225.725 57.216 224.064C56.8871 222.926 56.3365 221.863 55.596 220.938C54.6974 219.911 53.6473 219.027 52.482 218.316C51.1618 217.518 49.9853 216.504 49.002 215.316C48.4941 214.661 48.1394 213.9 47.964 213.09C47.8231 212.244 47.8953 211.375 48.174 210.564C48.672 208.944 49.536 207.492 49.542 205.938C49.4746 204.44 48.899 203.009 47.91 201.882C47.0141 200.852 46.0413 199.891 45 199.008C44.0963 198.215 43.2906 197.316 42.6 196.332C42.0786 195.618 41.728 194.794 41.5751 193.924C41.4222 193.053 41.4711 192.159 41.718 191.31C41.8711 190.854 42.1184 190.435 42.444 190.08C42.5286 189.99 42.6188 189.906 42.714 189.828C42.774 189.774 42.81 189.75 42.816 189.756C42.3647 190.199 42.0271 190.744 41.832 191.346C41.6145 192.173 41.5852 193.039 41.7461 193.879C41.9071 194.719 42.2542 195.512 42.762 196.2C43.4602 197.158 44.2654 198.034 45.162 198.81C46.2218 199.698 47.2071 200.671 48.108 201.72C49.1463 202.895 49.7517 204.39 49.824 205.956C49.824 207.624 48.924 209.106 48.444 210.672C48.1819 211.444 48.1139 212.268 48.246 213.072C48.4098 213.839 48.744 214.558 49.224 215.178C50.1864 216.335 51.3339 217.324 52.62 218.106C53.8115 218.836 54.884 219.745 55.8 220.8C56.5557 221.754 57.109 222.853 57.426 224.028C57.9045 225.727 57.892 227.526 57.39 229.218C57.2156 229.833 56.9529 230.419 56.61 230.958V230.958Z" fill="#455A64"/>
<path d="M38.49 231C38.319 231.026 38.145 231.026 37.974 231C37.4785 230.917 37.0085 230.722 36.6 230.43C35.9558 229.966 35.4531 229.333 35.148 228.6C34.7817 227.611 34.6884 226.542 34.878 225.504C35.1037 224.264 35.5079 223.064 36.078 221.94C36.7591 220.68 37.335 219.365 37.8 218.01C38.0229 217.281 38.1322 216.522 38.124 215.76C38.0874 214.967 37.9107 214.187 37.602 213.456C37.308 212.694 36.924 211.95 36.6 211.152C36.2353 210.345 36.0315 209.475 36 208.59C36 206.79 36.774 205.158 37.47 203.682C38.24 202.31 38.7753 200.82 39.054 199.272C39.24 197.796 38.82 196.386 38.502 195.072C38.128 193.861 37.9796 192.592 38.064 191.328C38.1794 190.293 38.5149 189.295 39.048 188.4C39.4545 187.724 39.9647 187.117 40.56 186.6C40.9289 186.28 41.3313 186 41.76 185.766C41.9137 185.687 42.072 185.617 42.234 185.556C41.6571 185.878 41.1143 186.258 40.614 186.69C40.0447 187.211 39.5608 187.819 39.18 188.49C38.6643 189.371 38.345 190.354 38.244 191.37C38.1813 192.607 38.3418 193.844 38.718 195.024C39.1823 196.402 39.3857 197.855 39.318 199.308C39.0437 200.889 38.5041 202.413 37.722 203.814C37.032 205.29 36.258 206.862 36.288 208.584C36.3182 209.43 36.5097 210.263 36.852 211.038C37.17 211.818 37.554 212.568 37.854 213.348C38.1731 214.11 38.3519 214.923 38.382 215.748C38.3878 216.538 38.2745 217.325 38.046 218.082C37.5804 219.448 37.0045 220.775 36.324 222.048C35.7458 223.145 35.3276 224.319 35.082 225.534C34.8841 226.535 34.9587 227.571 35.298 228.534C35.5811 229.246 36.0518 229.868 36.66 230.334C37.0481 230.625 37.4941 230.83 37.968 230.934C38.31 231 38.49 231 38.49 231Z" fill="#263238"/>
<path d="M162.834 197.4C162.615 197.22 162.414 197.019 162.234 196.8L160.608 195.132C159.228 193.734 157.278 191.85 155.01 189.894C152.742 187.938 150.582 186.294 149.01 185.13L147.12 183.774C146.88 183.619 146.655 183.443 146.448 183.246C146.707 183.367 146.956 183.51 147.192 183.672C147.66 183.954 148.326 184.392 149.142 184.95C151.253 186.411 153.286 187.981 155.232 189.654C157.176 191.33 159.028 193.108 160.782 194.982C161.454 195.702 161.982 196.296 162.342 196.716C162.525 196.93 162.69 197.159 162.834 197.4Z" fill="#455A64"/>
<path d="M224.358 252.6C224.686 252.845 224.957 253.159 225.151 253.52C225.345 253.88 225.457 254.279 225.48 254.688C225.52 255.505 225.392 256.323 225.102 257.088C223.302 262.488 218.358 266.262 213.132 268.488C210.078 269.784 206.598 270.672 203.466 269.574C202.524 269.244 201.546 268.608 201.402 267.624C201.376 266.992 201.537 266.366 201.864 265.824C203.471 262.456 205.674 259.406 208.368 256.824C211.077 254.229 214.414 252.382 218.052 251.466C220.128 250.974 222.552 250.926 224.136 252.36" fill="#455A64"/>
<path d="M216.102 248.964C216.102 248.964 225.462 258.486 227.502 261.858C229.542 265.23 231.636 274.044 231.636 274.044L216.168 273.516L217.218 264.048L209.058 257.16L212.058 251.76C213.306 249.474 216.102 248.964 216.102 248.964Z" fill="#B78876"/>
<path d="M218.4 264.336L216.6 270.042C216.6 270.042 213.546 270.396 213.636 271.548C213.726 272.7 213.81 274.038 213.81 274.038H231.66L218.4 264.336Z" fill="#B78876"/>
<path d="M185.226 217.086C187.548 218.736 184.248 212.154 182.292 209.568C180.937 207.827 179.865 205.883 179.118 203.808L187.362 186.528L176.22 181.02L167.304 198.99C167.047 199.307 166.913 199.706 166.927 200.113C166.94 200.521 167.099 200.91 167.376 201.21L185.226 217.086Z" fill="#B78876"/>
<path d="M136.308 167.448L150.198 162.93L183.636 152.694C185.912 151.996 188.346 152.002 190.619 152.711C192.892 153.42 194.898 154.798 196.374 156.666V156.666C197.864 158.548 198.746 160.84 198.901 163.235C199.057 165.631 198.479 168.017 197.244 170.076L189.924 198.96C188.725 199.567 187.335 199.674 186.057 199.259C184.778 198.845 183.716 197.941 183.102 196.746L182.34 195.258C181.16 193.49 179.459 192.133 177.474 191.375C175.488 190.616 173.316 190.492 171.258 191.022L176.418 175.842L153.018 188.946L138.408 181.836L136.308 167.448Z" fill="#263238"/>
<path d="M155.346 190.278L224.784 252.894L222.864 253.23C220.713 253.292 218.641 254.049 216.956 255.387C215.271 256.725 214.064 258.572 213.516 260.652V260.652C212.905 262.974 211.475 264.996 209.49 266.347C207.506 267.697 205.1 268.285 202.716 268.002L201.474 267.852C159.828 229.8 129.132 201.168 130.392 202.59L141.642 179.346L155.346 190.278Z" fill="#263238"/>
<path d="M132.498 167.802C132.498 167.802 134.958 187.236 126.732 201.402L132.234 204.012L146.934 183.882L141.714 165.666L132.498 167.802Z" fill="#263238"/>
<path d="M134.922 167.244C134.951 167.366 134.969 167.491 134.976 167.616C134.976 167.892 135.042 168.246 135.084 168.684C135.186 169.65 135.324 170.982 135.492 172.608C135.66 174.234 135.882 176.238 135.93 178.446C135.982 180.844 135.813 183.242 135.426 185.61C134.794 189.931 133.37 194.099 131.226 197.904C130.564 199.045 129.816 200.134 128.988 201.162C128.694 201.522 128.442 201.762 128.28 201.972C128.204 202.071 128.115 202.16 128.016 202.236C128.081 202.128 128.155 202.025 128.238 201.93C128.382 201.732 128.616 201.462 128.892 201.084C129.679 200.037 130.394 198.939 131.034 197.796C133.104 193.99 134.487 189.848 135.12 185.562C135.501 183.212 135.675 180.833 135.642 178.452C135.642 176.256 135.414 174.288 135.276 172.626C135.138 170.964 135.018 169.626 134.964 168.696C134.934 168.228 134.922 167.868 134.916 167.622C134.904 167.496 134.906 167.369 134.922 167.244V167.244Z" fill="#455A64"/>
<path d="M134.004 182.892C133.937 182.856 133.876 182.809 133.824 182.754C133.669 182.607 133.522 182.451 133.386 182.286C132.873 181.677 132.467 180.985 132.186 180.24C132.089 179.994 132.009 179.741 131.946 179.484C131.86 179.19 131.86 178.878 131.946 178.584C132.002 178.416 132.108 178.269 132.249 178.162C132.391 178.055 132.561 177.993 132.738 177.984C132.923 177.992 133.102 178.048 133.258 178.147C133.414 178.246 133.541 178.384 133.626 178.548C133.784 178.867 133.879 179.213 133.908 179.568C133.956 179.91 133.986 180.264 134.004 180.624C134.037 181.366 134.019 182.11 133.95 182.85C133.878 183.612 133.77 184.344 133.644 185.052C133.572 185.4 133.506 185.748 133.44 186.084C133.39 186.434 133.276 186.771 133.104 187.08C133.011 187.239 132.879 187.372 132.721 187.465C132.562 187.559 132.382 187.61 132.198 187.614C132.007 187.616 131.823 187.545 131.682 187.416C131.555 187.289 131.477 187.121 131.46 186.942C131.445 186.639 131.502 186.336 131.628 186.06C131.724 185.808 131.832 185.568 131.946 185.34C132.29 184.63 132.723 183.966 133.236 183.366C133.409 183.14 133.611 182.939 133.836 182.766C133.17 183.594 132.598 184.493 132.132 185.448C132.03 185.67 131.928 185.91 131.838 186.162C131.735 186.402 131.69 186.663 131.706 186.924C131.714 187.043 131.768 187.154 131.856 187.234C131.945 187.313 132.061 187.355 132.18 187.35C132.317 187.345 132.45 187.304 132.566 187.233C132.683 187.162 132.779 187.061 132.846 186.942C133.021 186.653 133.141 186.333 133.2 186C133.26 185.664 133.326 185.322 133.392 184.974C133.512 184.272 133.62 183.546 133.686 182.796C133.753 182.07 133.773 181.341 133.746 180.612C133.746 180.264 133.704 179.916 133.656 179.58C133.639 179.264 133.559 178.954 133.422 178.668C133.363 178.546 133.274 178.442 133.162 178.365C133.05 178.288 132.921 178.242 132.786 178.23C132.662 178.24 132.543 178.286 132.445 178.363C132.347 178.44 132.274 178.544 132.234 178.662C132.134 179.167 132.199 179.691 132.42 180.156C132.673 180.887 133.037 181.576 133.5 182.196C133.8 182.652 134.022 182.874 134.004 182.892Z" fill="#455A64"/>
<path d="M187.686 223.8C187.802 223.895 187.91 224 188.01 224.112L188.886 225.042C189.636 225.864 190.686 227.058 191.982 228.588C195.295 232.586 198.34 236.799 201.096 241.2C202.698 243.78 204.186 246.258 205.356 248.628C205.915 249.754 206.319 250.951 206.556 252.186C206.765 253.272 206.716 254.392 206.412 255.456C206.201 256.226 205.826 256.942 205.314 257.555C204.801 258.168 204.163 258.664 203.442 259.008C203.046 259.185 202.621 259.288 202.188 259.314H201.744C202.313 259.283 202.873 259.149 203.394 258.918C203.994 258.632 204.527 258.223 204.96 257.718C205.534 257.048 205.958 256.262 206.202 255.414C206.48 254.382 206.513 253.299 206.298 252.252C206.058 251.045 205.654 249.876 205.098 248.778C203.928 246.444 202.434 243.978 200.838 241.392C198.094 237.015 195.088 232.808 191.838 228.792C190.596 227.244 189.546 226.032 188.838 225.192L188.004 224.22C187.885 224.09 187.778 223.95 187.686 223.8V223.8Z" fill="#455A64"/>
<path d="M212.508 250.968C212.63 251.356 212.665 251.765 212.61 252.168C212.553 253.134 212.298 254.078 211.862 254.942C211.425 255.806 210.816 256.571 210.072 257.19C209.78 257.459 209.434 257.663 209.058 257.79C209.33 257.513 209.619 257.253 209.922 257.01C210.598 256.367 211.16 255.615 211.584 254.784C212.004 253.953 212.278 253.056 212.394 252.132C212.412 251.742 212.45 251.354 212.508 250.968V250.968Z" fill="#455A64"/>
<path d="M228 270.534C227.428 270.501 226.859 270.432 226.296 270.33C224.931 270.145 223.557 270.029 222.18 269.982C220.572 269.934 219.114 269.982 218.058 270.066C217.489 270.137 216.916 270.169 216.342 270.162C216.892 269.993 217.46 269.889 218.034 269.85C220.797 269.524 223.594 269.611 226.332 270.108C226.903 270.182 227.463 270.325 228 270.534V270.534Z" fill="#AA6550"/>
<path d="M221.664 262.452C220.983 262.869 220.248 263.192 219.48 263.412C218.751 263.735 217.982 263.959 217.194 264.078C217.876 263.667 218.608 263.344 219.372 263.118C220.105 262.802 220.875 262.578 221.664 262.452V262.452Z" fill="#AA6550"/>
<path d="M181.59 163.116C181.308 163.774 180.992 164.417 180.642 165.042C180.042 166.242 179.28 167.88 178.554 169.764C177.936 171.372 177.4 173.01 176.946 174.672C176.592 175.944 176.4 176.742 176.346 176.736C176.334 176.534 176.354 176.331 176.406 176.136C176.46 175.77 176.568 175.242 176.718 174.594C177.116 172.906 177.627 171.246 178.248 169.626C178.869 168.008 179.601 166.434 180.438 164.916C180.756 164.316 181.038 163.872 181.236 163.56C181.333 163.397 181.453 163.247 181.59 163.116Z" fill="#455A64"/>
<path d="M177.288 166.086C177.378 166.086 176.988 167.922 176.898 170.196C176.808 172.47 177.036 174.318 176.94 174.33C176.801 173.944 176.718 173.54 176.694 173.13C176.581 172.152 176.545 171.167 176.586 170.184C176.625 169.2 176.743 168.221 176.94 167.256C176.992 166.85 177.109 166.454 177.288 166.086V166.086Z" fill="#455A64"/>
<path d="M275.784 95.01H187.62V99.546H275.784V95.01Z" fill="#455A64"/>
<path d="M263.88 53.778L263.82 53.652C263.772 53.556 263.706 53.442 263.628 53.298C263.454 52.992 263.184 52.548 262.794 51.996C261.702 50.4287 260.299 49.1031 258.672 48.102C257.548 47.414 256.301 46.9514 255 46.74C253.484 46.5203 251.937 46.6832 250.5 47.214C248.891 47.7802 247.533 48.8928 246.66 50.358C245.772 51.906 245.49 53.712 244.974 55.446C244.732 56.2928 244.37 57.1009 243.9 57.846C243.409 58.5462 242.8 59.1553 242.1 59.646C241.416 60.156 240.696 60.612 240.042 61.14C239.405 61.6595 238.844 62.2653 238.374 62.94C237.517 64.2057 236.932 65.636 236.658 67.14C236.405 68.4358 236.329 69.7597 236.43 71.076C236.588 72.9673 236.923 74.8395 237.432 76.668C237.606 77.316 237.75 77.82 237.846 78.156C237.891 78.3295 237.947 78.4999 238.014 78.666C237.994 78.4871 237.958 78.3104 237.906 78.138C237.822 77.772 237.702 77.268 237.552 76.638C237.089 74.8098 236.786 72.9447 236.646 71.064C236.566 69.768 236.655 68.4671 236.91 67.194C237.192 65.7342 237.77 64.3477 238.608 63.12C239.064 62.4636 239.612 61.8757 240.234 61.374C240.87 60.858 241.584 60.408 242.286 59.892C243.024 59.3832 243.668 58.7497 244.188 58.02C244.678 57.2418 245.054 56.3971 245.304 55.512C245.826 53.748 246.108 51.966 246.954 50.49C247.793 49.092 249.094 48.0309 250.632 47.49C252.021 46.9678 253.518 46.8008 254.988 47.004C256.261 47.1946 257.484 47.6328 258.588 48.294C260.204 49.2685 261.611 50.5531 262.728 52.074C263.13 52.608 263.418 53.04 263.604 53.34C263.685 53.4929 263.777 53.6393 263.88 53.778V53.778Z" fill="#E0E0E0"/>
<path d="M241.242 60.126C241.716 59.682 241.95 59.994 242.592 60.126C243.231 60.2667 243.824 60.5635 244.32 60.99C245.417 61.8958 246.225 63.1026 246.645 64.4617C247.065 65.8209 247.079 67.2732 246.684 68.64C245.659 68.6963 244.637 68.474 243.728 67.9966C242.819 67.5192 242.056 66.8046 241.52 65.9285C240.984 65.0524 240.695 64.0476 240.684 63.0208C240.673 61.9939 240.941 60.9832 241.458 60.096" fill="#E0E0E0"/>
<path d="M260.82 51.216C261.06 50.616 261.42 50.784 262.02 50.616C262.657 50.4688 263.321 50.4811 263.952 50.652C265.327 51.0018 266.57 51.7449 267.529 52.7904C268.488 53.8358 269.122 55.1381 269.352 56.538C268.45 57.0318 267.432 57.272 266.404 57.233C265.377 57.194 264.379 56.8773 263.518 56.3166C262.656 55.7559 261.962 54.9721 261.511 54.0486C261.059 53.1251 260.866 52.0964 260.952 51.072" fill="#E0E0E0"/>
<path d="M236.928 72.192C237.579 71.4391 238.393 70.8442 239.308 70.4522C240.223 70.0602 241.215 69.8814 242.209 69.9294C243.203 69.9774 244.174 70.2509 245.047 70.7291C245.92 71.2074 246.672 71.8779 247.248 72.69C245.782 74.0243 243.878 74.7756 241.896 74.802C239.892 74.7505 237.975 73.977 236.496 72.624" fill="#E0E0E0"/>
<path d="M238.536 63.18C237.537 63.2099 236.544 63.0142 235.631 62.6074C234.718 62.2006 233.909 61.5932 233.263 60.8304C232.617 60.0676 232.152 59.169 231.901 58.2015C231.651 57.2339 231.622 56.2224 231.816 55.242C232.862 55.0118 233.951 55.0658 234.969 55.3984C235.987 55.731 236.897 56.33 237.606 57.1333C238.314 57.9366 238.794 58.9149 238.997 59.9666C239.2 61.0182 239.117 62.105 238.758 63.114" fill="#E0E0E0"/>
<path d="M245.43 52.59C244.496 52.9522 243.493 53.0992 242.494 53.0199C241.496 52.9405 240.528 52.637 239.663 52.1319C238.798 51.6267 238.058 50.933 237.498 50.1023C236.938 49.2716 236.573 48.3253 236.43 47.334C237.341 46.7678 238.386 46.456 239.458 46.431C240.53 46.4061 241.589 46.6688 242.525 47.1919C243.461 47.715 244.24 48.4794 244.78 49.4056C245.321 50.3317 245.603 51.3857 245.598 52.458" fill="#E0E0E0"/>
<path d="M247.74 49.134C248.674 48.7706 249.678 48.6227 250.677 48.7015C251.675 48.7803 252.644 49.0836 253.509 49.589C254.374 50.0943 255.114 50.7885 255.674 51.6199C256.233 52.4512 256.598 53.3981 256.74 54.39C255.829 54.9546 254.784 55.2651 253.713 55.2893C252.642 55.3135 251.584 55.0505 250.649 54.5275C249.714 54.0046 248.936 53.2408 248.396 52.3156C247.856 51.3903 247.574 50.3373 247.578 49.266" fill="#E0E0E0"/>
<path d="M250.494 47.274C249.547 46.9536 248.684 46.4241 247.97 45.7247C247.255 45.0254 246.707 44.1741 246.367 43.2341C246.026 42.2941 245.901 41.2895 246.002 40.2948C246.103 39.3 246.426 38.3407 246.948 37.488C248.01 37.6351 249.012 38.064 249.852 38.7299C250.692 39.3958 251.338 40.2744 251.723 41.2745C252.108 42.2746 252.219 43.3597 252.043 44.4168C251.867 45.474 251.411 46.4647 250.722 47.286" fill="#E0E0E0"/>
<path d="M257.55 47.61C257.21 46.6705 257.086 45.6666 257.186 44.6725C257.287 43.6785 257.61 42.7199 258.132 41.8676C258.653 41.0154 259.36 40.2914 260.199 39.7493C261.038 39.2072 261.989 38.8609 262.98 38.736C263.537 39.6553 263.835 40.708 263.844 41.7828C263.852 42.8577 263.57 43.9148 263.027 44.8427C262.485 45.7706 261.702 46.5347 260.761 47.0545C259.82 47.5744 258.756 47.8305 257.682 47.796" fill="#E0E0E0"/>
<path d="M229.098 95.316L225.336 71.718L254.154 72.066L251.31 95.01" fill="#263238"/>
<path d="M241.53 67.404C242.228 67.8778 243.036 68.1642 243.877 68.2356C244.717 68.3071 245.562 68.1612 246.33 67.812C247.074 67.3918 247.703 66.7937 248.159 66.0712C248.616 65.3488 248.886 64.5245 248.946 63.672C248.212 63.2998 247.408 63.0861 246.587 63.0447C245.765 63.0034 244.943 63.1353 244.176 63.432C243.425 63.7651 242.754 64.254 242.207 64.8665C241.66 65.4789 241.249 66.2007 241.002 66.984" fill="#407BFF"/>
<path d="M254.706 72.486C255.404 72.9598 256.212 73.2462 257.053 73.3176C257.893 73.3891 258.738 73.2432 259.506 72.894C260.248 72.4727 260.875 71.8751 261.331 71.1541C261.787 70.4331 262.059 69.6109 262.122 68.76C261.397 68.3647 260.592 68.137 259.767 68.0936C258.942 68.0503 258.118 68.1925 257.355 68.5096C256.593 68.8268 255.911 69.3109 255.36 69.9264C254.809 70.5418 254.403 71.273 254.172 72.066" fill="#407BFF"/>
<path d="M247.308 61.134C247.627 61.9155 248.142 62.6019 248.803 63.1272C249.464 63.6526 250.249 63.9992 251.082 64.134C251.934 64.1904 252.786 64.0359 253.563 63.6843C254.341 63.3326 255.02 62.7946 255.54 62.118C255.151 61.3897 254.603 60.7578 253.938 60.2687C253.272 59.7796 252.506 59.4457 251.694 59.2915C250.883 59.1373 250.048 59.1667 249.249 59.3775C248.451 59.5884 247.709 59.9753 247.08 60.51" fill="#407BFF"/>
<path d="M252.12 67.02C251.281 66.9769 250.445 67.1494 249.692 67.5213C248.939 67.8931 248.294 68.4518 247.818 69.144C247.399 69.8886 247.171 70.7251 247.153 71.5792C247.135 72.4333 247.329 73.2785 247.716 74.04C248.541 74.0023 249.348 73.7802 250.076 73.3899C250.805 72.9996 251.437 72.4511 251.925 71.7847C252.414 71.1182 252.747 70.3508 252.9 69.5387C253.053 68.7267 253.022 67.8906 252.81 67.092" fill="#407BFF"/>
<path d="M256.758 76.308C256.365 77.051 256.169 77.8825 256.189 78.7229C256.209 79.5632 256.444 80.3845 256.872 81.108C257.371 81.8024 258.033 82.3628 258.8 82.7397C259.567 83.1165 260.416 83.298 261.27 83.268C261.564 82.4935 261.691 81.6656 261.644 80.8386C261.596 80.0115 261.375 79.2037 260.994 78.468C260.238 77.094 258.87 76.41 257.166 76.02" fill="#407BFF"/>
<path d="M264.42 77.4C264.09 77.0867 263.703 76.8401 263.28 76.674C262.778 76.4999 262.251 76.4068 261.72 76.398C261.008 76.4001 260.297 76.4422 259.59 76.524C258.712 76.6363 257.82 76.5607 256.974 76.302C256.01 75.9099 255.236 75.1592 254.814 74.208C254.353 73.1957 254.038 72.123 253.878 71.022C253.721 69.871 253.344 68.7609 252.768 67.752C252.085 66.8088 251.263 65.9735 250.332 65.274C249.446 64.602 248.662 63.8058 248.004 62.91C246.97 61.3123 246.556 59.3917 246.84 57.51C247.008 56.2391 247.495 55.0314 248.256 54C248.464 53.7267 248.695 53.4718 248.946 53.238C249.028 53.1487 249.121 53.0701 249.222 53.004C249.159 53.106 249.082 53.1988 248.994 53.28C248.763 53.53 248.549 53.7946 248.352 54.072C247.652 55.1001 247.21 56.2813 247.062 57.516C246.814 59.3478 247.241 61.2073 248.262 62.748C248.917 63.6135 249.689 64.3847 250.554 65.04C251.513 65.7553 252.357 66.6132 253.056 67.584C253.65 68.6266 254.039 69.7732 254.202 70.962C254.357 72.0371 254.655 73.0865 255.09 74.082C255.477 74.9725 256.193 75.6796 257.088 76.056C257.899 76.3155 258.756 76.3993 259.602 76.302C260.316 76.2336 261.033 76.2075 261.75 76.224C262.297 76.2432 262.837 76.3569 263.346 76.56C263.67 76.6895 263.966 76.8811 264.216 77.124C264.282 77.1846 264.342 77.2508 264.396 77.322C264.408 77.4 264.426 77.4 264.42 77.4Z" fill="#407BFF"/>
<path d="M264.42 77.4C264.09 77.0867 263.703 76.8401 263.28 76.674C262.778 76.4999 262.251 76.4068 261.72 76.398C261.008 76.4001 260.297 76.4422 259.59 76.524C258.712 76.6363 257.82 76.5607 256.974 76.302C256.01 75.9099 255.236 75.1592 254.814 74.208C254.353 73.1957 254.038 72.123 253.878 71.022C253.721 69.871 253.344 68.7609 252.768 67.752C252.085 66.8088 251.263 65.9735 250.332 65.274C249.446 64.602 248.662 63.8058 248.004 62.91C246.97 61.3123 246.556 59.3917 246.84 57.51C247.008 56.2391 247.495 55.0314 248.256 54C248.464 53.7267 248.695 53.4718 248.946 53.238C249.028 53.1487 249.121 53.0701 249.222 53.004C249.159 53.106 249.082 53.1988 248.994 53.28C248.763 53.53 248.549 53.7946 248.352 54.072C247.652 55.1001 247.21 56.2813 247.062 57.516C246.814 59.3478 247.241 61.2073 248.262 62.748C248.917 63.6135 249.689 64.3847 250.554 65.04C251.513 65.7553 252.357 66.6132 253.056 67.584C253.65 68.6266 254.039 69.7732 254.202 70.962C254.357 72.0371 254.655 73.0865 255.09 74.082C255.477 74.9725 256.193 75.6796 257.088 76.056C257.899 76.3155 258.756 76.3993 259.602 76.302C260.316 76.2336 261.033 76.2075 261.75 76.224C262.297 76.2432 262.837 76.3569 263.346 76.56C263.67 76.6895 263.966 76.8811 264.216 77.124C264.282 77.1846 264.342 77.2508 264.396 77.322C264.408 77.4 264.426 77.4 264.42 77.4Z" fill="#407BFF"/>
<path d="M209.4 79.8C209.463 78.5888 209.222 77.3812 208.701 76.2862C208.18 75.1913 207.393 74.2436 206.414 73.5289C205.434 72.8141 204.291 72.3549 203.089 72.1927C201.888 72.0305 200.664 72.1705 199.53 72.6C200.387 74.5069 201.72 76.1611 203.401 77.4032C205.083 78.6453 207.056 79.4336 209.13 79.692" fill="#407BFF"/>
<path d="M207.51 80.82C206.1 82.368 206.19 84.858 207.198 86.694C208.206 88.53 209.94 89.832 211.68 90.996C212.271 89.007 212.192 86.8789 211.455 84.9393C210.717 82.9997 209.363 81.3563 207.6 80.262" fill="#407BFF"/>
<path d="M214.338 73.566C214.449 74.6957 214.787 75.7913 215.334 76.7865C215.88 77.7817 216.622 78.6559 217.515 79.3563C218.408 80.0567 219.434 80.5688 220.531 80.8616C221.628 81.1544 222.772 81.2219 223.896 81.06C223.35 78.792 222.438 76.512 220.692 74.976C218.946 73.44 216.18 72.864 214.242 74.16" fill="#407BFF"/>
<path d="M214.29 71.256C213.936 69.192 211.89 67.698 209.82 67.506C207.75 67.314 205.68 68.196 204.006 69.456C205.271 70.9046 207.041 71.8165 208.955 72.006C210.869 72.1955 212.783 71.6484 214.308 70.476" fill="#407BFF"/>
<path d="M203.556 88.8C201.576 90.486 201.078 93.498 201.9 95.964C202.722 98.43 204.648 100.404 206.814 101.844C207.648 99.396 208.17 96.774 207.726 94.23C207.282 91.686 205.758 89.214 203.4 88.2" fill="#407BFF"/>
<path d="M213.966 65.472C214.49 64.6999 215.184 64.0586 215.996 63.5978C216.807 63.137 217.713 62.869 218.645 62.8144C219.576 62.7599 220.508 62.9204 221.368 63.2834C222.227 63.6464 222.992 64.2023 223.602 64.908C223.198 65.8148 222.545 66.5885 221.719 67.1395C220.893 67.6905 219.927 67.9963 218.935 68.0214C217.942 68.0465 216.963 67.7899 216.11 67.2814C215.257 66.7729 214.566 66.0332 214.116 65.148" fill="#407BFF"/>
<path d="M216.396 59.526C215.327 59.8522 214.201 59.9476 213.092 59.8061C211.984 59.6647 210.918 59.2894 209.965 58.7052C209.012 58.1211 208.194 57.3412 207.565 56.4174C206.936 55.4935 206.51 54.4466 206.316 53.346C207.898 53.1578 209.498 53.18 211.074 53.412C212.654 53.6573 214.12 54.382 215.274 55.488C215.795 56.0058 216.171 56.6511 216.365 57.3597C216.559 58.0682 216.563 58.8152 216.378 59.526" fill="#407BFF"/>
<path d="M220.962 57.984C220.221 57.3811 219.624 56.6214 219.212 55.7596C218.801 54.8979 218.585 53.9555 218.582 53.0005C218.578 52.0455 218.787 51.1017 219.192 50.2369C219.598 49.3722 220.19 48.6082 220.926 48C222.351 49.7344 223.323 51.7964 223.752 54C223.959 54.8171 223.959 55.6729 223.752 56.49C223.646 56.9049 223.425 57.2816 223.115 57.5775C222.806 57.8733 222.419 58.0765 222 58.164" fill="#407BFF"/>
<g opacity="0.4">
<path opacity="0.4" d="M209.4 79.8C209.463 78.5888 209.222 77.3812 208.701 76.2862C208.18 75.1913 207.393 74.2436 206.414 73.5289C205.434 72.8141 204.291 72.3549 203.089 72.1927C201.888 72.0305 200.664 72.1705 199.53 72.6C200.387 74.5069 201.72 76.1611 203.401 77.4032C205.083 78.6453 207.056 79.4336 209.13 79.692" fill="black"/>
</g>
<g opacity="0.4">
<path opacity="0.4" d="M207.51 80.82C206.1 82.368 206.19 84.858 207.198 86.694C208.206 88.53 209.94 89.832 211.68 90.996C212.271 89.007 212.192 86.8789 211.455 84.9393C210.717 82.9997 209.363 81.3563 207.6 80.262" fill="black"/>
</g>
<g opacity="0.4">
<path opacity="0.4" d="M214.338 73.566C214.449 74.6957 214.787 75.7913 215.334 76.7865C215.88 77.7817 216.622 78.6559 217.515 79.3563C218.408 80.0567 219.434 80.5688 220.531 80.8616C221.628 81.1544 222.772 81.2219 223.896 81.06C223.35 78.792 222.438 76.512 220.692 74.976C218.946 73.44 216.18 72.864 214.242 74.16" fill="black"/>
</g>
<g opacity="0.4">
<path opacity="0.4" d="M214.29 71.256C213.936 69.192 211.89 67.698 209.82 67.506C207.75 67.314 205.68 68.196 204.006 69.456C205.271 70.9046 207.041 71.8165 208.955 72.006C210.869 72.1955 212.783 71.6484 214.308 70.476" fill="black"/>
</g>
<g opacity="0.4">
<path opacity="0.4" d="M203.556 88.8C201.576 90.486 201.078 93.498 201.9 95.964C202.722 98.43 204.648 100.404 206.814 101.844C207.648 99.396 208.17 96.774 207.726 94.23C207.282 91.686 205.758 89.214 203.4 88.2" fill="black"/>
</g>
<g opacity="0.4">
<path opacity="0.4" d="M213.966 65.472C214.49 64.6999 215.184 64.0586 215.996 63.5978C216.807 63.137 217.713 62.869 218.645 62.8144C219.576 62.7599 220.508 62.9204 221.368 63.2834C222.227 63.6464 222.992 64.2023 223.602 64.908C223.198 65.8148 222.545 66.5885 221.719 67.1395C220.893 67.6905 219.927 67.9963 218.935 68.0214C217.942 68.0465 216.963 67.7899 216.11 67.2814C215.257 66.7729 214.566 66.0332 214.116 65.148" fill="black"/>
</g>
<g opacity="0.4">
<path opacity="0.4" d="M216.396 59.526C215.327 59.8522 214.201 59.9476 213.092 59.8061C211.984 59.6647 210.918 59.2894 209.965 58.7052C209.012 58.1211 208.194 57.3412 207.565 56.4174C206.936 55.4935 206.51 54.4466 206.316 53.346C207.898 53.1578 209.498 53.18 211.074 53.412C212.654 53.6573 214.12 54.382 215.274 55.488C215.795 56.0058 216.171 56.6511 216.365 57.3597C216.559 58.0682 216.563 58.8152 216.378 59.526" fill="black"/>
</g>
<g opacity="0.4">
<path opacity="0.4" d="M220.962 57.984C220.221 57.3811 219.624 56.6214 219.212 55.7596C218.801 54.8979 218.585 53.9555 218.582 53.0005C218.578 52.0455 218.787 51.1017 219.192 50.2369C219.598 49.3722 220.19 48.6082 220.926 48C222.351 49.7344 223.323 51.7964 223.752 54C223.959 54.8171 223.959 55.6729 223.752 56.49C223.646 56.9049 223.425 57.2816 223.115 57.5775C222.806 57.8733 222.419 58.0765 222 58.164" fill="black"/>
</g>
<path d="M228.87 72.474C228.862 72.4203 228.862 72.3657 228.87 72.312C228.87 72.186 228.87 72.03 228.9 71.838C228.9 71.418 228.966 70.806 228.978 70.038C229.074 67.8053 228.709 65.5769 227.904 63.492C227.325 62.0704 226.425 60.8015 225.276 59.784C223.953 58.6155 222.24 57.9859 220.476 58.02C219.545 58.0275 218.629 58.2514 217.8 58.674C216.935 59.1379 216.214 59.8287 215.712 60.672C214.668 62.394 214.41 64.554 214.512 66.672C214.614 68.79 214.896 70.944 214.656 73.008C214.551 74.0214 214.285 75.0117 213.87 75.942C213.466 76.8499 212.849 77.6466 212.07 78.264C211.32 78.8143 210.488 79.2416 209.604 79.53C208.794 79.8029 208.015 80.1566 207.276 80.586C205.973 81.3962 204.917 82.5479 204.222 83.916C203.644 85.043 203.341 86.2913 203.34 87.558C203.333 88.5154 203.49 89.467 203.802 90.372C204.08 91.1407 204.444 91.8755 204.888 92.562C204.85 92.5257 204.816 92.4855 204.786 92.442C204.72 92.352 204.618 92.232 204.504 92.052C204.168 91.5394 203.892 90.9898 203.682 90.414C203.348 89.4985 203.174 88.5325 203.166 87.558C203.147 86.2592 203.442 84.9751 204.024 83.814C204.726 82.4005 205.804 81.2071 207.138 80.364C208.566 79.416 210.444 79.164 211.896 78.042C213.348 76.92 214.104 74.952 214.332 72.972C214.56 70.992 214.254 68.856 214.176 66.684C214.098 64.512 214.344 62.292 215.442 60.492C215.972 59.6032 216.736 58.8769 217.65 58.392C218.528 57.9393 219.5 57.6989 220.488 57.69C222.319 57.6623 224.093 58.3266 225.456 59.55C226.63 60.5966 227.542 61.9035 228.12 63.366C228.598 64.561 228.905 65.8173 229.032 67.098C229.126 68.063 229.152 69.0334 229.11 70.002C229.08 70.794 229.02 71.406 228.972 71.802C228.972 71.994 228.93 72.15 228.912 72.27C228.912 72.3402 228.898 72.4097 228.87 72.474V72.474Z" fill="#407BFF"/>
<g opacity="0.4">
<path opacity="0.4" d="M228.87 72.474C228.862 72.4203 228.862 72.3657 228.87 72.312C228.87 72.186 228.87 72.03 228.9 71.838C228.9 71.418 228.966 70.806 228.978 70.038C229.074 67.8053 228.709 65.5769 227.904 63.492C227.325 62.0704 226.425 60.8015 225.276 59.784C223.953 58.6155 222.24 57.9859 220.476 58.02C219.545 58.0275 218.629 58.2514 217.8 58.674C216.935 59.1379 216.214 59.8287 215.712 60.672C214.668 62.394 214.41 64.554 214.512 66.672C214.614 68.79 214.896 70.944 214.656 73.008C214.551 74.0214 214.285 75.0117 213.87 75.942C213.466 76.8499 212.849 77.6466 212.07 78.264C211.32 78.8143 210.488 79.2416 209.604 79.53C208.794 79.8029 208.015 80.1566 207.276 80.586C205.973 81.3962 204.917 82.5479 204.222 83.916C203.644 85.043 203.341 86.2913 203.34 87.558C203.333 88.5154 203.49 89.467 203.802 90.372C204.08 91.1407 204.444 91.8755 204.888 92.562C204.85 92.5257 204.816 92.4855 204.786 92.442C204.72 92.352 204.618 92.232 204.504 92.052C204.168 91.5394 203.892 90.9898 203.682 90.414C203.348 89.4985 203.174 88.5325 203.166 87.558C203.147 86.2592 203.442 84.9751 204.024 83.814C204.726 82.4005 205.804 81.2071 207.138 80.364C208.566 79.416 210.444 79.164 211.896 78.042C213.348 76.92 214.104 74.952 214.332 72.972C214.56 70.992 214.254 68.856 214.176 66.684C214.098 64.512 214.344 62.292 215.442 60.492C215.972 59.6032 216.736 58.8769 217.65 58.392C218.528 57.9393 219.5 57.6989 220.488 57.69C222.319 57.6623 224.093 58.3266 225.456 59.55C226.63 60.5966 227.542 61.9035 228.12 63.366C228.598 64.561 228.905 65.8173 229.032 67.098C229.126 68.063 229.152 69.0334 229.11 70.002C229.08 70.794 229.02 71.406 228.972 71.802C228.972 71.994 228.93 72.15 228.912 72.27C228.912 72.3402 228.898 72.4097 228.87 72.474V72.474Z" fill="black"/>
</g>
<path d="M270.828 67.326C271.091 66.6517 271.237 65.9375 271.26 65.214C271.265 64.3691 271.072 63.5347 270.696 62.778C270.183 61.782 269.357 60.9828 268.344 60.504C267.764 60.2243 267.138 60.0554 266.496 60.006C265.797 59.9654 265.097 60.0466 264.426 60.246C263.01 60.618 261.612 61.446 259.944 61.752C259.086 61.9477 258.194 61.9271 257.346 61.692C256.462 61.3986 255.713 60.7984 255.234 60C254.226 58.44 253.944 56.484 252.726 55.044C252.123 54.3446 251.335 53.829 250.452 53.556C249.595 53.2794 248.689 53.1873 247.794 53.286C246.081 53.4649 244.499 54.286 243.366 55.584C242.351 56.7604 241.612 58.148 241.2 59.646C240.815 60.9516 240.651 62.3123 240.714 63.672C240.83 65.6484 241.079 67.6148 241.458 69.558C241.578 70.23 241.668 70.758 241.734 71.154C241.734 71.322 241.782 71.46 241.794 71.574C241.801 71.6218 241.801 71.6702 241.794 71.718C241.774 71.6739 241.76 71.6275 241.752 71.58L241.662 71.166C241.578 70.776 241.47 70.248 241.326 69.582C240.899 67.6375 240.616 65.6642 240.48 63.678C240.403 62.2938 240.559 60.9064 240.942 59.574C241.357 58.0226 242.121 56.5863 243.174 55.374C243.753 54.7266 244.436 54.181 245.196 53.76C246.011 53.3187 246.906 53.0456 247.829 52.957C248.751 52.8683 249.682 52.9659 250.566 53.244C251.496 53.5381 252.327 54.0843 252.966 54.822C254.25 56.364 254.526 58.332 255.492 59.814C255.928 60.5566 256.619 61.1154 257.436 61.386C258.236 61.6114 259.079 61.6341 259.89 61.452C261.498 61.146 262.89 60.354 264.354 59.982C265.055 59.7783 265.786 59.6991 266.514 59.748C267.427 59.8289 268.304 60.1406 269.063 60.6539C269.821 61.1672 270.437 61.8651 270.852 62.682C271.23 63.4647 271.411 64.3276 271.38 65.196C271.362 65.7413 271.257 66.2802 271.068 66.792C271.007 66.978 270.927 67.157 270.828 67.326V67.326Z" fill="#407BFF"/>
<path d="M253.974 56.868C254.74 57.3317 255.607 57.6043 256.501 57.6628C257.395 57.7213 258.29 57.5639 259.11 57.204C259.854 56.7846 260.483 56.1877 260.94 55.4664C261.398 54.7451 261.67 53.9219 261.732 53.07C260.994 52.6947 260.185 52.4788 259.358 52.4364C258.531 52.3941 257.705 52.5261 256.932 52.824C256.188 53.1661 255.524 53.6614 254.984 54.2777C254.445 54.8939 254.041 55.6171 253.8 56.4" fill="#407BFF"/>
<path d="M259.434 61.8C259.439 62.6968 259.66 63.5793 260.077 64.3729C260.495 65.1666 261.098 65.8481 261.834 66.36C262.579 66.7768 263.415 67.0027 264.268 67.0173C265.122 67.032 265.965 66.835 266.724 66.444C266.684 65.6193 266.459 64.8142 266.066 64.0878C265.674 63.3615 265.123 62.7323 264.456 62.2465C263.788 61.7607 263.02 61.4307 262.208 61.2808C261.396 61.1308 260.561 61.1648 259.764 61.38" fill="#407BFF"/>
<path d="M268.914 60.726C269.727 61.1035 270.619 61.2808 271.514 61.2432C272.41 61.2056 273.283 60.9542 274.062 60.51C274.755 60.0134 275.315 59.3531 275.692 58.588C276.069 57.8228 276.251 56.9764 276.222 56.124C275.459 55.8079 274.634 55.667 273.809 55.7117C272.984 55.7564 272.18 55.9854 271.455 56.382C270.73 56.7787 270.104 57.3328 269.621 58.0035C269.139 58.6743 268.813 59.4447 268.668 60.258" fill="#407BFF"/>
<path d="M246 53.586C244.62 52.386 243.696 50.304 243.96 48.738C244.141 47.9001 244.526 47.1201 245.082 46.4677C245.638 45.8154 246.347 45.3111 247.146 45C247.739 45.5756 248.196 46.2771 248.482 47.0527C248.768 47.8284 248.876 48.6583 248.798 49.4813C248.72 50.3044 248.459 51.0994 248.033 51.8078C247.606 52.5161 247.027 53.1197 246.336 53.574" fill="#407BFF"/>
<path d="M209.01 46.8C209.026 46.756 209.046 46.7138 209.07 46.674C209.118 46.578 209.184 46.464 209.256 46.32C209.436 46.014 209.706 45.57 210.096 45.018C211.183 43.4525 212.58 42.1271 214.2 41.124C215.331 40.433 216.587 39.9703 217.896 39.762C219.41 39.5426 220.955 39.7055 222.39 40.236C224.003 40.8007 225.365 41.9161 226.236 43.386C227.124 44.928 227.436 46.734 227.922 48.468C228.164 49.3148 228.526 50.1229 228.996 50.868C229.486 51.5685 230.095 52.1777 230.796 52.668C231.486 53.178 232.206 53.634 232.86 54.168C233.497 54.6872 234.059 55.2931 234.528 55.968C235.383 57.2351 235.967 58.6649 236.244 60.168C236.497 61.4638 236.573 62.7877 236.472 64.104C236.316 65.9959 235.978 67.8685 235.464 69.696C235.296 70.344 235.152 70.848 235.056 71.184C235.009 71.3588 234.953 71.5311 234.888 71.7C234.906 71.5213 234.94 71.3446 234.99 71.172L235.35 69.666C235.814 67.8381 236.115 65.9729 236.25 64.092C236.332 62.7963 236.245 61.4954 235.992 60.222C235.708 58.7631 235.13 57.3771 234.294 56.148C233.838 55.4916 233.29 54.9037 232.668 54.402C232.032 53.886 231.318 53.436 230.616 52.92C229.877 52.4129 229.233 51.7792 228.714 51.048C228.224 50.2698 227.848 49.4251 227.598 48.54C227.076 46.782 226.794 44.994 225.948 43.518C225.109 42.12 223.808 41.0589 222.27 40.518C220.879 39.9953 219.38 39.8283 217.908 40.032C216.637 40.2299 215.415 40.6677 214.308 41.322C212.695 42.298 211.29 43.5825 210.174 45.102C209.772 45.636 209.484 46.068 209.292 46.368C209.21 46.5196 209.116 46.6641 209.01 46.8V46.8Z" fill="#407BFF"/>
<path d="M231.648 53.148C231.174 52.704 230.94 53.016 230.298 53.148C229.672 53.2911 229.089 53.5834 228.6 54C227.497 54.9001 226.681 56.1038 226.255 57.4624C225.828 58.821 225.809 60.2747 226.2 61.644C227.225 61.7003 228.247 61.478 229.156 61.0006C230.065 60.5232 230.828 59.8086 231.364 58.9325C231.9 58.0564 232.189 57.0516 232.2 56.0248C232.211 54.9979 231.943 53.9872 231.426 53.1" fill="#407BFF"/>
<path d="M212.07 44.238C211.83 43.638 211.47 43.806 210.87 43.638C210.233 43.4908 209.569 43.5031 208.938 43.674C207.562 44.0217 206.318 44.7642 205.358 45.81C204.399 46.8558 203.766 48.1592 203.538 49.56C204.44 50.0538 205.458 50.294 206.486 50.255C207.513 50.216 208.511 49.8993 209.372 49.3386C210.234 48.7779 210.928 47.9941 211.379 47.0706C211.831 46.1471 212.024 45.1184 211.938 44.094" fill="#407BFF"/>
<path d="M235.962 65.214C235.311 64.4611 234.497 63.8662 233.582 63.4742C232.667 63.0822 231.675 62.9034 230.681 62.9514C229.687 62.9994 228.716 63.2729 227.843 63.7511C226.97 64.2294 226.218 64.8999 225.642 65.712C227.113 67.0389 229.019 67.7816 231 67.8C233.004 67.7506 234.922 66.9769 236.4 65.622" fill="#407BFF"/>
<path d="M234.354 56.202C235.353 56.2308 236.345 56.0343 237.257 55.6271C238.17 55.22 238.979 54.6126 239.624 53.8501C240.27 53.0875 240.735 52.1894 240.986 51.2224C241.237 50.2554 241.267 49.2442 241.074 48.264C240.028 48.0338 238.939 48.0878 237.921 48.4204C236.903 48.753 235.993 49.352 235.284 50.1553C234.576 50.9586 234.096 51.9369 233.893 52.9886C233.69 54.0402 233.773 55.127 234.132 56.136" fill="#407BFF"/>
<path d="M227.46 45.6C228.394 45.9634 229.398 46.1113 230.397 46.0325C231.396 45.9537 232.364 45.6504 233.229 45.145C234.094 44.6397 234.834 43.9455 235.394 43.1141C235.953 42.2828 236.318 41.3359 236.46 40.344C235.55 39.7794 234.504 39.4689 233.433 39.4447C232.362 39.4205 231.304 39.6835 230.369 40.2065C229.434 40.7294 228.656 41.4932 228.116 42.4184C227.576 43.3437 227.294 44.3967 227.298 45.468" fill="#407BFF"/>
<path d="M225.15 42.156C224.216 41.7925 223.212 41.6447 222.213 41.7235C221.214 41.8023 220.246 42.1056 219.381 42.611C218.516 43.1163 217.776 43.8105 217.216 44.6418C216.657 45.4732 216.292 46.4201 216.15 47.412C217.06 47.9766 218.106 48.2871 219.177 48.3113C220.248 48.3355 221.306 48.0724 222.241 47.5495C223.176 47.0266 223.954 46.2628 224.494 45.3376C225.034 44.4123 225.316 43.3593 225.312 42.288" fill="#407BFF"/>
<path d="M222.396 40.296C223.343 39.9759 224.206 39.4464 224.921 38.7469C225.635 38.0474 226.183 37.1959 226.523 36.2556C226.863 35.3154 226.987 34.3105 226.885 33.3158C226.784 32.3211 226.459 31.362 225.936 30.51C224.875 30.6581 223.873 31.0875 223.034 31.7538C222.195 32.4201 221.55 33.2988 221.165 34.2988C220.781 35.2987 220.671 36.3834 220.847 37.4401C221.023 38.4969 221.48 39.4871 222.168 40.308" fill="#407BFF"/>
<path d="M215.34 40.632C215.68 39.6947 215.805 38.693 215.706 37.701C215.607 36.7089 215.286 35.7517 214.768 34.9C214.25 34.0483 213.547 33.3238 212.711 32.78C211.876 32.2362 210.929 31.8869 209.94 31.758C209.389 32.6748 209.095 33.7226 209.088 34.7921C209.081 35.8615 209.361 36.9132 209.899 37.8372C210.438 38.7613 211.215 39.5237 212.148 40.0449C213.082 40.5661 214.139 40.8269 215.208 40.8" fill="#407BFF"/>
<path d="M224.97 92.58L227.178 95.316H254.292L256.14 92.58H224.97Z" fill="#263238"/>
<path d="M255.546 92.556C255.546 92.646 248.88 92.712 240.666 92.712C232.452 92.712 225.78 92.646 225.78 92.556C225.78 92.466 232.44 92.4 240.666 92.4C248.892 92.4 255.546 92.472 255.546 92.556Z" fill="#455A64"/>
<path d="M252.498 82.26C252.453 82.3418 252.397 82.4166 252.33 82.482C252.158 82.6925 251.973 82.8928 251.778 83.082C251.064 83.7557 250.255 84.3216 249.378 84.762C248.067 85.4077 246.638 85.7773 245.178 85.848C244.308 85.8876 243.437 85.815 242.586 85.632C241.681 85.4226 240.797 85.1294 239.946 84.756C238.2 84.012 236.61 83.166 235.062 82.674C233.72 82.1828 232.274 82.0424 230.862 82.266C229.907 82.4303 229.013 82.8443 228.27 83.466C227.754 83.916 227.562 84.258 227.532 84.234C227.566 84.1458 227.612 84.0629 227.67 83.988C227.824 83.7714 227.999 83.5705 228.192 83.388C228.925 82.7103 229.834 82.251 230.814 82.062C232.269 81.7928 233.77 81.9128 235.164 82.41C236.748 82.896 238.356 83.748 240.084 84.48C240.918 84.8448 241.784 85.134 242.67 85.344C243.495 85.5247 244.34 85.6013 245.184 85.572C246.619 85.5203 248.028 85.1816 249.33 84.576C250.497 83.969 251.565 83.1881 252.498 82.26V82.26Z" fill="#455A64"/>
<path d="M252.768 80.142C252.716 80.2203 252.653 80.291 252.582 80.352C252.394 80.5451 252.194 80.7255 251.982 80.892C251.218 81.5197 250.375 82.0442 249.474 82.452C248.128 83.0537 246.681 83.3996 245.208 83.472C244.338 83.5076 243.467 83.4493 242.61 83.298C241.699 83.1158 240.804 82.861 239.934 82.536C238.134 81.888 236.502 81.138 234.93 80.7C233.556 80.2666 232.105 80.1356 230.676 80.316C229.714 80.4518 228.796 80.8025 227.988 81.342C227.424 81.738 227.178 82.038 227.154 82.014C227.203 81.9331 227.261 81.8586 227.328 81.792C227.51 81.5914 227.711 81.4086 227.928 81.246C228.73 80.6491 229.665 80.2558 230.652 80.1C232.114 79.8809 233.606 79.9916 235.02 80.424C236.622 80.856 238.278 81.624 240.048 82.224C240.905 82.5434 241.786 82.7942 242.682 82.974C243.514 83.1312 244.361 83.1956 245.208 83.166C246.653 83.1116 248.076 82.7944 249.408 82.23C250.617 81.6877 251.747 80.9854 252.768 80.142V80.142Z" fill="#455A64"/>
<path d="M214.146 98.352H211.5V105.732H214.146V98.352Z" fill="#455A64"/>
<path d="M251.91 98.352H249.264V105.732H251.91V98.352Z" fill="#455A64"/>
<path d="M250.608 252.27C249.588 253.734 247.608 253.248 246.666 252.354C245.724 251.46 245.352 250.164 244.998 248.928C244.188 246.108 243.366 243.144 243.972 240.27C244.117 239.399 244.499 238.586 245.076 237.918C245.369 237.584 245.746 237.335 246.168 237.196C246.59 237.057 247.042 237.032 247.476 237.126C248.478 237.39 249.108 238.374 249.558 239.31C250.886 242.074 251.583 245.099 251.598 248.166C251.696 249.601 251.357 251.032 250.626 252.27" fill="#407BFF"/>
<g opacity="0.2">
<path opacity="0.2" d="M250.608 252.27C249.588 253.734 247.608 253.248 246.666 252.354C245.724 251.46 245.352 250.164 244.998 248.928C244.188 246.108 243.366 243.144 243.972 240.27C244.117 239.399 244.499 238.586 245.076 237.918C245.369 237.584 245.746 237.335 246.168 237.196C246.59 237.057 247.042 237.032 247.476 237.126C248.478 237.39 249.108 238.374 249.558 239.31C250.886 242.074 251.583 245.099 251.598 248.166C251.696 249.601 251.357 251.032 250.626 252.27" fill="black"/>
</g>
<path d="M246.768 259.686C245.049 258.88 243.117 258.645 241.254 259.014C240.238 259.102 239.28 259.524 238.53 260.214C237.852 260.964 237.72 262.29 238.5 262.932C239.006 263.273 239.615 263.428 240.222 263.37C241.68 263.37 243.294 263.094 244.458 263.97C245.124 264.468 245.568 265.302 246.36 265.548C246.758 265.64 247.175 265.6 247.547 265.433C247.92 265.266 248.228 264.982 248.424 264.624C248.803 263.895 248.887 263.049 248.658 262.26C248.562 261.714 248.342 261.198 248.014 260.752C247.686 260.306 247.26 259.941 246.768 259.686V259.686Z" fill="#407BFF"/>
<path d="M253.428 254.4C252.9 253.712 252.549 252.906 252.405 252.052C252.261 251.197 252.328 250.321 252.6 249.498C253.162 247.857 254.167 246.403 255.504 245.298C257.021 243.945 258.788 242.901 260.706 242.226C261.448 241.925 262.247 241.79 263.046 241.83C263.446 241.854 263.835 241.976 264.177 242.185C264.519 242.394 264.804 242.685 265.008 243.03C265.554 244.074 265.008 245.34 264.462 246.372C263.461 248.194 262.318 249.933 261.042 251.574C260.022 252.894 258.846 254.196 257.286 254.796C255.726 255.396 254.106 255.318 253.278 254.238" fill="#407BFF"/>
<path d="M250.68 274.362C250.628 274.144 250.598 273.92 250.59 273.696L250.41 271.896C250.319 271.002 250.183 270.113 250.002 269.232C249.766 268.16 249.443 267.108 249.036 266.088C248.636 265.067 248.095 264.108 247.428 263.238C246.885 262.53 246.193 261.95 245.4 261.54C244.862 261.273 244.285 261.093 243.69 261.006C243.465 261.001 243.241 260.969 243.024 260.91C243.249 260.888 243.477 260.888 243.702 260.91C244.325 260.953 244.935 261.109 245.502 261.372C246.338 261.767 247.071 262.351 247.644 263.076C248.339 263.954 248.899 264.931 249.306 265.974C249.719 267.01 250.04 268.08 250.266 269.172C250.44 270.064 250.558 270.966 250.62 271.872C250.68 272.64 250.704 273.264 250.71 273.672C250.726 273.902 250.716 274.134 250.68 274.362V274.362Z" fill="#263238"/>
<path d="M250.554 272.964C250.546 272.862 250.546 272.76 250.554 272.658C250.554 272.424 250.554 272.13 250.554 271.776C250.554 271.008 250.554 269.898 250.512 268.53C250.446 265.788 250.206 262.008 249.75 257.856C249.294 253.704 248.688 249.954 248.13 247.272C247.998 246.6 247.866 245.994 247.746 245.472C247.626 244.95 247.524 244.482 247.428 244.11C247.332 243.738 247.278 243.51 247.218 243.252C247.192 243.154 247.174 243.053 247.164 242.952C247.215 243.042 247.251 243.139 247.272 243.24C247.344 243.462 247.428 243.744 247.53 244.086C247.632 244.428 247.758 244.908 247.896 245.436C248.034 245.964 248.178 246.57 248.322 247.236C249.079 250.733 249.648 254.268 250.026 257.826C250.482 261.99 250.686 265.782 250.704 268.524C250.704 269.898 250.704 271.008 250.656 271.776C250.656 272.136 250.638 272.43 250.602 272.658C250.602 272.762 250.586 272.865 250.554 272.964Z" fill="#263238"/>
<path d="M250.536 265.65C250.511 265.345 250.511 265.037 250.536 264.732C250.572 264.132 250.65 263.28 250.818 262.23C251.025 261.006 251.299 259.794 251.64 258.6C252.043 257.129 252.552 255.689 253.164 254.292C254.217 251.719 255.732 249.36 257.634 247.332C257.96 246.982 258.311 246.655 258.684 246.354C258.846 246.216 258.99 246.078 259.134 245.97L259.542 245.688C259.789 245.506 260.048 245.339 260.316 245.19C259.424 245.898 258.575 246.657 257.772 247.464C255.935 249.51 254.462 251.856 253.416 254.4C252.811 255.789 252.298 257.216 251.88 258.672C251.484 260.01 251.22 261.24 251.016 262.272C250.812 263.304 250.716 264.156 250.65 264.744C250.636 265.049 250.598 265.352 250.536 265.65V265.65Z" fill="#263238"/>
</svg>
