<svg width="300" height="300" viewBox="0 0 300 300" fill="none" xmlns="http://www.w3.org/2000/svg">
<g clip-path="url(#clip0_20_790)">
<path d="M291.219 174.459C281.709 201.358 262.288 230.473 234.957 239.095C193.636 252.125 188.729 287.291 114.764 284.03C103.959 283.61 93.2301 281.95 82.7655 279.078C77.6571 277.651 72.6391 275.886 67.7413 273.791C24.5281 255.297 1.98859 214.599 0.122673 172.017C-2.3437 116.004 34.639 89.3103 58.6764 73.6817C82.7139 58.0531 111.684 -2.48994 184.416 0.0818544C195.523 0.43395 206.555 2.13697 217.293 5.15723C241.769 12.1563 266.646 27.6349 281.108 50.2626C282.193 51.9681 283.23 53.7053 284.22 55.4745C303.577 90.163 304.177 137.786 291.219 174.459Z" fill="#92E3A9"/>
<path opacity="0.8" d="M291.219 174.459C281.709 201.358 262.288 230.473 234.957 239.095C193.636 252.125 188.729 287.291 114.764 284.03C103.959 283.61 93.2301 281.95 82.7655 279.078C77.6571 277.651 72.6391 275.886 67.7413 273.791C24.5281 255.297 1.98859 214.599 0.122673 172.017C-2.3437 116.004 34.639 89.3103 58.6764 73.6817C82.7139 58.0531 111.684 -2.48994 184.416 0.0818544C195.523 0.43395 206.555 2.13697 217.293 5.15723C241.769 12.1563 266.646 27.6349 281.108 50.2626C282.193 51.9681 283.23 53.7053 284.22 55.4745C303.577 90.163 304.177 137.786 291.219 174.459Z" fill="white"/>
<path d="M9.06488 299.645H298.496" stroke="#263238" stroke-linecap="round" stroke-linejoin="round"/>
<path d="M120.949 14.5781H20.5058V158.913H120.949V14.5781Z" stroke="#263238" stroke-linecap="round" stroke-linejoin="round"/>
<path d="M118.16 18.5893H23.295V154.908H118.16V18.5893Z" stroke="#263238" stroke-linecap="round" stroke-linejoin="round"/>
<path d="M23.3208 25.6907H118.057" stroke="#263238" stroke-linecap="round" stroke-linejoin="round"/>
<path d="M23.3208 33.3379H118.057" stroke="#263238" stroke-linecap="round" stroke-linejoin="round"/>
<path d="M23.3208 40.9851H118.057" stroke="#263238" stroke-linecap="round" stroke-linejoin="round"/>
<path d="M23.3208 48.6254H118.057" stroke="#263238" stroke-linecap="round" stroke-linejoin="round"/>
<path d="M23.3208 56.2726H118.057" stroke="#263238" stroke-linecap="round" stroke-linejoin="round"/>
<path d="M23.3208 63.9198H118.057" stroke="#263238" stroke-linecap="round" stroke-linejoin="round"/>
<path d="M23.3208 71.567H118.057" stroke="#263238" stroke-linecap="round" stroke-linejoin="round"/>
<path d="M23.3208 79.2141H118.057" stroke="#263238" stroke-linecap="round" stroke-linejoin="round"/>
<path d="M23.3208 86.8545H118.057" stroke="#263238" stroke-linecap="round" stroke-linejoin="round"/>
<path d="M23.3208 94.5017H118.057" stroke="#263238" stroke-linecap="round" stroke-linejoin="round"/>
<path d="M23.3208 102.149H118.057" stroke="#263238" stroke-linecap="round" stroke-linejoin="round"/>
<path d="M23.3208 109.796H118.057" stroke="#263238" stroke-linecap="round" stroke-linejoin="round"/>
<path d="M23.3208 117.443H118.057" stroke="#263238" stroke-linecap="round" stroke-linejoin="round"/>
<path d="M23.3208 125.084H118.057" stroke="#263238" stroke-linecap="round" stroke-linejoin="round"/>
<path d="M23.3208 132.731H118.057" stroke="#263238" stroke-linecap="round" stroke-linejoin="round"/>
<path d="M23.3208 140.378H118.057" stroke="#263238" stroke-linecap="round" stroke-linejoin="round"/>
<path d="M23.3208 148.025H118.057" stroke="#263238" stroke-linecap="round" stroke-linejoin="round"/>
<path d="M166.713 14.5781H164.737V113.371H166.713V14.5781Z" fill="#263238"/>
<path d="M170.128 14.5781H168.152V113.371H170.128V14.5781Z" fill="#263238"/>
<path d="M178.224 14.5781H176.249V104.461H178.224V14.5781Z" fill="#263238"/>
<path d="M196.935 14.5781H194.96V104.461H196.935V14.5781Z" fill="#263238"/>
<path d="M209.706 14.5781H207.731V104.461H209.706V14.5781Z" fill="#263238"/>
<path d="M223.2 14.5781H221.225V104.461H223.2V14.5781Z" fill="#263238"/>
<path d="M226.797 14.5781H224.821V113.371H226.797V14.5781Z" fill="#263238"/>
<path d="M230.393 14.5781H228.417V113.371H230.393V14.5781Z" fill="#263238"/>
<path d="M243.525 14.5781H241.55V104.461H243.525V14.5781Z" fill="#263238"/>
<path d="M257.2 14.5781H255.224V104.461H257.2V14.5781Z" fill="#263238"/>
<path d="M270.333 14.5781H268.357V104.461H270.333V14.5781Z" fill="#263238"/>
<path d="M274.116 14.5781H272.134V104.461H274.116V14.5781Z" fill="#263238"/>
<path d="M283.465 14.5781H281.489V104.461H283.465V14.5781Z" fill="#263238"/>
<path d="M287.423 14.5781H285.447V113.371H287.423V14.5781Z" fill="#263238"/>
<path d="M291.2 14.5781H289.224V113.371H291.2V14.5781Z" fill="#263238"/>
<path d="M183.261 14.5781H179.664V104.461H183.261V14.5781Z" fill="#263238"/>
<path d="M189.02 14.5781H185.423V104.461H189.02V14.5781Z" fill="#263238"/>
<path d="M205.929 14.5781H202.333V104.461H205.929V14.5781Z" fill="#263238"/>
<path d="M215.285 14.5781H211.688V104.461H215.285V14.5781Z" fill="#263238"/>
<path d="M237.953 14.5781H232.736V104.461H237.953V14.5781Z" fill="#263238"/>
<path d="M250.905 14.5781H245.688V104.461H250.905V14.5781Z" fill="#263238"/>
<path d="M264.399 14.5781H259.182V104.461H264.399V14.5781Z" fill="#263238"/>
<path d="M181.472 123.883C180.77 123.921 180.072 123.736 179.471 123.351C178.962 122.987 178.579 122.457 178.379 121.843C178.137 121.112 178.021 120.34 178.037 119.565C178.026 118.999 178.089 118.434 178.224 117.887C178.327 117.488 178.495 117.112 178.722 116.775C178.91 116.507 179.142 116.276 179.406 116.093C179.643 115.926 179.889 115.773 180.142 115.635C179.555 115.382 179.059 114.941 178.722 114.373C178.33 113.663 178.141 112.848 178.179 112.027C178.169 111.345 178.278 110.667 178.502 110.028C178.705 109.464 179.077 108.985 179.561 108.664C180.148 108.305 180.821 108.135 181.498 108.172C182.165 108.137 182.828 108.31 183.403 108.67C183.87 109.004 184.23 109.48 184.436 110.035C184.66 110.679 184.769 111.361 184.758 112.047C184.8 112.858 184.616 113.665 184.229 114.367C183.888 114.926 183.395 115.363 182.815 115.622C183.067 115.758 183.311 115.91 183.545 116.079C183.794 116.267 184.012 116.497 184.19 116.761C184.419 117.099 184.591 117.475 184.7 117.873C184.841 118.42 184.906 118.985 184.894 119.551C184.91 120.326 184.794 121.098 184.552 121.83C184.352 122.442 183.972 122.97 183.467 123.337C182.868 123.725 182.174 123.915 181.472 123.883ZM181.472 122.785C181.894 122.806 182.311 122.682 182.66 122.43C182.998 122.165 183.245 121.792 183.364 121.366C183.656 120.231 183.656 119.035 183.364 117.9C183.253 117.463 183.029 117.066 182.718 116.754C182.367 116.442 181.925 116.267 181.466 116.256C180.995 116.265 180.54 116.44 180.174 116.754C179.848 117.06 179.611 117.458 179.49 117.9C179.342 118.441 179.273 119.002 179.283 119.565C179.265 120.176 179.348 120.785 179.529 121.366C179.647 121.802 179.904 122.182 180.257 122.441C180.61 122.7 181.037 122.821 181.466 122.785H181.472ZM181.472 114.981C181.902 114.987 182.321 114.832 182.654 114.544C182.948 114.258 183.159 113.889 183.261 113.48C183.382 112.99 183.441 112.485 183.435 111.979C183.482 111.263 183.32 110.548 182.97 109.932C182.793 109.696 182.564 109.511 182.303 109.392C182.041 109.272 181.756 109.224 181.472 109.25C181.186 109.223 180.897 109.272 180.633 109.391C180.368 109.51 180.135 109.696 179.955 109.932C179.595 110.544 179.428 111.261 179.477 111.979C179.47 112.486 179.53 112.991 179.658 113.48C179.763 113.897 179.989 114.269 180.303 114.544C180.636 114.824 181.047 114.977 181.472 114.981V114.981Z" fill="#263238"/>
<path d="M192.293 123.883C191.661 123.906 191.032 123.771 190.459 123.487C189.972 123.227 189.581 122.802 189.349 122.28C189.086 121.653 188.954 120.974 188.962 120.288V120.008H190.253C190.194 120.736 190.35 121.465 190.698 122.096C191.055 122.435 191.502 122.649 191.979 122.708C192.456 122.767 192.938 122.667 193.358 122.423C193.689 122.168 193.927 121.803 194.036 121.386C194.21 120.746 194.289 120.081 194.269 119.415V116.509C194.03 116.779 193.739 116.993 193.417 117.136C192.945 117.337 192.44 117.432 191.932 117.416C191.269 117.458 190.61 117.289 190.04 116.932C189.556 116.57 189.211 116.038 189.065 115.431C188.853 114.579 188.757 113.699 188.781 112.818C188.764 111.978 188.882 111.141 189.129 110.342C189.331 109.69 189.722 109.122 190.246 108.718C190.84 108.304 191.544 108.101 192.254 108.138C192.943 108.101 193.624 108.305 194.191 108.718C194.706 109.135 195.083 109.713 195.27 110.369C195.516 111.203 195.632 112.074 195.612 112.948V119.087C195.626 119.93 195.517 120.77 195.289 121.577C195.114 122.238 194.754 122.828 194.256 123.269C193.69 123.71 192.995 123.927 192.293 123.883V123.883ZM192.241 116.331C192.689 116.353 193.134 116.252 193.533 116.038C193.815 115.885 194.07 115.682 194.288 115.438V112.798C194.306 112.109 194.236 111.42 194.082 110.751C194.008 110.312 193.781 109.918 193.447 109.645C193.113 109.373 192.695 109.242 192.274 109.278C191.855 109.261 191.442 109.383 191.092 109.626C190.752 109.895 190.503 110.273 190.382 110.703C190.212 111.296 190.134 111.913 190.15 112.532C190.14 113.237 190.185 113.942 190.285 114.639C190.337 115.116 190.542 115.559 190.866 115.895C191.26 116.21 191.748 116.365 192.241 116.331Z" fill="#263238"/>
<path d="M203.87 123.712V119.203H199.479V117.777L203.618 108.288H205.167V117.934H206.84V119.19H205.167V123.712H203.87ZM200.809 117.948H203.87V110.13L200.809 117.948Z" fill="#263238"/>
<path d="M211.056 123.712L213.903 109.387H209.487V108.268H215.252V108.95L212.334 123.712H211.056Z" fill="#263238"/>
<path d="M239.994 123.883C239.267 123.926 238.547 123.72 237.94 123.296C237.431 122.889 237.054 122.324 236.862 121.68C236.638 120.923 236.529 120.133 236.539 119.34V112.641C236.525 111.844 236.639 111.051 236.875 110.294C237.071 109.654 237.455 109.097 237.973 108.705C238.574 108.297 239.28 108.099 239.994 108.138C240.717 108.095 241.435 108.293 242.047 108.705C242.56 109.099 242.942 109.656 243.138 110.294C243.371 111.051 243.484 111.844 243.474 112.641V119.34C243.486 120.14 243.375 120.937 243.144 121.7C242.958 122.343 242.58 122.906 242.066 123.303C241.451 123.724 240.725 123.927 239.994 123.883V123.883ZM239.994 122.785C240.462 122.812 240.924 122.651 241.285 122.334C241.603 122.01 241.827 121.595 241.931 121.141C242.06 120.59 242.123 120.023 242.118 119.456V112.552C242.123 111.984 242.06 111.418 241.931 110.867C241.827 110.413 241.603 109.999 241.285 109.673C240.918 109.368 240.46 109.213 239.994 109.237C239.527 109.207 239.066 109.362 238.702 109.673C238.38 109.995 238.156 110.411 238.057 110.867C237.921 111.417 237.856 111.984 237.863 112.552V119.456C237.857 120.024 237.922 120.59 238.057 121.141C238.155 121.597 238.38 122.013 238.702 122.334C239.062 122.653 239.525 122.814 239.994 122.785Z" fill="#263238"/>
<path d="M251.105 123.883C250.379 123.927 249.658 123.721 249.052 123.296C248.541 122.891 248.163 122.325 247.974 121.68C247.746 120.923 247.637 120.133 247.651 119.34V112.641C247.638 111.845 247.749 111.052 247.98 110.294C248.176 109.654 248.56 109.097 249.078 108.705C249.7 108.333 250.403 108.138 251.118 108.138C251.833 108.138 252.536 108.333 253.158 108.705C253.67 109.099 254.05 109.656 254.243 110.294C254.479 111.051 254.593 111.844 254.579 112.641V119.34C254.59 120.14 254.481 120.936 254.256 121.7C254.067 122.342 253.689 122.904 253.178 123.303C252.562 123.722 251.837 123.925 251.105 123.883V123.883ZM251.105 122.785C251.574 122.814 252.036 122.653 252.396 122.334C252.717 122.011 252.942 121.597 253.042 121.141C253.177 120.59 253.242 120.024 253.236 119.456V112.552C253.243 111.984 253.177 111.417 253.042 110.867C252.943 110.41 252.719 109.995 252.396 109.673C252.018 109.394 251.567 109.244 251.105 109.244C250.643 109.244 250.192 109.394 249.814 109.673C249.494 109.997 249.27 110.412 249.168 110.867C249.038 111.418 248.975 111.984 248.981 112.552V119.456C248.976 120.023 249.039 120.589 249.168 121.141C249.267 121.597 249.492 122.013 249.814 122.334C250.173 122.655 250.636 122.816 251.105 122.785V122.785Z" fill="#263238"/>
<path d="M262.21 123.883C261.484 123.926 260.764 123.72 260.157 123.296C259.648 122.889 259.271 122.324 259.079 121.68C258.855 120.923 258.746 120.133 258.756 119.34V112.641C258.742 111.844 258.856 111.051 259.092 110.294C259.287 109.654 259.672 109.097 260.189 108.705C260.79 108.297 261.497 108.099 262.21 108.138C262.934 108.095 263.652 108.293 264.263 108.705C264.777 109.099 265.159 109.656 265.355 110.294C265.588 111.051 265.701 111.844 265.69 112.641V119.34C265.703 120.14 265.591 120.937 265.361 121.7C265.175 122.343 264.797 122.906 264.283 123.303C263.668 123.724 262.942 123.927 262.21 123.883V123.883ZM262.21 122.785C262.679 122.812 263.14 122.651 263.502 122.334C263.82 122.01 264.044 121.595 264.147 121.141C264.276 120.59 264.339 120.023 264.334 119.456V112.552C264.34 111.984 264.277 111.418 264.147 110.867C264.043 110.413 263.819 109.999 263.502 109.673C263.135 109.368 262.676 109.213 262.21 109.237C261.743 109.207 261.283 109.362 260.919 109.673C260.597 109.995 260.372 110.411 260.273 110.867C260.138 111.417 260.073 111.984 260.08 112.552V119.456C260.074 120.024 260.139 120.59 260.273 121.141C260.372 121.597 260.596 122.013 260.919 122.334C261.279 122.653 261.741 122.814 262.21 122.785Z" fill="#263238"/>
<path d="M270.533 123.712L273.374 109.421H268.964V108.302H274.723V108.984L271.811 123.712H270.533Z" fill="#263238"/>
<path d="M150.552 236.319H84.6831V299.516H150.552V236.319Z" fill="#92E3A9"/>
<path opacity="0.3" d="M150.552 236.319H84.6831V299.516H150.552V236.319Z" fill="black" stroke="#263238" stroke-linecap="round" stroke-linejoin="round"/>
<path d="M150.552 236.319H84.6831V299.516H150.552V236.319Z" stroke="#263238" stroke-linecap="round" stroke-linejoin="round"/>
<path d="M131.628 236.319H84.6831V299.516H131.628V236.319Z" fill="#92E3A9" stroke="#263238" stroke-linecap="round" stroke-linejoin="round"/>
<path d="M112.911 236.319H102.826V253.96H112.911V236.319Z" fill="white" stroke="#263238" stroke-linecap="round" stroke-linejoin="round"/>
<path d="M127.186 259.117H115.493V265.421H127.186V259.117Z" fill="white"/>
<path d="M104.058 269.697L92.0117 266.548L90.2342 274.137L102.28 277.286L104.058 269.697Z" fill="white"/>
<path d="M202.359 236.319H136.49V299.516H202.359V236.319Z" fill="#92E3A9"/>
<path opacity="0.3" d="M202.359 236.319H136.49V299.516H202.359V236.319Z" fill="black" stroke="#263238" stroke-linecap="round" stroke-linejoin="round"/>
<path d="M202.359 236.319H136.49V299.516H202.359V236.319Z" stroke="#263238" stroke-linecap="round" stroke-linejoin="round"/>
<path d="M183.435 236.319H136.49V299.516H183.435V236.319Z" fill="#92E3A9" stroke="#263238" stroke-linecap="round" stroke-linejoin="round"/>
<path d="M164.718 236.319H154.633V253.96H164.718V236.319Z" fill="white" stroke="#263238" stroke-linecap="round" stroke-linejoin="round"/>
<path d="M174.215 284.214H162.522V290.518H174.215V284.214Z" fill="white"/>
<path d="M155.858 269.7L143.812 266.55L142.035 274.139L154.081 277.289L155.858 269.7Z" fill="white"/>
<path d="M254.54 236.319H188.671V299.516H254.54V236.319Z" fill="#92E3A9"/>
<path opacity="0.3" d="M254.54 236.319H188.671V299.516H254.54V236.319Z" fill="black" stroke="#263238" stroke-linecap="round" stroke-linejoin="round"/>
<path d="M254.54 236.319H188.671V299.516H254.54V236.319Z" stroke="#263238" stroke-linecap="round" stroke-linejoin="round"/>
<path d="M235.616 236.319H188.671V299.516H235.616V236.319Z" fill="#92E3A9" stroke="#263238" stroke-linecap="round" stroke-linejoin="round"/>
<path d="M216.892 236.319H206.807V253.96H216.892V236.319Z" fill="white" stroke="#263238" stroke-linecap="round" stroke-linejoin="round"/>
<path d="M231.626 264.273L223.188 255.721L219.058 260.27L227.496 268.822L231.626 264.273Z" fill="white"/>
<path d="M208.035 269.703L195.989 266.554L194.212 274.142L206.258 277.292L208.035 269.703Z" fill="white"/>
<path d="M177.456 173.422H111.587V236.619H177.456V173.422Z" fill="#92E3A9"/>
<path opacity="0.3" d="M177.456 173.422H111.587V236.619H177.456V173.422Z" fill="black" stroke="#263238" stroke-linecap="round" stroke-linejoin="round"/>
<path d="M177.456 173.422H111.587V236.619H177.456V173.422Z" stroke="#263238" stroke-linecap="round" stroke-linejoin="round"/>
<path d="M158.532 173.422H111.587V236.619H158.532V173.422Z" fill="#92E3A9" stroke="#263238" stroke-linecap="round" stroke-linejoin="round"/>
<path d="M139.815 173.422H129.73V191.064H139.815V173.422Z" fill="white" stroke="#263238" stroke-linecap="round" stroke-linejoin="round"/>
<path d="M154.09 196.214H142.398V202.517H154.09V196.214Z" fill="white"/>
<path d="M152.656 216.81L140.61 213.66L138.833 221.249L150.878 224.399L152.656 216.81Z" fill="white"/>
<path d="M229.263 173.422H163.394V236.619H229.263V173.422Z" fill="#92E3A9"/>
<path opacity="0.3" d="M229.263 173.422H163.394V236.619H229.263V173.422Z" fill="black" stroke="#263238" stroke-linecap="round" stroke-linejoin="round"/>
<path d="M229.263 173.422H163.394V236.619H229.263V173.422Z" stroke="#263238" stroke-linecap="round" stroke-linejoin="round"/>
<path d="M210.339 173.422H163.394V236.619H210.339V173.422Z" fill="#92E3A9" stroke="#263238" stroke-linecap="round" stroke-linejoin="round"/>
<path d="M191.622 173.422H181.537V191.064H191.622V173.422Z" fill="white" stroke="#263238" stroke-linecap="round" stroke-linejoin="round"/>
<path d="M197.11 197.128H185.417V203.431H197.11V197.128Z" fill="white"/>
<path d="M182.763 206.797L170.717 203.647L168.94 211.236L180.986 214.386L182.763 206.797Z" fill="white"/>
<path d="M53.7889 175.394C53.7889 175.394 56.9332 209.837 57.1269 214.605C57.3206 219.374 55.1899 221.864 55.1899 230.978C55.1899 240.091 57.3528 283.259 57.3528 283.259C57.3528 283.259 55.4159 295.293 54.6024 296.951C54.4521 297.232 54.3759 297.551 54.3816 297.873C54.3874 298.196 54.4749 298.512 54.635 298.787C54.7952 299.062 55.0221 299.286 55.2923 299.437C55.5625 299.588 55.866 299.66 56.1713 299.645H66.9472C66.9472 299.645 68.3224 297.367 67.9285 295.293C67.5347 293.219 65.9916 282.223 65.9916 282.223C65.9916 282.223 77.1807 222.873 77.7682 219.155C78.3557 215.438 83.2691 180.572 83.2691 180.572L82.6816 214.387C82.6816 214.387 81.3064 229.115 82.8753 239.696C84.4442 250.276 88.9637 283.88 88.9637 283.88L89.1574 299.645H114.486C114.486 299.645 115.274 297.783 113.899 296.746C112.523 295.709 108.398 293.629 106.435 291.555C104.472 289.481 98.9777 282.843 98.9777 282.843C98.9777 282.843 101.334 244.26 102.116 233.679C102.897 223.098 104.053 216.045 104.866 210.233C105.68 204.42 107.616 179.535 107.616 174.139C107.616 168.743 85.8194 165.632 85.8194 165.632L53.621 169.159L53.7889 175.394Z" fill="#263238" stroke="#263238" stroke-linecap="round" stroke-linejoin="round"/>
<path d="M67.9156 295.307C67.5541 293.397 66.1918 283.942 65.9787 282.441H57.2818C57.2818 282.98 57.327 283.273 57.327 283.273C57.327 283.273 55.3901 295.307 54.5766 296.964C54.4263 297.246 54.3501 297.564 54.3558 297.887C54.3616 298.21 54.449 298.525 54.6092 298.8C54.7693 299.075 54.9963 299.3 55.2665 299.451C55.5367 299.602 55.8402 299.674 56.1455 299.659H66.9407C67.412 298.835 67.742 297.93 67.9156 296.985C68.0149 296.43 68.0149 295.861 67.9156 295.307V295.307ZM114.112 296.985C114.039 296.906 113.959 296.835 113.873 296.773C112.498 295.743 108.378 293.663 106.409 291.596C104.44 289.529 98.9519 282.877 98.9519 282.877V282.837L88.77 282.659C88.8734 283.444 88.9379 283.88 88.9379 283.88L89.0993 296.951L89.1316 299.645H114.46C114.46 299.645 115.151 298.022 114.112 296.985Z" fill="white" stroke="#263238" stroke-linecap="round" stroke-linejoin="round"/>
<path d="M54.5766 296.985H67.9156C67.7422 297.937 67.4099 298.85 66.9343 299.679H56.1455C55.8402 299.694 55.5366 299.623 55.2665 299.472C54.9963 299.321 54.7693 299.096 54.6092 298.821C54.449 298.546 54.3616 298.23 54.3558 297.907C54.3501 297.585 54.4263 297.266 54.5766 296.985V296.985Z" fill="white" stroke="#263238" stroke-linecap="round" stroke-linejoin="round"/>
<path d="M114.46 299.659H89.1316L89.0993 296.964H114.112C115.151 298.022 114.46 299.659 114.46 299.659Z" fill="white" stroke="#263238" stroke-linecap="round" stroke-linejoin="round"/>
<path d="M106.093 109.646L111.942 118.31L125.546 124.395L121.795 134.252C121.795 134.252 109.844 133.795 108.017 132.963C106.937 132.484 105.935 131.83 105.047 131.025L105.137 109.278L106.093 109.646Z" fill="#263238" stroke="#263238" stroke-linecap="round" stroke-linejoin="round"/>
<path d="M163.828 122.318L129.28 108.394L110.882 159.352L145.43 173.276L163.828 122.318Z" fill="#92E3A9" stroke="#263238" stroke-linecap="round" stroke-linejoin="round"/>
<path d="M163.827 122.325L155.544 118.987L137.146 169.945L145.429 173.283L163.827 122.325Z" fill="#92E3A9"/>
<path opacity="0.3" d="M163.827 122.325L155.544 118.987L137.146 169.945L145.429 173.283L163.827 122.325Z" fill="black" stroke="#263238" stroke-linecap="round" stroke-linejoin="round"/>
<path d="M163.827 122.325L155.544 118.987L137.146 169.945L145.429 173.283L163.827 122.325Z" stroke="#263238" stroke-linecap="round" stroke-linejoin="round"/>
<path d="M136.102 110.847C136.102 110.847 138.976 109.557 139.331 109.83C139.686 110.103 139.938 112.504 139.938 112.504L136.102 110.847Z" fill="white" stroke="#263238" stroke-linecap="round" stroke-linejoin="round"/>
<path d="M139.331 109.83C139.331 109.83 141.855 110.11 142.378 111.031C142.901 111.952 142.378 113.705 142.378 113.705L139.938 112.504L139.331 109.83Z" fill="white" stroke="#263238" stroke-linecap="round" stroke-linejoin="round"/>
<path d="M142.378 111.031C142.378 111.031 144.212 111.119 144.476 111.863C144.658 112.709 144.745 113.574 144.735 114.442L142.378 113.705C142.378 113.705 142.992 111.952 142.378 111.031Z" fill="white" stroke="#263238" stroke-linecap="round" stroke-linejoin="round"/>
<path d="M144.476 111.863C144.476 111.863 146.652 111.583 146.917 113.057C147.075 113.876 147.103 114.718 147.001 115.547L144.748 114.442C144.748 114.442 144.999 112.231 144.476 111.863Z" fill="white" stroke="#263238" stroke-linecap="round" stroke-linejoin="round"/>
<path d="M110.574 176.472C107.877 177.192 105.088 177.441 102.316 177.209C97.9382 176.786 91.075 172.263 91.075 172.263C91.075 172.263 77.9425 177.311 68.0964 178.887C62.0294 179.793 55.8432 178.959 50.1862 176.472L51.4775 160.195L52.3297 149.403L53.1239 139.477L53.1691 138.85C53.1691 138.85 52.1554 134.545 50.9932 128.767C49.3985 120.895 47.539 110.253 47.5971 103.957C47.7004 93.0418 53.8663 89.6309 53.8663 89.6309L71.6733 81.5403C79.8214 81.2197 82.3136 83.9553 86.7944 84.9035C91.2752 85.8517 104.698 92.3665 105.518 94.2561C106.073 95.5863 106.642 114.721 106.919 126.7C107.042 131.714 107.113 135.459 107.113 136.087C107.113 136.271 107.113 136.769 107.19 137.451C107.339 139.58 107.694 143.809 108.127 148.721C108.417 152.132 108.772 155.891 109.069 159.492C109.844 168.449 110.574 176.472 110.574 176.472Z" fill="#92E3A9" stroke="#263238" stroke-linecap="round" stroke-linejoin="round"/>
<path d="M53.1755 138.85C53.1755 138.85 52.1618 134.545 50.9997 128.767L106.9 126.721C107.022 131.735 107.094 135.48 107.094 136.108C107.094 136.292 107.094 136.79 107.171 137.472L53.1303 139.45L53.1755 138.85Z" fill="white" stroke="#263238" stroke-linecap="round" stroke-linejoin="round"/>
<path d="M109.05 159.54L51.4839 160.222L52.3362 149.43L108.107 148.796C108.398 152.186 108.733 155.938 109.05 159.54Z" fill="white" stroke="#263238" stroke-linecap="round" stroke-linejoin="round"/>
<path d="M90.3131 127.471C90.3131 127.471 91.8821 155.065 90.5068 170.414" stroke="#263238" stroke-linecap="round" stroke-linejoin="round"/>
<path d="M96.8471 74.6299C96.8471 74.6299 97.9382 84.6101 98.1384 85.5447C98.3385 86.4793 96.2466 86.9091 92.6633 86.4929L89.0864 86.07C89.0864 86.07 91.1719 82.1816 91.7723 81.131C92.3728 80.0805 96.8471 74.6299 96.8471 74.6299Z" fill="#263238" stroke="#263238" stroke-linecap="round" stroke-linejoin="round"/>
<path d="M88.0921 86.0836C88.0448 87.2453 88.1119 88.4089 88.2923 89.5559C88.5893 91.7593 89.9774 110.26 89.7837 112.675C89.59 115.09 89.4803 115.936 89.4803 115.936C89.4803 115.936 83.5145 100.798 79.3371 94.1742C75.1598 87.5503 73.1712 84.4055 72.9711 83.8802C72.7709 83.3549 72.2738 68.1902 72.2738 68.1902C72.2738 68.1902 74.8564 69.1384 76.0508 71.2395C77.2452 73.3406 80.9254 77.7543 83.5145 80.79C86.1035 83.8256 88.0921 86.0836 88.0921 86.0836Z" fill="white" stroke="#263238" stroke-linecap="round" stroke-linejoin="round"/>
<path d="M80.6672 80.981L86.8396 91.7116L88.4149 90.7156L89.0864 86.0836L79.1241 77.3723L80.6672 80.981Z" fill="#263238" stroke="#263238" stroke-linecap="round" stroke-linejoin="round"/>
<path d="M85.0059 92.8099C82.0489 93.4375 74.9403 85.2036 72.8613 82.7C72.8703 83.0958 72.9069 83.4902 72.9711 83.8802C73.1712 84.4055 75.1598 87.5571 79.3371 94.1742C83.5145 100.791 89.4802 115.936 89.4802 115.936C89.4802 115.936 89.5836 115.09 89.7837 112.675C89.958 110.505 88.854 95.3885 88.4149 90.7156C87.5341 91.7993 86.333 92.5372 85.0059 92.8099V92.8099Z" fill="#263238" stroke="#263238" stroke-linecap="round" stroke-linejoin="round"/>
<path d="M99.1327 61.5935C99.1327 61.5935 97.9382 68.9542 97.9382 70.7415C97.9382 72.5288 98.0351 75.046 95.5493 78.7298C93.0636 82.4135 90.9717 86.1928 89.5836 86.718C88.6056 87.0044 87.5757 87.0297 86.5863 86.7915C85.5968 86.5534 84.6788 86.0593 83.9148 85.3537C82.023 83.6755 77.2452 76.0011 76.6512 75.2643C76.2058 74.6505 75.8369 73.9788 75.5537 73.2656L74.1655 71.5874C74.1655 71.5874 71.3763 70.6392 71.5829 66.9623C71.5966 65.9518 71.8495 64.9611 72.3187 64.0805C72.7879 63.1999 73.4583 62.4575 74.2688 61.921L78.6463 57.8279C85.0983 60.773 92.1184 62.0634 99.1327 61.5935V61.5935Z" fill="white" stroke="#263238" stroke-linecap="round" stroke-linejoin="round"/>
<path d="M94.6583 66.1164C94.6583 66.1164 93.4639 69.691 93.4639 70.0048C93.4639 70.3186 94.555 76.2057 93.961 76.6287C93.3671 77.0516 90.0872 76.0966 90.0872 76.0966" stroke="#263238" stroke-linecap="round" stroke-linejoin="round"/>
<path d="M85.1028 75.7828C85.1028 75.7828 87.4917 79.3574 91.4753 78.6206" stroke="#263238" stroke-linecap="round" stroke-linejoin="round"/>
<path d="M87.4077 69.5818C87.9105 69.5818 88.3181 68.8855 88.3181 68.0265C88.3181 67.1675 87.9105 66.4711 87.4077 66.4711C86.905 66.4711 86.4974 67.1675 86.4974 68.0265C86.4974 68.8855 86.905 69.5818 87.4077 69.5818Z" fill="#263238"/>
<path d="M96.2596 70.189C96.7623 70.189 97.1699 69.4926 97.1699 68.6336C97.1699 67.7746 96.7623 67.0782 96.2596 67.0782C95.7568 67.0782 95.3492 67.7746 95.3492 68.6336C95.3492 69.4926 95.7568 70.189 96.2596 70.189Z" fill="#263238"/>
<path d="M85.9034 65.3796C86.4876 64.8982 87.163 64.5552 87.8838 64.374C88.6046 64.1927 89.3538 64.1774 90.0807 64.3291" stroke="#263238" stroke-linecap="round" stroke-linejoin="round"/>
<path d="M95.6785 64.8544C96.1126 64.6796 96.5843 64.6361 97.0405 64.7289C97.4967 64.8217 97.9194 65.0471 98.2611 65.3796" stroke="#263238" stroke-linecap="round" stroke-linejoin="round"/>
<path d="M79.9311 60.3315C79.9311 60.3315 80.3314 62.9647 79.434 64.2268C78.7011 65.1653 77.8669 66.0101 76.9482 66.744C76.9482 66.744 75.2566 63.5923 73.6684 64.9567C72.0801 66.321 72.4739 68.3198 72.8677 69.3703C73.2076 70.1621 73.6415 70.9048 74.159 71.5806L73.8621 84.4055C71.4948 84.2598 69.1368 83.9774 66.7987 83.5596C64.5827 83.0169 62.5299 81.8984 60.8264 80.3056C60.7537 77.0964 61.3304 73.9077 62.518 70.953C63.8024 67.7562 65.3674 64.6935 67.1925 61.805L68.387 56.7638L79.9311 60.3315Z" fill="#263238" stroke="#263238" stroke-linecap="round" stroke-linejoin="round"/>
<path d="M65.0748 57.0639C65.0748 57.0639 82.4169 62.2689 84.1149 63.2035C85.813 64.1381 100.947 63.7424 103.155 62.5213C105.363 61.3002 101.793 58.21 101.793 58.21C101.793 58.21 99.5976 55.5222 99.4297 54.6217C99.2618 53.7213 99.7848 44.5801 96.0465 39.9072C92.3082 35.2343 82.249 34.5794 77.8457 35.4935C72.2738 36.6464 67.7994 41.1488 67.2894 43.1203C66.7793 45.0917 66.6243 53.1141 66.4371 53.653C66.2499 54.192 65.0748 57.0639 65.0748 57.0639Z" fill="white" stroke="#263238" stroke-linecap="round" stroke-linejoin="round"/>
<path d="M108.081 112.886C108.081 112.886 109.179 109.414 110.173 109.312C111.168 109.209 113.853 111.31 114.648 110.785C115.442 110.26 118.431 103.008 117.831 101.637C117.23 100.266 104.705 95.8592 103.013 96.1798C101.321 96.5004 98.2352 111.317 98.2352 111.317L108.081 112.886Z" fill="#92E3A9" stroke="#263238" stroke-linecap="round" stroke-linejoin="round"/>
<path d="M115.448 100.136L111.878 109.898C112.962 110.437 114.163 111.106 114.648 110.785C115.448 110.26 118.431 103.008 117.831 101.637C117.682 101.296 116.759 100.75 115.448 100.136Z" fill="#263238" stroke="#263238" stroke-linecap="round" stroke-linejoin="round"/>
<path d="M99.5524 111.515L103.652 96.1935C103.438 96.1624 103.221 96.1624 103.007 96.1935C101.315 96.5073 98.2288 111.331 98.2288 111.331L99.5524 111.515Z" fill="#263238" stroke="#263238" stroke-linecap="round" stroke-linejoin="round"/>
<path d="M87.892 118.664C87.892 118.664 98.2611 110.069 98.5322 110.069C98.8034 110.069 108.779 111.542 109.179 112.907C109.45 113.794 109.45 114.748 109.179 115.635C109.082 115.956 108.185 116.372 107.888 116.584C107.591 116.795 106.396 121.632 105.202 122.785C104.007 123.938 103.407 124.258 101.418 123.944C99.7936 123.564 98.2224 122.964 96.7438 122.157L90.2873 124.674L87.892 118.664Z" fill="white" stroke="#263238" stroke-linecap="round" stroke-linejoin="round"/>
<path d="M66.5017 124.129C66.5017 124.129 59.3414 95.3339 57.256 92.7076C55.1706 90.0812 53.2724 89.3444 49.392 94.5972C45.5117 99.8499 47.5067 112.047 49.8892 124.34C52.2716 136.633 56.5587 143.68 57.85 143.577C59.1413 143.475 90.9717 125.841 90.9717 125.841L88.3891 117.955L66.5017 124.129Z" fill="#263238" stroke="#263238" stroke-linecap="round" stroke-linejoin="round"/>
<path d="M65.7075 124.654C64.6002 124.894 63.5517 125.373 62.6275 126.061C61.7032 126.749 60.9231 127.631 60.3357 128.651" stroke="white" stroke-linecap="round" stroke-linejoin="round"/>
<path d="M60.9362 125.179C60.9362 125.179 60.0387 126.025 58.9411 129.804" stroke="white" stroke-linecap="round" stroke-linejoin="round"/>
</g>
<defs>
<clipPath id="clip0_20_790">
<rect width="300" height="300" fill="white"/>
</clipPath>
</defs>
</svg>
