<svg xmlns="http://www.w3.org/2000/svg" viewBox="0 0 500 500"><g id="freepik--background-complete--inject-13"><path d="M450.12,289.84s-9-3-13.32,17.82-5,32.27-5,32.27-1.42,4.49-4.73,2.71-8.84-7.89-12.95-5.39c-4.27,2.59-4.38,8.17-1.42,15.52s8.84,23.69,9.36,25.17.27,3.87-2.18,3-17.91-10.82-22.21-3.19,7.31,26.74,8.54,28.85,1.05,3.21.12,4.07-5.81-3-10.33-5.63-10.21-4.94-12.32-.34,1.14,20.44,22.86,41.68l10.7,9.18,13.44-4.49c28.17-11.34,37.22-24.74,37-29.8s-6.34-5.12-11.52-4.39-11.17,2.42-11.7,1.27-.28-2.23,1.66-3.72,20-14.74,18.9-23.42-19.16-5.37-21.75-5.51-1.9-2.48-.86-3.62,12.72-14,18.25-19.7,7.56-10.87,4.61-14.89-10.3-.34-14,.05S448,343,448,343s3.78-10.86,7.72-31.72-5.76-21.53-5.76-21.53" style="fill:#ebebeb"></path><path d="M417.21,452.6c3-15.31,7.2-36.42,12-59.72s9.08-44.4,12.12-59.69c1.5-7.63,2.72-13.81,3.57-18.11.42-2.12.75-3.78,1-4.92.11-.55.2-1,.27-1.28s.1-.43.1-.43,0,.15-.06.44l-.21,1.29c-.21,1.15-.51,2.81-.89,4.94-.78,4.28-1.95,10.48-3.43,18.14-2.95,15.3-7.2,36.41-12,59.71s-9.08,44.41-12.12,59.7" style="fill:#e0e0e0"></path><path d="M421.55,346.1a3.84,3.84,0,0,1,.61.83c.36.54.86,1.35,1.47,2.35,1.21,2,2.82,4.82,4.53,8s3.18,5.88,4.34,8.05l1.33,2.43a5,5,0,0,1,.45.92,4.3,4.3,0,0,1-.61-.82c-.37-.55-.87-1.36-1.47-2.37-1.19-2-2.76-4.85-4.47-8l-4.39-8c-.53-.95-1-1.76-1.34-2.43A4.28,4.28,0,0,1,421.55,346.1Z" style="fill:#e0e0e0"></path><path d="M435.59,368.54c-.07-.12,5.58-3.68,12.62-8S461,352.91,461.09,353s-5.58,3.67-12.63,8S435.66,368.65,435.59,368.54Z" style="fill:#e0e0e0"></path><path d="M426.65,404a4.21,4.21,0,0,1,1-.33l2.74-.74c2.3-.63,5.48-1.51,8.95-2.6s6.59-2.18,8.84-3l2.67-.95a4.59,4.59,0,0,1,1-.3,4.3,4.3,0,0,1-.93.47c-.61.28-1.5.66-2.62,1.1-2.22.89-5.32,2-8.81,3.13s-6.69,1.92-9,2.47c-1.17.27-2.11.47-2.77.59A4.38,4.38,0,0,1,426.65,404Z" style="fill:#e0e0e0"></path><path d="M409.48,386.49a3.92,3.92,0,0,1,.75.61c.46.42,1.11,1,1.91,1.79,1.6,1.53,3.78,3.66,6.17,6s4.54,4.54,6.07,6.13c.77.79,1.39,1.44,1.81,1.9a4.1,4.1,0,0,1,.61.74,3.35,3.35,0,0,1-.75-.61c-.46-.41-1.11-1-1.91-1.79-1.59-1.52-3.78-3.66-6.17-6s-4.54-4.55-6.07-6.14c-.77-.79-1.39-1.44-1.8-1.89A3.79,3.79,0,0,1,409.48,386.49Z" style="fill:#e0e0e0"></path><path d="M397.61,416.79a6.4,6.4,0,0,1,.94.79l2.46,2.29c2.06,1.94,4.88,4.65,8,7.67s5.88,5.76,7.87,7.77l2.35,2.4a5.34,5.34,0,0,1,.81.92,5.66,5.66,0,0,1-.94-.79l-2.46-2.28c-2.05-1.95-4.87-4.66-8-7.68s-5.87-5.76-7.87-7.77l-2.35-2.4A6.8,6.8,0,0,1,397.61,416.79Z" style="fill:#e0e0e0"></path><path d="M419.63,438a7,7,0,0,1,1.24-.45l3.43-1.06c2.89-.9,6.89-2.16,11.26-3.67s8.29-3,11.13-4l3.36-1.27a7.31,7.31,0,0,1,1.25-.41,7.17,7.17,0,0,1-1.18.59c-.78.35-1.9.83-3.31,1.41-2.8,1.16-6.71,2.68-11.1,4.18s-8.39,2.72-11.32,3.54c-1.46.4-2.65.72-3.47.91A6.8,6.8,0,0,1,419.63,438Z" style="fill:#e0e0e0"></path><rect x="189.38" y="126.79" width="94.84" height="98.86" style="fill:#e0e0e0"></rect><rect x="182.96" y="126.79" width="94.84" height="98.86" style="fill:#ebebeb"></rect><rect x="195.71" y="140.08" width="69.34" height="72.28" style="fill:#fafafa"></rect><path d="M195.71,212.84a13.2,13.2,0,0,1-1.73,2c-1.12,1.16-2.68,2.74-4.42,4.46s-3.35,3.25-4.52,4.34a13.13,13.13,0,0,1-2,1.7,12.15,12.15,0,0,1,1.72-2c1.11-1.16,2.68-2.74,4.43-4.47s3.35-3.26,4.52-4.35A13.37,13.37,0,0,1,195.71,212.84Z" style="fill:#e0e0e0"></path><path d="M265.05,212.67a13.35,13.35,0,0,1,2,1.73c1.17,1.11,2.74,2.67,4.46,4.42s3.26,3.34,4.35,4.52a12.78,12.78,0,0,1,1.69,2,13.2,13.2,0,0,1-2-1.73c-1.16-1.11-2.74-2.67-4.46-4.42s-3.26-3.35-4.36-4.53A13,13,0,0,1,265.05,212.67Z" style="fill:#e0e0e0"></path><path d="M264.86,140.27a13.35,13.35,0,0,1,1.73-2c1.11-1.16,2.67-2.74,4.42-4.46s3.34-3.25,4.52-4.35a13.37,13.37,0,0,1,2-1.69,12.83,12.83,0,0,1-1.72,2c-1.12,1.16-2.68,2.74-4.43,4.46s-3.35,3.27-4.53,4.36A11.88,11.88,0,0,1,264.86,140.27Z" style="fill:#e0e0e0"></path><path d="M195.52,140.45a13.06,13.06,0,0,1-2-1.73c-1.16-1.11-2.74-2.67-4.46-4.42s-3.25-3.34-4.34-4.52a12.62,12.62,0,0,1-1.69-2,13.11,13.11,0,0,1,1.95,1.72c1.17,1.12,2.75,2.68,4.47,4.43s3.26,3.35,4.35,4.53A12.89,12.89,0,0,1,195.52,140.45Z" style="fill:#e0e0e0"></path><path d="M264.86,212.36s0-.12,0-.35,0-.57,0-1c0-.9,0-2.21,0-3.9,0-3.42,0-8.4-.06-14.73,0-12.65-.07-30.7-.12-52.3l.23.23-69.15,0h0l.26-.26c0,26.53,0,51.35,0,72.28l-.22-.22,50.08.11,14.06.06,3.72,0h1.29l-.31,0h-.93l-3.68,0-14,.06-50.22.12h-.23v-.23c0-20.93,0-45.75,0-72.28v-.26h.26l69.15,0h.23v.23c0,21.66-.09,39.76-.12,52.45,0,6.31-.05,11.27-.06,14.67,0,1.68,0,3,0,3.86,0,.42,0,.74,0,1S264.86,212.36,264.86,212.36Z" style="fill:#e0e0e0"></path><path d="M214,170.28s-1.49,17.89,17.89,17.89C231.9,178.62,224,171.09,214,170.28Z" style="fill:#ebebeb"></path><path d="M249.47,170.29s-17.89-1.48-17.89,17.9C241.13,188.19,248.67,180.31,249.47,170.29Z" style="fill:#ebebeb"></path><path d="M231.05,160.5s-14.63,13.12.8,27.67C239,180.58,238.41,168.66,231.05,160.5Z" style="fill:#e0e0e0"></path><rect x="54.74" y="60.65" width="80.42" height="83.83" style="fill:#e0e0e0"></rect><rect x="49.3" y="60.65" width="80.42" height="83.83" style="fill:#fafafa"></rect><path d="M129.74,144.5H49.27V60.62h80.47Zm-80.42-.05h80.37V60.67H49.32Z" style="fill:#e0e0e0"></path><rect x="60.11" y="71.91" width="58.8" height="61.29" style="fill:#fafafa"></rect><path d="M60.11,133.61a10.13,10.13,0,0,1-1.45,1.69c-.94,1-2.26,2.33-3.74,3.79s-2.84,2.76-3.84,3.68a9.61,9.61,0,0,1-1.7,1.41,9.23,9.23,0,0,1,1.44-1.68c.94-1,2.26-2.33,3.75-3.79s2.84-2.77,3.84-3.69A9.61,9.61,0,0,1,60.11,133.61Z" style="fill:#e0e0e0"></path><path d="M118.9,133.46a10.13,10.13,0,0,1,1.69,1.45c1,.94,2.33,2.26,3.79,3.74s2.76,2.84,3.68,3.84a9.61,9.61,0,0,1,1.41,1.7,9.23,9.23,0,0,1-1.68-1.44c-1-.94-2.33-2.26-3.79-3.75s-2.77-2.84-3.69-3.84A9.61,9.61,0,0,1,118.9,133.46Z" style="fill:#e0e0e0"></path><path d="M118.74,72.08a10.13,10.13,0,0,1,1.45-1.69c.94-1,2.26-2.33,3.74-3.79s2.84-2.75,3.84-3.68a9.61,9.61,0,0,1,1.7-1.41A9.23,9.23,0,0,1,128,63.19c-.94,1-2.26,2.33-3.75,3.8s-2.84,2.76-3.84,3.68A9.61,9.61,0,0,1,118.74,72.08Z" style="fill:#e0e0e0"></path><path d="M60,72.23a9.55,9.55,0,0,1-1.69-1.45c-1-.94-2.33-2.26-3.79-3.74s-2.76-2.84-3.68-3.84a9.2,9.2,0,0,1-1.41-1.7,9.23,9.23,0,0,1,1.68,1.44c1,.94,2.33,2.26,3.79,3.75s2.77,2.84,3.69,3.85A9.38,9.38,0,0,1,60,72.23Z" style="fill:#e0e0e0"></path><path d="M118.74,133.21s0-.11,0-.3,0-.49,0-.86c0-.76,0-1.87,0-3.31,0-2.9,0-7.12-.06-12.49,0-10.73-.07-26-.11-44.34l.22.23-58.63,0h0l.26-.26c0,22.5,0,43.55,0,61.3l-.22-.23,42.45.12,11.93.06,3.15,0h.82a1.58,1.58,0,0,1,.28,0h-1l-3.11,0-11.87.06-42.6.11h-.23v-.22c0-17.75,0-38.8,0-61.3v-.26h.26l58.63,0H119v.22c0,18.38-.09,33.72-.11,44.49,0,5.34,0,9.55-.06,12.44,0,1.42,0,2.51,0,3.26,0,.36,0,.63,0,.83A1.45,1.45,0,0,1,118.74,133.21Z" style="fill:#e0e0e0"></path><rect x="79.7" y="92.75" width="19.62" height="19.62" style="fill:#ebebeb"></rect><rect x="371.4" y="211.87" width="43.97" height="45.84" style="fill:#e0e0e0"></rect><rect x="368.42" y="211.87" width="43.97" height="45.84" style="fill:#fafafa"></rect><path d="M412.41,257.72h-44V211.86h44Zm-44,0h43.94V211.88H368.44Z" style="fill:#e0e0e0"></path><rect x="374.33" y="218.03" width="32.15" height="33.51" style="fill:#fafafa"></rect><path d="M374.33,251.77a5,5,0,0,1-.79.92c-.51.54-1.23,1.28-2,2.07s-1.55,1.51-2.1,2a5.42,5.42,0,0,1-.93.78,4.56,4.56,0,0,1,.79-.92c.51-.54,1.23-1.28,2.05-2.08s1.55-1.51,2.1-2A5.07,5.07,0,0,1,374.33,251.77Z" style="fill:#e0e0e0"></path><path d="M406.48,251.69a4.87,4.87,0,0,1,.93.79c.54.51,1.27,1.23,2.07,2s1.51,1.55,2,2.1a5,5,0,0,1,.77.93,5.32,5.32,0,0,1-.92-.79c-.54-.51-1.27-1.23-2.07-2s-1.51-1.55-2-2.1A5.68,5.68,0,0,1,406.48,251.69Z" style="fill:#e0e0e0"></path><path d="M406.4,218.12a5,5,0,0,1,.79-.92c.51-.54,1.24-1.28,2-2.07s1.56-1.51,2.1-2a5.28,5.28,0,0,1,.93-.78,4.56,4.56,0,0,1-.79.92c-.51.54-1.23,1.28-2,2.08s-1.56,1.51-2.11,2A5.68,5.68,0,0,1,406.4,218.12Z" style="fill:#e0e0e0"></path><path d="M374.25,218.2a5.26,5.26,0,0,1-.93-.79c-.54-.51-1.27-1.24-2.07-2s-1.5-1.56-2-2.1a5.45,5.45,0,0,1-.77-.93,4.91,4.91,0,0,1,.92.79c.54.51,1.27,1.23,2.07,2s1.51,1.56,2,2.11A5.68,5.68,0,0,1,374.25,218.2Z" style="fill:#e0e0e0"></path><path d="M406.4,251.55a.5.5,0,0,1,0-.17c0-.11,0-.27,0-.47,0-.42,0-1,0-1.8,0-1.59,0-3.9,0-6.84,0-5.86,0-14.23-.07-24.24l.13.13H374.33l.15-.14c0,12.3,0,23.81,0,33.51l-.13-.12,23.22.07,6.52,0h.05l-6.49,0-23.3.07h-.12v-.13c0-9.7,0-21.21,0-33.51v-.14h.15l32.06,0h.12V218c0,10.05,0,18.44-.06,24.32,0,2.93,0,5.23,0,6.81,0,.77,0,1.37,0,1.78v.61Z" style="fill:#e0e0e0"></path><rect x="385.05" y="229.42" width="10.73" height="10.73" style="fill:#ebebeb"></rect><rect x="190.73" y="47.43" width="43.97" height="45.84" style="fill:#e0e0e0"></rect><rect x="187.75" y="47.43" width="43.97" height="45.84" style="fill:#fafafa"></rect><path d="M231.73,93.28h-44V47.41h44Zm-44,0h44V47.44h-44Z" style="fill:#e0e0e0"></path><rect x="193.66" y="53.59" width="32.15" height="33.51" style="fill:#fafafa"></rect><path d="M193.66,87.33a5,5,0,0,1-.79.92c-.52.54-1.24,1.27-2.05,2.07s-1.55,1.51-2.1,2a5,5,0,0,1-.93.77,6.44,6.44,0,0,1,.79-.91c.52-.55,1.24-1.28,2-2.08s1.56-1.51,2.11-2A4.38,4.38,0,0,1,193.66,87.33Z" style="fill:#e0e0e0"></path><path d="M225.81,87.24a5.42,5.42,0,0,1,.92.8c.54.51,1.28,1.23,2.07,2s1.51,1.55,2,2.1a4.88,4.88,0,0,1,.78.93,5,5,0,0,1-.92-.79c-.54-.51-1.28-1.24-2.08-2s-1.51-1.55-2-2.1A5,5,0,0,1,225.81,87.24Z" style="fill:#e0e0e0"></path><path d="M225.72,53.68a5.42,5.42,0,0,1,.8-.92c.51-.55,1.23-1.28,2-2.08s1.55-1.5,2.1-2a5,5,0,0,1,.93-.77,5,5,0,0,1-.79.92c-.51.54-1.24,1.28-2.05,2.07s-1.55,1.51-2.1,2A5,5,0,0,1,225.72,53.68Z" style="fill:#e0e0e0"></path><path d="M193.57,53.76a5,5,0,0,1-.92-.79c-.54-.52-1.28-1.24-2.07-2s-1.51-1.55-2-2.1a5,5,0,0,1-.78-.93,5.6,5.6,0,0,1,.92.79c.54.52,1.28,1.24,2.08,2s1.51,1.56,2,2.11A4.7,4.7,0,0,1,193.57,53.76Z" style="fill:#e0e0e0"></path><path d="M225.72,87.1v-.63c0-.42,0-1,0-1.81,0-1.58,0-3.89,0-6.83,0-5.87,0-14.23-.06-24.24l.12.12-32.06,0h0l.14-.14c0,12.3,0,23.81,0,33.51l-.12-.12,23.22.06,6.52,0h2.32s0,0-.14,0h-2.13l-6.5,0-23.29.07h-.12V87.1c0-9.7,0-21.21,0-33.51v-.14h.14l32.06,0h.13v.12c0,10,0,18.43-.07,24.32,0,2.92,0,5.22,0,6.8,0,.78,0,1.38,0,1.79V87A.61.61,0,0,1,225.72,87.1Z" style="fill:#e0e0e0"></path><rect x="204.37" y="64.98" width="10.73" height="10.73" style="fill:#ebebeb"></rect></g><g id="freepik--Floor--inject-13"><path d="M470.27,456.74c0,.14-98.63.26-220.26.26s-220.28-.12-220.28-.26,98.61-.26,220.28-.26S470.27,456.59,470.27,456.74Z" style="fill:#263238"></path></g><g id="freepik--Character--inject-13"><circle cx="194.46" cy="392.66" r="63.8" style="fill:#407BFF"></circle><g style="opacity:0.30000000000000004"><path d="M140.93,427.34c6.47.31,11.62-3.62,14.55-9.4s3.54-12.4,4.1-18.85l2.28-26.23c.39-4.48.8-9.06,2.55-13.21s5.07-7.89,9.44-9c4.53-1.11,9.81.65,13.7-1.93,3.71-2.45,4.5-7.84,8.1-10.44,3.83-2.77,9.2-1.33,13.48.66a67.19,67.19,0,0,1,21.68,16.08c6.06,6.79,11.27,15.21,19.87,18.21,2.52.88,5.6,1.12,7.63-.63,3-2.6,1.73-7.48-.06-11A76.58,76.58,0,0,0,208,322.1c-9.77-2.27-20.16-2.55-29.73.46s-18.22,9.53-22.7,18.51c-5.08,10.19-2.64,22.34-4.7,33.54-3.31,18.05-7.11,35.43-9.93,52.73"></path></g><path d="M234.13,413.06a2.55,2.55,0,0,1,.09-.55c.1-.4.23-.91.38-1.53.08-.34.18-.71.28-1.11s.16-.86.25-1.33c.17-1,.43-2,.55-3.27.07-.61.15-1.24.24-1.9s.09-1.36.14-2.08c.13-1.44.1-3,.1-4.6a59,59,0,0,0-1.24-10.44,60.47,60.47,0,0,0-3.19-10c-.67-1.47-1.28-2.89-2-4.14-.35-.63-.65-1.26-1-1.83l-1-1.64c-.62-1.06-1.3-1.94-1.85-2.74-.28-.4-.53-.78-.79-1.11l-.71-.89-1-1.25a2.78,2.78,0,0,1-.32-.46,2.47,2.47,0,0,1,.4.39l1.05,1.19.75.87c.27.32.53.69.82,1.08.58.8,1.29,1.66,1.93,2.72l1,1.64c.36.57.67,1.19,1,1.83.73,1.25,1.36,2.67,2,4.15a53.7,53.7,0,0,1,4.47,20.64c0,1.64,0,3.19-.15,4.64-.06.72-.08,1.42-.17,2.09s-.19,1.3-.28,1.92c-.14,1.22-.42,2.31-.62,3.27-.11.47-.2.92-.3,1.33l-.33,1.1c-.19.61-.34,1.11-.46,1.51A2.17,2.17,0,0,1,234.13,413.06Z" style="fill:#fafafa"></path><path d="M231.55,421.46a23.55,23.55,0,0,1-5.47,9.44c-.12-.09,1.34-2.06,2.84-4.66S231.41,421.4,231.55,421.46Z" style="fill:#fafafa"></path><path d="M178.36,332.28c.46,1.31.69,2.7,1.16,4a5.78,5.78,0,0,0,2.49,3.23,2.94,2.94,0,0,0,3.74-.71,4.34,4.34,0,0,0,.54-1.94,39.69,39.69,0,0,0,.22-4.62,4.53,4.53,0,0,0-.69-2.81,3.19,3.19,0,0,0-2.85-1,8,8,0,0,0-2.93,1.11,14.65,14.65,0,0,1-2.84,1.39" style="fill:#407BFF"></path><g style="opacity:0.5"><path d="M178.36,332.28c.46,1.31.69,2.7,1.16,4a5.78,5.78,0,0,0,2.49,3.23,2.94,2.94,0,0,0,3.74-.71,4.34,4.34,0,0,0,.54-1.94,39.69,39.69,0,0,0,.22-4.62,4.53,4.53,0,0,0-.69-2.81,3.19,3.19,0,0,0-2.85-1,8,8,0,0,0-2.93,1.11,14.65,14.65,0,0,1-2.84,1.39"></path></g><path d="M114.44,366a1.16,1.16,0,0,1,.42.32,2,2,0,0,1,.45,1.42,2.21,2.21,0,0,1-1.33,1.93,3.17,3.17,0,0,1-3.1-.35c-2-1.38-2.83-4.8-1.23-7.56a12.4,12.4,0,0,1,3.49-3.31,8.48,8.48,0,0,0,3-3.86,10.55,10.55,0,0,0,.59-4.89,14,14,0,0,0-1.31-4.45,21.81,21.81,0,0,0-2.19-3.64,36.06,36.06,0,0,1-2.18-3.06,6.59,6.59,0,0,1-1-3,4.74,4.74,0,0,1,.43-2.33,3.21,3.21,0,0,1,1-1.16,1.35,1.35,0,0,1,.45-.24,3.84,3.84,0,0,0-1.22,1.48,4.57,4.57,0,0,0-.33,2.23,6.35,6.35,0,0,0,1,2.8c.59,1,1.4,1.91,2.22,3a23.13,23.13,0,0,1,2.28,3.69,14.75,14.75,0,0,1,1.38,4.61,11,11,0,0,1-.62,5.13,8.93,8.93,0,0,1-3.17,4.08,12.11,12.11,0,0,0-3.39,3.14c-1.5,2.53-.76,5.74,1,7a2.86,2.86,0,0,0,2.77.38,2,2,0,0,0,.92-3C114.58,366.14,114.43,366,114.44,366Z" style="fill:#263238"></path><polygon points="157.14 341.7 193.49 328.55 213.12 336.83 233.59 301.11 227.34 279.16 167.73 280.42 149.89 281 122.62 294.12 132.8 329.42 129.7 343.99 157.14 341.7" style="fill:#b78876"></polygon><path d="M132.54,328.39c36.36-8.06,30.12,11.32,30.44,11.2a43.78,43.78,0,0,1,15.12,1.78c10.29,3.45,8.25-10.34,8.25-10.34s.08,10.63-5.3,7.27-3-58-3-58H167.73c-9.27-7-17.84.69-17.84.69l-26.8,14.75.92,3.1s13.43-6.41,18.27,6.6c5,13.42-10.61,20-10.61,20Z" style="fill:#407BFF"></path><path d="M204.61,297.41c0,.14-.5.23-1.09.19s-1.08-.18-1.07-.33.5-.23,1.1-.19S204.62,297.26,204.61,297.41Z" style="fill:#aa6550"></path><path d="M167.93,319.76c-.07-.07.78-.8,1.7-2.3A9.94,9.94,0,0,0,171,311a10.31,10.31,0,0,0-2.51-5.31,13.68,13.68,0,0,0-2.53-2.23h0c-.2-.12-.28-.18-.27-.2s.11,0,.32.08h0a9.39,9.39,0,0,1,2.77,2.07,10.22,10.22,0,0,1,2.72,5.5,9.77,9.77,0,0,1-1.61,6.79,9,9,0,0,1-1.39,1.63C168.18,319.63,168,319.78,167.93,319.76Z" style="fill:#263238"></path><path d="M193.35,321.49a26.88,26.88,0,0,1,.18,7.46,13.42,13.42,0,0,1-.35-3.73A13.69,13.69,0,0,1,193.35,321.49Z" style="fill:#aa6550"></path><path d="M150.07,280.77c.14,0,1.35,10.31,2.7,23.05s2.33,23.09,2.19,23.11-1.36-10.31-2.71-23.05S149.92,280.79,150.07,280.77Z" style="fill:#fafafa"></path><path d="M151.56,327c-.14,0-1.48-9.84-3-22s-2.61-22.06-2.47-22.08,1.48,9.84,3,22S151.7,327,151.56,327Z" style="fill:#fafafa"></path><path d="M129.7,343.89,118.12,449.2s-15.05,5-17.34,7.54h33.16c1.34-1,26.15-116.54,26.15-116.54Z" style="fill:#b78876"></path><path d="M153.17,349.28s-.23-.18-.56-.57a11.85,11.85,0,0,1-1.22-1.8,13.79,13.79,0,0,1,.29-13.78,12.61,12.61,0,0,1,1.29-1.75c.35-.38.56-.56.59-.54s-.7.89-1.56,2.47a14.49,14.49,0,0,0-.28,13.43C152.51,348.35,153.24,349.22,153.17,349.28Z" style="fill:#aa6550"></path><path d="M149.89,281l-2.82-12.48,5.71-90.35h0c-.17-5.87-.84-9.89-.75-13.74.12-4.76-.17-6.72-1.06-6.69-1.19,0-.73,0-2.17,8.59,0,0,1.95-12.31-.57-10-1.12,1-2.84,11.25-2.84,11.25,2.14-8.08,1.67-11.46.43-11.72-1.8-.37-3.79,12-3.79,12s1.71-9.44,1.49-11.18-1.67-.2-2.52,1.42c-.94,1.82-4.93,13.17-6.26,16.39a2,2,0,0,1-2.82,1.31c-4.24-2.75-9-2.63-10.28-2s-.82,2.6.74,2.84a19,19,0,0,1,4.73,1.93,12.25,12.25,0,0,1,3.23,2.48c1.08,1.17,1.94,2.2,2.65,3.09l-10.94,82.72s-4,17,.77,27.87" style="fill:#b78876"></path><path d="M147.92,171.17c.22,0,.77-2.59,1.24-5.86s.66-5.95.44-6-.77,2.6-1.23,5.86S147.71,171.13,147.92,171.17Z" style="fill:#aa6550"></path><path d="M144.56,171c.21,0,1-2.72,1.66-6.17s1.1-6.28.89-6.32-1,2.71-1.66,6.16S144.34,170.92,144.56,171Z" style="fill:#aa6550"></path><path d="M141.07,170.73c.21.05,1-2.56,1.67-5.81s1.11-5.93.9-6-1,2.55-1.68,5.81S140.85,170.68,141.07,170.73Z" style="fill:#aa6550"></path><path d="M142.4,269.5a26.37,26.37,0,0,0,2.65,6.46,26,26,0,0,0,4.67,5.2A5.87,5.87,0,0,1,148,280a15.64,15.64,0,0,1-3.34-3.8,15.37,15.37,0,0,1-2-4.66A5.89,5.89,0,0,1,142.4,269.5Z" style="fill:#aa6550"></path><path d="M114.39,312.42c.12,5.88,2.45,11.65-.26,16.86-1.17,2.24-2.82,4.4-2.94,6.89-.14,3.16,2.24,6,2.46,9.14.38,5.68-6.2,10.26-5.68,15.93a14.17,14.17,0,0,0,2.18,5.47,12.51,12.51,0,0,1,2,5.51,4.63,4.63,0,0,1-3,4.69,11.46,11.46,0,0,0-2.7-5.56c-3.11,1.95-.58,7.09-3,9.77a6.61,6.61,0,0,1-2.93,1.63,58.12,58.12,0,0,1-12,2.1l-2.32-3.92a9.21,9.21,0,0,0,.54,4.7,52.54,52.54,0,0,1-15.45,1.77c-2.77-.1-5.78-.52-7.71-2.39-1.68-1.62-2.2-4-2.34-6.27a26,26,0,0,1,2-11.61c1-2.48,2.47-4.91,2.54-7.57.11-4.78-4.19-8.71-5-13.44-1.08-6.53,4.67-12.36,5.43-18.93.4-3.44-.6-6.89-.46-10.35s2-7.32,5.55-8.12c0,0,1-5.93,6.3-7.34S114.18,301.76,114.39,312.42Z" style="fill:#263238"></path><path d="M140,308.06a11.94,11.94,0,0,1-7.08,15.26l-47,17.4h0a3.88,3.88,0,0,1-4.86-2L72.9,321.24A11.66,11.66,0,0,1,79,305.54c6.81-2.82,15.24-6,20.72-7,11-1.92,15.1,5.63,15.1,5.63l10.2-3.39a11.94,11.94,0,0,1,15,7.25Z" style="fill:#b78876"></path><path d="M86.36,306.67a1.4,1.4,0,0,1,1.79.83,1.35,1.35,0,0,1-.73,1.79,1.42,1.42,0,0,1-1.8-.82A1.36,1.36,0,0,1,86.36,306.67Z" style="fill:#263238"></path><path d="M84.08,305.87c.23.11-.18,1.38.32,2.82s1.58,2.25,1.46,2.47-.42,0-.92-.3A3.89,3.89,0,0,1,83.56,309a3.75,3.75,0,0,1,0-2.32C83.7,306.07,84,305.82,84.08,305.87Z" style="fill:#263238"></path><path d="M91,321a1.43,1.43,0,0,1,1.8.83,1.37,1.37,0,0,1-.73,1.8,1.42,1.42,0,0,1-1.8-.83A1.37,1.37,0,0,1,91,321Z" style="fill:#263238"></path><path d="M89.21,320c.23.11-.17,1.39.32,2.82S91.12,325,91,325.24s-.42.05-.92-.3a3.85,3.85,0,0,1-1.38-1.9,3.75,3.75,0,0,1,0-2.32C88.84,320.16,89.1,319.9,89.21,320Z" style="fill:#263238"></path><path d="M98.11,311.05a9.7,9.7,0,0,1-1.23-2.19c-.16-.36-.36-.68-.63-.66a2.06,2.06,0,0,0-1,.62l-2.43,2.05c-3.47,2.88-6.38,5.1-6.49,5s2.6-2.59,6.08-5.47l2.46-2a2.25,2.25,0,0,1,1.38-.69,1,1,0,0,1,.75.42,2.79,2.79,0,0,1,.3.6A10,10,0,0,1,98.11,311.05Z" style="fill:#263238"></path><path d="M114.83,304.2a28.2,28.2,0,0,1,1.07,15.28s6.1-5.78,1.54-15.91Z" style="fill:#aa6550"></path><path d="M101.79,310.47a2.73,2.73,0,0,0-.16,2.66,2.53,2.53,0,0,0,1.44,1.34,1.57,1.57,0,0,0,1.75-.48,1.81,1.81,0,0,0-.17-2.05,5.74,5.74,0,0,0-1.73-1.47,1.73,1.73,0,0,0-.57-.26.49.49,0,0,0-.53.18" style="fill:#aa6550"></path><path d="M100.56,315c-.09-.23,1.47-.77,2.12-2.49s-.09-3.32.12-3.41.44.27.7,1a4.12,4.12,0,0,1,0,2.82,3.56,3.56,0,0,1-1.81,2C101,315.11,100.59,315.07,100.56,315Z" style="fill:#263238"></path><path d="M86.46,320.17c.44,0,.75,1.51,1.53,3.14s1.72,2.83,1.44,3.17c-.13.16-.58,0-1.15-.37A6.1,6.1,0,0,1,86,321.3C86.05,320.59,86.25,320.17,86.46,320.17Z" style="fill:#263238"></path><path d="M80.08,307.83c.42.14.42,1.25.81,2.45s1,2.14.72,2.49c-.13.15-.52.11-1-.23a3.58,3.58,0,0,1-1.22-1.8,3.62,3.62,0,0,1,0-2.17C79.6,308,79.89,307.78,80.08,307.83Z" style="fill:#263238"></path><path d="M70.16,314.94c.68-4,2.77,8.13,6.77,8.95a40.36,40.36,0,0,0,5.72.23c1.91.11,4,.7,5,2.27s1,3.67,2.5,4.73c1.26.93,3,.58,4.58.7,3.49.29,6.32,3.17,7.65,6.42s1.47,6.82,1.7,10.32.63,7.11,2.38,10.14L81.33,345S68.54,324.57,70.16,314.94Z" style="fill:#263238"></path><path d="M99.11,333.67c-.43,1.82,1,4.65,2.86,5.12a4.35,4.35,0,0,0,4.73-2.16c.88-1.65,1.14-2.94,0-4.46" style="fill:#b78876"></path><path d="M76.63,382.68a4.41,4.41,0,0,1,.4-.74l1.2-2.07a30.6,30.6,0,0,0,1.66-3.38,15.42,15.42,0,0,0,1.18-4.81A9.72,9.72,0,0,0,79.83,366a21.12,21.12,0,0,0-4.76-5,26,26,0,0,1-2.75-2.63,9.47,9.47,0,0,1-2-3.47,9.13,9.13,0,0,1-.13-4.16,21.17,21.17,0,0,1,1.26-4.06c1.06-2.63,2.26-5.16,2.47-7.78a8.24,8.24,0,0,0-.61-3.74,16.2,16.2,0,0,0-1.9-3.19c-.71-1-1.45-1.95-2.1-2.93a19.25,19.25,0,0,1-1.61-3,15.15,15.15,0,0,1-1.23-6,11.47,11.47,0,0,1,1.15-4.92A10.41,10.41,0,0,1,69.84,312a8.52,8.52,0,0,1,2-1.39c.25-.13.45-.2.58-.26l.2-.07a11.67,11.67,0,0,0-2.6,1.87,10.5,10.5,0,0,0-2.12,3.06,11.18,11.18,0,0,0-1,4.8,14.74,14.74,0,0,0,1.26,5.82,18.11,18.11,0,0,0,1.6,2.95c.63,1,1.37,1.9,2.1,2.89a17,17,0,0,1,2,3.28,8.87,8.87,0,0,1,.66,4c-.22,2.76-1.45,5.34-2.5,7.95s-1.86,5.34-1.12,7.87,2.77,4.29,4.6,5.89a21.19,21.19,0,0,1,4.81,5.1,10,10,0,0,1,1.24,6,15.53,15.53,0,0,1-1.28,4.89A26.91,26.91,0,0,1,78.4,380c-.54.89-1,1.57-1.28,2A5.33,5.33,0,0,1,76.63,382.68Z" style="fill:#455a64"></path><path d="M94.35,384.93a26.25,26.25,0,0,0,1.1-3,15.66,15.66,0,0,0-.09-8.49,15,15,0,0,0-2.7-5.21,22.37,22.37,0,0,0-5.19-4.37,22.89,22.89,0,0,1-5.8-5,9.25,9.25,0,0,1-1.73-3.71,8.61,8.61,0,0,1,.35-4.21c.83-2.7,2.27-5.12,2.28-7.71a11,11,0,0,0-2.72-6.76A45,45,0,0,0,75,331.68a25.16,25.16,0,0,1-4-4.46,9.63,9.63,0,0,1-1.47-8.37,5.72,5.72,0,0,1,1.21-2.05,4.88,4.88,0,0,1,.45-.42c.1-.09.16-.13.17-.12a6.54,6.54,0,0,0-1.64,2.65A9.54,9.54,0,0,0,71.27,327a26,26,0,0,0,4,4.35,42.18,42.18,0,0,1,4.91,4.85,11.46,11.46,0,0,1,2.86,7.06c0,2.78-1.5,5.25-2.3,7.86a8.27,8.27,0,0,0-.33,4,8.7,8.7,0,0,0,1.63,3.51,22.69,22.69,0,0,0,5.66,4.88A22.78,22.78,0,0,1,93,368a14.93,14.93,0,0,1,2.71,5.38,15.57,15.57,0,0,1-.06,8.65A11,11,0,0,1,94.35,384.93Z" style="fill:#455a64"></path><path d="M64.15,385a2.82,2.82,0,0,1-.86,0,5.49,5.49,0,0,1-2.29-.95A7.14,7.14,0,0,1,58.58,381a9.79,9.79,0,0,1-.45-5.16,21.73,21.73,0,0,1,2-5.94A43.43,43.43,0,0,0,63,363.35a12.37,12.37,0,0,0,.54-3.75,11.2,11.2,0,0,0-.87-3.84c-.49-1.27-1.13-2.51-1.67-3.84a11.35,11.35,0,0,1-1-4.27c0-3,1.29-5.72,2.45-8.18a23.53,23.53,0,0,0,2.64-7.35c.31-2.46-.39-4.81-.92-7a17.25,17.25,0,0,1-.73-6.24A12.17,12.17,0,0,1,65.08,314a12.53,12.53,0,0,1,2.52-3,11.36,11.36,0,0,1,2-1.39,7.32,7.32,0,0,1,.79-.35,16.32,16.32,0,0,0-2.7,1.89,12.28,12.28,0,0,0-2.39,3,11.82,11.82,0,0,0-1.56,4.8,17.18,17.18,0,0,0,.79,6.09,19.52,19.52,0,0,1,1,7.14,23.73,23.73,0,0,1-2.66,7.51c-1.15,2.46-2.44,5.08-2.39,7.95a11.1,11.1,0,0,0,.94,4.09c.53,1.3,1.17,2.55,1.67,3.85a11.43,11.43,0,0,1,.88,4,13.12,13.12,0,0,1-.56,3.89,44.39,44.39,0,0,1-2.87,6.61,21.66,21.66,0,0,0-2.07,5.81,9.5,9.5,0,0,0,.36,5,7.07,7.07,0,0,0,2.27,3,5.66,5.66,0,0,0,2.18,1C63.85,385,64.15,385,64.15,385Z" style="fill:#263238"></path><path d="M271.39,329a7.1,7.1,0,0,1-1-1l-2.71-2.78c-2.3-2.33-5.55-5.47-9.33-8.73s-7.38-6-10-7.94l-3.15-2.26a7.61,7.61,0,0,1-1.12-.88,8.71,8.71,0,0,1,1.24.71c.78.47,1.89,1.2,3.25,2.13a122.46,122.46,0,0,1,10.15,7.84,119.9,119.9,0,0,1,9.25,8.88c1.12,1.2,2,2.19,2.6,2.89A8.34,8.34,0,0,1,271.39,329Z" style="fill:#455a64"></path><path d="M373.93,421a4.67,4.67,0,0,1,1.87,3.48,9.92,9.92,0,0,1-.63,4c-3,9-11.24,15.29-19.95,19-5.09,2.16-10.89,3.64-16.11,1.81-1.57-.55-3.2-1.61-3.44-3.25a5.38,5.38,0,0,1,.77-3,51.48,51.48,0,0,1,10.84-15,36.06,36.06,0,0,1,16.14-8.93c3.46-.82,7.5-.9,10.14,1.49" style="fill:#455a64"></path><path d="M360.17,414.94s15.6,15.87,19,21.49,6.89,20.31,6.89,20.31l-25.78-.88,1.75-15.78L348.43,428.6l5-9C355.51,415.79,360.17,414.94,360.17,414.94Z" style="fill:#b78876"></path><path d="M364,440.56l-3,9.51s-5.09.59-4.94,2.51.29,4.15.29,4.15H386.1Z" style="fill:#b78876"></path><path d="M308.71,361.81c3.87,2.75-1.63-8.22-4.89-12.53a34.84,34.84,0,0,1-5.29-9.6l13.74-28.8L293.7,301.7l-14.86,29.95a2.83,2.83,0,0,0,.12,3.7Z" style="fill:#b78876"></path><path d="M227.18,279.08l23.15-7.53,55.73-17.06a19.7,19.7,0,0,1,21.23,6.62h0a19.69,19.69,0,0,1,1.45,22.35l-12.2,48.14h0a8.48,8.48,0,0,1-11.37-3.69l-1.27-2.48a17.09,17.09,0,0,0-18.47-7.06h0l8.6-25.3-39,21.84-24.35-11.85Z" style="fill:#263238"></path><path d="M258.91,317.13,374.64,421.49l-3.2.56a16.61,16.61,0,0,0-15.58,12.37h0a16.59,16.59,0,0,1-18,12.25l-2.07-.25C266.38,383,215.22,335.28,217.32,337.65l18.75-38.74Z" style="fill:#263238"></path><path d="M220.83,279.67s4.1,32.39-9.61,56l9.17,4.35,24.5-33.55-8.7-30.36Z" style="fill:#263238"></path><path d="M224.87,278.74a3.64,3.64,0,0,1,.09.62c0,.46.11,1.05.18,1.78.17,1.61.4,3.83.68,6.54s.65,6.05.73,9.73a65.33,65.33,0,0,1-.84,11.94,59.16,59.16,0,0,1-7,20.49,43.37,43.37,0,0,1-3.73,5.43c-.49.6-.91,1-1.18,1.35a2.36,2.36,0,0,1-.44.44,3.59,3.59,0,0,1,.37-.51c.24-.33.63-.78,1.09-1.41a48.83,48.83,0,0,0,3.57-5.48,61.46,61.46,0,0,0,6.81-20.39,68.18,68.18,0,0,0,.87-11.85c0-3.66-.38-6.94-.61-9.71s-.43-5-.52-6.55c-.05-.78-.07-1.38-.08-1.79A2.83,2.83,0,0,1,224.87,278.74Z" style="fill:#455a64"></path><path d="M223.34,304.82a1.18,1.18,0,0,1-.3-.23,8.8,8.8,0,0,1-.73-.78,11.69,11.69,0,0,1-2-3.41,9.82,9.82,0,0,1-.4-1.26,2.66,2.66,0,0,1,0-1.5,1.47,1.47,0,0,1,1.32-1,1.75,1.75,0,0,1,1.48.94,4.7,4.7,0,0,1,.47,1.7c.08.57.13,1.16.16,1.76a27.27,27.27,0,0,1-.09,3.71c-.12,1.27-.3,2.49-.51,3.67-.12.58-.23,1.16-.34,1.72a4.8,4.8,0,0,1-.56,1.66,1.79,1.79,0,0,1-1.51.89,1.25,1.25,0,0,1-.86-.33,1.29,1.29,0,0,1-.37-.79,3.17,3.17,0,0,1,.28-1.47c.16-.42.34-.82.53-1.2a15.41,15.41,0,0,1,2.15-3.29,5.39,5.39,0,0,1,1-1,23.76,23.76,0,0,0-2.84,4.47c-.17.37-.34.77-.49,1.19a2.8,2.8,0,0,0-.22,1.27.76.76,0,0,0,.79.71,1.33,1.33,0,0,0,1.11-.68A4.55,4.55,0,0,0,222,310c.1-.56.21-1.13.32-1.71.2-1.17.38-2.38.49-3.63a28,28,0,0,0,.1-3.64c0-.58-.07-1.16-.15-1.72a4,4,0,0,0-.39-1.52,1.3,1.3,0,0,0-1.06-.73,1.06,1.06,0,0,0-.92.72,4,4,0,0,0,.31,2.49,12.55,12.55,0,0,0,1.8,3.4C223,304.42,223.37,304.79,223.34,304.82Z" style="fill:#455a64"></path><path d="M312.81,373a4.7,4.7,0,0,1,.54.52l1.46,1.55c1.25,1.37,3,3.36,5.16,5.91A196.1,196.1,0,0,1,335.16,402c2.67,4.3,5.15,8.43,7.1,12.38a23.18,23.18,0,0,1,2,5.93,11.76,11.76,0,0,1-.24,5.45,9.28,9.28,0,0,1-4.95,5.92,6,6,0,0,1-2.09.51l-.74,0a7.83,7.83,0,0,0,2.75-.66,7.94,7.94,0,0,0,2.61-2,10.26,10.26,0,0,0,2.07-3.84,11.43,11.43,0,0,0,.16-5.27,22.58,22.58,0,0,0-2-5.79c-1.95-3.89-4.44-8-7.1-12.31a214.44,214.44,0,0,0-15-21c-2.07-2.58-3.82-4.6-5-6l-1.39-1.62A4.63,4.63,0,0,1,312.81,373Z" style="fill:#455a64"></path><path d="M354.18,418.28a4.58,4.58,0,0,1,.17,2,11.79,11.79,0,0,1-4.23,8.37,4.71,4.71,0,0,1-1.69,1,16.5,16.5,0,0,1,1.44-1.3,13.74,13.74,0,0,0,2.77-3.71,13.54,13.54,0,0,0,1.35-4.42A18.6,18.6,0,0,1,354.18,418.28Z" style="fill:#455a64"></path><path d="M380,450.89a23.58,23.58,0,0,1-2.84-.34,68.44,68.44,0,0,0-6.86-.58c-2.68-.08-5.11,0-6.87.14a21.17,21.17,0,0,1-2.86.16,12.47,12.47,0,0,1,2.82-.52,46.71,46.71,0,0,1,13.83.43A11.8,11.8,0,0,1,380,450.89Z" style="fill:#aa6550"></path><path d="M369.44,437.42a14.7,14.7,0,0,1-3.64,1.6,14.88,14.88,0,0,1-3.81,1.11,15.67,15.67,0,0,1,3.63-1.6A16.06,16.06,0,0,1,369.44,437.42Z" style="fill:#aa6550"></path><path d="M302.65,271.86a34.06,34.06,0,0,1-1.58,3.21c-1,2-2.27,4.73-3.48,7.87a86.07,86.07,0,0,0-2.68,8.18c-.59,2.12-.91,3.45-1,3.44a3.14,3.14,0,0,1,.1-1c.09-.61.27-1.49.52-2.57a64.53,64.53,0,0,1,2.55-8.28,63.2,63.2,0,0,1,3.65-7.85c.53-1,1-1.74,1.33-2.26A3.52,3.52,0,0,1,302.65,271.86Z" style="fill:#455a64"></path><path d="M295.48,276.81c.15,0-.5,3.06-.65,6.85s.23,6.87.07,6.89a7.1,7.1,0,0,1-.41-2,31.36,31.36,0,0,1-.18-4.91,30.53,30.53,0,0,1,.59-4.88A6.28,6.28,0,0,1,295.48,276.81Z" style="fill:#455a64"></path></g><g id="freepik--Plants--inject-13"><rect x="312.7" y="158.35" width="146.94" height="7.56" style="fill:#455a64"></rect><path d="M439.8,89.63l-.1-.21c-.08-.16-.19-.35-.32-.59-.29-.51-.74-1.25-1.39-2.17a23.18,23.18,0,0,0-6.87-6.49A16.92,16.92,0,0,0,425,77.9a15.31,15.31,0,0,0-7.5.79,12.14,12.14,0,0,0-6.4,5.24c-1.48,2.58-1.95,5.59-2.81,8.48a15.49,15.49,0,0,1-1.79,4,12.24,12.24,0,0,1-3,3c-1.14.85-2.34,1.61-3.43,2.49a14.73,14.73,0,0,0-2.78,3,18.35,18.35,0,0,0-2.86,7,24.47,24.47,0,0,0-.38,6.56,50.43,50.43,0,0,0,1.67,9.32c.29,1.08.53,1.92.69,2.48a6.76,6.76,0,0,0,.28.85,5,5,0,0,0-.18-.88c-.14-.61-.34-1.45-.59-2.5a54.19,54.19,0,0,1-1.51-9.29,25,25,0,0,1,.44-6.45,18.13,18.13,0,0,1,2.83-6.79,14,14,0,0,1,2.71-2.91c1.06-.86,2.25-1.61,3.42-2.47a12.86,12.86,0,0,0,3.17-3.12,16,16,0,0,0,1.86-4.18c.87-2.94,1.34-5.91,2.75-8.37a11.66,11.66,0,0,1,6.13-5,14.85,14.85,0,0,1,7.26-.81,16.41,16.41,0,0,1,6,2.15,23.83,23.83,0,0,1,6.9,6.3c.67.89,1.15,1.61,1.46,2.11A5.61,5.61,0,0,0,439.8,89.63Z" style="fill:#e0e0e0"></path><path d="M402.07,100.21c.79-.74,1.18-.22,2.25,0a6.59,6.59,0,0,1,2.88,1.44,12.16,12.16,0,0,1,3.94,12.75,9.48,9.48,0,0,1-8.71-14.24" style="fill:#e0e0e0"></path><path d="M434.7,85.36c.4-1,1-.72,2-1a6.62,6.62,0,0,1,3.22.06,12.16,12.16,0,0,1,9,9.81,9.48,9.48,0,0,1-14-9.11" style="fill:#e0e0e0"></path><path d="M394.88,120.32a10.94,10.94,0,0,1,17.2.83,13.52,13.52,0,0,1-8.92,3.52,13.86,13.86,0,0,1-9-3.63" style="fill:#e0e0e0"></path><path d="M397.56,105.3a11.08,11.08,0,0,1-11.2-13.23,10,10,0,0,1,11.57,13.12" style="fill:#e0e0e0"></path><path d="M409.05,87.65a11.1,11.1,0,0,1-15-8.76,10,10,0,0,1,15.28,8.54" style="fill:#e0e0e0"></path><path d="M412.9,81.89a11.09,11.09,0,0,1,15,8.76,10,10,0,0,1-15.27-8.54" style="fill:#e0e0e0"></path><path d="M417.49,78.79a11.1,11.1,0,0,1-5.91-16.31,10,10,0,0,1,6.29,16.33" style="fill:#e0e0e0"></path><path d="M429.25,79.35a11.1,11.1,0,0,1,9.05-14.79,9.95,9.95,0,0,1-8.83,15.1" style="fill:#e0e0e0"></path><polyline points="381.83 158.86 375.56 119.53 423.59 120.11 418.85 158.35" style="fill:#263238"></polyline><path d="M402.55,112.34a8.2,8.2,0,0,0,8,.68,8.62,8.62,0,0,0,4.36-6.9,9.78,9.78,0,0,0-7.95-.4,9.65,9.65,0,0,0-5.29,5.92" style="fill:#407BFF"></path><path d="M424.51,120.81a8.2,8.2,0,0,0,8,.68,8.66,8.66,0,0,0,4.36-6.89,9.21,9.21,0,0,0-13.25,5.51" style="fill:#407BFF"></path><path d="M412.18,101.89a8.21,8.21,0,0,0,6.29,5,8.65,8.65,0,0,0,7.43-3.36,9.22,9.22,0,0,0-14.1-2.68" style="fill:#407BFF"></path><path d="M420.2,111.7a8.19,8.19,0,0,0-7.17,3.54,8.65,8.65,0,0,0-.17,8.16,9.22,9.22,0,0,0,8.49-11.58" style="fill:#407BFF"></path><path d="M427.93,127.18a8.19,8.19,0,0,0,.19,8,8.65,8.65,0,0,0,7.33,3.6,9.82,9.82,0,0,0-.46-8c-1.26-2.29-3.54-3.43-6.38-4.08" style="fill:#407BFF"></path><path d="M440.7,129a5.87,5.87,0,0,0-1.9-1.21,8.36,8.36,0,0,0-2.6-.46,31.69,31.69,0,0,0-3.55.21,10.4,10.4,0,0,1-4.36-.37,6.7,6.7,0,0,1-3.6-3.49,19.57,19.57,0,0,1-1.56-5.31,15.13,15.13,0,0,0-1.85-5.45,19.4,19.4,0,0,0-4.06-4.13,19.28,19.28,0,0,1-3.88-3.94,13,13,0,0,1-1.94-9A12.63,12.63,0,0,1,413.76,90a10,10,0,0,1,1.15-1.27,2.4,2.4,0,0,1,.46-.39,2.19,2.19,0,0,1-.38.46,13.28,13.28,0,0,0-1.07,1.32,12.94,12.94,0,0,0-2.15,5.74,12.7,12.7,0,0,0,2,8.72,19.73,19.73,0,0,0,3.82,3.82,19.53,19.53,0,0,1,4.17,4.24,15.68,15.68,0,0,1,1.91,5.63,20.18,20.18,0,0,0,1.48,5.2,6.29,6.29,0,0,0,3.33,3.29,10,10,0,0,0,4.19.41,30.24,30.24,0,0,1,3.58-.13,7.92,7.92,0,0,1,2.66.56,4.46,4.46,0,0,1,1.45.94,2.54,2.54,0,0,1,.3.33C440.68,129,440.71,129,440.7,129Z" style="fill:#407BFF"></path><path d="M440.7,129a5.87,5.87,0,0,0-1.9-1.21,8.36,8.36,0,0,0-2.6-.46,31.69,31.69,0,0,0-3.55.21,10.4,10.4,0,0,1-4.36-.37,6.7,6.7,0,0,1-3.6-3.49,19.57,19.57,0,0,1-1.56-5.31,15.13,15.13,0,0,0-1.85-5.45,19.4,19.4,0,0,0-4.06-4.13,19.28,19.28,0,0,1-3.88-3.94,13,13,0,0,1-1.94-9A12.63,12.63,0,0,1,413.76,90a10,10,0,0,1,1.15-1.27,2.4,2.4,0,0,1,.46-.39,2.19,2.19,0,0,1-.38.46,13.28,13.28,0,0,0-1.07,1.32,12.94,12.94,0,0,0-2.15,5.74,12.7,12.7,0,0,0,2,8.72,19.73,19.73,0,0,0,3.82,3.82,19.53,19.53,0,0,1,4.17,4.24,15.68,15.68,0,0,1,1.91,5.63,20.18,20.18,0,0,0,1.48,5.2,6.29,6.29,0,0,0,3.33,3.29,10,10,0,0,0,4.19.41,30.24,30.24,0,0,1,3.58-.13,7.92,7.92,0,0,1,2.66.56,4.46,4.46,0,0,1,1.45.94,2.54,2.54,0,0,1,.3.33C440.68,129,440.71,129,440.7,129Z" style="fill:#407BFF"></path><path d="M349,133a12.16,12.16,0,0,0-16.45-12,20.29,20.29,0,0,0,16,11.82" style="fill:#407BFF"></path><path d="M345.85,134.7c-2.35,2.58-2.2,6.73-.52,9.79s4.57,5.23,7.47,7.17A15.77,15.77,0,0,0,346,133.77" style="fill:#407BFF"></path><path d="M357.23,122.61a14,14,0,0,0,15.93,12.49c-.91-3.78-2.43-7.58-5.34-10.14s-7.52-3.52-10.75-1.36" style="fill:#407BFF"></path><path d="M357.15,118.76c-.59-3.44-4-5.93-7.45-6.25s-6.9,1.15-9.69,3.25a12.6,12.6,0,0,0,17.17,1.7" style="fill:#407BFF"></path><path d="M339.26,148c-3.3,2.81-4.13,7.83-2.76,11.94s4.58,7.4,8.19,9.8c1.39-4.08,2.26-8.45,1.52-12.69S342.93,148.69,339,147" style="fill:#407BFF"></path><path d="M356.61,109.12a10.14,10.14,0,0,1,16.06-.94,8.76,8.76,0,0,1-15.81.4" style="fill:#407BFF"></path><path d="M360.66,99.21a13.16,13.16,0,0,1-16.8-10.3,30.07,30.07,0,0,1,7.93.11,13,13,0,0,1,7,3.46,7,7,0,0,1,1.84,6.73" style="fill:#407BFF"></path><path d="M368.27,96.64A10.76,10.76,0,0,1,368.21,80a22.54,22.54,0,0,1,4.71,10,8.45,8.45,0,0,1,0,4.15A3.82,3.82,0,0,1,370,96.94" style="fill:#407BFF"></path><g style="opacity:0.4"><path d="M349,133a12.16,12.16,0,0,0-16.45-12,20.29,20.29,0,0,0,16,11.82"></path></g><g style="opacity:0.4"><path d="M345.85,134.7c-2.35,2.58-2.2,6.73-.52,9.79s4.57,5.23,7.47,7.17A15.77,15.77,0,0,0,346,133.77"></path></g><g style="opacity:0.4"><path d="M357.23,122.61a14,14,0,0,0,15.93,12.49c-.91-3.78-2.43-7.58-5.34-10.14s-7.52-3.52-10.75-1.36"></path></g><g style="opacity:0.4"><path d="M357.15,118.76c-.59-3.44-4-5.93-7.45-6.25s-6.9,1.15-9.69,3.25a12.6,12.6,0,0,0,17.17,1.7"></path></g><g style="opacity:0.4"><path d="M339.26,148c-3.3,2.81-4.13,7.83-2.76,11.94s4.58,7.4,8.19,9.8c1.39-4.08,2.26-8.45,1.52-12.69S342.93,148.69,339,147"></path></g><g style="opacity:0.4"><path d="M356.61,109.12a10.14,10.14,0,0,1,16.06-.94,8.76,8.76,0,0,1-15.81.4"></path></g><g style="opacity:0.4"><path d="M360.66,99.21a13.16,13.16,0,0,1-16.8-10.3,30.07,30.07,0,0,1,7.93.11,13,13,0,0,1,7,3.46,7,7,0,0,1,1.84,6.73"></path></g><g style="opacity:0.4"><path d="M368.27,96.64A10.76,10.76,0,0,1,368.21,80a22.54,22.54,0,0,1,4.71,10,8.45,8.45,0,0,1,0,4.15A3.82,3.82,0,0,1,370,96.94"></path></g><path d="M381.45,120.79a.92.92,0,0,1,0-.27c0-.21,0-.47.05-.79,0-.7.11-1.72.13-3a27.07,27.07,0,0,0-1.79-10.91,16.64,16.64,0,0,0-4.38-6.18,11.74,11.74,0,0,0-8-2.94A10,10,0,0,0,363,97.79a9,9,0,0,0-3.48,3.33c-1.74,2.87-2.17,6.47-2,10s.64,7.12.24,10.56a16.07,16.07,0,0,1-1.31,4.89,10.26,10.26,0,0,1-3,3.87,14.59,14.59,0,0,1-4.11,2.11,21.18,21.18,0,0,0-3.88,1.76,14,14,0,0,0-5.09,5.55,13.33,13.33,0,0,0-1.47,6.07,14.08,14.08,0,0,0,.77,4.69,18,18,0,0,0,1.81,3.65,1.24,1.24,0,0,1-.17-.2c-.11-.15-.28-.35-.47-.65a13.3,13.3,0,0,1-1.37-2.73,14.21,14.21,0,0,1-.86-4.76,13.49,13.49,0,0,1,1.43-6.24,14.36,14.36,0,0,1,5.19-5.75c2.38-1.58,5.51-2,7.93-3.87s3.68-5.15,4.06-8.45-.13-6.86-.26-10.48.28-7.32,2.11-10.32a9.43,9.43,0,0,1,3.68-3.5,10.53,10.53,0,0,1,4.73-1.17,12.12,12.12,0,0,1,8.28,3.1,16.79,16.79,0,0,1,4.44,6.36,22.84,22.84,0,0,1,1.52,6.22,34.49,34.49,0,0,1,.13,4.84c-.05,1.32-.15,2.34-.23,3,0,.32-.07.58-.1.78A.84.84,0,0,1,381.45,120.79Z" style="fill:#407BFF"></path><g style="opacity:0.4"><path d="M381.45,120.79a.92.92,0,0,1,0-.27c0-.21,0-.47.05-.79,0-.7.11-1.72.13-3a27.07,27.07,0,0,0-1.79-10.91,16.64,16.64,0,0,0-4.38-6.18,11.74,11.74,0,0,0-8-2.94A10,10,0,0,0,363,97.79a9,9,0,0,0-3.48,3.33c-1.74,2.87-2.17,6.47-2,10s.64,7.12.24,10.56a16.07,16.07,0,0,1-1.31,4.89,10.26,10.26,0,0,1-3,3.87,14.59,14.59,0,0,1-4.11,2.11,21.18,21.18,0,0,0-3.88,1.76,14,14,0,0,0-5.09,5.55,13.33,13.33,0,0,0-1.47,6.07,14.08,14.08,0,0,0,.77,4.69,18,18,0,0,0,1.81,3.65,1.24,1.24,0,0,1-.17-.2c-.11-.15-.28-.35-.47-.65a13.3,13.3,0,0,1-1.37-2.73,14.21,14.21,0,0,1-.86-4.76,13.49,13.49,0,0,1,1.43-6.24,14.36,14.36,0,0,1,5.19-5.75c2.38-1.58,5.51-2,7.93-3.87s3.68-5.15,4.06-8.45-.13-6.86-.26-10.48.28-7.32,2.11-10.32a9.43,9.43,0,0,1,3.68-3.5,10.53,10.53,0,0,1,4.73-1.17,12.12,12.12,0,0,1,8.28,3.1,16.79,16.79,0,0,1,4.44,6.36,22.84,22.84,0,0,1,1.52,6.22,34.49,34.49,0,0,1,.13,4.84c-.05,1.32-.15,2.34-.23,3,0,.32-.07.58-.1.78A.84.84,0,0,1,381.45,120.79Z"></path></g><path d="M451.38,112.21a10.59,10.59,0,0,0,.72-3.52,9,9,0,0,0-.94-4.06,8.49,8.49,0,0,0-3.92-3.79,8.61,8.61,0,0,0-3.08-.83,10.06,10.06,0,0,0-3.45.4c-2.36.62-4.69,2-7.47,2.51a8.84,8.84,0,0,1-4.33-.1,6.49,6.49,0,0,1-3.52-2.82c-1.68-2.6-2.15-5.86-4.18-8.26a8.21,8.21,0,0,0-3.79-2.48,10.63,10.63,0,0,0-4.43-.45,11.36,11.36,0,0,0-7.38,3.83A17.44,17.44,0,0,0,402,99.41a20.36,20.36,0,0,0-.81,6.71,73.91,73.91,0,0,0,1.24,9.81c.2,1.12.35,2,.46,2.66,0,.28.08.51.1.7a.86.86,0,0,1,0,.24,1,1,0,0,1-.07-.23l-.15-.69c-.14-.65-.32-1.53-.56-2.64a67.32,67.32,0,0,1-1.41-9.84,20.58,20.58,0,0,1,.77-6.84,17.62,17.62,0,0,1,3.72-7,12.93,12.93,0,0,1,3.37-2.69,11.53,11.53,0,0,1,8.95-.86,8.8,8.8,0,0,1,4,2.63c2.14,2.57,2.6,5.85,4.21,8.32a5.91,5.91,0,0,0,3.24,2.62,8.34,8.34,0,0,0,4.09.11c2.68-.51,5-1.83,7.44-2.45a10.4,10.4,0,0,1,3.6-.39,9,9,0,0,1,7.23,4.89,8.92,8.92,0,0,1,.88,4.19,8.47,8.47,0,0,1-.52,2.66A4.6,4.6,0,0,1,451.38,112.21Z" style="fill:#407BFF"></path><path d="M423.29,94.78a9.31,9.31,0,0,0,8.56.56,8.63,8.63,0,0,0,4.37-6.89,9.84,9.84,0,0,0-8-.41A9.7,9.7,0,0,0,423,94" style="fill:#407BFF"></path><path d="M432.39,103a9.32,9.32,0,0,0,4,7.6,8.61,8.61,0,0,0,8.15.14,9.21,9.21,0,0,0-11.6-8.44" style="fill:#407BFF"></path><path d="M448.19,101.21a9.36,9.36,0,0,0,8.58-.36,8.63,8.63,0,0,0,3.6-7.31,9.21,9.21,0,0,0-12.59,6.89" style="fill:#407BFF"></path><path d="M410,89.31c-2.3-2-3.84-5.47-3.4-8.08A8.64,8.64,0,0,1,411.91,75a9.2,9.2,0,0,1-1.35,14.29" style="fill:#407BFF"></path><path d="M348.35,78a1.1,1.1,0,0,1,.1-.21c.08-.16.19-.35.31-.59.3-.51.75-1.25,1.4-2.17A23.18,23.18,0,0,1,357,68.54a16.92,16.92,0,0,1,6.16-2.27,15.28,15.28,0,0,1,7.49.79,12.1,12.1,0,0,1,6.41,5.25c1.48,2.57,2,5.58,2.81,8.47a15.49,15.49,0,0,0,1.79,4,12.2,12.2,0,0,0,3,3c1.15.85,2.35,1.61,3.44,2.5a14.68,14.68,0,0,1,2.78,3,18.52,18.52,0,0,1,2.86,7,24.47,24.47,0,0,1,.38,6.56,49.46,49.46,0,0,1-1.68,9.32c-.28,1.08-.52,1.92-.68,2.48a8.52,8.52,0,0,1-.28.86,5,5,0,0,1,.17-.88l.6-2.51a53.37,53.37,0,0,0,1.5-9.29,25,25,0,0,0-.43-6.45,18.3,18.3,0,0,0-2.83-6.79,14,14,0,0,0-2.71-2.91c-1.06-.86-2.25-1.61-3.42-2.47a12.68,12.68,0,0,1-3.17-3.12,16,16,0,0,1-1.86-4.18c-.87-2.93-1.34-5.91-2.75-8.37a11.66,11.66,0,0,0-6.13-5,14.87,14.87,0,0,0-7.27-.81,16.91,16.91,0,0,0-6,2.15,23.9,23.9,0,0,0-6.89,6.3c-.67.89-1.15,1.61-1.47,2.11A5.15,5.15,0,0,1,348.35,78Z" style="fill:#407BFF"></path><path d="M386.08,88.58c-.79-.74-1.18-.22-2.25,0A6.65,6.65,0,0,0,381,90,12.14,12.14,0,0,0,377,102.74a9.48,9.48,0,0,0,8.71-14.24" style="fill:#407BFF"></path><path d="M353.45,73.73c-.4-1-1-.72-2-1a6.62,6.62,0,0,0-3.22.06,12.13,12.13,0,0,0-9,9.81,9.48,9.48,0,0,0,14-9.11" style="fill:#407BFF"></path><path d="M393.27,108.69a10.94,10.94,0,0,0-17.2.83A13.52,13.52,0,0,0,385,113a13.82,13.82,0,0,0,9-3.63" style="fill:#407BFF"></path><path d="M390.59,93.67a11.09,11.09,0,0,0,11.2-13.23,10,10,0,0,0-11.57,13.12" style="fill:#407BFF"></path><path d="M379.1,76a11.09,11.09,0,0,0,15-8.76,10,10,0,0,0-15.27,8.54" style="fill:#407BFF"></path><path d="M375.25,70.26a11.09,11.09,0,0,0-15,8.76,10,10,0,0,0,15.27-8.54" style="fill:#407BFF"></path><path d="M370.66,67.16a11.09,11.09,0,0,0,5.9-16.31,10,10,0,0,0-6.28,16.33" style="fill:#407BFF"></path><path d="M358.9,67.72a11.1,11.1,0,0,0-9-14.79A9.95,9.95,0,0,0,358.68,68" style="fill:#407BFF"></path><polygon points="374.95 154.3 378.63 158.86 423.82 158.86 426.9 154.3 374.95 154.3" style="fill:#263238"></polygon><path d="M425.91,154.26c0,.15-11.11.26-24.8.26s-24.81-.11-24.81-.26,11.1-.26,24.81-.26S425.91,154.12,425.91,154.26Z" style="fill:#455a64"></path><path d="M420.83,137.1a1.59,1.59,0,0,1-.28.37,11.77,11.77,0,0,1-.92,1,16.83,16.83,0,0,1-4,2.8,17.79,17.79,0,0,1-7,1.81,16.9,16.9,0,0,1-4.32-.36,24.93,24.93,0,0,1-4.4-1.46c-2.91-1.24-5.56-2.65-8.14-3.47a14,14,0,0,0-7-.68,9.15,9.15,0,0,0-4.32,2c-.86.75-1.18,1.32-1.23,1.28a1.63,1.63,0,0,1,.23-.41,6.78,6.78,0,0,1,.87-1,8.93,8.93,0,0,1,4.37-2.21,14,14,0,0,1,7.25.58c2.64.81,5.32,2.23,8.2,3.45a25.36,25.36,0,0,0,4.31,1.44,16.85,16.85,0,0,0,4.19.38,17.91,17.91,0,0,0,6.91-1.66A21.63,21.63,0,0,0,420.83,137.1Z" style="fill:#455a64"></path><path d="M421.28,133.57a1.68,1.68,0,0,1-.31.35,10.09,10.09,0,0,1-1,.9,18.79,18.79,0,0,1-4.18,2.6,19.81,19.81,0,0,1-7.11,1.7,20.17,20.17,0,0,1-4.33-.29,29,29,0,0,1-4.46-1.27c-3-1.08-5.72-2.33-8.34-3.06a16.64,16.64,0,0,0-7.09-.64,10.78,10.78,0,0,0-4.48,1.71c-.94.66-1.35,1.16-1.39,1.12a1.92,1.92,0,0,1,.29-.37,7.14,7.14,0,0,1,1-.91,10.29,10.29,0,0,1,4.54-1.91,16.52,16.52,0,0,1,7.28.54c2.67.72,5.43,2,8.38,3a28.75,28.75,0,0,0,4.39,1.25,19.08,19.08,0,0,0,4.21.32,19.85,19.85,0,0,0,7-1.56A24.63,24.63,0,0,0,421.28,133.57Z" style="fill:#455a64"></path><rect x="352.5" y="163.92" width="4.41" height="12.3" style="fill:#455a64"></rect><rect x="415.44" y="163.92" width="4.41" height="12.3" style="fill:#455a64"></rect><path d="M417.68,420.45c-1.7,2.44-5,1.63-6.57.14s-2.19-3.65-2.78-5.71c-1.35-4.7-2.72-9.64-1.71-14.43a8,8,0,0,1,1.84-3.92,4.16,4.16,0,0,1,4-1.32c1.67.44,2.72,2.08,3.47,3.64a34.46,34.46,0,0,1,3.4,14.76,11.86,11.86,0,0,1-1.62,6.84" style="fill:#407BFF"></path><g style="opacity:0.2"><path d="M417.68,420.45c-1.7,2.44-5,1.63-6.57.14s-2.19-3.65-2.78-5.71c-1.35-4.7-2.72-9.64-1.71-14.43a8,8,0,0,1,1.84-3.92,4.16,4.16,0,0,1,4-1.32c1.67.44,2.72,2.08,3.47,3.64a34.46,34.46,0,0,1,3.4,14.76,11.86,11.86,0,0,1-1.62,6.84"></path></g><path d="M411.28,432.81a14.85,14.85,0,0,0-9.19-1.12,7.69,7.69,0,0,0-4.54,2c-1.13,1.25-1.35,3.46-.05,4.53a4.39,4.39,0,0,0,2.87.73c2.43,0,5.12-.46,7.06,1,1.11.83,1.85,2.22,3.17,2.63a3.12,3.12,0,0,0,3.44-1.54,5.32,5.32,0,0,0,.39-3.94A6,6,0,0,0,411.28,432.81Z" style="fill:#407BFF"></path><path d="M422.38,424a8.85,8.85,0,0,1-1.38-8.17,15.66,15.66,0,0,1,4.84-7,26,26,0,0,1,8.67-5.12,9.17,9.17,0,0,1,3.9-.66,4.08,4.08,0,0,1,3.27,2c.91,1.74,0,3.85-.91,5.57a65.45,65.45,0,0,1-5.7,8.67c-1.7,2.2-3.66,4.37-6.26,5.37s-5.3.87-6.68-.93" style="fill:#407BFF"></path><path d="M417.8,457.27a5.68,5.68,0,0,1-.15-1.11l-.3-3a44.21,44.21,0,0,0-.68-4.44,33.72,33.72,0,0,0-1.61-5.24,19.48,19.48,0,0,0-2.68-4.75A10.1,10.1,0,0,0,409,435.9a9.52,9.52,0,0,0-2.85-.89,4.57,4.57,0,0,1-1.11-.16,5.79,5.79,0,0,1,1.13,0,8.52,8.52,0,0,1,3,.77,10,10,0,0,1,3.57,2.84,18.79,18.79,0,0,1,2.77,4.83,31.81,31.81,0,0,1,1.6,5.33,36.53,36.53,0,0,1,.59,4.5c.1,1.28.14,2.32.15,3A5.13,5.13,0,0,1,417.8,457.27Z" style="fill:#263238"></path><path d="M417.59,454.94a3.28,3.28,0,0,1,0-.51c0-.39,0-.88,0-1.47,0-1.28,0-3.13-.07-5.41-.11-4.57-.51-10.87-1.27-17.79s-1.77-13.17-2.7-17.64c-.22-1.12-.44-2.13-.64-3s-.37-1.65-.53-2.27-.25-1-.35-1.43a3.19,3.19,0,0,1-.09-.5,1.63,1.63,0,0,1,.18.48c.12.37.26.84.43,1.41s.38,1.37.61,2.25.47,1.89.71,3a166.8,166.8,0,0,1,2.84,17.65c.76,6.94,1.1,13.26,1.13,17.83,0,2.29,0,4.14-.08,5.42q0,.9-.09,1.47A1.69,1.69,0,0,1,417.59,454.94Z" style="fill:#263238"></path><path d="M417.56,442.75a9.41,9.41,0,0,1,0-1.53c.06-1,.19-2.42.47-4.17A55.85,55.85,0,0,1,419.4,431a52.3,52.3,0,0,1,2.54-7.18,38,38,0,0,1,7.45-11.6,16.87,16.87,0,0,1,1.75-1.63c.27-.23.51-.46.75-.64l.68-.47a12.11,12.11,0,0,1,1.29-.83,48.65,48.65,0,0,0-4.24,3.79A40.16,40.16,0,0,0,422.36,424a57.78,57.78,0,0,0-2.56,7.12c-.66,2.23-1.1,4.28-1.44,6s-.5,3.14-.61,4.12A9.48,9.48,0,0,1,417.56,442.75Z" style="fill:#263238"></path></g></svg>