<svg xmlns="http://www.w3.org/2000/svg" viewBox="0 0 464.65 439.77"><g id="freepik--background-simple--inject-31"><path d="M464.86,277.39c-14.73,39.43-44.81,82.11-87.14,94.75-64,19.1-71.6,70.65-186.16,65.87A230.92,230.92,0,0,1,142,430.75,194.41,194.41,0,0,1,118.73,423C51.8,395.89,16.89,336.23,14,273.81c-3.82-82.11,53.46-121.24,90.69-144.15S186.79,18,299.44,21.77a224.06,224.06,0,0,1,50.92,7.44c37.91,10.26,76.44,32.95,98.84,66.12q2.52,3.75,4.82,7.64C484,153.82,484.93,223.63,464.86,277.39Z" transform="translate(-13.81 -21.65)" style="fill:#92E3A9"></path><path d="M464.86,277.39c-14.73,39.43-44.81,82.11-87.14,94.75-64,19.1-71.6,70.65-186.16,65.87A230.92,230.92,0,0,1,142,430.75,194.41,194.41,0,0,1,118.73,423C51.8,395.89,16.89,336.23,14,273.81c-3.82-82.11,53.46-121.24,90.69-144.15S186.79,18,299.44,21.77a224.06,224.06,0,0,1,50.92,7.44c37.91,10.26,76.44,32.95,98.84,66.12q2.52,3.75,4.82,7.64C484,153.82,484.93,223.63,464.86,277.39Z" transform="translate(-13.81 -21.65)" style="fill:#fff;opacity:0.8"></path></g><g id="freepik--Floor--inject-31"><line x1="14.04" y1="439.25" x2="462.32" y2="439.25" style="fill:none;stroke:#263238;stroke-linecap:round;stroke-linejoin:round"></line></g><g id="freepik--Window--inject-31"><rect x="31.76" y="21.37" width="155.57" height="211.58" style="fill:none;stroke:#263238;stroke-linecap:round;stroke-linejoin:round"></rect><rect x="36.08" y="27.25" width="146.93" height="199.83" style="fill:none;stroke:#263238;stroke-linecap:round;stroke-linejoin:round"></rect><line x1="36.12" y1="37.66" x2="182.85" y2="37.66" style="fill:none;stroke:#263238;stroke-linecap:round;stroke-linejoin:round"></line><line x1="36.12" y1="48.87" x2="182.85" y2="48.87" style="fill:none;stroke:#263238;stroke-linecap:round;stroke-linejoin:round"></line><line x1="36.12" y1="60.08" x2="182.85" y2="60.08" style="fill:none;stroke:#263238;stroke-linecap:round;stroke-linejoin:round"></line><line x1="36.12" y1="71.28" x2="182.85" y2="71.28" style="fill:none;stroke:#263238;stroke-linecap:round;stroke-linejoin:round"></line><line x1="36.12" y1="82.49" x2="182.85" y2="82.49" style="fill:none;stroke:#263238;stroke-linecap:round;stroke-linejoin:round"></line><line x1="36.12" y1="93.7" x2="182.85" y2="93.7" style="fill:none;stroke:#263238;stroke-linecap:round;stroke-linejoin:round"></line><line x1="36.12" y1="104.91" x2="182.85" y2="104.91" style="fill:none;stroke:#263238;stroke-linecap:round;stroke-linejoin:round"></line><line x1="36.12" y1="116.12" x2="182.85" y2="116.12" style="fill:none;stroke:#263238;stroke-linecap:round;stroke-linejoin:round"></line><line x1="36.12" y1="127.32" x2="182.85" y2="127.32" style="fill:none;stroke:#263238;stroke-linecap:round;stroke-linejoin:round"></line><line x1="36.12" y1="138.53" x2="182.85" y2="138.53" style="fill:none;stroke:#263238;stroke-linecap:round;stroke-linejoin:round"></line><line x1="36.12" y1="149.74" x2="182.85" y2="149.74" style="fill:none;stroke:#263238;stroke-linecap:round;stroke-linejoin:round"></line><line x1="36.12" y1="160.95" x2="182.85" y2="160.95" style="fill:none;stroke:#263238;stroke-linecap:round;stroke-linejoin:round"></line><line x1="36.12" y1="172.16" x2="182.85" y2="172.16" style="fill:none;stroke:#263238;stroke-linecap:round;stroke-linejoin:round"></line><line x1="36.12" y1="183.36" x2="182.85" y2="183.36" style="fill:none;stroke:#263238;stroke-linecap:round;stroke-linejoin:round"></line><line x1="36.12" y1="194.57" x2="182.85" y2="194.57" style="fill:none;stroke:#263238;stroke-linecap:round;stroke-linejoin:round"></line><line x1="36.12" y1="205.78" x2="182.85" y2="205.78" style="fill:none;stroke:#263238;stroke-linecap:round;stroke-linejoin:round"></line><line x1="36.12" y1="216.99" x2="182.85" y2="216.99" style="fill:none;stroke:#263238;stroke-linecap:round;stroke-linejoin:round"></line></g><g id="freepik--Barcode--inject-31"><rect x="255.15" y="21.37" width="3.06" height="144.82" style="fill:#263238"></rect><rect x="260.44" y="21.37" width="3.06" height="144.82" style="fill:#263238"></rect><rect x="272.98" y="21.37" width="3.06" height="131.76" style="fill:#263238"></rect><rect x="301.96" y="21.37" width="3.06" height="131.76" style="fill:#263238"></rect><rect x="321.74" y="21.37" width="3.06" height="131.76" style="fill:#263238"></rect><rect x="342.64" y="21.37" width="3.06" height="131.76" style="fill:#263238"></rect><rect x="348.21" y="21.37" width="3.06" height="144.82" style="fill:#263238"></rect><rect x="353.78" y="21.37" width="3.06" height="144.82" style="fill:#263238"></rect><rect x="374.12" y="21.37" width="3.06" height="131.76" style="fill:#263238"></rect><rect x="395.3" y="21.37" width="3.06" height="131.76" style="fill:#263238"></rect><rect x="415.64" y="21.37" width="3.06" height="131.76" style="fill:#263238"></rect><rect x="421.49" y="21.37" width="3.07" height="131.76" style="fill:#263238"></rect><rect x="435.98" y="21.37" width="3.06" height="131.76" style="fill:#263238"></rect><rect x="442.11" y="21.37" width="3.06" height="144.82" style="fill:#263238"></rect><rect x="447.96" y="21.37" width="3.06" height="144.82" style="fill:#263238"></rect><rect x="278.27" y="21.37" width="5.57" height="131.76" style="fill:#263238"></rect><rect x="287.19" y="21.37" width="5.57" height="131.76" style="fill:#263238"></rect><rect x="313.38" y="21.37" width="5.57" height="131.76" style="fill:#263238"></rect><rect x="327.87" y="21.37" width="5.57" height="131.76" style="fill:#263238"></rect><rect x="360.47" y="21.37" width="8.08" height="131.76" style="fill:#263238"></rect><rect x="380.53" y="21.37" width="8.08" height="131.76" style="fill:#263238"></rect><rect x="401.43" y="21.37" width="8.08" height="131.76" style="fill:#263238"></rect><path d="M294.88,203.25a5.45,5.45,0,0,1-3.1-.78,4.39,4.39,0,0,1-1.69-2.21,9.48,9.48,0,0,1-.53-3.34,9,9,0,0,1,.29-2.46,5.15,5.15,0,0,1,.77-1.63,4.17,4.17,0,0,1,1.06-1,11.61,11.61,0,0,1,1.14-.67,4.7,4.7,0,0,1-2.2-1.85,6.23,6.23,0,0,1-.84-3.44,8.07,8.07,0,0,1,.5-2.93,4.07,4.07,0,0,1,1.64-2,5.43,5.43,0,0,1,3-.72,5.26,5.26,0,0,1,2.95.73,4.31,4.31,0,0,1,1.6,2,8.14,8.14,0,0,1,.5,2.95,6.11,6.11,0,0,1-.82,3.4,4.84,4.84,0,0,1-2.19,1.84,10.44,10.44,0,0,1,1.13.67,4.28,4.28,0,0,1,1,1,5.38,5.38,0,0,1,.79,1.63,8.61,8.61,0,0,1,.3,2.46,9.48,9.48,0,0,1-.53,3.34,4.43,4.43,0,0,1-1.68,2.21A5.46,5.46,0,0,1,294.88,203.25Zm0-1.61a3,3,0,0,0,1.84-.52,3,3,0,0,0,1.09-1.56,9.67,9.67,0,0,0,0-5.08,3.6,3.6,0,0,0-1-1.68,3.12,3.12,0,0,0-1.94-.73,3.26,3.26,0,0,0-2,.73,3.57,3.57,0,0,0-1.06,1.68,8.2,8.2,0,0,0-.32,2.44,7.68,7.68,0,0,0,.38,2.64,2.88,2.88,0,0,0,3,2.08Zm0-11.44a2.82,2.82,0,0,0,1.83-.64,3.24,3.24,0,0,0,.94-1.56,8.23,8.23,0,0,0,.27-2.2,5.13,5.13,0,0,0-.72-3,2.66,2.66,0,0,0-2.32-1,2.71,2.71,0,0,0-2.35,1,5,5,0,0,0-.74,3,7.83,7.83,0,0,0,.28,2.2,3.05,3.05,0,0,0,1,1.56A2.94,2.94,0,0,0,294.88,190.2Z" transform="translate(-13.81 -21.65)" style="fill:#263238"></path><path d="M311.64,203.25a6.19,6.19,0,0,1-2.84-.58,3.79,3.79,0,0,1-1.72-1.77,7,7,0,0,1-.6-2.92v-.41h2a5.19,5.19,0,0,0,.69,3.06,3.58,3.58,0,0,0,4.12.48,2.81,2.81,0,0,0,1.05-1.52,9.39,9.39,0,0,0,.36-2.89v-4.26a3.85,3.85,0,0,1-1.32.92,5.7,5.7,0,0,1-2.3.41,5.14,5.14,0,0,1-2.93-.71,3.86,3.86,0,0,1-1.51-2.2,13.57,13.57,0,0,1-.44-3.83,10.93,10.93,0,0,1,.54-3.63,4.78,4.78,0,0,1,1.73-2.38,5.18,5.18,0,0,1,3.11-.85,4.85,4.85,0,0,1,3,.85,4.79,4.79,0,0,1,1.67,2.42,11.73,11.73,0,0,1,.53,3.78v9a12,12,0,0,1-.5,3.65,5,5,0,0,1-1.6,2.48A4.66,4.66,0,0,1,311.64,203.25Zm-.08-11.07a4,4,0,0,0,2-.43,4.33,4.33,0,0,0,1.17-.88V187a11.33,11.33,0,0,0-.32-3,2.63,2.63,0,0,0-2.8-2.16,3.13,3.13,0,0,0-1.83.51,3.07,3.07,0,0,0-1.1,1.58,8.47,8.47,0,0,0-.36,2.68,18.86,18.86,0,0,0,.21,3.09,3.06,3.06,0,0,0,.9,1.84A3.19,3.19,0,0,0,311.56,192.18Z" transform="translate(-13.81 -21.65)" style="fill:#263238"></path><path d="M329.57,203v-6.61h-6.8V194.3l6.41-13.91h2.4v14.14h2.59v1.84h-2.59V203Zm-4.74-8.45h4.74V183.09Z" transform="translate(-13.81 -21.65)" style="fill:#263238"></path><path d="M340.7,203,345.11,182h-6.84v-1.64h8.93v1L342.68,203Z" transform="translate(-13.81 -21.65)" style="fill:#263238"></path><path d="M385.52,203.25a5.24,5.24,0,0,1-3.18-.86,4.77,4.77,0,0,1-1.67-2.37,11,11,0,0,1-.5-3.43v-9.82a10.37,10.37,0,0,1,.52-3.44,4.61,4.61,0,0,1,1.7-2.33,5.29,5.29,0,0,1,3.13-.83,5.36,5.36,0,0,1,3.18.83,4.65,4.65,0,0,1,1.69,2.33,10.63,10.63,0,0,1,.52,3.44v9.82a10.81,10.81,0,0,1-.51,3.46,4.57,4.57,0,0,1-1.67,2.35A5.34,5.34,0,0,1,385.52,203.25Zm0-1.61a2.88,2.88,0,0,0,2-.66,3.6,3.6,0,0,0,1-1.75,9.91,9.91,0,0,0,.29-2.47V186.64a9.79,9.79,0,0,0-.29-2.47,3.62,3.62,0,0,0-1-1.75,3,3,0,0,0-2-.64,2.9,2.9,0,0,0-2,.64,3.48,3.48,0,0,0-1,1.75,9.34,9.34,0,0,0-.3,2.47v10.12a9.44,9.44,0,0,0,.3,2.47,3.46,3.46,0,0,0,1,1.75A2.85,2.85,0,0,0,385.52,201.64Z" transform="translate(-13.81 -21.65)" style="fill:#263238"></path><path d="M402.73,203.25a5.22,5.22,0,0,1-3.18-.86,4.71,4.71,0,0,1-1.67-2.37,10.67,10.67,0,0,1-.5-3.43v-9.82a10.64,10.64,0,0,1,.51-3.44,4.61,4.61,0,0,1,1.7-2.33,6.43,6.43,0,0,1,6.32,0,4.63,4.63,0,0,1,1.68,2.33,10.37,10.37,0,0,1,.52,3.44v9.82a11.11,11.11,0,0,1-.5,3.46,4.63,4.63,0,0,1-1.67,2.35A5.38,5.38,0,0,1,402.73,203.25Zm0-1.61a2.86,2.86,0,0,0,2-.66,3.52,3.52,0,0,0,1-1.75,9.44,9.44,0,0,0,.3-2.47V186.64a9.34,9.34,0,0,0-.3-2.47,3.47,3.47,0,0,0-1-1.75,3.49,3.49,0,0,0-4,0,3.55,3.55,0,0,0-1,1.75,9.79,9.79,0,0,0-.29,2.47v10.12a9.91,9.91,0,0,0,.29,2.47,3.47,3.47,0,0,0,1,1.75A2.82,2.82,0,0,0,402.73,201.64Z" transform="translate(-13.81 -21.65)" style="fill:#263238"></path><path d="M419.93,203.25a5.24,5.24,0,0,1-3.18-.86,4.77,4.77,0,0,1-1.67-2.37,11,11,0,0,1-.5-3.43v-9.82a10.37,10.37,0,0,1,.52-3.44,4.61,4.61,0,0,1,1.7-2.33,5.29,5.29,0,0,1,3.13-.83,5.36,5.36,0,0,1,3.18.83,4.65,4.65,0,0,1,1.69,2.33,10.63,10.63,0,0,1,.52,3.44v9.82a10.81,10.81,0,0,1-.51,3.46,4.57,4.57,0,0,1-1.67,2.35A5.34,5.34,0,0,1,419.93,203.25Zm0-1.61a2.88,2.88,0,0,0,2-.66,3.6,3.6,0,0,0,1-1.75,9.91,9.91,0,0,0,.29-2.47V186.64a9.79,9.79,0,0,0-.29-2.47,3.62,3.62,0,0,0-1-1.75,3,3,0,0,0-2-.64,2.9,2.9,0,0,0-2,.64,3.48,3.48,0,0,0-1,1.75,9.34,9.34,0,0,0-.3,2.47v10.12a9.44,9.44,0,0,0,.3,2.47,3.46,3.46,0,0,0,1,1.75A2.85,2.85,0,0,0,419.93,201.64Z" transform="translate(-13.81 -21.65)" style="fill:#263238"></path><path d="M432.82,203l4.4-20.95h-6.83v-1.64h8.92v1L434.8,203Z" transform="translate(-13.81 -21.65)" style="fill:#263238"></path></g><g id="freepik--Boxes--inject-31"><rect x="131.16" y="346.42" width="102.02" height="92.64" style="fill:#92E3A9"></rect><rect x="131.16" y="346.42" width="102.02" height="92.64" style="stroke:#263238;stroke-linecap:round;stroke-linejoin:round;opacity:0.30000000000000004"></rect><rect x="131.16" y="346.42" width="102.02" height="92.64" style="fill:none;stroke:#263238;stroke-linecap:round;stroke-linejoin:round"></rect><rect x="131.16" y="346.42" width="72.71" height="92.64" style="fill:#92E3A9;stroke:#263238;stroke-linecap:round;stroke-linejoin:round"></rect><rect x="159.26" y="346.42" width="15.62" height="25.86" style="fill:#fff;stroke:#263238;stroke-linecap:round;stroke-linejoin:round"></rect><rect x="178.88" y="379.84" width="18.11" height="9.24" style="fill:#fff"></rect><rect x="154.69" y="414.52" width="19.22" height="11.46" transform="translate(91.93 -48.81) rotate(13.9)" style="fill:#fff"></rect><rect x="211.4" y="346.42" width="102.02" height="92.64" style="fill:#92E3A9"></rect><rect x="211.4" y="346.42" width="102.02" height="92.64" style="stroke:#263238;stroke-linecap:round;stroke-linejoin:round;opacity:0.30000000000000004"></rect><rect x="211.4" y="346.42" width="102.02" height="92.64" style="fill:none;stroke:#263238;stroke-linecap:round;stroke-linejoin:round"></rect><rect x="211.4" y="346.42" width="72.71" height="92.64" style="fill:#92E3A9;stroke:#263238;stroke-linecap:round;stroke-linejoin:round"></rect><rect x="239.5" y="346.42" width="15.62" height="25.86" style="fill:#fff;stroke:#263238;stroke-linecap:round;stroke-linejoin:round"></rect><rect x="251.72" y="416.63" width="18.11" height="9.24" style="fill:#fff"></rect><rect x="234.92" y="414.52" width="19.22" height="11.46" transform="translate(94.28 -68.08) rotate(13.9)" style="fill:#fff"></rect><rect x="292.22" y="346.42" width="102.02" height="92.64" style="fill:#92E3A9"></rect><rect x="292.22" y="346.42" width="102.02" height="92.64" style="stroke:#263238;stroke-linecap:round;stroke-linejoin:round;opacity:0.30000000000000004"></rect><rect x="292.22" y="346.42" width="102.02" height="92.64" style="fill:none;stroke:#263238;stroke-linecap:round;stroke-linejoin:round"></rect><rect x="292.22" y="346.42" width="72.71" height="92.64" style="fill:#92E3A9;stroke:#263238;stroke-linecap:round;stroke-linejoin:round"></rect><rect x="320.31" y="346.42" width="15.62" height="25.86" style="fill:#fff;stroke:#263238;stroke-linecap:round;stroke-linejoin:round"></rect><rect x="353.75" y="401.49" width="18.11" height="9.24" transform="translate(368.34 -159.76) rotate(43.81)" style="fill:#fff"></rect><rect x="315.74" y="414.52" width="19.22" height="11.46" transform="translate(96.64 -87.49) rotate(13.9)" style="fill:#fff"></rect><rect x="172.83" y="254.22" width="102.02" height="92.64" style="fill:#92E3A9"></rect><rect x="172.83" y="254.22" width="102.02" height="92.64" style="stroke:#263238;stroke-linecap:round;stroke-linejoin:round;opacity:0.30000000000000004"></rect><rect x="172.83" y="254.22" width="102.02" height="92.64" style="fill:none;stroke:#263238;stroke-linecap:round;stroke-linejoin:round"></rect><rect x="172.83" y="254.22" width="72.71" height="92.64" style="fill:#92E3A9;stroke:#263238;stroke-linecap:round;stroke-linejoin:round"></rect><rect x="200.93" y="254.22" width="15.62" height="25.86" style="fill:#fff;stroke:#263238;stroke-linecap:round;stroke-linejoin:round"></rect><rect x="220.55" y="287.63" width="18.11" height="9.24" style="fill:#fff"></rect><rect x="229.96" y="336.99" width="19.22" height="11.46" transform="translate(75.51 -69.16) rotate(13.9)" style="fill:#fff"></rect><rect x="253.07" y="254.22" width="102.02" height="92.64" style="fill:#92E3A9"></rect><rect x="253.07" y="254.22" width="102.02" height="92.64" style="stroke:#263238;stroke-linecap:round;stroke-linejoin:round;opacity:0.30000000000000004"></rect><rect x="253.07" y="254.22" width="102.02" height="92.64" style="fill:none;stroke:#263238;stroke-linecap:round;stroke-linejoin:round"></rect><rect x="253.07" y="254.22" width="72.71" height="92.64" style="fill:#92E3A9;stroke:#263238;stroke-linecap:round;stroke-linejoin:round"></rect><rect x="281.17" y="254.22" width="15.62" height="25.86" style="fill:#fff;stroke:#263238;stroke-linecap:round;stroke-linejoin:round"></rect><rect x="287.18" y="288.97" width="18.11" height="9.24" style="fill:#fff"></rect><rect x="276.59" y="322.31" width="19.22" height="11.46" transform="translate(73.35 -80.79) rotate(13.9)" style="fill:#fff"></rect></g><g id="freepik--Character--inject-31"><path d="M97.12,278.76s4.87,50.49,5.17,57.48-3,10.64-3,24,3.35,76.64,3.35,76.64-3,17.64-4.26,20.07a2.65,2.65,0,0,0,2.43,3.95H117.5s2.13-3.34,1.52-6.38-3-19.16-3-19.16,17.33-87,18.24-92.45,8.52-56.56,8.52-56.56l-.91,49.57s-2.13,21.59.3,37.1,9.43,64.77,9.43,64.77l.3,23.11h39.23s1.22-2.73-.91-4.25-8.52-4.57-11.56-7.61-11.55-12.77-11.55-12.77,3.65-56.56,4.86-72.07,3-25.85,4.26-34.37,4.26-45,4.26-52.91-33.76-12.47-33.76-12.47l-49.87,5.17Z" transform="translate(-13.81 -21.65)" style="fill:#263238;stroke:#263238;stroke-linecap:round;stroke-linejoin:round"></path><path d="M119,454.54c-.56-2.8-2.67-16.66-3-18.86H102.53c0,.79.07,1.22.07,1.22s-3,17.64-4.26,20.07a2.65,2.65,0,0,0,2.43,3.95h16.72A12,12,0,0,0,119,457,6.62,6.62,0,0,0,119,454.54ZM190.55,457a2.33,2.33,0,0,0-.37-.31c-2.13-1.51-8.51-4.56-11.56-7.59s-11.55-12.78-11.55-12.78v-.06L151.3,436c.16,1.15.26,1.79.26,1.79l.25,19.16.05,3.95h39.23S192.16,458.52,190.55,457Z" transform="translate(-13.81 -21.65)" style="fill:#fff;stroke:#263238;stroke-linecap:round;stroke-linejoin:round"></path><path d="M98.34,457H119a12,12,0,0,1-1.52,3.95H100.77A2.65,2.65,0,0,1,98.34,457Z" transform="translate(-13.81 -21.65)" style="fill:#fff;stroke:#263238;stroke-linecap:round;stroke-linejoin:round"></path><path d="M191.09,460.92H151.86l-.05-3.95h38.74C192.16,458.52,191.09,460.92,191.09,460.92Z" transform="translate(-13.81 -21.65)" style="fill:#fff;stroke:#263238;stroke-linecap:round;stroke-linejoin:round"></path><path d="M178.13,182.38l9.06,12.7L208.26,204l-5.81,14.45s-18.51-.67-21.34-1.89a17.42,17.42,0,0,1-4.6-2.84l.14-31.88Z" transform="translate(-13.81 -21.65)" style="fill:#263238;stroke:#263238;stroke-linecap:round;stroke-linejoin:round"></path><rect x="197.94" y="188.12" width="57.27" height="79.95" transform="translate(82.34 -87.42) rotate(20.88)" style="fill:#92E3A9;stroke:#263238;stroke-linecap:round;stroke-linejoin:round"></rect><rect x="240.05" y="195.88" width="13.73" height="79.95" transform="translate(86.44 -94.15) rotate(20.88)" style="fill:#92E3A9"></rect><rect x="240.05" y="195.88" width="13.73" height="79.95" transform="translate(86.44 -94.15) rotate(20.88)" style="stroke:#263238;stroke-linecap:round;stroke-linejoin:round;opacity:0.30000000000000004"></rect><rect x="240.05" y="195.88" width="13.73" height="79.95" transform="translate(86.44 -94.15) rotate(20.88)" style="fill:none;stroke:#263238;stroke-linecap:round;stroke-linejoin:round"></rect><path d="M224.61,184.14s4.45-1.89,5-1.49.94,3.92.94,3.92Z" transform="translate(-13.81 -21.65)" style="fill:#fff;stroke:#263238;stroke-linecap:round;stroke-linejoin:round"></path><path d="M229.61,182.65s3.91.41,4.72,1.76,0,3.92,0,3.92l-3.78-1.76Z" transform="translate(-13.81 -21.65)" style="fill:#fff;stroke:#263238;stroke-linecap:round;stroke-linejoin:round"></path><path d="M234.33,184.41s2.84.13,3.25,1.22a16.19,16.19,0,0,1,.4,3.78l-3.65-1.08S235.28,185.76,234.33,184.41Z" transform="translate(-13.81 -21.65)" style="fill:#fff;stroke:#263238;stroke-linecap:round;stroke-linejoin:round"></path><path d="M237.58,185.63s3.37-.41,3.78,1.75a11.12,11.12,0,0,1,.13,3.65L238,189.41S238.39,186.17,237.58,185.63Z" transform="translate(-13.81 -21.65)" style="fill:#fff;stroke:#263238;stroke-linecap:round;stroke-linejoin:round"></path><path d="M185.07,280.34a39.48,39.48,0,0,1-12.79,1.08c-6.78-.62-17.41-7.25-17.41-7.25s-20.34,7.4-35.59,9.71a52.91,52.91,0,0,1-27.74-3.54l2-23.86,1.32-15.82,1.23-14.55.07-.92s-1.57-6.31-3.37-14.78c-2.47-11.54-5.35-27.14-5.26-36.37.16-16,9.71-21,9.71-21l27.58-11.86c12.62-.47,16.48,3.54,23.42,4.93s27.73,10.94,29,13.71c.86,1.95,1.74,30,2.17,47.56.19,7.35.3,12.84.3,13.76,0,.27,0,1,.12,2,.23,3.12.78,9.32,1.45,16.52.45,5,1,10.51,1.46,15.79C183.94,268.58,185.07,280.34,185.07,280.34Z" transform="translate(-13.81 -21.65)" style="fill:#92E3A9;stroke:#263238;stroke-linecap:round;stroke-linejoin:round"></path><path d="M96.17,225.19s-1.57-6.31-3.37-14.78l86.58-3c.19,7.35.3,12.84.3,13.76,0,.27,0,1,.12,2l-83.7,2.9Z" transform="translate(-13.81 -21.65)" style="fill:#fff;stroke:#263238;stroke-linecap:round;stroke-linejoin:round"></path><path d="M182.71,255.52l-89.16,1,1.32-15.82,86.38-.93C181.7,244.74,182.22,250.24,182.71,255.52Z" transform="translate(-13.81 -21.65)" style="fill:#fff;stroke:#263238;stroke-linecap:round;stroke-linejoin:round"></path><path d="M153.69,208.51s2.43,40.45.3,62.95" transform="translate(-13.81 -21.65)" style="fill:none;stroke:#263238;stroke-linecap:round;stroke-linejoin:round"></path><path d="M163.81,131.05s1.69,14.63,2,16-2.93,2-8.48,1.39l-5.54-.62s3.23-5.7,4.16-7.24S163.81,131.05,163.81,131.05Z" transform="translate(-13.81 -21.65)" style="fill:#263238;stroke:#263238;stroke-linecap:round;stroke-linejoin:round"></path><path d="M150.25,147.84a24.6,24.6,0,0,0,.31,5.09c.46,3.23,2.61,30.35,2.31,33.89s-.47,4.78-.47,4.78-9.24-22.19-15.71-31.9-9.55-14.32-9.86-15.09-1.08-23-1.08-23,4,1.39,5.85,4.47,7.55,9.55,11.56,14S150.25,147.84,150.25,147.84Z" transform="translate(-13.81 -21.65)" style="fill:#fff;stroke:#263238;stroke-linecap:round;stroke-linejoin:round"></path><polygon points="124.94 118.71 134.5 134.44 136.94 132.98 137.98 126.19 122.55 113.42 124.94 118.71" style="fill:#263238;stroke:#263238;stroke-linecap:round;stroke-linejoin:round"></polygon><path d="M145.47,157.7c-4.58.92-15.59-11.15-18.81-14.82a11.75,11.75,0,0,0,.17,1.73c.31.77,3.39,5.39,9.86,15.09s15.71,31.9,15.71,31.9.16-1.24.47-4.78c.27-3.18-1.44-25.34-2.12-32.19A9.3,9.3,0,0,1,145.47,157.7Z" transform="translate(-13.81 -21.65)" style="fill:#263238;stroke:#263238;stroke-linecap:round;stroke-linejoin:round"></path><path d="M167.35,111.94s-1.85,10.79-1.85,13.41.15,6.31-3.7,11.71-7.09,10.94-9.24,11.71a9.49,9.49,0,0,1-8.78-2c-2.93-2.46-10.33-13.71-11.25-14.79a13.23,13.23,0,0,1-1.7-2.93l-2.15-2.46s-4.32-1.39-4-6.78a8.87,8.87,0,0,1,4.16-7.39l6.78-6A69,69,0,0,0,167.35,111.94Z" transform="translate(-13.81 -21.65)" style="fill:#fff;stroke:#263238;stroke-linecap:round;stroke-linejoin:round"></path><path d="M160.42,118.57s-1.85,5.24-1.85,5.7,1.69,9.09.77,9.71-6-.78-6-.78" transform="translate(-13.81 -21.65)" style="fill:none;stroke:#263238;stroke-linecap:round;stroke-linejoin:round"></path><path d="M145.62,132.74s3.7,5.24,9.87,4.16" transform="translate(-13.81 -21.65)" style="fill:none;stroke:#263238;stroke-linecap:round;stroke-linejoin:round"></path><ellipse cx="135.38" cy="99.72" rx="1.41" ry="2.28" style="fill:#263238"></ellipse><ellipse cx="149.09" cy="100.61" rx="1.41" ry="2.28" style="fill:#263238"></ellipse><path d="M146.86,117.49a8,8,0,0,1,6.47-1.54" transform="translate(-13.81 -21.65)" style="fill:none;stroke:#263238;stroke-linecap:round;stroke-linejoin:round"></path><path d="M162,116.72a3.87,3.87,0,0,1,4,.77" transform="translate(-13.81 -21.65)" style="fill:none;stroke:#263238;stroke-linecap:round;stroke-linejoin:round"></path><path d="M137.61,110.09s.62,3.86-.77,5.71a22.88,22.88,0,0,1-3.85,3.69s-2.62-4.62-5.08-2.62-1.85,4.93-1.24,6.47a15,15,0,0,0,2,3.24l-.46,18.8a100.75,100.75,0,0,1-10.94-1.24,21.17,21.17,0,0,1-9.25-4.77,33.05,33.05,0,0,1,2.62-13.71,81.53,81.53,0,0,1,7.24-13.41l1.85-7.39Z" transform="translate(-13.81 -21.65)" style="fill:#263238;stroke:#263238;stroke-linecap:round;stroke-linejoin:round"></path><path d="M114.6,105.3s26.86,7.63,29.49,9,26.07.79,29.49-1-2.11-6.32-2.11-6.32-3.4-3.94-3.66-5.26.55-14.72-5.24-21.57-21.37-7.81-28.19-6.47c-8.63,1.69-15.56,8.29-16.35,11.18S117,99.51,116.71,100.3,114.6,105.3,114.6,105.3Z" transform="translate(-13.81 -21.65)" style="fill:#fff;stroke:#263238;stroke-linecap:round;stroke-linejoin:round"></path><path d="M181.21,187.13s1.7-5.09,3.24-5.24,5.7,2.93,6.93,2.16,5.86-11.4,4.93-13.41-20.33-8.47-22.95-8-7.4,22.19-7.4,22.19Z" transform="translate(-13.81 -21.65)" style="fill:#92E3A9;stroke:#263238;stroke-linecap:round;stroke-linejoin:round"></path><path d="M192.62,168.44l-5.53,14.31c1.68.79,3.54,1.77,4.29,1.3,1.24-.77,5.86-11.4,4.93-13.41C196.08,170.14,194.65,169.34,192.62,168.44Z" transform="translate(-13.81 -21.65)" style="fill:#263238;stroke:#263238;stroke-linecap:round;stroke-linejoin:round"></path><path d="M168,185.12l6.35-22.46a3.68,3.68,0,0,0-1,0c-2.62.46-7.4,22.19-7.4,22.19Z" transform="translate(-13.81 -21.65)" style="fill:#263238;stroke:#263238;stroke-linecap:round;stroke-linejoin:round"></path><path d="M149.94,195.6S166,183,166.42,183s15.87,2.16,16.49,4.16a6.52,6.52,0,0,1,0,4c-.15.47-1.54,1.08-2,1.39s-2.31,7.4-4.16,9.09-2.78,2.16-5.86,1.7a29.85,29.85,0,0,1-7.24-2.62l-10,3.69Z" transform="translate(-13.81 -21.65)" style="fill:#fff;stroke:#263238;stroke-linecap:round;stroke-linejoin:round"></path><path d="M116.81,203.61s-11.09-42.21-14.32-46.06-6.17-4.93-12.18,2.77-2.92,25.58.77,43.6,10.33,28.35,12.33,28.2,51.3-26,51.3-26l-4-11.56Z" transform="translate(-13.81 -21.65)" style="fill:#263238;stroke:#263238;stroke-linecap:round;stroke-linejoin:round"></path><path d="M115.58,204.38a12.74,12.74,0,0,0-8.32,5.86" transform="translate(-13.81 -21.65)" style="fill:none;stroke:#fff;stroke-linecap:round;stroke-linejoin:round"></path><path d="M108.19,205.15s-1.39,1.24-3.09,6.78" transform="translate(-13.81 -21.65)" style="fill:none;stroke:#fff;stroke-linecap:round;stroke-linejoin:round"></path></g></svg>