<svg width="400" height="400" viewBox="0 0 400 400" fill="none" xmlns="http://www.w3.org/2000/svg">
<path d="M400 305.92H0V306.12H400V305.92Z" fill="#EBEBEB"/>
<path d="M359.92 318.792H333.424V318.992H359.92V318.792Z" fill="#EBEBEB"/>
<path d="M218.576 316.288H208.264V316.488H218.576V316.288Z" fill="#EBEBEB"/>
<path d="M279.736 317.136H258.024V317.336H279.736V317.136Z" fill="#EBEBEB"/>
<path d="M332.624 311.368H287.736V311.568H332.624V311.368Z" fill="#EBEBEB"/>
<path d="M63.192 320.624H41.968V320.824H63.192V320.624Z" fill="#EBEBEB"/>
<path d="M88.712 320.624H70.312V320.824H88.712V320.624Z" fill="#EBEBEB"/>
<path d="M153.448 316.192H104.8V316.392H153.448V316.192Z" fill="#EBEBEB"/>
<path d="M189.6 270.24H35.128C33.9179 270.238 32.758 269.756 31.9031 268.899C31.0482 268.043 30.568 266.882 30.568 265.672V48.528C30.5785 47.3248 31.0633 46.1744 31.9171 45.3266C32.7709 44.4788 33.9248 44.0021 35.128 44H189.6C190.812 44 191.973 44.4813 192.83 45.3379C193.687 46.1946 194.168 47.3565 194.168 48.568V265.672C194.168 266.884 193.687 268.045 192.83 268.902C191.973 269.759 190.812 270.24 189.6 270.24V270.24ZM35.128 44.16C33.9709 44.1621 32.862 44.6233 32.0445 45.4422C31.2271 46.2611 30.768 47.3709 30.768 48.528V265.672C30.768 266.829 31.2271 267.939 32.0445 268.758C32.862 269.577 33.9709 270.038 35.128 270.04H189.6C190.758 270.038 191.868 269.577 192.686 268.758C193.505 267.94 193.966 266.83 193.968 265.672V48.528C193.966 47.3702 193.505 46.2604 192.686 45.4417C191.868 44.623 190.758 44.1621 189.6 44.16H35.128Z" fill="#EBEBEB"/>
<path d="M362.648 270.24H208.168C206.957 270.238 205.796 269.756 204.94 268.9C204.084 268.044 203.602 266.883 203.6 265.672V48.528C203.613 47.3241 204.099 46.1737 204.954 45.3261C205.809 44.4785 206.964 44.002 208.168 44H362.648C363.85 44.0042 365.002 44.4818 365.854 45.3294C366.706 46.177 367.189 47.3262 367.2 48.528V265.672C367.2 266.881 366.721 268.04 365.868 268.896C365.014 269.753 363.857 270.236 362.648 270.24V270.24ZM208.168 44.16C207.01 44.1621 205.9 44.623 205.082 45.4417C204.263 46.2604 203.802 47.3702 203.8 48.528V265.672C203.802 266.83 204.263 267.94 205.082 268.758C205.9 269.577 207.01 270.038 208.168 270.04H362.648C363.806 270.038 364.916 269.577 365.734 268.758C366.553 267.94 367.014 266.83 367.016 265.672V48.528C367.014 47.3702 366.553 46.2604 365.734 45.4417C364.916 44.623 363.806 44.1621 362.648 44.16H208.168Z" fill="#EBEBEB"/>
<path d="M373.648 155.336C376.155 146.67 375.875 137.435 372.848 128.936C376.063 124.334 378.194 119.064 379.082 113.521C379.97 107.977 379.592 102.305 377.976 96.9289C376.36 91.5528 373.547 86.6123 369.75 82.4779C365.952 78.3434 361.268 75.1223 356.048 73.056C354.522 62.0528 350.166 51.634 343.407 42.8183C336.648 34.0026 327.717 27.0919 317.487 22.7618C307.257 18.4316 296.078 16.8304 285.044 18.1145C274.01 19.3987 263.498 23.5243 254.536 30.088C250.031 25.3576 244.217 22.0799 237.838 20.6749C231.459 19.2699 224.805 19.8016 218.73 22.2019C212.655 24.6022 207.435 28.7618 203.739 34.1476C200.043 39.5334 198.039 45.9001 197.984 52.432C189.543 54.1252 181.689 57.9895 175.197 63.6438C168.704 69.298 163.798 76.5469 160.962 84.6756C158.125 92.8042 157.457 101.532 159.022 109.998C160.588 118.463 164.333 126.375 169.888 132.952C167.171 137.852 165.593 143.301 165.272 148.895C164.952 154.488 165.896 160.082 168.035 165.261C170.175 170.439 173.454 175.068 177.629 178.804C181.805 182.54 186.769 185.287 192.152 186.84C198.436 188.661 205.091 188.788 211.44 187.208C220.045 199.067 232.849 207.197 247.242 209.941C261.634 212.685 276.531 209.836 288.896 201.976C294.92 215.968 299.864 236.96 289.216 257.544C327.896 253.752 355.824 216.656 350.128 182.664C355.785 180.072 360.816 176.288 364.875 171.571C368.935 166.854 371.927 161.316 373.648 155.336V155.336Z" fill="#EBEBEB"/>
<path d="M299.456 249.864C299.351 249.865 299.246 249.844 299.149 249.805C299.051 249.765 298.963 249.706 298.888 249.632C298.785 249.529 298.712 249.401 298.677 249.26C298.642 249.119 298.646 248.971 298.688 248.832C304.136 229.856 299.168 211.664 294.048 199.744L291.448 193.704L285.896 197.232C274.74 204.326 261.298 206.899 248.31 204.425C235.323 201.952 223.768 194.618 216 183.92L213.776 180.856L210.112 181.768C204.126 183.258 197.834 182.966 192.012 180.927C186.189 178.889 181.089 175.194 177.339 170.295C173.589 165.397 171.352 159.509 170.904 153.357C170.456 147.204 171.816 141.054 174.816 135.664L176.68 132.288L174.192 129.344C169.263 123.512 165.939 116.496 164.548 108.988C163.157 101.48 163.748 93.739 166.261 86.5286C168.774 79.3182 173.124 72.8875 178.88 67.8707C184.637 62.8538 191.602 59.4242 199.088 57.92L203.536 57.024L203.584 52.496C203.625 47.0765 205.284 41.7929 208.349 37.3227C211.413 32.8526 215.743 29.3998 220.783 27.4071C225.823 25.4145 231.343 24.9729 236.636 26.1391C241.928 27.3052 246.752 30.0258 250.488 33.952L253.88 37.504L257.88 34.608C266.059 28.609 275.654 24.836 285.729 23.6585C295.803 22.4809 306.01 23.939 315.352 27.8901C324.693 31.8412 332.849 38.1499 339.02 46.1988C345.192 54.2478 349.168 63.7612 350.56 73.808L351.016 77.008L354.048 78.208C358.482 79.9631 362.46 82.6996 365.685 86.212C368.91 89.7245 371.298 93.9218 372.669 98.4889C374.04 103.056 374.358 107.874 373.601 112.582C372.844 117.29 371.03 121.765 368.296 125.672L366.648 128.032L367.616 130.752C370.768 139.625 370.48 149.358 366.811 158.029C363.141 166.701 356.356 173.684 347.792 177.6L343.896 179.392L344.608 183.616C347.008 198.12 342.664 213.96 332.608 227.08C324.305 237.958 312.773 245.93 299.664 249.856C299.595 249.869 299.525 249.871 299.456 249.864ZM291.816 191.744C291.893 191.733 291.971 191.733 292.048 191.744C292.158 191.778 292.259 191.836 292.345 191.914C292.431 191.991 292.499 192.086 292.544 192.192L295.512 199.088C300.616 210.952 305.552 228.92 300.608 247.832C312.831 243.857 323.554 236.257 331.352 226.04C341.128 213.24 345.384 197.88 343.032 183.816L342.232 179.016C342.201 178.843 342.229 178.664 342.31 178.508C342.391 178.352 342.521 178.227 342.68 178.152L347.128 176.112C355.312 172.361 361.795 165.683 365.302 157.392C368.81 149.101 369.087 139.797 366.08 131.312L364.976 128.208C364.934 128.087 364.921 127.958 364.939 127.831C364.958 127.705 365.006 127.584 365.08 127.48L366.96 124.776C369.557 121.068 371.28 116.82 372 112.351C372.719 107.882 372.417 103.308 371.116 98.9723C369.815 94.6366 367.549 90.652 364.488 87.3176C361.426 83.9832 357.649 81.3857 353.44 79.72L349.968 78.344C349.837 78.2917 349.722 78.2058 349.635 78.0948C349.548 77.9838 349.492 77.8517 349.472 77.712L348.952 74.024C347.604 64.2474 343.738 54.9889 337.735 47.1555C331.732 39.3221 323.797 33.1826 314.707 29.3386C305.617 25.4947 295.685 24.078 285.883 25.2275C276.081 26.377 266.746 30.0533 258.792 35.896L254.256 39.2C254.1 39.3144 253.908 39.3686 253.716 39.3524C253.523 39.3362 253.343 39.2508 253.208 39.112L249.328 35.056C246.932 32.5567 244.056 30.567 240.872 29.2061C237.688 27.8451 234.262 27.141 230.8 27.136C224.051 27.1357 217.574 29.801 212.78 34.5519C207.985 39.3027 205.261 45.7547 205.2 52.504L205.144 57.688C205.148 57.8751 205.086 58.0577 204.969 58.2039C204.852 58.3501 204.687 58.4506 204.504 58.488L199.424 59.512C192.214 60.962 185.505 64.2658 179.961 69.0978C174.416 73.9298 170.226 80.1231 167.803 87.0675C165.381 94.0119 164.81 101.468 166.146 108.7C167.482 115.932 170.68 122.692 175.424 128.312L178.264 131.68C178.369 131.804 178.433 131.957 178.449 132.118C178.465 132.28 178.431 132.442 178.352 132.584L176.224 136.44C175.125 138.419 174.25 140.515 173.616 142.688C172.153 147.76 172.05 153.128 173.318 158.252C174.587 163.376 177.182 168.076 180.843 171.879C184.503 175.682 189.1 178.455 194.172 179.919C199.244 181.382 204.612 181.485 209.736 180.216L213.928 179.176C214.082 179.137 214.245 179.146 214.394 179.2C214.544 179.254 214.674 179.352 214.768 179.48L217.304 182.976C224.824 193.363 236.028 200.485 248.624 202.886C261.22 205.288 274.258 202.787 285.072 195.896L291.416 191.896C291.533 191.81 291.671 191.757 291.816 191.744V191.744Z" fill="white"/>
<path d="M243.352 116.952L221.912 113.6L222.24 111.456C222.615 108.43 223.503 105.489 224.864 102.76C226.059 100.6 227.643 98.6795 229.536 97.096C231.461 95.496 235.653 92.76 242.112 88.888C245.544 86.872 247.424 84.84 247.712 82.768C247.902 81.8879 247.904 80.9776 247.717 80.0968C247.531 79.2159 247.162 78.3842 246.632 77.656C245.592 76.32 243.824 75.456 241.344 75.072C240.122 74.8401 238.866 74.8624 237.653 75.1377C236.441 75.413 235.298 75.9353 234.296 76.672C232.269 78.1707 230.669 81.0827 229.496 85.408L208.024 79.288C210.029 71.3573 213.965 65.3333 219.832 61.216C225.699 57.0987 233.896 55.8613 244.424 57.504C252.627 58.7787 258.981 61.52 263.488 65.728C269.611 71.424 272.072 78.128 270.872 85.84C270.335 89.0904 268.921 92.1329 266.784 94.64C264.555 97.3387 260.376 100.405 254.248 103.84C249.981 106.267 247.208 108.312 245.928 109.976C244.497 112.048 243.611 114.447 243.352 116.952ZM220.288 119.2L243.256 122.776L240.104 143.032L217.136 139.456L220.288 119.2Z" fill="white"/>
<path d="M298.072 148.336L286.168 138.736L287.136 137.544C288.438 135.832 290.021 134.352 291.816 133.168C293.311 132.277 294.957 131.667 296.672 131.368C300.187 130.958 303.725 130.774 307.264 130.816C310.069 130.816 311.936 130.237 312.864 129.08C313.295 128.612 313.622 128.058 313.82 127.453C314.019 126.849 314.086 126.208 314.016 125.576C313.717 124.17 312.89 122.933 311.704 122.12C311.04 121.546 310.264 121.117 309.426 120.858C308.587 120.599 307.704 120.517 306.832 120.616C305.061 120.808 303.053 122.016 300.808 124.24L289.872 112.888C293.904 108.76 298.437 106.48 303.472 106.048C308.507 105.616 313.952 107.768 319.808 112.504C324.363 116.189 327.267 120.117 328.52 124.288C330.237 129.936 329.365 134.899 325.904 139.176C324.431 140.978 322.495 142.344 320.304 143.128C317.984 143.976 314.347 144.365 309.392 144.296C305.928 144.296 303.512 144.52 302.136 145.096C300.536 145.826 299.14 146.939 298.072 148.336ZM283.2 141.528L295.952 151.856L286.84 163.104L274.088 152.8L283.2 141.528Z" fill="white"/>
<path d="M301.4 79.04L296.248 72L296.952 71.48C297.916 70.7313 298.997 70.1474 300.152 69.752C301.105 69.4775 302.1 69.3826 303.088 69.472C305.081 69.7517 307.053 70.1633 308.992 70.704C310.544 71.104 311.656 71.056 312.336 70.56C312.64 70.3638 312.899 70.1055 313.096 69.8022C313.293 69.4989 313.424 69.1574 313.48 68.8C313.511 67.9783 313.225 67.1761 312.68 66.56C312.396 66.1493 312.031 65.8011 311.607 65.5369C311.183 65.2727 310.71 65.0982 310.216 65.024C309.216 64.88 307.936 65.248 306.376 66.144L302 58.312C304.511 56.6872 307.534 56.0489 310.488 56.52C313.325 57.016 316.011 58.9893 318.544 62.44C320.512 65.1387 321.541 67.7227 321.632 70.192C321.76 71.6969 321.494 73.2092 320.862 74.5807C320.229 75.9523 319.251 77.136 318.024 78.016C316.961 78.7884 315.709 79.2584 314.4 79.376C312.303 79.4173 310.214 79.1008 308.224 78.44C306.901 77.9893 305.509 77.778 304.112 77.816C303.121 77.9931 302.189 78.4137 301.4 79.04V79.04ZM294.2 73.136L299.72 80.672L293.072 85.536L287.552 78.008L294.2 73.136Z" fill="white"/>
<path d="M102.672 178.856C95.9097 178.844 89.2761 177.006 83.472 173.536C75.352 168.736 69.616 161.2 67.664 152.904C62.0028 152.51 56.6814 150.058 52.7027 146.012C48.724 141.965 46.3628 136.603 46.064 130.936C44.3598 129.754 42.8532 128.309 41.6 126.656C38.5561 122.777 37.0522 117.911 37.377 112.991C37.7019 108.071 39.8326 103.445 43.36 100C42.0215 94.3116 42.1624 88.3752 43.7695 82.7568C45.3766 77.1384 48.3962 72.0253 52.5403 67.9052C56.6845 63.7851 61.815 60.7954 67.4427 59.221C73.0704 57.6467 79.0076 57.5403 84.688 58.912C85.9273 56.0813 87.8819 53.6218 90.3596 51.7753C92.8373 49.9288 95.7529 48.7587 98.8197 48.3802C101.887 48.0017 104.999 48.4278 107.851 49.6164C110.704 50.8051 113.198 52.7156 115.088 55.16C115.965 56.2946 116.704 57.5301 117.288 58.84C121.761 58.105 126.348 58.5283 130.61 60.0697C134.873 61.611 138.67 64.219 141.638 67.6447C144.607 71.0704 146.648 75.1996 147.567 79.6383C148.486 84.0771 148.252 88.6772 146.888 93C149.817 95.4948 151.969 98.7767 153.09 102.457C154.211 106.137 154.254 110.062 153.214 113.766C152.173 117.47 150.093 120.798 147.219 123.356C144.346 125.914 140.799 127.595 137 128.2C135.286 134.685 131.478 140.422 126.168 144.52C122.826 147.115 118.985 148.992 114.884 150.036C110.784 151.079 106.512 151.266 102.336 150.584C102.256 158.352 104.056 168.888 112.736 176.424C112.82 176.499 112.882 176.594 112.917 176.701C112.953 176.808 112.959 176.922 112.936 177.032C112.912 177.142 112.859 177.244 112.781 177.326C112.703 177.407 112.605 177.466 112.496 177.496C109.302 178.41 105.994 178.868 102.672 178.856V178.856ZM76.584 59.2C71.5915 59.2152 66.6676 60.3639 62.1837 62.5593C57.6997 64.7548 53.7728 67.9397 50.6991 71.8739C47.6254 75.8081 45.4851 80.3888 44.4397 85.2707C43.3943 90.1526 43.471 95.2081 44.664 100.056C44.6915 100.164 44.6889 100.278 44.6564 100.386C44.624 100.493 44.563 100.589 44.48 100.664C41.0639 103.87 38.9714 108.238 38.6146 112.91C38.2578 117.581 39.6624 122.216 42.552 125.904C43.8228 127.537 45.3524 128.95 47.08 130.088C47.1637 130.142 47.2335 130.215 47.2835 130.301C47.3336 130.388 47.3625 130.484 47.368 130.584C47.5849 136.071 49.8469 141.279 53.7094 145.183C57.5719 149.087 62.7552 151.405 68.24 151.68C68.3773 151.688 68.5081 151.74 68.6123 151.83C68.7164 151.92 68.788 152.041 68.816 152.176C70.584 160.312 76.176 167.704 84.144 172.456C92.2174 177.325 101.889 178.803 111.048 176.568C102.464 168.568 100.864 157.64 101.072 149.8C101.075 149.709 101.098 149.62 101.138 149.539C101.179 149.457 101.236 149.385 101.307 149.328C101.377 149.27 101.459 149.228 101.547 149.205C101.635 149.182 101.726 149.177 101.816 149.192C109.191 150.587 116.82 149.115 123.147 145.078C129.474 141.04 134.023 134.74 135.864 127.464C135.892 127.342 135.957 127.231 136.05 127.147C136.143 127.062 136.26 127.008 136.384 126.992C140.023 126.489 143.436 124.935 146.204 122.52C148.973 120.106 150.976 116.935 151.969 113.399C152.962 109.862 152.901 106.112 151.794 102.61C150.687 99.1068 148.581 96.0034 145.736 93.68C145.638 93.6003 145.566 93.4926 145.53 93.3712C145.494 93.2497 145.496 93.1203 145.536 93C146.928 88.831 147.208 84.3711 146.35 80.0606C145.491 75.7502 143.523 71.7381 140.64 68.4206C137.757 65.103 134.059 62.5947 129.91 61.1433C125.762 59.6918 121.306 59.3474 116.984 60.144C116.842 60.1714 116.696 60.1489 116.569 60.0804C116.442 60.0118 116.343 59.9014 116.288 59.768C115.035 56.7281 112.905 54.1304 110.169 52.306C107.434 50.4816 104.217 49.5132 100.929 49.5243C97.6411 49.5355 94.4309 50.5257 91.7079 52.3686C88.9849 54.2115 86.8725 56.8237 85.64 59.872C85.5816 60.0116 85.4756 60.1259 85.3409 60.1947C85.2061 60.2636 85.0513 60.2824 84.904 60.248C82.1858 59.5504 79.3904 59.1982 76.584 59.2V59.2Z" fill="#E6E6E6"/>
<path d="M80.472 112L69.424 114.6L69.168 113.496C68.7498 111.954 68.6009 110.352 68.728 108.76C68.8797 107.481 69.2676 106.241 69.872 105.104C71.2247 102.858 72.7212 100.701 74.352 98.648C75.624 96.992 76.136 95.64 75.88 94.576C75.8014 94.1115 75.6245 93.6692 75.3609 93.2787C75.0974 92.8882 74.7534 92.5586 74.352 92.312C73.3944 91.8456 72.2934 91.7682 71.28 92.096C70.6426 92.225 70.0387 92.4841 69.506 92.8572C68.9732 93.2302 68.5232 93.7091 68.184 94.264C67.496 95.392 67.296 97.112 67.576 99.44L56 100.672C55.3236 96.8452 56.0812 92.9034 58.128 89.6C60.16 86.448 63.8934 84.2347 69.328 82.96C73.552 81.9627 77.1707 82.04 80.184 83.192C84.2694 84.744 86.7814 87.5093 87.72 91.488C88.1102 93.1737 88.0272 94.9345 87.48 96.576C86.9467 98.32 85.5253 100.629 83.216 103.504C81.616 105.52 80.6747 107.056 80.392 108.112C80.0928 109.394 80.1203 110.731 80.472 112ZM69.736 117.6L81.576 114.816L84 125.248L72.2 128L69.736 117.6Z" fill="#EBEBEB"/>
<path d="M108.6 88.632L100.936 86.296L101.168 85.496C101.462 84.4077 101.938 83.3771 102.576 82.448C103.123 81.7203 103.801 81.1016 104.576 80.624C106.198 79.7444 107.877 78.9721 109.6 78.312C110.96 77.7787 111.76 77.1307 112 76.368C112.117 76.0561 112.167 75.7227 112.145 75.3901C112.123 75.0576 112.03 74.7336 111.872 74.44C111.45 73.817 110.806 73.3791 110.072 73.216C109.637 73.0709 109.177 73.0167 108.72 73.0566C108.263 73.0965 107.819 73.2297 107.416 73.448C106.377 74.1606 105.601 75.1951 105.208 76.392L97.672 73.04C98.6241 70.4647 100.493 68.3312 102.92 67.048C105.277 65.8373 108.339 65.808 112.104 66.96C114.641 67.5983 116.923 68.9935 118.648 70.96C119.575 71.9912 120.216 73.2469 120.508 74.6026C120.8 75.9582 120.733 77.3666 120.312 78.688C119.95 79.8556 119.275 80.9016 118.36 81.712C116.836 82.8961 115.124 83.8155 113.296 84.432C112.079 84.8348 110.942 85.4466 109.936 86.24C109.299 86.9144 108.84 87.7363 108.6 88.632ZM100.056 88.256L108.264 90.752L106.064 98L97.848 95.504L100.056 88.256Z" fill="#EBEBEB"/>
<path d="M200 342.048C285.666 342.048 355.112 337.993 355.112 332.992C355.112 327.99 285.666 323.936 200 323.936C114.334 323.936 44.888 327.99 44.888 332.992C44.888 337.993 114.334 342.048 200 342.048Z" fill="#F5F5F5"/>
<path d="M126.088 197.952L125.352 197.64C125.93 196.37 126.321 195.022 126.512 193.64L127.312 193.728C127.111 195.188 126.699 196.611 126.088 197.952V197.952ZM125.776 188.8C125.032 187.138 123.874 185.693 122.413 184.605C120.953 183.517 119.238 182.821 117.432 182.584L117.56 181.784C119.497 182.042 121.336 182.791 122.901 183.96C124.467 185.129 125.707 186.68 126.504 188.464L125.776 188.8Z" fill="#92E3A9"/>
<path d="M121.6 206L113.712 209.6L113.36 208.8C112.82 207.713 112.471 206.541 112.328 205.336C112.252 204.354 112.358 203.367 112.64 202.424C113.323 200.546 114.124 198.713 115.04 196.936C115.744 195.512 115.923 194.421 115.576 193.664C115.447 193.329 115.249 193.025 114.994 192.773C114.738 192.52 114.432 192.325 114.096 192.2C113.31 192 112.478 192.106 111.768 192.496C111.311 192.69 110.899 192.976 110.557 193.335C110.214 193.694 109.949 194.119 109.776 194.584C109.429 195.517 109.536 196.835 110.096 198.536L101.6 201.192C100.537 198.424 100.537 195.36 101.6 192.592C102.667 189.925 105.125 187.72 108.976 185.976C111.984 184.6 114.704 184.128 117.128 184.536C118.613 184.715 120.026 185.278 121.228 186.169C122.43 187.059 123.38 188.247 123.984 189.616C124.524 190.819 124.723 192.147 124.56 193.456C124.173 195.5 123.443 197.464 122.4 199.264C121.699 200.457 121.216 201.765 120.976 203.128C120.942 204.122 121.157 205.109 121.6 206ZM114.4 211.792L122.832 208L126.216 215.432L117.784 219.2L114.4 211.792Z" fill="#92E3A9"/>
<path d="M102.112 223.784L98.1119 229.224L97.5999 228.8C96.8198 228.259 96.1357 227.591 95.5759 226.824C95.1509 226.184 94.8497 225.471 94.6879 224.72C94.4295 223.183 94.2772 221.63 94.2319 220.072C94.1679 218.832 93.8719 218.024 93.3519 217.672C93.1334 217.487 92.8769 217.351 92.6006 217.275C92.3242 217.199 92.0346 217.184 91.7519 217.232C91.1398 217.392 90.6127 217.782 90.2799 218.32C90.0417 218.625 89.8684 218.975 89.7707 219.349C89.673 219.723 89.653 220.114 89.7119 220.496C89.9898 221.519 90.5937 222.423 91.4319 223.072L86.6319 228.12C84.8546 226.638 83.6843 224.553 83.3439 222.264C83.0506 220.056 83.8879 217.616 85.8559 214.944C87.0765 213.113 88.8222 211.693 90.8639 210.872C91.9439 210.426 93.1216 210.27 94.2806 210.418C95.4395 210.567 96.5396 211.016 97.4719 211.72C98.2997 212.334 98.9419 213.164 99.3279 214.12C99.8414 215.667 100.09 217.29 100.064 218.92C100.036 220.008 100.204 221.092 100.56 222.12C100.93 222.796 101.464 223.368 102.112 223.784ZM99.4159 230.472L103.704 224.648L108.84 228.432L104.552 234.256L99.4159 230.472Z" fill="#92E3A9"/>
<path d="M187.272 330.112C186.612 330.113 185.964 329.932 185.399 329.589C184.835 329.246 184.376 328.754 184.072 328.168C180.872 321.96 176.816 314.672 169.552 306.784C169.134 306.331 168.84 305.778 168.7 305.178C168.56 304.577 168.578 303.951 168.752 303.36C171.448 293.992 175.688 281.184 175.728 281.056C175.864 280.593 176.091 280.162 176.396 279.789C176.702 279.416 177.08 279.109 177.507 278.885C177.934 278.66 178.401 278.525 178.882 278.485C179.363 278.446 179.846 278.504 180.304 278.655C180.762 278.807 181.184 279.049 181.547 279.367C181.909 279.686 182.203 280.074 182.412 280.508C182.621 280.943 182.741 281.415 182.763 281.897C182.786 282.378 182.711 282.86 182.544 283.312C182.504 283.432 178.848 294.464 176.2 303.432C181.845 309.943 186.636 317.148 190.456 324.872C190.737 325.42 190.872 326.032 190.849 326.647C190.826 327.263 190.645 327.862 190.324 328.388C190.003 328.914 189.552 329.349 189.015 329.65C188.478 329.952 187.872 330.111 187.256 330.112H187.272Z" fill="#92E3A9"/>
<path d="M193.248 332.992H165.416L180.168 324.624L192.528 325.104L193.248 332.992Z" fill="#263238"/>
<path d="M190.591 299.274C203.259 295.314 210.867 283.591 207.585 273.091C204.302 262.591 191.372 257.289 178.704 261.249C166.036 265.209 158.428 276.932 161.71 287.432C164.993 297.932 177.923 303.234 190.591 299.274Z" fill="#263238"/>
<path d="M121.32 267.2C120.492 267.197 119.69 266.907 119.051 266.381C118.411 265.854 117.974 265.122 117.812 264.31C117.65 263.498 117.774 262.654 118.162 261.923C118.551 261.191 119.18 260.617 119.944 260.296C120.566 260.036 121.112 259.623 121.531 259.096C121.951 258.569 122.23 257.944 122.344 257.28C122.416 256.499 122.742 255.763 123.272 255.185C123.803 254.607 124.508 254.219 125.28 254.08C126.171 253.898 127.052 253.671 127.92 253.4C132.784 251.984 138.808 250.2 157.768 255.528C176.472 245.072 176.688 225.456 176.688 224.608C176.688 223.657 177.064 222.745 177.734 222.071C178.404 221.396 179.313 221.014 180.264 221.008V221.008C181.211 221.008 182.12 221.382 182.793 222.049C183.465 222.715 183.848 223.621 183.856 224.568C183.856 225.616 183.744 250.24 159.856 262.568C159.042 262.99 158.096 263.082 157.216 262.824C139.136 257.608 134.016 259.096 129.96 260.288L128.856 260.608C128.322 262.022 127.505 263.311 126.453 264.397C125.402 265.482 124.14 266.341 122.744 266.92C122.293 267.109 121.809 267.204 121.32 267.2V267.2Z" fill="#263238"/>
<path d="M163.264 241.512C156.456 214.456 138.32 144.664 196.44 140.4C248.584 136.568 262.888 206 266.368 230C268.11 242.144 269.056 254.389 269.2 266.656C269.267 272.861 267.164 278.895 263.255 283.715C259.347 288.535 253.877 291.839 247.792 293.056C219.384 298.832 192.504 299.648 174.392 292.504C172.013 291.544 170.009 289.84 168.678 287.647C167.347 285.454 166.761 282.889 167.008 280.336C167.704 272.592 167.72 259.2 163.264 241.512Z" fill="#92E3A9"/>
<path opacity="0.1" d="M266.4 230.016C263.12 207.36 250.224 144.416 205.072 140.416C202.496 140.155 199.901 140.662 197.613 141.874C195.325 143.085 193.447 144.947 192.216 147.224C190.2 151.128 190.264 155.856 193.28 160.536C203.2 176 226.936 229.336 223.352 258.4C221.752 271.624 213.424 282.184 220.64 297.048C229.761 296.249 238.828 294.914 247.792 293.048C253.877 291.831 259.346 288.527 263.255 283.707C267.164 278.887 269.266 272.853 269.2 266.648C269.066 254.389 268.131 242.153 266.4 230.016V230.016Z" fill="black"/>
<path d="M258.592 267.032C258.498 267.032 258.408 266.995 258.34 266.929C258.273 266.864 258.234 266.774 258.232 266.68C258.096 254.429 257.153 242.199 255.408 230.072C246.768 170.344 223.512 140.144 188.128 142.752C188.081 142.755 188.033 142.749 187.988 142.734C187.943 142.719 187.902 142.695 187.866 142.664C187.831 142.633 187.801 142.595 187.78 142.552C187.759 142.51 187.747 142.463 187.744 142.416C187.74 142.321 187.772 142.228 187.835 142.156C187.897 142.085 187.985 142.04 188.08 142.032C223.88 139.392 247.416 169.808 256.08 229.968C257.823 242.128 258.769 254.389 258.912 266.672C258.912 266.767 258.874 266.859 258.807 266.927C258.739 266.994 258.648 267.032 258.552 267.032H258.592Z" fill="#263238"/>
<path d="M258.049 301.18C270.717 297.22 278.325 285.497 275.043 274.997C271.76 264.496 258.83 259.194 246.162 263.155C233.494 267.115 225.885 278.837 229.168 289.338C232.451 299.838 245.381 305.14 258.049 301.18Z" fill="#263238"/>
<path d="M260.24 330.112C259.579 330.114 258.931 329.933 258.367 329.59C257.802 329.247 257.343 328.755 257.04 328.168C253.84 321.96 249.784 314.672 242.512 306.784C242.097 306.329 241.806 305.776 241.666 305.176C241.526 304.577 241.542 303.952 241.712 303.36C244.416 293.992 248.648 281.184 248.696 281.056C248.844 280.609 249.079 280.196 249.387 279.839C249.695 279.483 250.07 279.191 250.491 278.979C250.912 278.768 251.37 278.642 251.84 278.607C252.309 278.573 252.781 278.632 253.228 278.78C253.675 278.928 254.089 279.163 254.445 279.471C254.801 279.779 255.093 280.154 255.305 280.575C255.516 280.995 255.642 281.454 255.677 281.923C255.711 282.393 255.652 282.865 255.504 283.312C255.464 283.432 251.816 294.464 249.168 303.432C254.814 309.941 259.602 317.146 263.416 324.872C263.697 325.42 263.832 326.032 263.809 326.647C263.786 327.263 263.605 327.862 263.284 328.388C262.963 328.914 262.512 329.349 261.975 329.65C261.438 329.952 260.832 330.111 260.216 330.112H260.24Z" fill="#92E3A9"/>
<path d="M252.704 220.728C251.902 220.728 251.122 220.46 250.49 219.966C249.858 219.472 249.409 218.78 249.216 218.001C249.022 217.223 249.095 216.401 249.423 215.669C249.751 214.937 250.314 214.335 251.024 213.96C251.712 213.592 267.336 205.056 271.72 184.544C261.32 180.192 242.584 170.36 238.488 165.416C238.085 164.938 237.81 164.365 237.688 163.752C237.215 160.798 237.49 157.772 238.488 154.952L236.6 151.304C236.163 150.455 236.081 149.468 236.372 148.559C236.663 147.649 237.303 146.893 238.152 146.456C239.001 146.019 239.988 145.937 240.897 146.228C241.807 146.519 242.563 147.159 243 148.008L245.712 153.256C246.004 153.805 246.147 154.421 246.127 155.043C246.108 155.665 245.926 156.27 245.6 156.8C244.868 158.262 244.558 159.899 244.704 161.528C249.32 165.696 267.904 175.56 277.048 178.944C277.823 179.231 278.475 179.778 278.894 180.491C279.312 181.204 279.471 182.039 279.344 182.856C275.288 209.072 255.232 219.872 254.384 220.32C253.866 220.591 253.289 220.731 252.704 220.728Z" fill="#263238"/>
<path d="M241.256 164.92C240.933 164.918 240.617 164.83 240.34 164.664C240.063 164.499 239.835 164.261 239.682 163.977C239.528 163.694 239.453 163.374 239.466 163.051C239.478 162.729 239.577 162.415 239.752 162.144C239.88 161.952 242.84 157.48 247.352 156.272C247.579 156.211 247.817 156.196 248.05 156.226C248.284 156.257 248.509 156.333 248.713 156.451C248.917 156.569 249.095 156.726 249.239 156.913C249.382 157.099 249.487 157.313 249.548 157.54C249.609 157.767 249.624 158.005 249.594 158.238C249.563 158.472 249.487 158.697 249.369 158.901C249.251 159.105 249.094 159.283 248.907 159.427C248.721 159.57 248.507 159.675 248.28 159.736C245.136 160.584 242.776 164.072 242.76 164.104C242.597 164.355 242.374 164.561 242.112 164.703C241.849 164.846 241.555 164.92 241.256 164.92V164.92Z" fill="#263238"/>
<path d="M266.216 332.992H238.384L253.136 324.624L265.496 325.104L266.216 332.992Z" fill="#263238"/>
<path d="M207.934 225.803C218.461 224.871 226.315 216.434 225.476 206.958C224.637 197.483 215.423 190.557 204.896 191.489C194.368 192.421 186.514 200.858 187.353 210.334C188.192 219.809 197.407 226.735 207.934 225.803Z" fill="white"/>
<path d="M204.358 219.557C207.15 218.762 208.24 213.997 206.792 208.915C205.344 203.833 201.908 200.358 199.116 201.153C196.324 201.949 195.234 206.713 196.682 211.795C198.13 216.877 201.567 220.352 204.358 219.557Z" fill="#263238"/>
<path d="M184.64 211.888C196.72 210.336 220.64 203.512 224.584 200.76C221.48 191.672 206.984 183.896 194.088 188.28C182.4 192.224 184.64 211.888 184.64 211.888Z" fill="#263238"/>
<path d="M186.984 217.728C201.984 214.88 221.48 210.096 227.056 207.032C226.712 216.808 223.856 226.72 208.56 230.072C196.048 232.8 186.984 217.728 186.984 217.728Z" fill="#263238"/>
<path d="M174.628 227.125C180.052 223.536 180.767 215.062 176.225 208.198C171.683 201.333 163.604 198.677 158.18 202.266C152.756 205.854 152.041 214.329 156.583 221.193C161.125 228.058 169.204 230.714 174.628 227.125Z" fill="white"/>
<path d="M166.672 214.944C167.576 219.232 166.792 222.808 164.912 222.944C163.032 223.08 160.776 219.696 159.864 215.408C158.952 211.12 159.744 207.552 161.616 207.408C163.488 207.264 165.76 210.656 166.672 214.944Z" fill="#263238"/>
<path d="M151.8 213.304C159.904 214.256 176 213.192 178.672 211.704C176.696 204 167.112 195.2 158.4 196.32C150.544 197.328 151.8 213.304 151.8 213.304Z" fill="#263238"/>
<path d="M153.304 218.352C163.376 218.808 176.504 218.552 180.248 217.136C179.904 224.824 177.888 232.152 167.6 232.032C159.2 231.936 153.304 218.352 153.304 218.352Z" fill="#263238"/>
<path d="M211.272 183.44C202.118 183.49 193.165 180.756 185.6 175.6C184.842 175.026 184.342 174.174 184.212 173.232C184.081 172.29 184.33 171.335 184.904 170.576C185.478 169.817 186.33 169.318 187.272 169.187C188.214 169.057 189.17 169.306 189.928 169.88C198.395 175.402 208.667 177.44 218.6 175.568C219.063 175.48 219.538 175.485 219.999 175.581C220.461 175.677 220.898 175.863 221.288 176.128C221.677 176.393 222.01 176.732 222.268 177.126C222.526 177.52 222.704 177.961 222.792 178.424C222.88 178.887 222.875 179.362 222.779 179.823C222.683 180.285 222.497 180.722 222.232 181.111C221.967 181.501 221.628 181.834 221.234 182.092C220.84 182.35 220.399 182.528 219.936 182.616C217.08 183.16 214.179 183.435 211.272 183.44V183.44Z" fill="#263238"/>
<path d="M147.104 177.256C146.53 177.253 145.964 177.113 145.455 176.847C144.946 176.581 144.508 176.197 144.177 175.727C143.847 175.257 143.634 174.715 143.556 174.146C143.477 173.577 143.537 172.998 143.728 172.456C145.624 167.16 148.784 163.728 153.104 162.24C160.928 159.544 169.36 164.784 169.72 165.008C170.506 165.524 171.058 166.328 171.257 167.247C171.457 168.166 171.289 169.126 170.788 169.922C170.287 170.718 169.495 171.286 168.58 171.504C167.665 171.722 166.702 171.573 165.896 171.088C164.296 170.072 159.2 167.72 155.416 169.032C153.24 169.792 151.624 171.704 150.48 174.888C150.229 175.582 149.77 176.181 149.166 176.605C148.562 177.028 147.842 177.256 147.104 177.256Z" fill="#263238"/>
<path d="M175.384 237.8C175.283 237.8 175.184 237.784 175.088 237.752C174.817 237.676 174.586 237.494 174.448 237.248C174.31 237.002 174.276 236.712 174.352 236.44C174.67 235.575 175.156 234.781 175.782 234.104C176.408 233.427 177.162 232.88 178 232.496C182.112 230.376 188.4 230.816 196.648 233.8C196.781 233.848 196.904 233.922 197.008 234.018C197.113 234.114 197.198 234.23 197.257 234.358C197.317 234.487 197.35 234.626 197.355 234.768C197.361 234.91 197.338 235.051 197.288 235.184C197.241 235.317 197.167 235.439 197.072 235.544C196.977 235.648 196.862 235.733 196.734 235.792C196.606 235.852 196.467 235.885 196.326 235.891C196.185 235.896 196.044 235.874 195.912 235.824C186.448 232.4 181.512 233.136 179.112 234.368C177.914 234.876 176.961 235.832 176.456 237.032C176.387 237.26 176.245 237.46 176.051 237.599C175.857 237.738 175.622 237.808 175.384 237.8V237.8Z" fill="#263238"/>
<path d="M141.504 233.856C128.986 234.968 116.812 238.543 105.68 244.376C111.856 243.208 133.96 270.56 139.64 291.648C150.128 287.768 162.352 285.12 175.384 283.048C167.488 261.312 153.048 236.68 141.504 233.856Z" fill="#92E3A9"/>
<path opacity="0.6" d="M141.504 233.856C128.986 234.968 116.812 238.543 105.68 244.376C111.856 243.208 133.96 270.56 139.64 291.648C150.128 287.768 162.352 285.12 175.384 283.048C167.488 261.312 153.048 236.68 141.504 233.856Z" fill="white"/>
<path d="M141.504 233.856C127.84 232.312 105.656 243.752 105.656 243.752C101.728 246.256 102.792 250.952 104.936 252.944C106.992 249.992 129.92 242.312 138.536 241.28C134.256 237.312 138.24 234.4 141.504 233.856Z" fill="#92E3A9"/>
<path opacity="0.2" d="M141.504 233.856C127.84 232.312 105.656 243.752 105.656 243.752C101.728 246.256 102.792 250.952 104.936 252.944C106.992 249.992 129.92 242.312 138.536 241.28C134.256 237.312 138.24 234.4 141.504 233.856Z" fill="white"/>
<path d="M121.328 267.2C120.732 267.202 120.145 267.058 119.619 266.778C119.093 266.499 118.644 266.094 118.312 265.6C115.712 261.6 117.336 255.528 117.688 254.344C117.988 253.466 118.616 252.738 119.441 252.312C120.265 251.887 121.223 251.797 122.112 252.062C123.002 252.327 123.754 252.925 124.212 253.733C124.67 254.54 124.797 255.493 124.568 256.392C123.984 258.4 123.864 260.968 124.328 261.672C124.847 262.47 125.029 263.441 124.832 264.373C124.636 265.304 124.077 266.12 123.28 266.64C122.699 267.015 122.02 267.21 121.328 267.2V267.2Z" fill="#263238"/>
<path d="M109.064 110.352H96.952V104.888L109.064 90.488H114.856V105.2H117.856V110.352H114.856V114.824H109.064V110.352ZM109.064 105.2V97.672L102.664 105.2H109.064Z" fill="#92E3A9"/>
<path d="M119.928 102.768C119.928 98.224 120.747 95.0427 122.384 93.224C124.021 91.4053 126.515 90.496 129.864 90.496C131.223 90.4502 132.578 90.6535 133.864 91.096C134.803 91.4338 135.663 91.9591 136.392 92.64C137.005 93.2279 137.525 93.9048 137.936 94.648C138.337 95.4263 138.641 96.2512 138.84 97.104C139.292 98.9361 139.515 100.817 139.504 102.704C139.504 107.04 138.771 110.216 137.304 112.232C135.837 114.248 133.299 115.237 129.688 115.2C128.008 115.27 126.336 114.941 124.808 114.24C123.557 113.587 122.502 112.612 121.752 111.416C121.087 110.303 120.632 109.077 120.408 107.8C120.077 106.143 119.916 104.457 119.928 102.768V102.768ZM126.52 102.768C126.52 105.819 126.787 107.899 127.32 109.008C127.495 109.491 127.813 109.91 128.232 110.209C128.65 110.508 129.15 110.672 129.664 110.68C129.989 110.686 130.312 110.626 130.613 110.504C130.914 110.381 131.187 110.199 131.416 109.968C131.989 109.343 132.367 108.565 132.504 107.728C132.788 106.145 132.906 104.536 132.856 102.928C132.856 99.728 132.592 97.616 132.056 96.528C131.861 96.0523 131.529 95.6457 131.101 95.3606C130.673 95.0755 130.17 94.9248 129.656 94.928C129.13 94.9138 128.613 95.0685 128.181 95.3694C127.749 95.6702 127.425 96.1015 127.256 96.6C126.771 97.704 126.525 99.7653 126.52 102.784V102.768Z" fill="#92E3A9"/>
<path d="M142.216 102.768C142.216 98.224 143.035 95.0427 144.672 93.224C146.309 91.4053 148.803 90.496 152.152 90.496C153.511 90.4502 154.866 90.6535 156.152 91.096C157.091 91.4338 157.951 91.9591 158.68 92.64C159.295 93.2257 159.816 93.903 160.224 94.648C160.625 95.4263 160.929 96.2512 161.128 97.104C161.582 98.9358 161.808 100.817 161.8 102.704C161.8 107.04 161.064 110.216 159.592 112.232C158.12 114.248 155.589 115.237 152 115.2C150.32 115.27 148.648 114.941 147.12 114.24C145.869 113.589 144.816 112.614 144.072 111.416C143.401 110.305 142.943 109.079 142.72 107.8C142.381 106.144 142.212 104.458 142.216 102.768V102.768ZM148.808 102.768C148.808 105.819 149.075 107.899 149.608 109.008C149.783 109.491 150.101 109.91 150.52 110.209C150.938 110.508 151.438 110.672 151.952 110.68C152.277 110.686 152.6 110.626 152.901 110.504C153.202 110.381 153.475 110.199 153.704 109.968C154.277 109.342 154.657 108.564 154.8 107.728C155.08 106.144 155.198 104.536 155.152 102.928C155.152 99.728 154.885 97.5947 154.352 96.528C154.155 96.0536 153.822 95.6482 153.395 95.3633C152.968 95.0785 152.466 94.9269 151.952 94.928C151.426 94.9151 150.91 95.0702 150.478 95.3709C150.047 95.6716 149.722 96.1022 149.552 96.6C149.051 97.704 148.8 99.7653 148.8 102.784L148.808 102.768Z" fill="#92E3A9"/>
<path d="M176.712 90.904H196.52V96H184.12V99.808H195.624V104.688H184.12V109.4H196.88V114.816H176.712V90.904Z" fill="#263238"/>
<path d="M200.96 114.824V90.904H213.28C215.046 90.8415 216.812 91.041 218.52 91.496C219.711 91.8707 220.74 92.6377 221.44 93.672C221.969 94.4317 222.336 95.2923 222.519 96.2001C222.701 97.1078 222.694 98.0434 222.499 98.9486C222.304 99.8537 221.925 100.709 221.384 101.461C220.844 102.213 220.155 102.846 219.36 103.32C218.55 103.768 217.676 104.09 216.768 104.272C217.449 104.467 218.096 104.764 218.688 105.152C219.132 105.522 219.529 105.943 219.872 106.408C220.267 106.868 220.616 107.367 220.912 107.896L224.488 114.824H216.136L212.184 107.512C211.872 106.812 211.417 106.185 210.848 105.672C210.317 105.305 209.685 105.112 209.04 105.12H208.384V114.824H200.96ZM208.384 100.6H211.504C212.163 100.548 212.816 100.438 213.456 100.272C213.935 100.179 214.363 99.9109 214.656 99.52C215.015 99.0482 215.187 98.4602 215.138 97.8693C215.089 97.2785 214.823 96.7266 214.392 96.32C213.562 95.8242 212.594 95.6083 211.632 95.704H208.384V100.6Z" fill="#263238"/>
<path d="M226.952 114.824V90.904H239.272C241.038 90.8409 242.804 91.0404 244.512 91.496C245.703 91.8707 246.732 92.6377 247.432 93.672C247.959 94.432 248.325 95.2921 248.507 96.1991C248.688 97.1061 248.682 98.0407 248.487 98.9451C248.293 99.8495 247.915 100.704 247.377 101.457C246.84 102.209 246.153 102.844 245.36 103.32C244.548 103.77 243.671 104.091 242.76 104.272C244.036 104.547 245.151 105.315 245.864 106.408C246.259 106.868 246.608 107.367 246.904 107.896L250.48 114.824H242.128L238.176 107.512C237.864 106.812 237.409 106.185 236.84 105.672C236.309 105.305 235.677 105.112 235.032 105.12H234.4V114.824H226.952ZM234.4 100.6H237.52C238.179 100.548 238.832 100.438 239.472 100.272C239.953 100.183 240.382 99.9138 240.672 99.52C241.031 99.0482 241.203 98.4602 241.154 97.8693C241.105 97.2785 240.84 96.7266 240.408 96.32C239.579 95.8221 238.61 95.606 237.648 95.704H234.4V100.6Z" fill="#263238"/>
<path d="M251.344 102.88C251.344 98.976 252.432 95.936 254.608 93.76C256.784 91.584 259.813 90.496 263.696 90.496C267.68 90.496 270.749 91.5627 272.904 93.696C275.059 95.8293 276.125 98.824 276.104 102.68C276.213 105.065 275.738 107.44 274.72 109.6C273.805 111.369 272.385 112.825 270.64 113.784C268.584 114.814 266.298 115.302 264 115.2C261.7 115.278 259.411 114.838 257.304 113.912C255.493 113.014 253.993 111.593 253 109.832C251.836 107.705 251.264 105.304 251.344 102.88V102.88ZM258.736 102.88C258.736 105.296 259.187 107.032 260.088 108.088C260.562 108.584 261.132 108.979 261.763 109.249C262.394 109.519 263.074 109.658 263.76 109.658C264.446 109.658 265.126 109.519 265.757 109.249C266.388 108.979 266.958 108.584 267.432 108.088C268.301 107.053 268.739 105.187 268.744 102.488C268.744 100.243 268.288 98.5973 267.376 97.552C266.914 97.0348 266.343 96.6271 265.703 96.3587C265.064 96.0902 264.373 95.9677 263.68 96C263 95.9766 262.324 96.1085 261.703 96.3858C261.082 96.6631 260.532 97.0783 260.096 97.6C259.2 98.728 258.736 100.48 258.736 102.912V102.88Z" fill="#263238"/>
<path d="M280.216 114.824V90.904H292.528C294.294 90.8409 296.06 91.0404 297.768 91.496C298.96 91.8684 299.99 92.6359 300.688 93.672C301.456 94.8141 301.845 96.1686 301.8 97.544C301.833 98.7461 301.54 99.9347 300.952 100.984C300.384 101.948 299.58 102.752 298.616 103.32C297.806 103.768 296.932 104.09 296.024 104.272C296.705 104.467 297.352 104.764 297.944 105.152C298.386 105.524 298.783 105.945 299.128 106.408C299.521 106.868 299.867 107.366 300.16 107.896L303.744 114.824H295.392L291.44 107.512C291.125 106.814 290.671 106.188 290.104 105.672C289.57 105.305 288.936 105.112 288.288 105.12H287.64V114.824H280.216ZM287.64 100.6H290.752C291.414 100.548 292.07 100.438 292.712 100.272C293.192 100.179 293.619 99.9109 293.912 99.52C294.22 99.1252 294.384 98.6368 294.376 98.136C294.396 97.8024 294.34 97.4686 294.212 97.1597C294.085 96.8507 293.889 96.5746 293.64 96.352C292.811 95.8541 291.842 95.638 290.88 95.736H287.64V100.6Z" fill="#263238"/>
<path d="M129.832 77.6V59.792H136.52C137.636 59.7497 138.75 59.9347 139.792 60.336C140.595 60.6754 141.272 61.2572 141.728 62C142.18 62.7019 142.424 63.5173 142.432 64.352C142.433 65.1141 142.217 65.8608 141.808 66.504C141.345 67.2014 140.697 67.7556 139.936 68.104C140.917 68.3527 141.791 68.9144 142.424 69.704C143.005 70.481 143.309 71.4301 143.288 72.4C143.296 73.2065 143.115 74.0036 142.76 74.728C142.464 75.3783 142.017 75.9486 141.456 76.392C140.87 76.8121 140.207 77.1113 139.504 77.272C138.562 77.4876 137.598 77.587 136.632 77.568L129.832 77.6ZM132.232 67.264H136.088C136.843 67.2967 137.6 67.2268 138.336 67.056C138.872 66.9204 139.347 66.6109 139.688 66.176C140.004 65.7188 140.164 65.1716 140.144 64.616C140.166 64.0522 140.018 63.4948 139.72 63.016C139.444 62.5666 139.01 62.2359 138.504 62.088C137.615 61.8833 136.703 61.7999 135.792 61.84H132.232V67.264ZM132.232 75.496H136.672C137.207 75.5105 137.742 75.4838 138.272 75.416C138.752 75.3412 139.214 75.1756 139.632 74.928C140.015 74.6821 140.327 74.3401 140.536 73.936C140.777 73.4719 140.898 72.9548 140.888 72.432C140.904 71.8164 140.725 71.2116 140.376 70.704C140.038 70.2065 139.537 69.8418 138.96 69.672C138.111 69.439 137.232 69.3365 136.352 69.368H132.232V75.496Z" fill="#263238"/>
<path d="M154.688 76C153.993 76.6148 153.201 77.1096 152.344 77.464C151.576 77.7477 150.763 77.8913 149.944 77.888C148.763 77.9679 147.597 77.5961 146.68 76.848C146.307 76.5159 146.011 76.1059 145.813 75.647C145.615 75.1881 145.521 74.6914 145.536 74.192C145.53 73.6052 145.668 73.0259 145.937 72.5044C146.206 71.9829 146.598 71.5351 147.08 71.2C147.568 70.8704 148.109 70.6269 148.68 70.48C149.32 70.3297 149.97 70.2201 150.624 70.152C151.947 70.0312 153.255 69.7793 154.528 69.4C154.528 69.096 154.528 68.912 154.528 68.824C154.565 68.4849 154.529 68.1418 154.423 67.8176C154.316 67.4934 154.142 67.1956 153.912 66.944C153.199 66.3987 152.311 66.1339 151.416 66.2C150.618 66.143 149.822 66.3329 149.136 66.744C148.546 67.2392 148.144 67.9231 148 68.68L145.864 68.392C146.007 67.5862 146.336 66.8248 146.824 66.168C147.347 65.5575 148.032 65.108 148.8 64.872C149.745 64.5522 150.738 64.398 151.736 64.416C152.639 64.3896 153.541 64.5195 154.4 64.8C154.983 64.9912 155.507 65.3302 155.92 65.784C156.262 66.2184 156.496 66.7287 156.6 67.272C156.692 67.9398 156.73 68.6141 156.712 69.288V72.208C156.676 73.4949 156.722 74.7828 156.848 76.064C156.944 76.6086 157.13 77.1332 157.4 77.616H155.12C154.879 77.1079 154.733 76.5604 154.688 76V76ZM154.504 71.112C153.347 71.5147 152.147 71.7832 150.928 71.912C150.276 71.9817 149.635 72.1266 149.016 72.344C148.666 72.4942 148.366 72.7413 148.152 73.056C147.903 73.4477 147.803 73.9154 147.869 74.3746C147.935 74.8338 148.163 75.2542 148.512 75.56C149.068 75.9828 149.759 76.1902 150.456 76.144C151.241 76.1554 152.016 75.9624 152.704 75.584C153.333 75.2435 153.839 74.7148 154.152 74.072C154.421 73.374 154.541 72.6272 154.504 71.88V71.112Z" fill="#263238"/>
<path d="M168.488 77.6V76C168.114 76.6161 167.581 77.1197 166.944 77.4577C166.308 77.7957 165.592 77.9554 164.872 77.92C163.864 77.9234 162.878 77.6253 162.04 77.064C161.154 76.4734 160.457 75.6402 160.032 74.664C159.537 73.5635 159.294 72.3664 159.32 71.16C159.305 69.959 159.522 68.7664 159.96 67.648C160.341 66.6667 161.018 65.8281 161.896 65.248C162.756 64.7035 163.758 64.4252 164.776 64.448C165.499 64.4329 166.215 64.6008 166.856 64.936C167.443 65.2473 167.952 65.6876 168.344 66.224V59.824H170.52V77.6H168.488ZM161.6 71.2C161.501 72.5197 161.872 73.832 162.648 74.904C162.938 75.2834 163.31 75.5915 163.738 75.8051C164.165 76.0186 164.635 76.1318 165.112 76.136C165.581 76.1377 166.045 76.0327 166.467 75.829C166.89 75.6253 167.261 75.3281 167.552 74.96C168.298 73.924 168.653 72.6568 168.552 71.384C168.664 70.0078 168.306 68.6344 167.536 67.488C167.24 67.1006 166.859 66.787 166.422 66.5718C165.985 66.3567 165.503 66.2458 165.016 66.248C164.552 66.2513 164.094 66.3604 163.678 66.5669C163.263 66.7735 162.899 67.0721 162.616 67.44C161.862 68.5426 161.504 69.8679 161.6 71.2V71.2Z" fill="#263238"/>
<path d="M181.192 77.6V59.792H189.096C190.323 59.7389 191.549 59.9014 192.72 60.272C193.552 60.5996 194.251 61.1967 194.704 61.968C195.2 62.7762 195.458 63.7079 195.448 64.656C195.463 65.2442 195.362 65.8295 195.15 66.3785C194.939 66.9276 194.621 67.4296 194.216 67.856C193.172 68.8281 191.824 69.4101 190.4 69.504C190.922 69.7347 191.409 70.0362 191.848 70.4C192.601 71.1131 193.26 71.9197 193.808 72.8L196.904 77.6H193.936L191.576 73.896C190.888 72.824 190.32 72.008 189.88 71.44C189.546 70.9814 189.141 70.579 188.68 70.248C188.349 70.0293 187.984 69.8671 187.6 69.768C187.166 69.7014 186.727 69.6746 186.288 69.688H183.552V77.6H181.192ZM183.552 67.64H188.624C189.479 67.6741 190.334 67.5632 191.152 67.312C191.721 67.1169 192.21 66.7402 192.544 66.24C192.854 65.7639 193.018 65.2079 193.016 64.64C193.026 64.2468 192.949 63.8562 192.79 63.4965C192.631 63.1368 192.394 62.8169 192.096 62.56C191.259 61.9528 190.23 61.6687 189.2 61.76H183.552V67.64Z" fill="#263238"/>
<path d="M207.704 73.464L209.968 73.736C209.679 74.9511 208.985 76.0316 208 76.8C206.755 77.6136 205.276 77.9914 203.793 77.8741C202.311 77.7568 200.909 77.1512 199.808 76.152C198.638 74.799 198.043 73.0417 198.152 71.256C198.037 69.4168 198.639 67.6044 199.832 66.2C200.386 65.6053 201.061 65.1368 201.812 64.8262C202.563 64.5156 203.372 64.3703 204.184 64.4C204.974 64.3736 205.761 64.5171 206.491 64.8207C207.221 65.1244 207.878 65.581 208.416 66.16C209.579 67.5418 210.166 69.3175 210.056 71.12C210.056 71.248 210.056 71.448 210.056 71.704H200.456C200.435 72.8962 200.841 74.0566 201.6 74.976C201.944 75.3451 202.362 75.6372 202.826 75.833C203.291 76.0288 203.792 76.1239 204.296 76.112C205.032 76.1347 205.756 75.9124 206.352 75.48C206.989 74.9538 207.459 74.2532 207.704 73.464V73.464ZM200.504 69.92H207.704C207.686 69.0451 207.408 68.1955 206.904 67.48C206.581 67.0732 206.168 66.7472 205.697 66.5278C205.227 66.3084 204.711 66.2016 204.192 66.216C203.725 66.2009 203.259 66.2802 202.824 66.4493C202.388 66.6184 201.991 66.8737 201.656 67.2C200.945 67.929 200.539 68.9018 200.52 69.92H200.504Z" fill="#263238"/>
<path d="M220.944 82.568V76.248C220.569 76.7515 220.082 77.1599 219.52 77.44C218.916 77.7508 218.247 77.9126 217.568 77.912C216.814 77.9134 216.068 77.7494 215.384 77.4315C214.7 77.1136 214.093 76.6495 213.608 76.072C212.434 74.6672 211.839 72.8679 211.944 71.04C211.927 69.8428 212.158 68.655 212.624 67.552C213.02 66.587 213.704 65.7681 214.584 65.208C215.425 64.6799 216.399 64.4024 217.392 64.408C218.14 64.3861 218.881 64.558 219.542 64.9071C220.204 65.2561 220.764 65.7704 221.168 66.4V64.704H223.136V82.568H220.944ZM214.2 71.128C214.101 72.4564 214.469 73.7778 215.24 74.864C215.537 75.2491 215.917 75.5617 216.352 75.7779C216.787 75.9941 217.266 76.1084 217.752 76.112C218.216 76.1085 218.672 76.0001 219.088 75.7951C219.503 75.59 219.867 75.2936 220.152 74.928C220.909 73.8843 221.269 72.6052 221.168 71.32C221.265 69.9433 220.89 68.5746 220.104 67.44C219.814 67.0456 219.438 66.723 219.004 66.4969C218.57 66.2709 218.089 66.1474 217.6 66.136C217.133 66.1385 216.673 66.2496 216.257 66.4607C215.84 66.6718 215.478 66.9769 215.2 67.352C214.447 68.4602 214.094 69.7922 214.2 71.128Z" fill="#263238"/>
<path d="M235.024 77.6V75.72C234.589 76.4081 233.983 76.9717 233.265 77.3559C232.547 77.74 231.742 77.9316 230.928 77.912C230.193 77.9184 229.465 77.7685 228.792 77.472C228.215 77.243 227.71 76.8648 227.328 76.376C226.987 75.899 226.755 75.3527 226.648 74.776C226.54 74.0989 226.495 73.4134 226.512 72.728V64.728H228.704V71.928C228.679 72.7012 228.725 73.475 228.84 74.24C228.954 74.7851 229.264 75.2693 229.712 75.6C230.197 75.9376 230.778 76.1089 231.368 76.088C232.018 76.0896 232.657 75.9154 233.216 75.584C233.768 75.277 234.199 74.7919 234.44 74.208C234.717 73.398 234.839 72.5431 234.8 71.688V64.704H236.984V77.6H235.024Z" fill="#263238"/>
<path d="M249.256 73.464L251.52 73.736C251.223 74.952 250.524 76.0319 249.536 76.8C248.291 77.6136 246.812 77.9914 245.329 77.8741C243.847 77.7568 242.445 77.1512 241.344 76.152C240.174 74.799 239.579 73.0417 239.688 71.256C239.574 69.4183 240.173 67.6073 241.36 66.2C241.916 65.606 242.593 65.138 243.345 64.8275C244.097 64.517 244.907 64.3712 245.72 64.4C246.51 64.3736 247.297 64.5171 248.027 64.8207C248.757 65.1244 249.414 65.581 249.952 66.16C251.115 67.5418 251.702 69.3175 251.592 71.12C251.592 71.248 251.592 71.448 251.592 71.704H241.992C241.989 72.8994 242.418 74.0557 243.2 74.96C243.543 75.3299 243.961 75.6226 244.426 75.8185C244.89 76.0143 245.392 76.109 245.896 76.096C246.632 76.1187 247.356 75.8964 247.952 75.464C248.569 74.9357 249.021 74.2416 249.256 73.464V73.464ZM242.056 69.92H249.256C249.238 69.0451 248.96 68.1955 248.456 67.48C248.132 67.0741 247.719 66.7488 247.248 66.5295C246.778 66.3102 246.263 66.2029 245.744 66.216C245.275 66.1998 244.809 66.2786 244.371 66.4477C243.934 66.6168 243.536 66.8727 243.2 67.2C242.492 67.9303 242.088 68.9029 242.072 69.92H242.056Z" fill="#263238"/>
<path d="M253.392 73.768L255.552 73.424C255.625 74.193 255.989 74.9052 256.568 75.416C257.238 75.9151 258.062 76.1616 258.896 76.112C259.692 76.1733 260.484 75.9555 261.136 75.496C261.36 75.3279 261.542 75.1106 261.668 74.8609C261.794 74.6112 261.861 74.3358 261.864 74.056C261.868 73.8225 261.811 73.592 261.699 73.3871C261.587 73.1823 261.423 73.0103 261.224 72.888C260.51 72.5516 259.758 72.3018 258.984 72.144C257.843 71.8942 256.727 71.5435 255.648 71.096C255.078 70.8415 254.594 70.4256 254.257 69.8996C253.92 69.3737 253.745 68.7606 253.752 68.136C253.749 67.5775 253.886 67.0272 254.152 66.536C254.404 66.0536 254.762 65.635 255.2 65.312C255.626 65.0242 256.096 64.808 256.592 64.672C257.209 64.4987 257.847 64.4125 258.488 64.416C259.395 64.3983 260.297 64.5447 261.152 64.848C261.822 65.07 262.412 65.4846 262.848 66.04C263.268 66.6345 263.542 67.3197 263.648 68.04L261.504 68.328C261.477 68.0182 261.388 67.717 261.242 67.4422C261.096 67.1674 260.897 66.9245 260.656 66.728C260.079 66.3253 259.382 66.1307 258.68 66.176C257.928 66.1096 257.175 66.2832 256.528 66.672C256.336 66.8017 256.178 66.9754 256.067 67.1785C255.955 67.3817 255.894 67.6084 255.888 67.84C255.88 68.1293 255.973 68.4123 256.152 68.64C256.376 68.905 256.666 69.1064 256.992 69.224C257.208 69.304 257.856 69.488 258.928 69.776C260.028 70.0483 261.11 70.3876 262.168 70.792C262.747 71.0327 263.246 71.432 263.608 71.944C263.971 72.499 264.153 73.1532 264.128 73.816C264.127 74.5515 263.907 75.27 263.496 75.88C263.026 76.5575 262.367 77.0808 261.6 77.384C260.74 77.7475 259.814 77.9273 258.88 77.912C257.519 78.0034 256.166 77.6343 255.04 76.864C254.12 76.0768 253.531 74.9709 253.392 73.768V73.768Z" fill="#263238"/>
<path d="M271.496 75.664L271.816 77.592C271.273 77.7177 270.718 77.7847 270.16 77.792C269.521 77.828 268.884 77.6955 268.312 77.408C267.903 77.1906 267.577 76.8449 267.384 76.424C267.156 75.5828 267.067 74.71 267.12 73.84V66.4H265.52V64.704H267.12V61.504L269.296 60.192V64.704H271.496V66.4H269.296V73.952C269.273 74.3554 269.31 74.7599 269.408 75.152C269.488 75.3301 269.619 75.4805 269.784 75.584C270.017 75.6995 270.276 75.7519 270.536 75.736C270.857 75.7334 271.178 75.7094 271.496 75.664V75.664Z" fill="#263238"/>
</svg>
