<svg width="53" height="58" viewBox="0 0 53 58" fill="none" xmlns="http://www.w3.org/2000/svg">
<g filter="url(#filter0_d_9_613)">
<path d="M9.03125 44.9219L4.92969 0H48.9727L44.9688 44.9219L27 50" fill="#264DE4"/>
<path d="M27 3.61328V46.0938L41.5508 42.0898L44.9688 3.61328" fill="#2965F1"/>
<path d="M13.1328 9.17969H27V14.6484H13.6211L13.1328 9.17969ZM14.1094 20.3125H27V25.8789H14.5977L14.1094 20.3125ZM14.8906 28.6133H20.3594L20.75 33.0078L27 34.668V40.4297L15.5742 37.3047" fill="#EBEBEB"/>
<path d="M27 20.3125V25.8789H33.7383L33.0547 33.0078L27 34.668V40.4297L38.2305 37.3047L40.7695 9.17969H27V14.6484H34.8125L34.2754 20.3125H27Z" fill="white"/>
</g>
<defs>
<filter id="filter0_d_9_613" x="-2" y="0" width="58" height="58" filterUnits="userSpaceOnUse" color-interpolation-filters="sRGB">
<feFlood flood-opacity="0" result="BackgroundImageFix"/>
<feColorMatrix in="SourceAlpha" type="matrix" values="0 0 0 0 0 0 0 0 0 0 0 0 0 0 0 0 0 0 127 0" result="hardAlpha"/>
<feOffset dy="4"/>
<feGaussianBlur stdDeviation="2"/>
<feComposite in2="hardAlpha" operator="out"/>
<feColorMatrix type="matrix" values="0 0 0 0 0 0 0 0 0 0 0 0 0 0 0 0 0 0 0.25 0"/>
<feBlend mode="normal" in2="BackgroundImageFix" result="effect1_dropShadow_9_613"/>
<feBlend mode="normal" in="SourceGraphic" in2="effect1_dropShadow_9_613" result="shape"/>
</filter>
</defs>
</svg>
