<svg width="400" height="400" viewBox="0 0 400 400" fill="none" xmlns="http://www.w3.org/2000/svg">
<path d="M400 305.92H0V306.12H400V305.92Z" fill="#EBEBEB"/>
<path d="M359.92 318.792H333.424V318.992H359.92V318.792Z" fill="#EBEBEB"/>
<path d="M264.976 320.968H258.024V321.168H264.976V320.968Z" fill="#EBEBEB"/>
<path d="M332.624 311.368H317.272V311.568H332.624V311.368Z" fill="#EBEBEB"/>
<path d="M76.52 312.712H41.968V312.912H76.52V312.712Z" fill="#EBEBEB"/>
<path d="M88.712 312.712H83.6479V312.912H88.712V312.712Z" fill="#EBEBEB"/>
<path d="M180.12 316.088H105.176V316.288H180.12V316.088Z" fill="#EBEBEB"/>
<path d="M189.6 270.24H35.128C33.9179 270.238 32.758 269.756 31.9031 268.899C31.0482 268.043 30.568 266.882 30.568 265.672V48.528C30.5785 47.3248 31.0633 46.1744 31.9171 45.3266C32.7709 44.4788 33.9248 44.0021 35.128 44H189.6C190.812 44 191.973 44.4813 192.83 45.3379C193.687 46.1946 194.168 47.3565 194.168 48.568V265.672C194.168 266.884 193.687 268.045 192.83 268.902C191.973 269.759 190.812 270.24 189.6 270.24V270.24ZM35.128 44.16C33.9709 44.1621 32.862 44.6233 32.0445 45.4422C31.2271 46.2611 30.768 47.3709 30.768 48.528V265.672C30.768 266.829 31.2271 267.939 32.0445 268.758C32.862 269.577 33.9709 270.038 35.128 270.04H189.6C190.758 270.038 191.868 269.577 192.686 268.758C193.505 267.94 193.966 266.83 193.968 265.672V48.528C193.966 47.3702 193.505 46.2604 192.686 45.4417C191.868 44.623 190.758 44.1621 189.6 44.16H35.128Z" fill="#EBEBEB"/>
<path d="M362.648 270.24H208.168C206.957 270.238 205.796 269.756 204.94 268.9C204.084 268.044 203.602 266.883 203.6 265.672V48.528C203.613 47.3241 204.099 46.1737 204.954 45.3261C205.809 44.4785 206.964 44.002 208.168 44H362.648C363.85 44.0042 365.002 44.4818 365.854 45.3294C366.706 46.177 367.189 47.3262 367.2 48.528V265.672C367.2 266.881 366.721 268.04 365.868 268.896C365.014 269.753 363.857 270.236 362.648 270.24V270.24ZM208.168 44.16C207.01 44.1621 205.9 44.623 205.082 45.4417C204.263 46.2604 203.802 47.3702 203.8 48.528V265.672C203.802 266.83 204.263 267.94 205.082 268.758C205.9 269.577 207.01 270.038 208.168 270.04H362.648C363.806 270.038 364.916 269.577 365.734 268.758C366.553 267.94 367.014 266.83 367.016 265.672V48.528C367.014 47.3702 366.553 46.2604 365.734 45.4417C364.916 44.623 363.806 44.1621 362.648 44.16H208.168Z" fill="#EBEBEB"/>
<path d="M73.6 62.4H83.648C83.648 62.4 80.856 72.256 75.464 75.2C72.536 76.8 66.312 72 66.312 72C66.312 72 73.688 69.168 73.6 62.4Z" fill="#EBEBEB"/>
<path d="M123.928 68.712C123.928 68.712 121.016 73.512 117.816 74.208C117.958 77.0741 117.215 79.9146 115.688 82.344C121.152 81.944 127.776 75.472 123.928 68.712Z" fill="#F5F5F5"/>
<path d="M50.536 113.336C50.536 113.336 47.336 113.248 44.4 109.864C42.176 111.336 42.536 114.536 42.536 114.536C42.536 114.536 46.936 117.2 50.536 118C50.7501 116.453 50.7501 114.883 50.536 113.336Z" fill="#E0E0E0"/>
<path d="M359.032 162.776C359.032 162.776 355.88 162.688 352.896 159.312C350.68 160.776 351.032 163.976 351.032 163.976C351.032 163.976 355.432 166.64 359.032 167.44C359.246 165.893 359.246 164.323 359.032 162.776V162.776Z" fill="#E0E0E0"/>
<path d="M87.0639 109.864C85.4639 108.136 83.0639 103.2 83.0639 103.2C83.0639 103.2 80.7999 105.736 80.9359 107.336C81.0719 108.936 85.5999 111.064 85.5999 111.064L87.0639 109.864Z" fill="#F5F5F5"/>
<path d="M84.2879 39.824C82.2319 37.968 74.976 34.568 74.976 34.568C74.976 34.568 80.208 32.392 82.9759 32.968C85.7439 33.544 87.3919 38.904 87.3919 38.904L84.2879 39.824Z" fill="#F5F5F5"/>
<path d="M161.376 60.6C163.144 60.6 168.048 59.224 168.048 59.224C168.048 59.224 166.448 62.424 164.888 63.36C163.328 64.296 160.288 62.4 160.288 62.4L161.376 60.6Z" fill="#F5F5F5"/>
<path d="M329.104 74.4L322.4 70.856C322.4 70.856 327.728 65.256 332.36 65.256C334.872 65.256 337.328 70.616 337.328 70.616C337.328 70.616 331.432 69.864 329.104 74.4Z" fill="#F5F5F5"/>
<path d="M269.76 37.32C269.76 37.32 274.6 34.408 277.76 35.312C278.975 32.7149 280.961 30.5555 283.448 29.128C278.4 26.92 269.528 29.544 269.76 37.32Z" fill="#F0F0F0"/>
<path d="M46.968 174.072C46.968 174.072 47.872 170.432 49.768 169.384C49.1111 167.587 49.0273 165.631 49.528 163.784C46.144 165.136 43.2 170.528 46.968 174.072Z" fill="#F0F0F0"/>
<path d="M339.032 30.536C339.032 30.536 341.776 32.096 342.832 36.472C345.48 36.216 346.664 33.224 346.664 33.224C346.664 33.224 344 28.8 341.208 26.4C340.297 27.6725 339.564 29.0642 339.032 30.536V30.536Z" fill="#E6E6E6"/>
<path d="M210.784 36.488C209.462 36.9714 208.002 36.9169 206.72 36.336C205.968 37.672 207 39.224 207 39.224C208.675 39.3297 210.356 39.214 212 38.88C211.703 38.0322 211.294 37.2278 210.784 36.488V36.488Z" fill="#E6E6E6"/>
<path d="M356.216 69.208C356.816 71.488 356.632 76.968 356.632 76.968C356.632 76.968 359.832 75.792 360.448 74.312C361.064 72.832 358.048 68.832 358.048 68.832L356.216 69.208Z" fill="#EBEBEB"/>
<path d="M302.464 77.864C300.352 79.592 295.968 86.144 295.968 86.144C295.968 86.144 294.624 80.736 295.568 78.144C296.512 75.552 301.968 74.736 301.968 74.736L302.464 77.864Z" fill="#F5F5F5"/>
<path d="M77.1121 187L77.7361 192.152C77.8741 193.004 77.949 193.865 77.9601 194.728L77.8561 197.304C77.7201 200.736 77.5121 204.168 77.1921 207.6C77.187 207.657 77.1708 207.712 77.1443 207.763C77.1178 207.813 77.0816 207.858 77.0377 207.894C76.9939 207.931 76.9432 207.958 76.8887 207.975C76.8341 207.992 76.7768 207.997 76.7201 207.992C76.6202 207.98 76.5273 207.935 76.4561 207.864C76.385 207.793 76.3399 207.7 76.3281 207.6C76.0081 204.168 75.8001 200.736 75.6641 197.304L75.5601 194.728C75.5711 193.865 75.646 193.004 75.7841 192.152L76.4081 187C76.413 186.954 76.4271 186.909 76.4496 186.868C76.472 186.827 76.5024 186.791 76.5389 186.762C76.5753 186.733 76.6172 186.712 76.662 186.699C76.7069 186.686 76.7538 186.682 76.8001 186.688C76.8793 186.698 76.953 186.734 77.0095 186.791C77.0659 186.847 77.102 186.921 77.1121 187Z" fill="#FAFAFA"/>
<path d="M77.1121 217.92L77.7361 223.072C77.8741 223.921 77.949 224.78 77.9601 225.64L77.8561 228.216C77.7201 231.648 77.5121 235.088 77.1921 238.52C77.1921 238.635 77.1466 238.744 77.0655 238.825C76.9845 238.906 76.8746 238.952 76.7601 238.952C76.6455 238.952 76.5356 238.906 76.4546 238.825C76.3736 238.744 76.3281 238.635 76.3281 238.52C76.0081 235.088 75.8001 231.648 75.6641 228.216L75.5601 225.64C75.5711 224.78 75.646 223.921 75.7841 223.072L76.4081 217.92C76.4081 217.827 76.4451 217.737 76.5112 217.671C76.5772 217.605 76.6667 217.568 76.7601 217.568C76.8534 217.568 76.9429 217.605 77.009 217.671C77.075 217.737 77.1121 217.827 77.1121 217.92V217.92Z" fill="#F0F0F0"/>
<path d="M71.6 213.12L65.4 213.736C64.3736 213.874 63.3396 213.949 62.304 213.96L59.2 213.856C55.0613 213.728 50.9306 213.507 46.808 213.192C46.6934 213.192 46.5835 213.146 46.5025 213.065C46.4215 212.984 46.376 212.875 46.376 212.76C46.376 212.645 46.4215 212.536 46.5025 212.455C46.5835 212.374 46.6934 212.328 46.808 212.328C50.936 212.008 55.064 211.8 59.2 211.664L62.296 211.56C63.3316 211.571 64.3656 211.646 65.392 211.784L71.592 212.408C71.639 212.412 71.6848 212.425 71.7265 212.447C71.7683 212.469 71.8052 212.5 71.8351 212.536C71.8649 212.573 71.8871 212.615 71.9003 212.66C71.9135 212.706 71.9175 212.753 71.912 212.8C71.9036 212.881 71.8683 212.956 71.8116 213.014C71.755 213.072 71.6804 213.11 71.6 213.12V213.12Z" fill="#EBEBEB"/>
<path d="M88.888 201.136L87.288 203.632C87.0417 204.057 86.7434 204.449 86.4 204.8L85.304 205.76C83.832 207.024 82.32 208.256 80.712 209.392C80.6275 209.446 80.5269 209.47 80.4271 209.459C80.3272 209.448 80.2341 209.404 80.1631 209.333C80.092 209.262 80.0475 209.169 80.0367 209.069C80.026 208.969 80.0497 208.868 80.104 208.784C81.24 207.184 82.504 205.664 83.736 204.192L84.704 203.096C85.0591 202.757 85.4572 202.467 85.888 202.232L88.384 200.632C88.4664 200.583 88.5645 200.567 88.6582 200.588C88.7519 200.609 88.8341 200.665 88.888 200.744C88.9249 200.803 88.9445 200.871 88.9445 200.94C88.9445 201.009 88.9249 201.077 88.888 201.136V201.136Z" fill="#F0F0F0"/>
<path d="M73.36 216.664L71.128 219.768C70.7875 220.305 70.3935 220.806 69.952 221.264L68.552 222.536C66.664 224.208 64.744 225.848 62.728 227.4C62.6829 227.435 62.6313 227.46 62.5763 227.475C62.5213 227.49 62.4638 227.494 62.4073 227.487C62.3508 227.479 62.2963 227.461 62.247 227.432C62.1977 227.403 62.1545 227.365 62.12 227.32C62.0641 227.243 62.0339 227.151 62.0339 227.056C62.0339 226.961 62.0641 226.869 62.12 226.792C63.672 224.776 65.32 222.856 66.984 220.968L68.256 219.568C68.7157 219.131 69.2167 218.74 69.752 218.4L72.864 216.168C72.9017 216.14 72.9445 216.12 72.9899 216.109C73.0354 216.098 73.0826 216.096 73.1288 216.104C73.175 216.111 73.2192 216.128 73.2589 216.153C73.2986 216.177 73.333 216.21 73.36 216.248C73.403 216.309 73.4262 216.381 73.4262 216.456C73.4262 216.531 73.403 216.603 73.36 216.664Z" fill="#FAFAFA"/>
<path d="M72.8639 209.368L67.0799 204.456C66.0934 203.668 65.1481 202.829 64.2479 201.944L61.6479 199.2C58.1813 195.547 54.7759 191.827 51.4319 188.04C51.3542 187.959 51.3108 187.852 51.3108 187.74C51.3108 187.628 51.3542 187.521 51.4319 187.44C51.509 187.368 51.6105 187.328 51.7159 187.328C51.8214 187.328 51.9229 187.368 51.9999 187.44C55.7919 190.768 59.5253 194.173 63.1999 197.656L65.9439 200.248C66.8639 201.112 67.6239 202.128 68.4559 203.08L73.3599 208.864C73.4259 208.931 73.4629 209.022 73.4629 209.116C73.4629 209.21 73.4259 209.301 73.3599 209.368C73.293 209.432 73.2043 209.467 73.1119 209.467C73.0196 209.467 72.9309 209.432 72.8639 209.368V209.368Z" fill="#F0F0F0"/>
<path d="M281.184 87.36L276 88C275.148 88.1381 274.287 88.2129 273.424 88.224L270.848 88.12C267.416 87.984 263.984 87.776 260.552 87.456C260.438 87.4438 260.333 87.3877 260.26 87.2996C260.187 87.2114 260.151 87.0982 260.16 86.984C260.172 86.8841 260.217 86.7912 260.288 86.7201C260.359 86.649 260.452 86.6038 260.552 86.592C263.984 86.272 267.416 86.064 270.848 85.928L273.424 85.824C274.287 85.835 275.148 85.9099 276 86.048L281.152 86.672C281.245 86.672 281.335 86.7091 281.401 86.7751C281.467 86.8411 281.504 86.9306 281.504 87.024C281.504 87.1173 281.467 87.2069 281.401 87.2729C281.335 87.3389 281.245 87.376 281.152 87.376L281.184 87.36Z" fill="#FAFAFA"/>
<path d="M250.264 87.36L245.112 87.984C244.263 88.1221 243.404 88.1969 242.544 88.208L239.968 88.104C236.536 87.968 233.104 87.76 229.664 87.44C229.549 87.44 229.439 87.3945 229.358 87.3134C229.277 87.2324 229.232 87.1226 229.232 87.008C229.232 86.8934 229.277 86.7835 229.358 86.7025C229.439 86.6215 229.549 86.576 229.664 86.576C233.104 86.256 236.536 86.048 239.968 85.912L242.544 85.808C243.404 85.819 244.263 85.8939 245.112 86.032L250.264 86.656C250.357 86.656 250.447 86.6931 250.513 86.7591C250.579 86.8251 250.616 86.9146 250.616 87.008C250.616 87.1013 250.579 87.1909 250.513 87.2569C250.447 87.3229 250.357 87.36 250.264 87.36V87.36Z" fill="#F0F0F0"/>
<path d="M255.072 81.848L254.448 75.648C254.31 74.6216 254.235 73.5876 254.224 72.552L254.328 69.456C254.464 65.328 254.672 61.192 254.992 57.064C255.002 56.9501 255.056 56.8446 255.143 56.77C255.23 56.6953 255.342 56.6573 255.456 56.664C255.559 56.673 255.656 56.718 255.729 56.7912C255.802 56.8643 255.847 56.9609 255.856 57.064C256.176 61.192 256.384 65.328 256.52 69.456L256.624 72.552C256.613 73.5876 256.538 74.6216 256.4 75.648L255.776 81.848C255.773 81.8947 255.761 81.9403 255.739 81.982C255.718 82.0237 255.689 82.0607 255.653 82.0907C255.617 82.1206 255.575 82.1429 255.53 82.1562C255.486 82.1695 255.438 82.1735 255.392 82.168C255.31 82.1608 255.232 82.1248 255.174 82.0662C255.115 82.0077 255.079 81.9304 255.072 81.848V81.848Z" fill="#EBEBEB"/>
<path d="M267.048 99.136L264.552 97.536C264.121 97.3011 263.723 97.0106 263.368 96.672L262.4 95.552C261.136 94.08 259.904 92.568 258.768 90.96C258.702 90.8652 258.676 90.7484 258.696 90.6347C258.715 90.521 258.778 90.4195 258.872 90.352C258.945 90.2992 259.034 90.2709 259.124 90.2709C259.214 90.2709 259.303 90.2992 259.376 90.352C260.976 91.488 262.496 92.752 263.968 93.984L265.064 94.952C265.403 95.3071 265.693 95.7052 265.928 96.136L267.528 98.632C267.577 98.7144 267.593 98.8125 267.572 98.9062C267.551 99 267.495 99.0821 267.416 99.136C267.36 99.1683 267.297 99.1853 267.232 99.1853C267.167 99.1853 267.104 99.1683 267.048 99.136V99.136Z" fill="#F0F0F0"/>
<path d="M251.528 83.608L248.416 81.376C247.88 81.0335 247.379 80.6396 246.92 80.2L245.648 78.8C243.976 76.912 242.336 74.992 240.784 72.976C240.749 72.9309 240.724 72.8794 240.709 72.8243C240.694 72.7693 240.69 72.7119 240.697 72.6553C240.705 72.5988 240.723 72.5443 240.752 72.495C240.781 72.4457 240.819 72.4025 240.864 72.368C240.941 72.3121 241.033 72.282 241.128 72.282C241.223 72.282 241.315 72.3121 241.392 72.368C243.408 73.92 245.328 75.568 247.216 77.232L248.616 78.504C249.056 78.9633 249.449 79.4643 249.792 80L252.024 83.112C252.081 83.1794 252.11 83.2657 252.106 83.3538C252.103 83.4419 252.066 83.5254 252.004 83.5877C251.941 83.6501 251.858 83.6868 251.77 83.6905C251.682 83.6943 251.595 83.6648 251.528 83.608V83.608Z" fill="#FAFAFA"/>
<path d="M258.824 83.112L263.728 77.328C264.516 76.3414 265.355 75.3962 266.24 74.496L268.984 71.904C272.643 68.432 276.363 65.024 280.144 61.68C280.227 61.6119 280.332 61.5772 280.439 61.5824C280.546 61.5877 280.648 61.6326 280.724 61.7084C280.799 61.7843 280.844 61.8856 280.85 61.9927C280.855 62.0998 280.82 62.2051 280.752 62.288C277.413 66.08 274.005 69.8133 270.528 73.488L267.936 76.232C267.036 77.1175 266.091 77.9559 265.104 78.744L259.32 83.648C259.285 83.6789 259.245 83.7025 259.201 83.7173C259.156 83.7321 259.11 83.7378 259.063 83.7341C259.017 83.7303 258.972 83.7172 258.931 83.6956C258.89 83.6739 258.853 83.6441 258.824 83.608C258.791 83.5759 258.764 83.5374 258.746 83.4948C258.728 83.4521 258.718 83.4063 258.718 83.36C258.718 83.3137 258.728 83.2678 258.746 83.2252C258.764 83.1826 258.791 83.1441 258.824 83.112V83.112Z" fill="#F0F0F0"/>
<path d="M200 342.048C285.666 342.048 355.112 337.994 355.112 332.992C355.112 327.991 285.666 323.936 200 323.936C114.334 323.936 44.888 327.991 44.888 332.992C44.888 337.994 114.334 342.048 200 342.048Z" fill="#F5F5F5"/>
<path d="M301.816 152.952C301.304 153.328 300.912 153.608 300.464 153.904C300.016 154.2 299.592 154.472 299.152 154.76C298.28 155.304 297.392 155.84 296.504 156.36C294.704 157.368 292.872 158.312 290.976 159.152C289.082 160.008 287.143 160.761 285.168 161.408C284.184 161.76 283.16 162.032 282.144 162.312L280.6 162.688L280.216 162.784L279.944 162.84L279.616 162.904C279.152 162.991 278.68 163.036 278.208 163.04C277.232 163.06 276.261 162.9 275.344 162.568C274.509 162.264 273.726 161.832 273.024 161.288C271.901 160.397 270.945 159.313 270.2 158.088C269.033 156.132 268.15 154.02 267.576 151.816C266.508 147.831 265.949 143.726 265.912 139.6C265.896 139.038 266.086 138.489 266.448 138.058C266.809 137.627 267.316 137.344 267.873 137.262C268.429 137.18 268.996 137.305 269.467 137.614C269.937 137.922 270.278 138.393 270.424 138.936V139.048C271.37 142.621 272.574 146.12 274.024 149.52C274.644 151.016 275.45 152.427 276.424 153.72C276.739 154.141 277.133 154.497 277.584 154.768C277.896 154.904 277.856 154.768 277.848 154.768C278.409 154.527 278.983 154.319 279.568 154.144C280.368 153.816 281.24 153.52 282.064 153.16C283.728 152.488 285.368 151.688 286.992 150.88C288.616 150.072 290.192 149.184 291.792 148.256C292.592 147.808 293.392 147.336 294.136 146.856L296.344 145.44L296.528 145.32C297.538 144.65 298.771 144.405 299.961 144.637C301.151 144.869 302.202 145.559 302.886 146.559C303.571 147.559 303.835 148.789 303.622 149.982C303.408 151.175 302.733 152.236 301.744 152.936L301.816 152.952Z" fill="#FFB573"/>
<path d="M270.72 142.656L270.96 136L263.536 138.352C263.443 139.595 263.747 140.836 264.406 141.895C265.065 142.953 266.043 143.775 267.2 144.24L270.72 142.656Z" fill="#FFB573"/>
<path d="M266.768 132.072L264.048 134.176C263.799 134.368 263.603 134.62 263.477 134.908C263.351 135.196 263.3 135.511 263.328 135.824L263.536 138.352L270.96 136L269.656 132.84C269.545 132.573 269.375 132.335 269.157 132.144C268.94 131.954 268.681 131.816 268.402 131.742C268.123 131.667 267.83 131.659 267.546 131.716C267.263 131.773 266.997 131.895 266.768 132.072V132.072Z" fill="#FFB573"/>
<path d="M300.84 141.4C295.648 142.288 290.192 147.904 290.192 147.904C290.192 147.904 291.52 154.016 292.592 160.104C306.32 158.336 310.656 139.728 300.84 141.4Z" fill="#407BFF"/>
<path d="M294.744 148.896C295.6 164.762 295.6 180.662 294.744 196.528L327.296 198.928C330.152 181.84 329.6 165.64 329.912 149.456C330 144.808 328.624 140.536 323.992 140.096C322.28 139.936 318.392 139.888 316.88 139.92C312.31 139.973 307.748 140.293 303.216 140.88C302.24 141.048 301.272 141.24 300.36 141.456C298.694 141.829 297.214 142.782 296.185 144.145C295.157 145.507 294.646 147.191 294.744 148.896V148.896Z" fill="#407BFF"/>
<path opacity="0.2" d="M322.784 149.408C322.784 149.408 325.072 156.896 329.768 158.616C329.768 155.632 329.816 152.648 329.872 149.672L322.784 149.408Z" fill="black"/>
<path d="M294.792 194.264C294.792 194.264 271.296 216.92 263.24 233.688C254.864 251.128 239.728 284.28 239.728 284.28L244.704 286.768C244.704 286.768 273.568 249.216 275.496 239.008C286.024 221.176 312.6 212.952 317.152 197.64C307.488 194.768 294.792 194.264 294.792 194.264Z" fill="#FFB573"/>
<path d="M305.464 196.528C305.464 196.528 301.912 228.584 302.984 246.408C304.168 265.936 314.184 301.256 314.184 301.256L318.984 301.008C318.984 301.008 320.432 270.904 314.92 249.368C318.12 235.088 327.512 214.168 327.24 198.92C320.052 197.576 312.772 196.776 305.464 196.528Z" fill="#FFB573"/>
<path d="M322.264 300.752C321.064 299.624 319.416 298.352 319.16 295.208C319.16 295.208 313.432 297.84 313.832 300.008C314.232 302.176 314.128 309.12 310.336 313.472C309.808 314.08 311.392 314.784 313.144 314.128C316.12 313.016 316.384 311.904 317.144 309.384C317.8 307.224 321.056 304.968 322.368 303.736C323.464 302.68 323.464 301.88 322.264 300.752Z" fill="#FFB573"/>
<path d="M243.32 291.2C244.008 289.712 243.8 287.592 245.552 285.36C245.552 285.36 242.352 281.408 240.712 282.848C239.072 284.288 234.312 285.448 228.84 283.648C228.04 283.392 227.608 285.712 229.304 286.488C232.12 287.776 234.2 288.688 236.6 289.784C238.648 290.72 239 291.384 240.544 292.272C241.864 292.984 242.624 292.728 243.32 291.2Z" fill="#FFB573"/>
<path d="M305.92 140.96C309.84 139.36 309.496 135.936 308.528 132.752L316.976 125.16C316.328 129.664 315.552 137.088 318.824 139.904C318.824 139.904 316.976 146.024 308.048 147.584C304.552 146.248 303.624 141.736 305.92 140.96Z" fill="#FFB573"/>
<path opacity="0.2" d="M313.344 128.2L308.544 132.744C308.801 133.526 308.985 134.329 309.096 135.144C310.384 135.256 313.832 133.384 313.896 131.384C313.87 130.301 313.684 129.228 313.344 128.2V128.2Z" fill="black"/>
<path d="M337.72 111.344L333.84 105.288L341.392 103.392C341.392 103.392 343.792 109.456 341.392 111.008L337.72 111.344Z" fill="#FFB573"/>
<path d="M323.536 141.528L323.976 141.344L324.52 141.096L325.64 140.56C326.384 140.184 327.128 139.76 327.856 139.344C329.309 138.493 330.707 137.55 332.04 136.52C333.348 135.498 334.575 134.377 335.712 133.168C336.264 132.56 336.784 131.936 337.312 131.296L337.968 130.408C338.117 130.195 338.248 129.97 338.36 129.736C338.465 129.511 338.553 129.278 338.624 129.04C338.712 128.743 338.766 128.437 338.784 128.128C338.88 127.264 338.984 126.4 339.016 125.536C339.048 124.672 339.08 123.792 339.096 122.92C339.112 122.048 339.096 121.168 338.992 120.296C338.868 118.537 338.625 116.789 338.264 115.064C338.08 114.2 337.896 113.328 337.64 112.488C337.528 112.064 337.384 111.648 337.248 111.232L336.856 110.088L336.736 109.76C336.551 109.242 336.559 108.675 336.759 108.163C336.959 107.651 337.338 107.228 337.825 106.973C338.312 106.717 338.875 106.647 339.41 106.774C339.945 106.901 340.416 107.217 340.736 107.664C341.128 108.2 341.4 108.592 341.696 109.064C341.992 109.536 342.24 109.968 342.496 110.432C343.008 111.352 343.456 112.296 343.88 113.256C344.693 115.187 345.333 117.187 345.792 119.232C346.266 121.286 346.566 123.376 346.688 125.48C346.76 126.536 346.76 127.584 346.752 128.68C346.766 129.333 346.721 129.987 346.616 130.632C346.5 131.336 346.326 132.029 346.096 132.704C345.859 133.366 345.576 134.01 345.248 134.632L344.984 135.096L344.768 135.464L344.336 136.168C343.748 137.105 343.107 138.008 342.416 138.872C341.056 140.585 339.537 142.165 337.88 143.592C336.246 145.004 334.496 146.275 332.648 147.392C331.72 147.936 330.776 148.456 329.8 148.936C329.312 149.176 328.824 149.408 328.312 149.632L327.512 149.952L326.608 150.288C325.477 150.696 324.231 150.647 323.136 150.15C322.041 149.654 321.183 148.75 320.744 147.63C320.305 146.511 320.321 145.265 320.787 144.156C321.253 143.048 322.133 142.165 323.24 141.696L323.536 141.528Z" fill="#FFB573"/>
<path d="M319.736 139.904C323.56 139.904 330.672 136.88 330.672 136.88C330.672 136.88 334.872 144.624 335.472 148.688C333.037 152.296 329.413 154.935 325.232 156.144C320.568 153.696 318.448 147.584 319.736 139.904Z" fill="#407BFF"/>
<path d="M283.28 232.992C283.28 232.992 273.952 229.168 268.688 222.592C274.608 211.264 288.384 195.2 292.44 194.008C292.95 192.693 293.546 191.413 294.224 190.176L320.624 194.104C319.2 206.92 291.544 226.632 283.28 232.992Z" fill="#263238"/>
<path opacity="0.2" d="M302.84 206.664C299.224 208.312 295.64 217.256 294.56 224.336C299.914 220.162 305.017 215.674 309.84 210.896C306.92 208.576 303.56 206.344 302.84 206.664Z" fill="black"/>
<path d="M301.648 235.272C301.648 235.272 308.496 237.176 320.568 235.064C322.776 222.952 331.512 204.064 328.672 198.48C329.232 197.223 329.356 195.815 329.024 194.48L296.464 190.48C293.792 194.528 301.36 223.2 301.648 235.272Z" fill="#263238"/>
<path d="M334.4 99.712L338.52 98.912C338.812 98.859 339.114 98.91 339.373 99.0561C339.631 99.2023 339.831 99.4343 339.936 99.712L341.36 103.416L333.808 105.312L333.392 101.088C333.354 100.774 333.437 100.456 333.624 100.201C333.811 99.9454 334.089 99.7706 334.4 99.712V99.712Z" fill="#FFB573"/>
<path d="M308.8 111.288C303.616 110.736 301.224 113.84 304.536 119.896C308.688 114.072 308.8 111.288 308.8 111.288Z" fill="#263238"/>
<path d="M320.728 120.48C319.224 126.344 318.64 129.848 315.056 132.32C309.672 136.032 302.872 131.904 302.6 125.712C302.352 120.112 304.848 111.496 311.112 110.248C312.49 109.968 313.918 110.045 315.258 110.472C316.598 110.898 317.807 111.66 318.771 112.685C319.734 113.71 320.419 114.964 320.762 116.328C321.104 117.692 321.093 119.122 320.728 120.48Z" fill="#FFB573"/>
<path d="M319.432 126.128L315.056 123.728C315.056 123.728 315.672 120.088 317.968 118.8C315.976 117.696 314.648 114.84 314.768 113.512C311.64 114.312 307.056 113.76 305.168 112.632C301.736 110.56 301.872 106.56 304.488 105.04C305.344 107.696 306.712 109.088 309.944 107.568C313.176 106.048 317.688 105.496 319.392 108.032C321.096 110.568 325.28 108.528 327.592 110.704C328.136 111.159 328.547 111.753 328.781 112.423C329.015 113.093 329.063 113.813 328.922 114.508C328.78 115.204 328.453 115.847 327.975 116.372C327.497 116.896 326.887 117.282 326.208 117.488C330.2 120.672 326.616 125.44 319.432 126.128Z" fill="#263238"/>
<path d="M324.488 117.184C325.628 116.982 326.802 117.207 327.788 117.815C328.773 118.422 329.5 119.371 329.832 120.48C328.528 119.152 325.984 117.256 324.488 117.184Z" fill="#263238"/>
<path d="M324.8 117.112C325.583 117.584 326.513 117.752 327.412 117.582C328.31 117.412 329.115 116.917 329.672 116.192C328.328 116.8 325.912 117.488 324.8 117.112Z" fill="#263238"/>
<path d="M322.256 125.768C321.391 127.026 320.062 127.89 318.56 128.168C316.576 128.512 315.784 126.688 316.504 124.92C317.152 123.32 318.968 121.224 320.88 121.72C322.792 122.216 323.304 124.224 322.256 125.768Z" fill="#FFB573"/>
<path d="M311.416 120.408C311.32 120.888 310.992 121.208 310.672 121.208C310.352 121.208 310.176 120.704 310.272 120.224C310.368 119.744 310.696 119.424 311.008 119.424C311.32 119.424 311.504 119.928 311.416 120.408Z" fill="#263238"/>
<path d="M305.952 119.36C305.864 119.84 305.528 120.16 305.216 120.16C304.904 120.16 304.72 119.656 304.808 119.168C304.896 118.68 305.24 118.368 305.552 118.408C305.864 118.448 306.048 118.88 305.952 119.36Z" fill="#263238"/>
<path d="M307.456 119.896C306.598 121.261 305.556 122.502 304.36 123.584C304.645 123.883 304.991 124.117 305.375 124.269C305.759 124.421 306.172 124.487 306.584 124.464L307.456 119.896Z" fill="#ED893E"/>
<path d="M308.48 126.464C308.115 126.483 307.75 126.456 307.392 126.384C307.354 126.376 307.321 126.355 307.299 126.324C307.277 126.292 307.267 126.254 307.272 126.216C307.276 126.197 307.283 126.179 307.294 126.163C307.305 126.146 307.319 126.133 307.336 126.122C307.352 126.112 307.371 126.105 307.39 126.102C307.409 126.099 307.429 126.099 307.448 126.104C308.045 126.234 308.665 126.221 309.256 126.065C309.847 125.909 310.393 125.616 310.848 125.208C310.875 125.18 310.911 125.165 310.949 125.164C310.987 125.163 311.024 125.177 311.052 125.204C311.08 125.231 311.095 125.267 311.096 125.305C311.097 125.343 311.083 125.38 311.056 125.408C310.351 126.057 309.437 126.432 308.48 126.464V126.464Z" fill="#263238"/>
<path d="M314.4 118.168C314.344 118.161 314.291 118.138 314.248 118.103C314.204 118.068 314.171 118.021 314.152 117.968C314.053 117.619 313.873 117.298 313.627 117.032C313.381 116.765 313.076 116.559 312.736 116.432C312.663 116.411 312.601 116.363 312.564 116.297C312.526 116.231 312.516 116.153 312.536 116.08C312.545 116.043 312.562 116.009 312.585 115.979C312.608 115.949 312.636 115.923 312.669 115.905C312.702 115.886 312.738 115.874 312.776 115.87C312.814 115.866 312.852 115.869 312.888 115.88C313.322 116.029 313.714 116.28 314.031 116.613C314.347 116.946 314.578 117.351 314.704 117.792C314.716 117.828 314.721 117.866 314.719 117.903C314.716 117.941 314.706 117.978 314.689 118.011C314.672 118.045 314.648 118.075 314.619 118.099C314.59 118.123 314.556 118.141 314.52 118.152C314.481 118.165 314.441 118.171 314.4 118.168V118.168Z" fill="#263238"/>
<path d="M304.176 115.76C304.109 115.746 304.05 115.709 304.008 115.656C303.984 115.626 303.966 115.592 303.956 115.555C303.945 115.518 303.942 115.48 303.946 115.442C303.951 115.404 303.963 115.367 303.982 115.334C304 115.301 304.026 115.271 304.056 115.248C304.405 114.951 304.821 114.743 305.269 114.643C305.716 114.542 306.181 114.552 306.624 114.672C306.66 114.683 306.694 114.701 306.723 114.725C306.752 114.749 306.776 114.779 306.793 114.813C306.81 114.846 306.82 114.883 306.823 114.921C306.825 114.958 306.82 114.996 306.808 115.032C306.784 115.104 306.733 115.163 306.666 115.198C306.598 115.232 306.52 115.239 306.448 115.216C306.095 115.13 305.727 115.128 305.374 115.212C305.021 115.295 304.693 115.461 304.416 115.696C304.383 115.723 304.344 115.743 304.303 115.754C304.261 115.765 304.218 115.767 304.176 115.76V115.76Z" fill="#263238"/>
<path d="M197.8 273.616H183.808L181.608 226.312H200L197.8 273.616Z" fill="#407BFF"/>
<path opacity="0.2" d="M199.288 241.6C196.868 243.5 193.881 244.533 190.804 244.533C187.727 244.533 184.74 243.5 182.32 241.6V241.6L181.6 226.32H200L199.288 241.6Z" fill="black"/>
<path d="M149.6 202.344C130.184 202.344 111.72 187.816 106.64 168.552L97.6 134.208C96.7614 131.301 96.6067 128.239 97.148 125.262C97.6892 122.285 98.9118 119.474 100.72 117.048C102.517 114.761 104.82 112.92 107.447 111.671C110.075 110.422 112.955 109.798 115.864 109.848H143.52C145.244 109.908 146.878 110.635 148.077 111.876C149.275 113.117 149.945 114.775 149.945 116.5C149.945 118.225 149.275 119.883 148.077 121.124C146.878 122.365 145.244 123.092 143.52 123.152H115.872C115.001 123.098 114.129 123.252 113.328 123.599C112.527 123.947 111.82 124.479 111.264 125.152C110.703 125.967 110.339 126.902 110.2 127.882C110.061 128.862 110.152 129.861 110.464 130.8L119.52 165.152C123.048 178.536 136.272 189.024 149.616 189.024C150.509 188.993 151.399 189.142 152.233 189.463C153.067 189.783 153.828 190.268 154.471 190.889C155.114 191.509 155.625 192.253 155.974 193.076C156.323 193.898 156.503 194.783 156.503 195.676C156.503 196.57 156.323 197.454 155.974 198.276C155.625 199.099 155.114 199.843 154.471 200.463C153.828 201.084 153.067 201.569 152.233 201.889C151.399 202.21 150.509 202.359 149.616 202.328L149.6 202.344Z" fill="#407BFF"/>
<path d="M232 202.344C231.107 202.375 230.217 202.226 229.383 201.905C228.549 201.585 227.788 201.1 227.145 200.479C226.502 199.859 225.991 199.115 225.642 198.292C225.293 197.47 225.113 196.586 225.113 195.692C225.113 194.799 225.293 193.914 225.642 193.092C225.991 192.269 226.502 191.525 227.145 190.905C227.788 190.284 228.549 189.799 229.383 189.479C230.217 189.158 231.107 189.009 232 189.04C245.344 189.04 258.568 178.552 262.096 165.168L271.144 130.816C271.456 129.877 271.547 128.878 271.408 127.898C271.269 126.918 270.905 125.983 270.344 125.168C269.788 124.495 269.081 123.963 268.28 123.615C267.479 123.268 266.607 123.114 265.736 123.168H238.088C237.195 123.199 236.305 123.05 235.471 122.73C234.637 122.409 233.876 121.924 233.233 121.303C232.59 120.683 232.079 119.939 231.73 119.116C231.381 118.294 231.201 117.41 231.201 116.516C231.201 115.623 231.381 114.738 231.73 113.916C232.079 113.093 232.59 112.349 233.233 111.729C233.876 111.108 234.637 110.623 235.471 110.303C236.305 109.982 237.195 109.833 238.088 109.864H265.736C268.645 109.815 271.525 110.439 274.152 111.688C276.78 112.937 279.082 114.777 280.88 117.064C282.688 119.49 283.911 122.301 284.452 125.278C284.993 128.255 284.839 131.317 284 134.224L274.952 168.568C269.872 187.816 251.4 202.344 232 202.344Z" fill="#407BFF"/>
<g opacity="0.2">
<path opacity="0.2" d="M150.168 116.52C150.168 114.756 149.468 113.064 148.221 111.816C146.975 110.568 145.284 109.866 143.52 109.864H120.376L121.976 123.168H143.52C145.283 123.168 146.974 122.468 148.221 121.221C149.468 119.974 150.168 118.283 150.168 116.52V116.52Z" fill="black"/>
<path opacity="0.2" d="M149.6 189.04C142.072 189.04 134.592 185.712 128.856 180.4L129.792 188.152C130.205 191.6 130.92 195.005 131.928 198.328C137.458 200.931 143.489 202.296 149.6 202.328C150.493 202.359 151.383 202.21 152.217 201.89C153.051 201.569 153.812 201.084 154.455 200.463C155.098 199.843 155.609 199.099 155.958 198.276C156.307 197.454 156.487 196.57 156.487 195.676C156.487 194.783 156.307 193.898 155.958 193.076C155.609 192.253 155.098 191.509 154.455 190.889C153.812 190.268 153.051 189.783 152.217 189.463C151.383 189.142 150.493 188.993 149.6 189.024V189.04Z" fill="black"/>
<path opacity="0.2" d="M225.336 195.696C225.338 197.459 226.039 199.148 227.285 200.395C228.532 201.641 230.221 202.342 231.984 202.344C238.098 202.312 244.132 200.947 249.664 198.344C250.672 195.021 251.387 191.616 251.8 188.168L252.728 180.416C247 185.728 239.52 189.056 231.984 189.056C230.223 189.058 228.534 189.758 227.288 191.003C226.042 192.247 225.34 193.935 225.336 195.696V195.696Z" fill="black"/>
<path opacity="0.2" d="M238.088 109.864C236.364 109.924 234.73 110.651 233.531 111.892C232.333 113.133 231.663 114.791 231.663 116.516C231.663 118.241 232.333 119.899 233.531 121.14C234.73 122.381 236.364 123.108 238.088 123.168H259.624L261.224 109.864H238.088Z" fill="black"/>
</g>
<path d="M184.928 92.696H179.264V93.496H184.928V92.696Z" fill="#407BFF"/>
<path d="M174.336 92.696H154V93.496H174.336V92.696Z" fill="#407BFF"/>
<path d="M190.8 235.352C176.877 235.352 163.463 230.114 153.224 220.679C142.985 211.243 136.671 198.301 135.536 184.424L128.584 99.352C128.543 98.8609 128.604 98.3666 128.764 97.9005C128.924 97.4343 129.179 97.0065 129.513 96.644C129.847 96.2816 130.253 95.9924 130.704 95.7947C131.156 95.5971 131.643 95.4954 132.136 95.496H249.472C249.964 95.4966 250.451 95.5991 250.902 95.7972C251.353 95.9952 251.758 96.2844 252.092 96.6466C252.426 97.0088 252.681 97.4362 252.841 97.9018C253.001 98.3674 253.064 98.8611 253.024 99.352L246.072 184.424C244.935 198.302 238.619 211.244 228.379 220.679C218.139 230.114 204.724 235.352 190.8 235.352V235.352Z" fill="#407BFF"/>
<path opacity="0.1" d="M172.888 220C173.123 220.226 173.272 220.528 173.307 220.853C173.343 221.177 173.263 221.504 173.082 221.776C172.9 222.047 172.63 222.247 172.316 222.339C172.003 222.431 171.667 222.41 171.368 222.28C163.853 218.827 157.392 213.436 152.649 206.661C147.905 199.886 145.05 191.971 144.376 183.728L138.072 106.688C138.049 106.397 138.086 106.105 138.181 105.829C138.276 105.553 138.427 105.3 138.625 105.085C138.822 104.87 139.062 104.699 139.329 104.581C139.596 104.463 139.884 104.401 140.176 104.4H149.736C150.269 104.399 150.782 104.599 151.172 104.962C151.563 105.324 151.802 105.821 151.84 106.352L157.976 187.152C158.825 199.516 164.099 211.16 172.832 219.952L172.888 220Z" fill="white"/>
<path d="M219.296 290.48H162.312C161.953 290.479 161.599 290.399 161.274 290.246C160.95 290.093 160.663 289.87 160.434 289.594C160.205 289.318 160.039 288.994 159.949 288.647C159.859 288.3 159.846 287.937 159.912 287.584L161.696 278.104C162.121 275.845 163.322 273.805 165.091 272.337C166.859 270.869 169.085 270.065 171.384 270.064H210.224C212.523 270.065 214.749 270.869 216.518 272.337C218.286 273.805 219.487 275.845 219.912 278.104L221.696 287.584C221.762 287.937 221.749 288.3 221.659 288.647C221.569 288.994 221.403 289.318 221.174 289.594C220.945 289.87 220.658 290.093 220.334 290.246C220.009 290.399 219.655 290.479 219.296 290.48Z" fill="#407BFF"/>
<path opacity="0.2" d="M221.696 287.584H159.912C159.846 287.937 159.859 288.3 159.949 288.647C160.039 288.994 160.205 289.318 160.434 289.594C160.663 289.87 160.95 290.093 161.274 290.246C161.599 290.399 161.953 290.479 162.312 290.48H219.296C219.655 290.479 220.009 290.399 220.334 290.246C220.658 290.093 220.945 289.87 221.174 289.594C221.403 289.318 221.569 288.994 221.659 288.647C221.749 288.3 221.762 287.937 221.696 287.584Z" fill="black"/>
<path d="M236.88 290.48H144.72C143.377 290.48 142.288 291.569 142.288 292.912V328.56C142.288 329.903 143.377 330.992 144.72 330.992H236.88C238.223 330.992 239.312 329.903 239.312 328.56V292.912C239.312 291.569 238.223 290.48 236.88 290.48Z" fill="#407BFF"/>
<path opacity="0.7" d="M236.88 290.48H144.72C143.377 290.48 142.288 291.569 142.288 292.912V328.56C142.288 329.903 143.377 330.992 144.72 330.992H236.88C238.223 330.992 239.312 329.903 239.312 328.56V292.912C239.312 291.569 238.223 290.48 236.88 290.48Z" fill="white"/>
<path d="M111.896 178.008C109.736 166.808 127.824 163.432 135.968 170.576C143.92 177.552 139.776 183.68 151.088 181.84C162.4 180 163.552 190.84 157.632 194.792C151.712 198.744 161.168 206.888 151.16 210.392C138.776 214.736 127.16 210.8 118.808 206.68C110.456 202.56 101.968 183.072 111.896 178.008Z" fill="#263238"/>
<path d="M148.048 246.096C148.048 246.096 186.776 267.36 184.752 280.8C179.808 311.088 179.672 327.128 179.672 327.128H174.248C174.248 327.128 169.104 296.824 171.848 281.352C168.472 274.416 126.888 275.856 129.704 246.064L148.048 246.096Z" fill="#263238"/>
<path opacity="0.2" d="M129.848 252.512C131.448 263.84 140.784 269.464 150.256 272.992C143.256 265.064 135.28 256.576 129.848 252.512Z" fill="black"/>
<path d="M180.136 326.12H173.8C173.666 326.115 173.536 326.161 173.435 326.249C173.334 326.336 173.27 326.459 173.256 326.592L172.616 331.792C172.612 331.953 172.64 332.113 172.699 332.263C172.758 332.413 172.846 332.549 172.959 332.664C173.071 332.779 173.206 332.87 173.355 332.932C173.503 332.994 173.663 333.025 173.824 333.024C176.608 332.976 177.952 332.824 181.472 332.824C183.632 332.824 184.952 333.048 187.944 333.048C190.936 333.048 190.944 330.184 189.68 329.92C184.08 328.744 183.28 328.096 181.344 326.56C181.002 326.282 180.577 326.127 180.136 326.12V326.12Z" fill="#263238"/>
<path d="M144.208 204.632C145.936 205.168 147.76 205.744 149.544 206.232C151.328 206.72 153.136 207.288 154.928 207.736C156.72 208.184 158.52 208.616 160.288 208.952C161.16 209.104 162.048 209.272 162.896 209.368L163.536 209.456L164.152 209.504L164.76 209.552H164.864C164.864 209.552 164.784 209.608 164.816 209.616C164.848 209.624 164.936 209.568 165.064 209.392C165.399 208.863 165.643 208.282 165.784 207.672C166.185 206.009 166.41 204.309 166.456 202.6C166.552 200.792 166.536 198.936 166.456 197.08C166.376 195.224 166.264 193.312 166.12 191.48V191.416C166.093 190.985 166.225 190.56 166.491 190.22C166.757 189.881 167.138 189.651 167.562 189.574C167.987 189.497 168.425 189.578 168.793 189.803C169.161 190.027 169.434 190.379 169.56 190.792C170.679 194.615 171.408 198.542 171.736 202.512C171.927 204.645 171.862 206.794 171.544 208.912C171.342 210.193 170.929 211.431 170.32 212.576C169.913 213.318 169.37 213.977 168.72 214.52C167.959 215.152 167.056 215.588 166.088 215.792C165.856 215.84 165.608 215.88 165.384 215.904H165.04H163.12L162.32 215.864C161.256 215.816 160.248 215.688 159.224 215.56C157.208 215.296 155.224 214.928 153.312 214.488C149.458 213.647 145.656 212.578 141.928 211.288C141.081 210.963 140.391 210.325 140.001 209.505C139.611 208.686 139.551 207.747 139.834 206.885C140.117 206.023 140.72 205.302 141.519 204.872C142.319 204.442 143.253 204.336 144.128 204.576L144.208 204.632Z" fill="#803E3C"/>
<path d="M168.272 186.48L163.616 189.68C163.616 189.68 163.952 190.248 164.816 191.632C165.68 193.016 167.12 193.864 168.424 192.992C171.664 191.368 168.272 186.48 168.272 186.48Z" fill="#7F3E3B"/>
<path d="M163.704 186.928L164.72 185.704C164.896 185.491 165.116 185.32 165.366 185.202C165.615 185.084 165.888 185.023 166.164 185.023C166.44 185.023 166.713 185.084 166.962 185.202C167.212 185.32 167.432 185.491 167.608 185.704L168.272 186.504L163.616 189.704L163.344 188.664C163.256 188.367 163.243 188.054 163.305 187.751C163.368 187.448 163.505 187.165 163.704 186.928Z" fill="#7F3E3B"/>
<path d="M149.656 212.264C149.976 218.096 149.464 228.096 148.056 246.096H119.736C120.184 235.304 119.52 231.288 113.152 211.28C112.999 210.798 112.947 210.291 112.998 209.788C113.049 209.286 113.203 208.799 113.45 208.358C113.696 207.917 114.031 207.532 114.432 207.225C114.834 206.919 115.294 206.698 115.784 206.576C118.395 205.906 121.038 205.372 123.704 204.976C127.904 204.3 132.147 203.926 136.4 203.856C138.064 203.856 139.8 203.928 141.408 204.024C143.556 204.143 145.584 205.049 147.106 206.569C148.627 208.089 149.535 210.117 149.656 212.264V212.264Z" fill="#7F3E3B"/>
<path opacity="0.2" d="M116.36 212.24C116.79 215.074 116.665 217.965 115.992 220.752C115.456 218.84 114.856 216.792 114.176 214.552L116.36 212.24Z" fill="black"/>
<path opacity="0.2" d="M135.512 218.032C135.512 215.344 132.024 211.984 129.584 211.432C131.344 212.424 134.624 215.944 135.512 218.032Z" fill="black"/>
<path d="M123.688 190.6C124.848 194.6 126.312 202.024 123.688 205C123.688 205 125.176 209.048 132.768 208.376C141.112 207.632 136.384 203.88 136.384 203.88C131.736 203.192 131.584 199.808 132.064 196.56L123.688 190.6Z" fill="#7F3E3B"/>
<path opacity="0.2" d="M127.104 193.032L132.064 196.56C131.936 197.316 131.874 198.081 131.88 198.848C130.112 198.744 127.552 197.048 127.208 195.24C127.037 194.517 127.002 193.768 127.104 193.032V193.032Z" fill="black"/>
<path d="M117.2 186.16C120.504 192.168 121.776 194.784 126.4 196.488C133.36 199.04 140 193.672 138.584 186.792C137.28 180.6 132.096 171.808 124.872 172.208C123.279 172.289 121.733 172.776 120.381 173.623C119.029 174.47 117.916 175.648 117.148 177.046C116.379 178.444 115.98 180.015 115.99 181.61C115.999 183.205 116.415 184.771 117.2 186.16Z" fill="#7F3E3B"/>
<path d="M114.856 177.552C117.656 173.728 122.056 181.872 122.576 184.44C123.096 187.008 121.904 190.624 117.904 190.336C113.904 190.048 111.856 181.656 114.856 177.552Z" fill="#263238"/>
<path d="M114.288 176.552C120.224 179.464 123.672 177.768 126.072 176.264C128.472 174.76 137.008 175.6 135.072 173.664C133.136 171.728 130.152 170 125.272 170.76C120.392 171.52 114.288 176.552 114.288 176.552Z" fill="#263238"/>
<path d="M93.536 325.464L87.048 323.68C86.9343 323.648 86.8129 323.658 86.7059 323.708C86.5988 323.758 86.5131 323.845 86.4641 323.952L84.1441 328.952C84.0885 329.077 84.0606 329.212 84.0622 329.348C84.0638 329.484 84.095 329.619 84.1535 329.742C84.2121 329.865 84.2966 329.974 84.4013 330.061C84.506 330.149 84.6284 330.212 84.76 330.248C87.032 330.832 87.96 330.128 90.48 331.688C92.376 332.856 94.9121 332.984 97.8401 332.984C100.304 332.984 100.584 330.416 99.5121 330.216C94.7121 329.32 95.224 327.728 94.392 326.088C94.2994 325.931 94.1757 325.795 94.0285 325.688C93.8813 325.58 93.7137 325.504 93.536 325.464V325.464Z" fill="#263238"/>
<path d="M140.28 246.096C140.28 246.096 136.192 271.184 132.28 291.6C131.688 294.688 130.288 297.816 127.6 299.456C113.648 307.976 93 326.112 93 326.112L87 324.208C87 324.208 106.472 294.176 116.6 292.816C116.6 284.4 108.6 262.968 119.736 246.096H140.28Z" fill="#263238"/>
<path d="M119.36 245.024C119.072 245.172 118.853 245.425 118.747 245.73C118.641 246.036 118.657 246.37 118.792 246.664C119.088 247.104 136.088 247.576 140.512 247.544C144.936 247.512 149.76 247.296 149.48 246.504C149.2 245.712 149.376 244.36 148.784 244.328C148.192 244.296 121.128 244.512 119.36 245.024Z" fill="#407BFF"/>
<path d="M127.056 183.736C127.296 184.24 127.76 184.536 128.088 184.368C128.416 184.2 128.488 183.68 128.256 183.176C128.024 182.672 127.552 182.376 127.224 182.544C126.896 182.712 126.824 183.2 127.056 183.736Z" fill="#263238"/>
<path d="M132.8 181.048C133.032 181.552 133.496 181.848 133.824 181.68C134.152 181.512 134.232 180.984 133.992 180.48C133.752 179.976 133.296 179.68 132.96 179.856C132.624 180.032 132.52 180.544 132.8 181.048Z" fill="#263238"/>
<path d="M132.8 179.952L133.848 179.032C133.848 179.032 133.664 180.264 132.8 179.952Z" fill="#263238"/>
<path d="M131.696 182.44C132.686 183.386 133.8 184.194 135.008 184.84C134.842 185.14 134.613 185.401 134.337 185.606C134.061 185.81 133.744 185.953 133.408 186.024L131.696 182.44Z" fill="#630F0F"/>
<path d="M132.08 189.008C132.353 188.932 132.621 188.836 132.88 188.72C132.9 188.711 132.918 188.697 132.933 188.681C132.948 188.665 132.959 188.645 132.966 188.625C132.974 188.604 132.977 188.582 132.976 188.56C132.975 188.538 132.97 188.516 132.96 188.496C132.951 188.477 132.938 188.46 132.922 188.446C132.906 188.432 132.887 188.422 132.867 188.415C132.847 188.408 132.826 188.406 132.805 188.407C132.784 188.409 132.763 188.414 132.744 188.424C132.124 188.738 131.439 188.902 130.744 188.902C130.049 188.902 129.364 188.738 128.744 188.424C128.708 188.402 128.664 188.395 128.623 188.404C128.581 188.413 128.544 188.437 128.52 188.472C128.498 188.51 128.49 188.554 128.499 188.597C128.508 188.64 128.533 188.678 128.568 188.704C129.652 189.266 130.915 189.375 132.08 189.008V189.008Z" fill="#263238"/>
<path d="M117.824 192C118.776 192.925 120.057 193.434 121.384 193.416C123.136 193.376 123.512 191.68 122.592 190.288C121.792 189.04 119.872 187.544 118.312 188.256C117.975 188.419 117.683 188.663 117.464 188.967C117.244 189.271 117.104 189.624 117.056 189.996C117.007 190.368 117.052 190.745 117.186 191.095C117.321 191.445 117.54 191.756 117.824 192V192Z" fill="#7F3E3B"/>
<path d="M125.016 183.056C125.082 183.036 125.139 182.996 125.181 182.941C125.223 182.887 125.246 182.821 125.248 182.752C125.288 181.24 126.904 180.144 126.92 180.136C126.956 180.112 126.986 180.081 127.01 180.045C127.034 180.009 127.05 179.969 127.059 179.926C127.067 179.884 127.067 179.84 127.058 179.798C127.049 179.756 127.032 179.716 127.008 179.68C126.985 179.644 126.956 179.612 126.92 179.588C126.885 179.564 126.845 179.547 126.803 179.539C126.761 179.53 126.718 179.531 126.676 179.54C126.634 179.549 126.595 179.567 126.56 179.592C126.48 179.64 124.64 180.888 124.592 182.736C124.591 182.779 124.598 182.822 124.614 182.862C124.629 182.902 124.653 182.939 124.682 182.97C124.712 183.001 124.748 183.027 124.787 183.044C124.826 183.061 124.869 183.071 124.912 183.072L125.016 183.056Z" fill="#263238"/>
<path d="M134.016 177.008C134.069 176.991 134.118 176.96 134.157 176.92C134.196 176.879 134.224 176.83 134.24 176.776C134.251 176.734 134.253 176.69 134.247 176.647C134.241 176.604 134.226 176.563 134.204 176.526C134.181 176.489 134.152 176.456 134.117 176.431C134.082 176.405 134.042 176.386 134 176.376C133.501 176.233 132.974 176.213 132.465 176.319C131.956 176.425 131.481 176.653 131.08 176.984C131.05 177.014 131.025 177.051 131.009 177.09C130.992 177.13 130.984 177.173 130.984 177.216C130.984 177.259 130.992 177.302 131.009 177.342C131.025 177.381 131.05 177.418 131.08 177.448C131.11 177.479 131.146 177.504 131.186 177.522C131.226 177.539 131.269 177.548 131.312 177.548C131.355 177.548 131.398 177.539 131.438 177.522C131.478 177.504 131.514 177.479 131.544 177.448V177.448C131.868 177.195 132.247 177.022 132.65 176.943C133.053 176.864 133.469 176.88 133.864 176.992C133.913 177.009 133.965 177.015 134.016 177.008V177.008Z" fill="#263238"/>
<path d="M118.64 213.104C116.152 215.84 113.64 218.776 111.344 221.712C110.192 223.184 109.104 224.696 108.144 226.208C107.18 227.619 106.36 229.122 105.696 230.696C105.45 231.261 105.289 231.86 105.216 232.472V232.688C105.217 232.712 105.217 232.736 105.216 232.76L105.28 233.016L105.408 233.528L105.6 234.12C106.215 235.833 106.92 237.513 107.712 239.152C109.312 242.576 111.128 246.024 112.864 249.464C113.06 249.849 113.108 250.292 112.999 250.71C112.89 251.128 112.63 251.491 112.271 251.73C111.911 251.969 111.476 252.067 111.049 252.007C110.621 251.946 110.231 251.73 109.952 251.4C107.364 248.363 104.983 245.156 102.824 241.8C101.681 240.055 100.668 238.229 99.792 236.336L99.456 235.536C99.352 235.256 99.256 234.952 99.152 234.656L99.008 234.216C98.96 234.032 98.904 233.776 98.864 233.568C98.8032 233.157 98.7685 232.743 98.76 232.328C98.7817 230.993 99.0167 229.669 99.456 228.408C100.196 226.341 101.151 224.357 102.304 222.488C103.384 220.696 104.552 219.024 105.752 217.392C106.952 215.76 108.192 214.192 109.496 212.648C110.8 211.104 112.096 209.64 113.544 208.144C113.862 207.806 114.243 207.534 114.666 207.344C115.089 207.153 115.545 207.048 116.009 207.034C116.472 207.02 116.934 207.097 117.368 207.262C117.801 207.426 118.198 207.674 118.536 207.992C118.874 208.31 119.146 208.691 119.336 209.114C119.527 209.537 119.632 209.993 119.646 210.456C119.66 210.92 119.583 211.382 119.418 211.816C119.254 212.249 119.006 212.646 118.688 212.984L118.64 213.104Z" fill="#803E3C"/>
<path d="M127.096 182.64L128.136 181.72C128.136 181.72 128 182.96 127.096 182.64Z" fill="#263238"/>
<path d="M112.216 248.592L119.144 251.392L112.928 254.68C112.928 254.68 109.216 252.24 109.472 249.376L112.216 248.592Z" fill="#7F3E3B"/>
<path d="M120.64 257.072L117.64 258.456C117.365 258.583 117.056 258.617 116.759 258.556C116.463 258.494 116.194 258.338 115.992 258.112L112.928 254.68L119.144 251.392L121.272 255.088C121.37 255.258 121.432 255.446 121.453 255.641C121.474 255.836 121.454 256.033 121.394 256.22C121.335 256.406 121.237 256.579 121.107 256.725C120.977 256.872 120.818 256.99 120.64 257.072V257.072Z" fill="#7F3E3B"/>
<path d="M146.448 208.456C145.32 205.256 144.392 204.28 144.392 204.28C143.482 203.95 142.52 203.785 141.552 203.792C142.784 207.36 146.096 215.904 134.104 216.848C122.112 217.792 117.8 205.712 117.8 205.712C115.656 205.712 114.856 206.472 114.856 206.472C118.528 215.272 122.256 224.072 117.256 226.896C118.104 231.112 118.24 236.496 117.984 241.976C122.84 241 142.248 238.336 150.296 239.368C150.216 233.952 149.968 229.336 149.608 225.416C152.616 221.656 148.24 212 146.448 208.456Z" fill="#407BFF"/>
<path opacity="0.8" d="M146.448 208.456C145.32 205.256 144.392 204.28 144.392 204.28C143.482 203.95 142.52 203.785 141.552 203.792C142.784 207.36 146.096 215.904 134.104 216.848C122.112 217.792 117.8 205.712 117.8 205.712C115.656 205.712 114.856 206.472 114.856 206.472C118.528 215.272 122.256 224.072 117.256 226.896C118.104 231.112 118.24 236.496 117.984 241.976C122.84 241 142.248 238.336 150.296 239.368C150.216 233.952 149.968 229.336 149.608 225.416C152.616 221.656 148.24 212 146.448 208.456Z" fill="#FAFAFA"/>
</svg>
