<svg width="400" height="400" viewBox="0 0 400 400" fill="none" xmlns="http://www.w3.org/2000/svg">
<path d="M249.296 26.456C249.296 26.456 188.544 12.856 132.272 52.336C76 91.816 50.688 160 28.712 214.88C6.73604 269.76 24.664 320.848 70.744 339.728C116.824 358.608 144.856 319.584 207.2 310.568C269.544 301.552 286.944 308.256 336.616 267.968C386.288 227.68 390.496 145.712 345.776 90.648C301.056 35.584 249.296 26.456 249.296 26.456Z" fill="#92E3A9"/>
<path opacity="0.7" d="M249.296 26.456C249.296 26.456 188.544 12.856 132.272 52.336C76 91.816 50.688 160 28.712 214.88C6.73604 269.76 24.664 320.848 70.744 339.728C116.824 358.608 144.856 319.584 207.2 310.568C269.544 301.552 286.944 308.256 336.616 267.968C386.288 227.68 390.496 145.712 345.776 90.648C301.056 35.584 249.296 26.456 249.296 26.456Z" fill="white"/>
<path d="M174.384 153.928L138.968 288.16L178.952 264.168L201.8 297.872L198.944 156.784L174.384 153.928Z" fill="#92E3A9"/>
<path d="M180.544 256.952L147.528 276.768L178.384 159.8L193.672 161.576L196.072 279.848L180.544 256.952Z" fill="white"/>
<path opacity="0.3" d="M199.6 189.056L198.944 156.8L174.4 153.928L166.824 182.64C169.528 188.088 171.384 195.328 176.128 196.872C182.528 198.936 191.048 188.872 198.104 188.872C198.607 188.887 199.108 188.949 199.6 189.056V189.056Z" fill="black"/>
<path d="M223.192 154.952L279.632 281.784L242.36 262.952L219.168 301.424L199.408 161.704L223.192 154.952Z" fill="#92E3A9"/>
<path d="M205.376 165.584L220.184 161.384L268.6 270.2L240.336 255.912L222.368 285.728L205.376 165.584Z" fill="white"/>
<path opacity="0.3" d="M223.2 154.952L199.416 161.704L203.2 188.376H203.552C210.608 188.376 219.168 198.4 225.536 196.336C230.416 194.736 232.24 187.112 235.08 181.616L223.2 154.952Z" fill="black"/>
<path d="M274.648 120C274.648 127.056 262.384 132.088 260.312 138.448C258.176 145.048 265.064 156.312 261.064 161.808C257.064 167.304 244.16 164.264 238.616 168.296C233.072 172.328 232.112 185.512 225.512 187.648C219.112 189.72 210.584 179.648 203.528 179.648C196.472 179.648 187.92 189.68 181.552 187.648C174.952 185.512 173.936 172.296 168.448 168.296C162.96 164.296 150.048 167.352 145.992 161.808C141.936 156.264 148.888 145.048 146.744 138.456C144.68 132.056 132.416 127.056 132.416 120C132.416 112.944 144.68 107.912 146.744 101.552C148.888 94.952 142 83.688 145.992 78.192C149.984 72.696 162.896 75.736 168.448 71.704C174 67.672 174.952 54.488 181.552 52.352C187.952 50.28 196.472 60.312 203.528 60.312C210.584 60.312 219.144 50.28 225.512 52.352C232.104 54.488 233.12 67.704 238.616 71.704C244.112 75.704 257.016 72.648 261.064 78.192C265.112 83.736 258.176 94.992 260.312 101.544C262.4 107.88 274.648 112.912 274.648 120Z" fill="#92E3A9"/>
<path opacity="0.6" d="M266.888 120C266.888 126.288 255.96 130.768 254.088 136.44C252.176 142.32 258.312 152.352 254.752 157.24C251.192 162.128 239.696 159.432 234.752 163.024C229.808 166.616 228.96 178.36 223.08 180.272C217.408 182.112 209.784 173.176 203.496 173.176C197.208 173.176 189.6 182.08 183.952 180.24C178.072 178.328 177.168 166.56 172.272 162.992C167.376 159.424 155.872 162.152 152.272 157.208C148.672 152.264 154.848 142.288 152.944 136.408C151.096 130.736 140.144 126.256 140.144 119.968C140.144 113.68 151.064 109.2 152.944 103.528C154.848 97.648 148.712 87.616 152.272 82.728C155.832 77.84 167.336 80.536 172.272 76.944C177.208 73.352 178.072 61.608 183.952 59.696C189.616 57.856 197.248 66.792 203.528 66.792C209.808 66.792 217.44 57.856 223.112 59.696C228.992 61.608 229.896 73.376 234.784 76.944C239.672 80.512 251.192 77.744 254.784 82.728C258.376 87.712 252.208 97.648 254.12 103.528C256 109.2 266.888 113.68 266.888 120Z" fill="white"/>
<path d="M203.528 172.8C232.706 172.8 256.36 149.146 256.36 119.968C256.36 90.7897 232.706 67.136 203.528 67.136C174.35 67.136 150.696 90.7897 150.696 119.968C150.696 149.146 174.35 172.8 203.528 172.8Z" fill="white"/>
<path d="M178.352 95.2C184.664 92.096 189.648 90.328 197.736 80.688H217.448V143.376H227.744V158.104H183.448V143.408H194.52V102.32L183.448 107.528L178.352 95.2Z" fill="#263238"/>
<path opacity="0.2" d="M287.368 378.784C328.82 378.784 362.424 372.201 362.424 364.08C362.424 355.959 328.82 349.376 287.368 349.376C245.916 349.376 212.312 355.959 212.312 364.08C212.312 372.201 245.916 378.784 287.368 378.784Z" fill="black"/>
<path d="M356.752 177.152C355.576 171.656 354.92 171.92 348.248 169.824C340.912 167.521 333.294 166.242 325.608 166.024C320.662 165.837 315.716 166.412 310.944 167.728C310.944 167.728 302.56 168.776 296.544 170.128C291.384 180.432 297.208 194.576 297.208 194.576C297.208 194.576 304.536 210.672 304.536 218.92C304.536 227.168 298.248 241.56 297.992 241.952C297.736 242.344 278.624 275.552 273.776 286.84C268.928 298.128 268.808 302.68 271.424 307.128C274.04 311.576 303.88 352.672 303.88 352.672C303.88 352.672 295.88 361.832 292.232 364.192C288.584 366.552 284 366.92 285.6 368.888C287.2 370.856 297.768 371.632 300.648 370.976C303.528 370.32 310.072 364.576 313.864 361.952C317.656 359.328 321.064 357.496 319.624 354.224C318.184 350.952 315.04 348.072 313.736 345.424C312.432 342.776 307.712 335.216 305.096 325.792C302.48 316.368 300.52 310.744 297.504 305.64C294.488 300.536 292.4 298.576 292.4 298.576C292.4 298.576 303.656 288.232 309.68 283C315.704 277.768 321.064 273.448 321.064 273.448C321.064 273.448 341.48 252.504 343.312 247.92C345.144 243.336 350.12 228.944 353.784 216.384C357.448 203.824 357.928 182.648 356.752 177.152Z" fill="#92E3A9" stroke="#263238" stroke-width="0.967197" stroke-linecap="round" stroke-linejoin="round"/>
<path d="M297.208 194.56C297.208 194.56 291.384 180.416 296.544 170.112C295.127 170.41 293.73 170.795 292.36 171.264C287.392 173.096 263.176 183.264 260.688 184.352C258.2 185.44 253.624 189.192 254.8 193.152C255.976 197.112 257.808 198.256 266.184 198.384C274.56 198.512 297.208 194.56 297.208 194.56Z" fill="#263238" stroke="#263238" stroke-width="0.967197" stroke-linecap="round" stroke-linejoin="round"/>
<path d="M279.408 123.104C279.408 123.104 286.864 126.896 287.256 127.552C287.648 128.208 287.128 129.64 286.6 130.688C286.072 131.736 283.2 134.224 281.896 134.744C280.592 135.264 281.632 131.344 281.632 129.144C281.632 126.944 277.832 125.088 277.44 124.04C277.048 122.992 278.4 122.704 279.408 123.104Z" fill="white" stroke="#263238" stroke-width="0.967197" stroke-linecap="round" stroke-linejoin="round"/>
<path d="M265.136 197.44L262.264 198.24C259.384 199.04 254.408 199.416 253.624 198.368C252.84 197.32 250.088 183.448 250.48 175.728C250.872 168.008 262.392 135.024 263.704 132.528C265.016 130.032 276.264 121.928 276.264 121.928C276.264 121.928 277.704 121.536 279.408 123.112C281.112 124.688 285.952 127.952 285.688 129.256C285.424 130.56 282.68 134.496 281.496 135.544C280.312 136.592 278.488 135.544 278.488 135.544C278.488 135.544 277.048 138.024 275.216 138.816C273.384 139.608 269.064 138.68 269.064 138.68C269.064 138.68 265.536 160.672 266.576 169.08C267.616 177.488 269.72 187.272 268.176 191.984" fill="#263238"/>
<path d="M265.136 197.44L262.264 198.24C259.384 199.04 254.408 199.416 253.624 198.368C252.84 197.32 250.088 183.448 250.48 175.728C250.872 168.008 262.392 135.024 263.704 132.528C265.016 130.032 276.264 121.928 276.264 121.928C276.264 121.928 277.704 121.536 279.408 123.112C281.112 124.688 285.952 127.952 285.688 129.256C285.424 130.56 282.68 134.496 281.496 135.544C280.312 136.592 278.488 135.544 278.488 135.544C278.488 135.544 277.048 138.024 275.216 138.816C273.384 139.608 269.064 138.68 269.064 138.68C269.064 138.68 265.536 160.672 266.576 169.08C267.616 177.488 269.72 187.272 268.176 191.984" stroke="#263238" stroke-width="0.967197" stroke-linecap="round" stroke-linejoin="round"/>
<path d="M275.2 138.808C277.032 138.008 278.472 135.536 278.472 135.536C278.472 135.536 280.304 136.584 281.48 135.536C282.656 134.488 285.408 130.56 285.672 129.248C285.936 127.936 281.088 124.672 279.392 123.104C277.696 121.536 276.248 121.92 276.248 121.92C276.248 121.92 264.992 130.04 263.688 132.52C263.368 133.128 262.448 135.536 261.224 138.92C263.411 140.443 265.943 141.397 268.592 141.696C268.864 139.808 269.048 138.648 269.048 138.648C269.048 138.648 273.384 139.592 275.2 138.808Z" fill="white" stroke="#263238" stroke-width="0.967197" stroke-linecap="round" stroke-linejoin="round"/>
<path d="M286.856 130.44C286.856 130.44 288.688 130.96 288.168 132.272C287.648 133.584 285.68 135.016 284.504 134.888C283.328 134.76 283.064 133.184 283.848 131.88C284.632 130.576 286.2 129.912 286.856 130.44Z" fill="white" stroke="#263238" stroke-width="0.967197" stroke-linecap="round" stroke-linejoin="round"/>
<path d="M278.488 135.536C278.488 135.536 277.44 134.352 278.096 133.44C278.752 132.528 280.056 133.176 280.056 133.176L278.096 130.688" stroke="#263238" stroke-width="0.967197" stroke-linecap="round" stroke-linejoin="round"/>
<path d="M294.032 231.072C298.123 231.072 301.44 227.755 301.44 223.664C301.44 219.573 298.123 216.256 294.032 216.256C289.941 216.256 286.624 219.573 286.624 223.664C286.624 227.755 289.941 231.072 294.032 231.072Z" fill="white" stroke="#263238" stroke-width="0.967197" stroke-linecap="round" stroke-linejoin="round"/>
<path d="M292.088 216.4C292.864 214.307 294.091 212.411 295.682 210.845C297.274 209.28 299.19 208.085 301.296 207.344C308.624 204.608 320.56 201.744 327.464 192.68C334.368 183.616 331.872 166.28 331.872 166.28L337.24 167.008C337.24 167.008 336.52 184.336 333.072 193.536C329.624 202.736 319.12 207.936 310.784 209.36C302.448 210.784 295.544 210.648 292.088 216.4Z" fill="white" stroke="#263238" stroke-width="0.967197" stroke-linecap="round" stroke-linejoin="round"/>
<path d="M292.088 216.4C292.088 216.4 291.224 210.504 296.544 204.32C301.864 198.136 310.496 191.384 311.936 185.056C313.376 178.728 311.792 167.8 311.792 167.8L316.392 166.504C317.658 172.23 317.707 178.158 316.536 183.904C314.52 192.816 309.632 197.136 303.592 201.736C297.552 206.336 292.088 216.4 292.088 216.4Z" fill="white" stroke="#263238" stroke-width="0.967197" stroke-linecap="round" stroke-linejoin="round"/>
<path d="M351.384 172.44C349.841 173.713 348.57 175.285 347.649 177.061C346.728 178.837 346.175 180.781 346.024 182.776C345.496 189.584 346.672 207.512 346.672 214.584C346.672 221.656 341.44 232.248 342.224 237.744C343.008 243.24 350.224 249.784 354.136 245.472C358.048 241.16 361.072 227.28 362.512 209.344C363.952 191.408 362.776 179.376 360.552 175.744C358.328 172.112 354.656 169.688 351.384 172.44Z" fill="#263238" stroke="#263238" stroke-width="0.967197" stroke-linecap="round" stroke-linejoin="round"/>
<path d="M355.704 240.104C354.904 244.552 352.432 248.904 349.816 249.784C347.2 250.664 344.216 247.04 340 240.232C335.784 233.424 333.6 225.968 332 218.112C330.581 210.931 329.535 203.681 328.864 196.392C328.728 193.384 328.864 192.592 330.56 190.792C332.256 188.992 338.416 187.52 338.416 187.52L339.464 185.688C339.984 184.776 342.736 184.248 344.04 185.04C345.344 185.832 346.008 190.144 346.008 190.144C346.008 190.144 349.672 192.232 349.672 194.328C349.672 196.424 347.312 198.648 344.696 202.184C342.08 205.72 341.296 204.408 341.032 207.68C340.768 210.952 342.632 215.272 345.872 218.28C349.112 221.288 353.872 224.952 355.168 230.84" fill="#263238"/>
<path d="M355.704 240.104C354.904 244.552 352.432 248.904 349.816 249.784C347.2 250.664 344.216 247.04 340 240.232C335.784 233.424 333.6 225.968 332 218.112C330.581 210.931 329.535 203.681 328.864 196.392C328.728 193.384 328.864 192.592 330.56 190.792C332.256 188.992 338.416 187.52 338.416 187.52L339.464 185.688C339.984 184.776 342.736 184.248 344.04 185.04C345.344 185.832 346.008 190.144 346.008 190.144C346.008 190.144 349.672 192.232 349.672 194.328C349.672 196.424 347.312 198.648 344.696 202.184C342.08 205.72 341.296 204.408 341.032 207.68C340.768 210.952 342.632 215.272 345.872 218.28C349.112 221.288 353.872 224.952 355.168 230.84" stroke="#263238" stroke-width="0.967197" stroke-linecap="round" stroke-linejoin="round"/>
<path d="M341.024 208.368C341.024 208.128 341.024 207.88 341.024 207.648C341.288 204.376 342.072 205.68 344.688 202.152C347.304 198.624 349.664 196.392 349.664 194.296C349.664 192.2 346 190.112 346 190.112C346 190.112 345.344 185.792 344.032 185.008C342.72 184.224 339.976 184.744 339.456 185.656L338.4 187.488C338.4 187.488 332.248 188.928 330.544 190.76C328.84 192.592 328.712 193.384 328.848 196.36C328.928 198.312 329.568 203.56 330.448 209.16C333.979 209.878 337.639 209.604 341.024 208.368V208.368Z" fill="white" stroke="#263238" stroke-width="0.967197" stroke-linecap="round" stroke-linejoin="round"/>
<path d="M343.44 247.544C327.68 242.272 308.152 239.776 299.32 238.848C298.592 240.656 298.064 241.824 297.992 241.936C297.728 242.328 278.624 275.536 273.776 286.824C268.928 298.112 268.808 302.664 271.424 307.112C274.04 311.56 303.88 352.656 303.88 352.656C308.68 352.072 312.96 348.848 314.816 347.256C314.395 346.687 314.02 346.085 313.696 345.456C312.384 342.84 307.672 335.248 305.056 325.824C302.44 316.4 300.48 310.776 297.464 305.672C294.448 300.568 292.36 298.608 292.36 298.608C292.36 298.608 303.616 288.264 309.64 283.032C315.664 277.8 321.024 273.48 321.024 273.48C321.024 273.48 341.44 252.536 343.272 247.952C343.328 247.824 343.376 247.688 343.44 247.544Z" fill="#787878" stroke="#263238" stroke-width="0.967197" stroke-linecap="round" stroke-linejoin="round"/>
<path d="M314.816 347.256C313.312 350.104 307.024 355.536 307.024 355.536C307.024 355.536 305.424 353.832 304.536 352.656C303.84 351.768 303.6 351.992 303.52 352.16L303.88 352.656C303.88 352.656 295.88 361.816 292.232 364.176C288.584 366.536 284 366.92 285.6 368.888C287.2 370.856 297.768 371.632 300.648 370.976C303.528 370.32 310.072 364.576 313.864 361.952C317.656 359.328 321.064 357.496 319.624 354.224C318.464 351.688 316.328 349.384 314.816 347.256Z" fill="#92E3A9" stroke="#263238" stroke-width="0.967197" stroke-linecap="round" stroke-linejoin="round"/>
<path d="M298.512 369.408C295.8 370.112 288.544 368.608 285.312 367.808C285.243 367.989 285.23 368.186 285.274 368.374C285.318 368.562 285.418 368.733 285.56 368.864C287.16 370.824 297.728 371.608 300.608 370.952C303.488 370.296 310.032 364.552 313.824 361.928C317.616 359.304 321.024 357.472 319.584 354.2C319.416 353.824 319.224 353.448 319.016 353.08C318.336 353.992 317.536 355.016 316.704 356.032C314.352 358.936 302.048 368.488 298.512 369.408Z" fill="white" stroke="#263238" stroke-width="0.967197" stroke-linecap="round" stroke-linejoin="round"/>
<path d="M335.424 254.104C335.424 254.104 324 243.896 312.912 240.232C301.824 236.568 281.104 237.616 275.872 239.712C270.64 241.808 272.864 248.512 272.992 256.2C273.12 263.888 278.36 278.184 280.584 286.304C282.808 294.424 283.592 303.448 283.856 306.584C284.12 309.72 284.12 310.904 284.12 310.904C284.12 310.904 269.592 310.776 265.792 310.384C261.992 309.992 259.776 311.184 259.12 312.48C258.731 313.152 258.593 313.94 258.728 314.704C258.728 314.704 268.544 321.104 277.048 324.648C285.552 328.192 293.672 330.408 294.72 329.88C295.768 329.352 296.808 321.376 296.808 315.88C296.808 310.384 298.512 283.944 298.512 279.232V267.064C298.512 267.064 323.904 280.544 333.984 277.4C344.064 274.256 343.44 247.544 343.44 247.544L335.288 244.944" fill="#787878"/>
<path d="M335.424 254.104C335.424 254.104 324 243.896 312.912 240.232C301.824 236.568 281.104 237.616 275.872 239.712C270.64 241.808 272.864 248.512 272.992 256.2C273.12 263.888 278.36 278.184 280.584 286.304C282.808 294.424 283.592 303.448 283.856 306.584C284.12 309.72 284.12 310.904 284.12 310.904C284.12 310.904 269.592 310.776 265.792 310.384C261.992 309.992 259.776 311.184 259.12 312.48C258.731 313.152 258.593 313.94 258.728 314.704C258.728 314.704 268.544 321.104 277.048 324.648C285.552 328.192 293.672 330.408 294.72 329.88C295.768 329.352 296.808 321.376 296.808 315.88C296.808 310.384 298.512 283.944 298.512 279.232V267.064C298.512 267.064 323.904 280.544 333.984 277.4C344.064 274.256 343.44 247.544 343.44 247.544L335.288 244.944" stroke="#263238" stroke-width="0.967197" stroke-linecap="round" stroke-linejoin="round"/>
<path d="M284.12 310.904C284.12 310.904 269.592 310.776 265.792 310.384C261.992 309.992 259.776 311.184 259.12 312.48C258.731 313.152 258.593 313.94 258.728 314.704C258.728 314.704 268.544 321.104 277.048 324.648C285.552 328.192 293.672 330.408 294.72 329.88C295.64 329.424 296.56 323.184 296.768 317.944C291.376 313.352 284.12 310.904 284.12 310.904Z" fill="#92E3A9" stroke="#263238" stroke-width="0.967197" stroke-linecap="round" stroke-linejoin="round"/>
<path d="M294.72 329.88C295.128 329.68 295.52 328.28 295.888 326.424C291.321 326.09 286.826 325.095 282.544 323.472C275.144 320.68 263.088 314.816 258.976 312.792C258.699 313.389 258.612 314.056 258.728 314.704C258.728 314.704 268.544 321.104 277.048 324.648C285.552 328.192 293.672 330.4 294.72 329.88Z" fill="white" stroke="#263238" stroke-width="0.967197" stroke-linecap="round" stroke-linejoin="round"/>
<path d="M298.512 267.064C298.512 267.064 298.384 255.68 292.624 250.048" stroke="#263238" stroke-width="0.967197" stroke-linecap="round" stroke-linejoin="round"/>
<path d="M289.6 153.52C289.6 153.52 292.72 163.752 294.096 167.368C295.472 170.984 295.592 172.968 299.952 177.096C304.312 181.224 305.192 184.456 309.68 184.824C314.168 185.192 315.92 182.424 315.92 182.424C315.92 182.424 316.544 186.544 318.912 187.784C321.28 189.024 326.52 189.28 329.76 182.92C333 176.56 331.008 173.448 329.888 170.456C328.768 167.464 327.264 163.72 327.264 163.72C328.891 161.475 329.735 158.756 329.664 155.984C329.416 151.624 328.168 151.12 326.8 150.744C325.432 150.368 321.56 152.864 319.944 152.12C318.328 151.376 321.064 147.128 316.696 146.76C312.328 146.392 307.84 152.36 299.984 152.992C292.128 153.624 289.312 151.152 289.6 153.52Z" fill="white" stroke="#263238" stroke-width="0.967197" stroke-linecap="round" stroke-linejoin="round"/>
<path d="M315.88 182.456L322.984 174.456C326.104 170.968 326.104 165.728 326.104 165.728" fill="white"/>
<path d="M315.88 182.456L322.984 174.456C326.104 170.968 326.104 165.728 326.104 165.728" stroke="#263238" stroke-width="0.967197" stroke-linecap="round" stroke-linejoin="round"/>
<path d="M301.912 165.744C301.912 165.744 302.784 169.744 301.912 171.728C301.04 173.712 301.784 174.728 303.28 174.848C303.996 174.97 304.732 174.884 305.4 174.6" stroke="#263238" stroke-width="0.967197" stroke-linecap="round" stroke-linejoin="round"/>
<path d="M306.528 166.12C306.528 166.12 307.4 163.504 311.512 164.248" stroke="#263238" stroke-width="1.93439" stroke-linecap="round" stroke-linejoin="round"/>
<path d="M296.176 166.864C296.176 166.864 298.576 165.496 300.288 167.368" stroke="#263238" stroke-width="1.93439" stroke-linecap="round" stroke-linejoin="round"/>
<path d="M294.056 162.88C294.056 162.88 296.92 160.008 300.288 164.48" stroke="#263238" stroke-width="0.967197" stroke-linecap="round" stroke-linejoin="round"/>
<path d="M304.28 163.248C304.28 163.248 305.648 158.64 309.88 159.248" stroke="#263238" stroke-width="0.967197" stroke-linecap="round" stroke-linejoin="round"/>
<path d="M308.144 175.848C308.144 175.848 314.632 174.6 315.88 166.992C315.88 166.992 319.08 172.12 316.864 176.232C314.648 180.344 311.64 179.712 311.64 179.712L308.144 175.848Z" stroke="#263238" stroke-width="0.967197" stroke-linecap="round" stroke-linejoin="round"/>
<path d="M293.8 139.056C293.8 139.056 297.048 134.568 293.432 135.192C289.816 135.816 283.832 142.8 284.576 149.408C285.32 156.016 298.664 157.512 305.152 156.52C309.045 155.913 312.658 154.126 315.504 151.4C315.504 151.4 313.104 156.52 315.632 157.136C318.16 157.752 319.368 157.136 319.368 157.136C319.368 157.136 321.768 162.504 322.488 160.88C323.208 159.256 322.312 157.984 322.736 155.896C323.736 151.032 327.352 151.152 327.352 151.152C327.352 151.152 327.976 139.056 323.488 134.352C319 129.648 307.272 129.112 302.408 131.608C297.544 134.104 293.8 139.056 293.8 139.056Z" fill="#263238" stroke="#263238" stroke-width="0.967197" stroke-linecap="round" stroke-linejoin="round"/>
<path opacity="0.2" d="M105.536 378.784C146.988 378.784 180.592 372.201 180.592 364.08C180.592 355.959 146.988 349.376 105.536 349.376C64.0837 349.376 30.48 355.959 30.48 364.08C30.48 372.201 64.0837 378.784 105.536 378.784Z" fill="black"/>
<path d="M55.72 347.92C55.72 347.92 45.952 352.96 42.048 357.52C38.144 362.08 42.536 365.168 50.512 362.568C58.488 359.968 61.416 348.736 61.416 348.736C61.416 348.736 58.648 346.456 55.72 347.92Z" fill="#92E3A9" stroke="#263238" stroke-width="0.967197" stroke-linecap="round" stroke-linejoin="round"/>
<path d="M159.4 347.92C159.4 347.92 169.168 352.96 173.072 357.52C176.976 362.08 172.584 365.168 164.608 362.568C156.632 359.968 153.704 348.736 153.704 348.736C153.704 348.736 156.472 346.456 159.4 347.92Z" fill="#92E3A9" stroke="#263238" stroke-width="0.967197" stroke-linecap="round" stroke-linejoin="round"/>
<path d="M97.888 141.528L97.768 150.208C94.1369 149.361 90.5554 148.315 87.04 147.072C81.256 145.024 79.84 146.832 76.432 149.72C73.024 152.608 56.912 171.2 55.2 172.744C53.488 174.288 48.208 182.344 48.208 186.48C48.208 190.616 51.464 193.472 57.968 189.976C64.472 186.48 76.408 177.08 76.408 177.08C76.408 177.08 82.56 195.4 82.68 198.536C82.8 201.672 78.456 208.536 76.168 214.808C73.88 221.08 72.8 238.552 71.248 244.576C69.696 250.6 65.704 256.872 62.576 272.896C59.448 288.92 59.2 301.224 58.48 304.352C57.76 307.48 56.8 319.424 55.704 328.8C54.608 338.176 53.896 348.56 55.104 349.648C56.312 350.736 59.8 351.456 61.504 349.648C63.208 347.84 75.832 315.808 78.4 308.456C80.968 301.104 98.048 267.832 99.496 264.096C100.944 260.36 103.552 255.2 103.552 255.2C103.552 255.2 112.472 271.832 115.48 280.144C118.488 288.456 135.008 320.52 139.592 328.944C144.176 337.368 151.64 348.584 153.688 349.672C155.736 350.76 159.04 350.088 159.4 347.92C159.76 345.752 156.344 312.432 153.8 306.16C151.256 299.888 149.584 296.4 148.864 291.824C148.144 287.248 141.144 249.76 137.896 242.888C134.648 236.016 134.16 234.696 134.04 234.328C133.92 233.96 131.64 225.896 128.248 217.696C124.856 209.496 121.144 202.152 121.144 202.152L127.288 185.28C127.288 185.28 136.328 203.96 140.544 207.936C144.76 211.912 158.504 229.024 158.504 229.024L162.84 224.688L148.864 200.688C148.864 200.688 145.848 185.144 142.232 175.376C138.616 165.608 135.968 158.384 131.264 156.176C126.56 153.968 116.44 153.4 114.632 152.68C112.824 151.96 113.424 151.352 113.304 150.992C113.184 150.632 113.912 142.56 113.912 142.56C113.912 142.56 107.2 144.904 104 143.936C101.913 143.267 99.8711 142.462 97.888 141.528V141.528Z" fill="#263238" stroke="#263238" stroke-width="0.967197" stroke-linecap="round" stroke-linejoin="round"/>
<path d="M123.848 228.152L109.92 246.208" stroke="#696969" stroke-width="0.967197" stroke-linecap="round" stroke-linejoin="round"/>
<path d="M79.488 229.704L94.968 245.696" stroke="#696969" stroke-width="0.967197" stroke-linecap="round" stroke-linejoin="round"/>
<path d="M82.072 238.984L97.544 248.784" stroke="#696969" stroke-width="0.967197" stroke-linecap="round" stroke-linejoin="round"/>
<path d="M121.152 202.152L127.296 185.28C127.296 185.28 124.04 162.4 117.84 153.36C116.758 153.24 115.688 153.031 114.64 152.736C112.832 152.016 113.432 151.408 113.312 151.048C113.192 150.688 113.92 142.616 113.92 142.616C113.92 142.616 107.2 144.904 104 143.936C101.902 143.27 99.8497 142.469 97.856 141.536L97.736 150.216C97.736 150.216 96.136 149.856 93.64 149.168C90.992 152.568 80.296 166.672 76.4 177.088C76.4 177.088 82.552 195.408 82.672 198.544C82.76 200.816 80.504 205.04 78.384 209.584C82.312 212.216 89.328 215.328 100.784 215.536C114.536 215.784 121.912 212.616 125.176 210.608C122.952 205.696 121.152 202.152 121.152 202.152Z" fill="#92E3A9" stroke="#263238" stroke-width="0.967197" stroke-linecap="round" stroke-linejoin="round"/>
<path d="M113.008 162.4C115.408 160.064 116.144 156.52 116.104 153.072C115.606 153.005 115.116 152.89 114.64 152.728C112.832 152.008 113.432 151.4 113.312 151.04C113.192 150.68 113.92 142.608 113.92 142.608C113.92 142.608 107.2 144.904 104 143.936C101.902 143.27 99.8497 142.469 97.856 141.536L97.736 150.216C97.736 150.216 97.232 150.104 96.36 149.888C95.696 152.448 94.416 159.336 98.576 163.112C102.576 166.696 109.272 166 113.008 162.4Z" fill="#B2B2B2" stroke="#263238" stroke-width="0.967197" stroke-linecap="round" stroke-linejoin="round"/>
<path d="M93.304 149C93.304 149 92.944 158.04 90.656 162.984C88.368 167.928 85.952 168.648 85.952 168.648C86.9146 169.258 87.923 169.793 88.968 170.248C90.896 171.048 91.256 170.728 91.256 170.728C91.256 170.728 94.872 168.44 96.56 162.408C97.5893 158.439 97.9969 154.334 97.768 150.24L93.304 149Z" fill="white" stroke="#263238" stroke-width="0.967197" stroke-linecap="round" stroke-linejoin="round"/>
<path d="M100.088 102.808C100.088 102.808 99.936 98.72 107.36 96.752C114.784 94.784 121.312 100.688 121.912 104.632C122.512 108.576 121.312 110.696 120.4 111.032C119.488 111.368 115.552 107.392 109.64 105.432C103.728 103.472 99.328 104.632 100.088 102.808Z" fill="#263238" stroke="#263238" stroke-width="0.967197" stroke-linecap="round" stroke-linejoin="round"/>
<path d="M92.504 122.672C92.504 122.672 91.6 119.944 89.304 121.608C87.008 123.272 88.088 128.432 89.152 129.944C90.216 131.456 92.352 131.464 92.784 130.4C93.216 129.336 93.24 123.272 93.24 123.272" fill="#B2B2B2"/>
<path d="M92.504 122.672C92.504 122.672 91.6 119.944 89.304 121.608C87.008 123.272 88.088 128.432 89.152 129.944C90.216 131.456 92.352 131.464 92.784 130.4C93.216 129.336 93.24 123.272 93.24 123.272" stroke="#263238" stroke-width="0.967197" stroke-linecap="round" stroke-linejoin="round"/>
<path d="M92.208 109.48C92.208 109.48 89.624 113.272 90.84 117.064C92.056 120.856 91.448 123.576 91.448 127.976C91.448 132.376 94.648 138.28 96.752 141.92C98.856 145.56 103.104 149.88 107.648 148.52C112.192 147.16 118.848 137.672 120.096 133.28C121.344 128.888 120.856 127.824 121.608 126C122.887 122.772 123.507 119.32 123.432 115.848C123.432 110.848 117.52 104.176 110.24 102.056C102.96 99.936 94.936 102.056 92.208 109.48Z" fill="#B2B2B2" stroke="#263238" stroke-width="0.967197" stroke-linecap="round" stroke-linejoin="round"/>
<path d="M119.792 127.064C119.792 127.064 121.008 123.424 123.28 124.488C125.552 125.552 124.64 131.16 122.824 132.824C121.008 134.488 119.032 133.736 119.032 132.672" fill="#B2B2B2"/>
<path d="M119.792 127.064C119.792 127.064 121.008 123.424 123.28 124.488C125.552 125.552 124.64 131.16 122.824 132.824C121.008 134.488 119.032 133.736 119.032 132.672" stroke="#263238" stroke-width="0.967197" stroke-linecap="round" stroke-linejoin="round"/>
<path d="M102.664 131.912C103.403 132.646 104.393 133.07 105.434 133.098C106.474 133.126 107.487 132.756 108.264 132.064" stroke="#263238" stroke-width="0.967197" stroke-linecap="round" stroke-linejoin="round"/>
<path d="M101.336 135.456C101.336 135.456 105.008 138.656 110.064 135.384" stroke="#263238" stroke-width="0.967197" stroke-linecap="round" stroke-linejoin="round"/>
<path d="M100.224 128.248C100.838 128.248 101.336 127.442 101.336 126.448C101.336 125.454 100.838 124.648 100.224 124.648C99.6098 124.648 99.1119 125.454 99.1119 126.448C99.1119 127.442 99.6098 128.248 100.224 128.248Z" fill="#263238"/>
<path d="M111.032 128.248C111.646 128.248 112.144 127.442 112.144 126.448C112.144 125.454 111.646 124.648 111.032 124.648C110.418 124.648 109.92 125.454 109.92 126.448C109.92 127.442 110.418 128.248 111.032 128.248Z" fill="#263238"/>
<path d="M97.176 122.016C97.9075 121.362 98.8035 120.919 99.7676 120.736C100.732 120.553 101.728 120.636 102.648 120.976" stroke="#263238" stroke-width="0.967197" stroke-linecap="round" stroke-linejoin="round"/>
<path d="M108.328 121.392C108.328 121.392 112.416 119.592 114.632 123.192" stroke="#263238" stroke-width="0.967197" stroke-linecap="round" stroke-linejoin="round"/>
<path d="M110.24 102.056C102.968 99.928 94.936 102.056 92.208 109.48C92.208 109.48 89.624 113.272 90.84 117.064C91.2269 118.268 91.4633 119.514 91.544 120.776L91.752 121C92.6605 119.982 93.2405 118.713 93.416 117.36C93.72 115.088 98.72 109.36 106.912 109.936C115.104 110.512 119.032 116.336 119.792 120.096C120.552 123.856 118.584 126.608 121.608 126C122.887 122.772 123.507 119.32 123.432 115.848C123.432 110.848 117.52 104.176 110.24 102.056Z" fill="#263238" stroke="#263238" stroke-width="0.967197" stroke-linecap="round" stroke-linejoin="round"/>
<path d="M162.848 224.688L170.68 226.288C171.312 226.413 171.88 226.759 172.28 227.264C173.6 228.92 176.56 232.72 176.84 233.84C177.2 235.288 177.2 235.648 176.72 235.648C176.072 235.62 175.427 235.54 174.792 235.408C174.184 235.288 171.896 232.032 170.088 231.912C168.32 231.642 166.584 231.197 164.904 230.584C164.904 230.584 168.76 233.48 169.608 234.2C170.456 234.92 170.328 235.288 169.728 235.528C169.128 235.768 168.28 235.408 167.44 235.048C166.6 234.688 166.232 234.56 163.336 233.36C160.44 232.16 158.536 229.016 158.536 229.016L162.848 224.688Z" fill="#B2B2B2" stroke="#263238" stroke-width="0.967197" stroke-linecap="round" stroke-linejoin="round"/>
<path d="M132.12 172.384L127.296 185.28L131.632 177.568" stroke="#696969" stroke-width="0.967197" stroke-linecap="round" stroke-linejoin="round"/>
<path d="M76.4319 162.856V177.08L74.0239 166.72" stroke="#696969" stroke-width="0.967197" stroke-linecap="round" stroke-linejoin="round"/>
<path d="M100.296 172.504C100.923 172.935 101.633 173.232 102.38 173.377C103.128 173.521 103.897 173.51 104.64 173.344C107.04 172.744 113.552 168.04 117.536 162.736C121.52 157.432 123.32 154.4 123.32 154.4L116.92 152.472C116.92 152.472 113.544 161.632 109.088 165.608C104.632 169.584 98 171.512 98 171.512L100.296 172.504Z" fill="white" stroke="#263238" stroke-width="0.967197" stroke-linecap="round" stroke-linejoin="round"/>
<path d="M70.528 129.472C70.528 129.472 98.976 171.776 100.296 172.504C100.922 172.856 101.566 173.177 102.224 173.464C102.224 173.464 95.48 173.464 93.552 171.864C91.624 170.264 76.192 141.616 74.864 138.48C73.7914 136.086 72.5842 133.754 71.248 131.496L70.048 129.2L70.528 129.472Z" fill="white" stroke="#263238" stroke-width="0.967197" stroke-linecap="round" stroke-linejoin="round"/>
<path d="M70.528 129.472C70.528 129.472 82.344 163.464 83.328 165.872C84.312 168.28 87.664 170.216 89.472 170.456L91.28 170.696C91.28 170.696 82.728 156.712 78.992 148.296C75.256 139.88 70.528 129.472 70.528 129.472Z" fill="white" stroke="#263238" stroke-width="0.967197" stroke-linecap="round" stroke-linejoin="round"/>
<path d="M67.336 130.928C71.4318 130.928 74.752 127.608 74.752 123.512C74.752 119.416 71.4318 116.096 67.336 116.096C63.2403 116.096 59.92 119.416 59.92 123.512C59.92 127.608 63.2403 130.928 67.336 130.928Z" fill="white" stroke="#263238" stroke-width="0.967197" stroke-linecap="round" stroke-linejoin="round"/>
<path d="M60.4079 188.528C56.5519 190.584 48.9519 195.4 47.5119 193.232C46.0719 191.064 46.3039 178.768 49.7999 171.416C53.2959 164.064 59.5999 150.92 59.7999 148.664C59.9999 146.408 59.4959 131.456 59.7039 130.84C59.9119 130.224 66.1519 126.84 66.1519 126.84C66.4806 126.759 66.8264 126.784 67.1398 126.912C67.4532 127.04 67.7179 127.264 67.8959 127.552C68.5119 128.576 71.2799 131.552 71.1759 132.352C71.0719 133.152 70.9679 133.784 70.9679 133.784C70.9679 133.784 72.6079 134.712 72.1999 136.248C71.7919 137.784 71.0719 142.496 70.1519 143.112C69.3864 143.482 68.5203 143.588 67.6879 143.416C67.585 144.531 67.2729 145.617 66.7679 146.616C66.0559 147.744 65.3359 148.36 65.2319 148.664C65.1279 148.968 62.9359 184.432 61.7279 185.64" fill="#263238"/>
<path d="M60.4079 188.528C56.5519 190.584 48.9519 195.4 47.5119 193.232C46.0719 191.064 46.3039 178.768 49.7999 171.416C53.2959 164.064 59.5999 150.92 59.7999 148.664C59.9999 146.408 59.4959 131.456 59.7039 130.84C59.9119 130.224 66.1519 126.84 66.1519 126.84C66.4806 126.759 66.8264 126.784 67.1398 126.912C67.4532 127.04 67.7179 127.264 67.8959 127.552C68.5119 128.576 71.2799 131.552 71.1759 132.352C71.0719 133.152 70.9679 133.784 70.9679 133.784C70.9679 133.784 72.6079 134.712 72.1999 136.248C71.7919 137.784 71.0719 142.496 70.1519 143.112C69.3864 143.482 68.5203 143.588 67.6879 143.416C67.585 144.531 67.2729 145.617 66.7679 146.616C66.0559 147.744 65.3359 148.36 65.2319 148.664C65.1279 148.968 62.9359 184.432 61.7279 185.64" stroke="#263238" stroke-width="0.967197" stroke-linecap="round" stroke-linejoin="round"/>
<path d="M70.968 133.808C70.968 133.808 71.072 133.2 71.176 132.376C71.28 131.552 68.512 128.584 67.896 127.576C67.718 127.288 67.4533 127.064 67.1399 126.936C66.8265 126.808 66.4806 126.783 66.152 126.864C66.152 126.864 59.904 130.24 59.704 130.864C59.504 131.488 59.912 143.624 59.848 147.664C60.5879 148.267 61.4609 148.684 62.3945 148.882C63.3281 149.079 64.2954 149.051 65.216 148.8C65.216 148.728 65.216 148.68 65.216 148.664C65.32 148.36 66.016 147.744 66.752 146.616C67.257 145.617 67.5691 144.531 67.672 143.416C68.5044 143.588 69.3705 143.482 70.136 143.112C71.056 142.496 71.736 137.784 72.184 136.248C72.632 134.712 70.968 133.808 70.968 133.808Z" fill="#B2B2B2" stroke="#263238" stroke-width="0.967197" stroke-linecap="round" stroke-linejoin="round"/>
<path d="M70.968 133.808L65.744 131.76" stroke="#263238" stroke-width="0.967197" stroke-linecap="round" stroke-linejoin="round"/>
<path d="M65.1279 134.632C65.1279 134.632 70.5599 135.856 71.0719 136.68C71.392 137.242 71.5679 137.874 71.5839 138.52" stroke="#263238" stroke-width="0.967197" stroke-linecap="round" stroke-linejoin="round"/>
<path d="M65.4399 137.6C65.4399 137.6 69.5359 138.52 70.1519 139.032C70.7679 139.544 70.8639 141.696 70.8639 141.696" stroke="#263238" stroke-width="0.967197" stroke-linecap="round" stroke-linejoin="round"/>
<path d="M67.688 143.44V141.8L68.816 141.696" stroke="#263238" stroke-width="0.967197" stroke-linecap="round" stroke-linejoin="round"/>
<path d="M100.176 216.376L98.728 236.136L101.024 236.496C101.024 236.496 101.024 215.648 100.176 216.376Z" fill="white" stroke="#263238" stroke-width="0.967197" stroke-linecap="round" stroke-linejoin="round"/>
<path d="M101.6 217.096L102.32 239.032L105.936 238.912L102.44 217.312C102.44 217.312 101.864 215.288 101.6 217.096Z" fill="white" stroke="#263238" stroke-width="0.967197" stroke-linecap="round" stroke-linejoin="round"/>
<path d="M163.064 41.376L167.176 45.448L169.448 41.84L163.064 41.376Z" fill="#9C9C9C"/>
<path d="M111.584 48.216L115.696 52.28L117.968 48.672L111.584 48.216Z" fill="#9C9C9C"/>
<path d="M79.2159 31.656L83.3279 35.728L85.5999 32.112L79.2159 31.656Z" fill="#9C9C9C"/>
<path d="M209.472 63.28L206.888 68.456L211.024 69.488L209.472 63.28Z" fill="#9C9C9C"/>
<path d="M248.904 26.64L246.32 31.816L250.456 32.848L248.904 26.64Z" fill="#9C9C9C"/>
<path d="M163.368 71.84L159.344 67.68L157 71.24L163.368 71.84Z" fill="#92E3A9"/>
<path d="M139.784 73.384L135.768 69.224L133.416 72.784L139.784 73.384Z" fill="#92E3A9"/>
<path d="M190.592 54.848L195.296 51.48L192.12 48.632L190.592 54.848Z" fill="#92E3A9"/>
<path d="M137.624 38.088L142.328 34.728L139.152 31.872L137.624 38.088Z" fill="#92E3A9"/>
<path d="M227.664 68.072L232.368 64.712L229.192 61.856L227.664 68.072Z" fill="#92E3A9"/>
<path d="M39.3519 70.848L36.7679 76.016L40.9039 77.056L39.3519 70.848Z" fill="#9C9C9C"/>
<path d="M65.6399 74.712L63.0559 79.888L67.1919 80.92L65.6399 74.712Z" fill="#9C9C9C"/>
<path d="M51.24 56.976L47.216 52.816L44.864 56.376L51.24 56.976Z" fill="#92E3A9"/>
<path d="M161.528 97.784L166.24 94.424L163.064 91.568L161.528 97.784Z" fill="#92E3A9"/>
<path d="M286.872 57.448L290.984 61.512L293.256 57.904L286.872 57.448Z" fill="#9C9C9C"/>
<path d="M333.288 68.008L330.696 73.184L334.84 74.216L333.288 68.008Z" fill="#9C9C9C"/>
<path d="M270.656 40.64L268.072 45.816L272.208 46.856L270.656 40.64Z" fill="#9C9C9C"/>
<path d="M359.576 71.872L356.984 77.048L361.128 78.088L359.576 71.872Z" fill="#9C9C9C"/>
<path d="M372.72 52.16L370.128 57.336L374.272 58.368L372.72 52.16Z" fill="#9C9C9C"/>
<path d="M287.184 76.56L283.16 72.4L280.808 75.968L287.184 76.56Z" fill="#92E3A9"/>
<path d="M263.6 78.112L259.576 73.952L257.224 77.512L263.6 78.112Z" fill="#92E3A9"/>
<path d="M313.624 38.8L318.328 35.44L315.152 32.584L313.624 38.8Z" fill="#92E3A9"/>
<path d="M261.44 33.368L266.144 30L262.968 27.152L261.44 33.368Z" fill="#92E3A9"/>
<path d="M339.144 45.416L343.848 42.056L340.672 39.208L339.144 45.416Z" fill="#92E3A9"/>
<path d="M285.344 102.512L290.048 99.144L286.872 96.296L285.344 102.512Z" fill="#92E3A9"/>
<path d="M94.432 68.056L99.136 64.696L95.96 61.84L94.432 68.056Z" fill="#92E3A9"/>
<path d="M247.976 130.344L243.864 126.272L241.592 129.88L247.976 130.344Z" fill="#9C9C9C"/>
<path d="M287.792 127.632L283.68 123.568L281.408 127.176L287.792 127.632Z" fill="#9C9C9C"/>
<path d="M333.096 132.792L328.984 128.72L326.712 132.336L333.096 132.792Z" fill="#9C9C9C"/>
<path d="M201.56 119.776L204.152 114.6L200.008 113.568L201.56 119.776Z" fill="#9C9C9C"/>
<path d="M175.272 115.912L177.864 110.736L173.72 109.704L175.272 115.912Z" fill="#9C9C9C"/>
<path d="M305.272 125.144L309.296 129.304L311.648 125.736L305.272 125.144Z" fill="#92E3A9"/>
<path d="M190.504 117.48L185.8 120.84L188.976 123.688L190.504 117.48Z" fill="#92E3A9"/>
<path d="M192.824 98.92L188.12 102.288L191.296 105.136L192.824 98.92Z" fill="#92E3A9"/>
<path d="M371.688 112.216L374.272 107.04L370.128 106.008L371.688 112.216Z" fill="#9C9C9C"/>
<path d="M345.392 108.352L347.984 103.176L343.84 102.144L345.392 108.352Z" fill="#9C9C9C"/>
<path d="M360.624 109.92L355.92 113.28L359.096 116.128L360.624 109.92Z" fill="#92E3A9"/>
<path d="M137.456 99.136L133.344 95.064L131.072 98.68L137.456 99.136Z" fill="#9C9C9C"/>
<path d="M77.752 115.048L80.3359 109.88L76.2 108.84L77.752 115.048Z" fill="#9C9C9C"/>
<path d="M51.464 111.184L54.048 106.008L49.912 104.976L51.464 111.184Z" fill="#9C9C9C"/>
<path d="M38.3199 130.904L40.9039 125.728L36.7679 124.696L38.3199 130.904Z" fill="#9C9C9C"/>
<path d="M65.864 128.92L69.888 133.08L72.24 129.52L65.864 128.92Z" fill="#92E3A9"/>
<path d="M149.6 128.904L144.896 132.272L148.072 135.12L149.6 128.904Z" fill="#92E3A9"/>
<path d="M69.016 94.192L64.304 97.56L67.48 100.408L69.016 94.192Z" fill="#92E3A9"/>
<path d="M309.04 96.104L304.336 99.464L307.512 102.312L309.04 96.104Z" fill="#92E3A9"/>
<path d="M123.24 149.936L127.352 154.008L129.624 150.4L123.24 149.936Z" fill="#9C9C9C"/>
<path d="M77.9359 144.784L82.0479 148.848L84.3199 145.24L77.9359 144.784Z" fill="#9C9C9C"/>
<path d="M209.472 157.792L206.888 162.968L211.024 164L209.472 157.792Z" fill="#9C9C9C"/>
<path d="M85.688 184.808L83.104 189.984L87.24 191.016L85.688 184.808Z" fill="#9C9C9C"/>
<path d="M163.368 166.352L159.344 162.192L157 165.752L163.368 166.352Z" fill="#92E3A9"/>
<path d="M139.784 167.896L135.768 163.736L133.416 167.296L139.784 167.896Z" fill="#92E3A9"/>
<path d="M105.768 152.432L101.744 148.272L99.392 151.832L105.768 152.432Z" fill="#92E3A9"/>
<path d="M221.36 143.928L217.336 139.768L214.984 143.328L221.36 143.928Z" fill="#92E3A9"/>
<path d="M190.592 149.36L195.296 145.992L192.12 143.144L190.592 149.36Z" fill="#92E3A9"/>
<path d="M220.536 160.096L225.24 156.728L222.064 153.88L220.536 160.096Z" fill="#92E3A9"/>
<path d="M218.216 178.656L222.92 175.288L219.744 172.44L218.216 178.656Z" fill="#92E3A9"/>
<path d="M39.3519 165.352L36.7679 170.528L40.9039 171.568L39.3519 165.352Z" fill="#9C9C9C"/>
<path d="M65.6399 169.224L63.0559 174.4L67.1919 175.432L65.6399 169.224Z" fill="#9C9C9C"/>
<path d="M51.24 151.488L47.216 147.328L44.864 150.888L51.24 151.488Z" fill="#92E3A9"/>
<path d="M50.416 167.656L55.12 164.288L51.944 161.44L50.416 167.656Z" fill="#92E3A9"/>
<path d="M161.528 192.296L166.24 188.928L163.064 186.08L161.528 192.296Z" fill="#92E3A9"/>
<path d="M247.056 154.664L251.168 158.736L253.44 155.12L247.056 154.664Z" fill="#9C9C9C"/>
<path d="M333.288 162.52L330.696 167.696L334.84 168.728L333.288 162.52Z" fill="#9C9C9C"/>
<path d="M359.576 166.384L356.984 171.56L361.128 172.6L359.576 166.384Z" fill="#9C9C9C"/>
<path d="M372.72 146.672L370.128 151.848L374.272 152.88L372.72 146.672Z" fill="#9C9C9C"/>
<path d="M263.6 172.624L259.576 168.464L257.224 172.024L263.6 172.624Z" fill="#92E3A9"/>
<path d="M255.8 262.232L251.776 258.072L249.432 261.632L255.8 262.232Z" fill="#92E3A9"/>
<path d="M210.016 29.064L214.72 25.696L211.544 22.848L210.016 29.064Z" fill="#92E3A9"/>
<path d="M285.344 197.024L290.048 193.656L286.872 190.808L285.344 197.024Z" fill="#92E3A9"/>
<path d="M101.992 181.472L106.704 178.104L103.528 175.256L101.992 181.472Z" fill="#92E3A9"/>
<path d="M287.792 222.144L283.68 218.08L281.408 221.688L287.792 222.144Z" fill="#9C9C9C"/>
<path d="M201.56 214.288L204.152 209.112L200.008 208.08L201.56 214.288Z" fill="#9C9C9C"/>
<path d="M175.272 210.424L177.864 205.248L173.72 204.216L175.272 210.424Z" fill="#9C9C9C"/>
<path d="M247.664 205.736L251.688 209.896L254.04 206.336L247.664 205.736Z" fill="#92E3A9"/>
<path d="M271.248 204.192L275.272 208.352L277.624 204.784L271.248 204.192Z" fill="#92E3A9"/>
<path d="M305.272 279.152L309.296 283.312L311.648 279.752L305.272 279.152Z" fill="#92E3A9"/>
<path d="M220.448 222.728L215.744 226.096L218.92 228.944L220.448 222.728Z" fill="#92E3A9"/>
<path d="M192.824 193.432L188.12 196.8L191.296 199.648L192.824 193.432Z" fill="#92E3A9"/>
<path d="M371.688 266.232L374.272 261.056L370.128 260.024L371.688 266.232Z" fill="#9C9C9C"/>
<path d="M345.392 202.864L347.984 197.688L343.84 196.656L345.392 202.864Z" fill="#9C9C9C"/>
<path d="M360.624 263.928L355.92 267.296L359.096 270.144L360.624 263.928Z" fill="#92E3A9"/>
<path d="M249.504 179.784L244.8 183.152L247.976 186L249.504 179.784Z" fill="#92E3A9"/>
<path d="M163.984 217.424L159.872 213.352L157.6 216.96L163.984 217.424Z" fill="#9C9C9C"/>
<path d="M77.752 209.56L80.3359 204.392L76.2 203.352L77.752 209.56Z" fill="#9C9C9C"/>
<path d="M140.384 216.136L142.968 210.96L138.832 209.928L140.384 216.136Z" fill="#9C9C9C"/>
<path d="M51.464 205.696L54.048 200.528L49.912 199.488L51.464 205.696Z" fill="#9C9C9C"/>
<path d="M38.3199 225.416L40.9039 220.24L36.7679 219.208L38.3199 225.416Z" fill="#9C9C9C"/>
<path d="M147.44 199.464L151.464 203.624L153.808 200.064L147.44 199.464Z" fill="#92E3A9"/>
<path d="M65.864 223.432L69.888 227.592L72.24 224.032L65.864 223.432Z" fill="#92E3A9"/>
<path d="M96.6399 218L91.9359 221.368L95.1119 224.216L96.6399 218Z" fill="#92E3A9"/>
<path d="M112.344 303.224L107.64 306.592L110.816 309.44L112.344 303.224Z" fill="#92E3A9"/>
<path d="M204.616 264.816L199.912 268.184L203.088 271.032L204.616 264.816Z" fill="#92E3A9"/>
<path d="M309.04 190.608L304.336 193.976L307.512 196.824L309.04 190.608Z" fill="#92E3A9"/>
<path d="M163.064 309.232L167.176 313.304L169.448 309.688L163.064 309.232Z" fill="#9C9C9C"/>
<path d="M75.12 272.576L79.232 276.64L81.504 273.032L75.12 272.576Z" fill="#9C9C9C"/>
<path d="M209.472 319.792L206.888 324.968L211.024 326L209.472 319.792Z" fill="#9C9C9C"/>
<path d="M146.848 246.68L144.256 251.856L148.4 252.888L146.848 246.68Z" fill="#9C9C9C"/>
<path d="M235.76 323.664L233.176 328.832L237.312 329.872L235.76 323.664Z" fill="#9C9C9C"/>
<path d="M248.904 303.944L246.32 309.12L250.456 310.152L248.904 303.944Z" fill="#9C9C9C"/>
<path d="M163.368 328.352L159.344 324.192L157 327.752L163.368 328.352Z" fill="#92E3A9"/>
<path d="M102.944 280.224L98.9279 276.064L96.5759 279.624L102.944 280.224Z" fill="#92E3A9"/>
<path d="M190.592 311.36L195.296 307.992L192.12 305.144L190.592 311.36Z" fill="#92E3A9"/>
<path d="M218.216 340.656L222.92 337.288L219.744 334.44L218.216 340.656Z" fill="#92E3A9"/>
<path d="M36.536 293.144L33.944 298.32L38.088 299.352L36.536 293.144Z" fill="#9C9C9C"/>
<path d="M62.824 297.008L60.24 302.184L64.376 303.224L62.824 297.008Z" fill="#9C9C9C"/>
<path d="M48.416 279.28L44.4 275.12L42.048 278.68L48.416 279.28Z" fill="#92E3A9"/>
<path d="M161.528 359.984L166.24 356.624L163.064 353.768L161.528 359.984Z" fill="#92E3A9"/>
<path d="M286.872 247.416L290.984 251.488L293.256 247.872L286.872 247.416Z" fill="#9C9C9C"/>
<path d="M333.288 317.48L330.696 322.656L334.84 323.688L333.288 317.48Z" fill="#9C9C9C"/>
<path d="M270.656 251.408L268.072 256.584L272.208 257.616L270.656 251.408Z" fill="#9C9C9C"/>
<path d="M359.576 321.344L356.984 326.52L361.128 327.552L359.576 321.344Z" fill="#9C9C9C"/>
<path d="M372.72 301.632L370.128 306.8L374.272 307.84L372.72 301.632Z" fill="#9C9C9C"/>
<path d="M263.6 334.616L259.576 330.464L257.224 334.024L263.6 334.616Z" fill="#92E3A9"/>
<path d="M345.168 303.608L341.152 299.448L338.8 303.008L345.168 303.608Z" fill="#92E3A9"/>
<path d="M314.4 309.04L319.104 305.672L315.928 302.824L314.4 309.04Z" fill="#92E3A9"/>
<path d="M342.024 338.336L346.728 334.968L343.552 332.12L342.024 338.336Z" fill="#92E3A9"/>
<path d="M285.344 364.712L290.048 361.344L286.872 358.496L285.344 364.712Z" fill="#92E3A9"/>
<path d="M83.8719 332.352L88.576 328.984L85.4 326.136L83.8719 332.352Z" fill="#92E3A9"/>
<path d="M163.064 370.944L167.176 371.816L169.448 371.04L163.064 370.944Z" fill="#9C9C9C"/>
<path d="M123.24 354.6L127.352 355.48L129.624 354.704L123.24 354.6Z" fill="#9C9C9C"/>
<path d="M77.9359 353.496L82.0479 354.368L84.3199 353.592L77.9359 353.496Z" fill="#9C9C9C"/>
<path d="M209.472 356.288L206.888 357.4L211.024 357.624L209.472 356.288Z" fill="#9C9C9C"/>
<path d="M146.848 354.88L144.256 355.992L148.4 356.216L146.848 354.88Z" fill="#9C9C9C"/>
<path d="M235.76 357.12L233.176 358.232L237.312 358.456L235.76 357.12Z" fill="#9C9C9C"/>
<path d="M248.904 352.888L246.32 354L250.456 354.224L248.904 352.888Z" fill="#9C9C9C"/>
<path d="M152.736 368.72L148.72 367.824L146.368 368.592L152.736 368.72Z" fill="#92E3A9"/>
<path d="M139.784 358.456L135.768 357.568L133.416 358.328L139.784 358.456Z" fill="#92E3A9"/>
<path d="M105.768 355.136L101.744 354.248L99.392 355.008L105.768 355.136Z" fill="#92E3A9"/>
<path d="M221.36 353.312L217.336 352.424L214.984 353.184L221.36 353.312Z" fill="#92E3A9"/>
<path d="M190.592 354.48L195.296 353.76L192.12 353.144L190.592 354.48Z" fill="#92E3A9"/>
<path d="M137.624 353.32L142.328 352.592L139.152 351.984L137.624 353.32Z" fill="#92E3A9"/>
<path d="M220.536 356.784L225.24 356.064L222.064 355.448L220.536 356.784Z" fill="#92E3A9"/>
<path d="M218.216 360.768L222.92 360.048L219.744 359.432L218.216 360.768Z" fill="#92E3A9"/>
<path d="M39.3519 357.912L36.7679 359.024L40.9039 359.248L39.3519 357.912Z" fill="#9C9C9C"/>
<path d="M65.6399 358.744L63.0559 359.856L67.1919 360.08L65.6399 358.744Z" fill="#9C9C9C"/>
<path d="M41.32 367.168L37.296 366.28L34.944 367.048L41.32 367.168Z" fill="#92E3A9"/>
<path d="M59.136 369.28L63.84 368.56L60.664 367.944L59.136 369.28Z" fill="#92E3A9"/>
<path d="M48.0959 362.392L52.7999 361.672L49.6239 361.056L48.0959 362.392Z" fill="#92E3A9"/>
<path d="M161.528 363.696L166.24 362.976L163.064 362.36L161.528 363.696Z" fill="#92E3A9"/>
<path d="M286.872 355.04L290.984 355.912L293.256 355.136L286.872 355.04Z" fill="#9C9C9C"/>
<path d="M247.056 355.616L251.168 356.496L253.44 355.72L247.056 355.616Z" fill="#9C9C9C"/>
<path d="M333.288 357.304L330.696 358.416L334.84 358.64L333.288 357.304Z" fill="#9C9C9C"/>
<path d="M270.656 355.896L268.072 357.008L272.208 357.224L270.656 355.896Z" fill="#9C9C9C"/>
<path d="M359.576 358.136L356.984 359.248L361.128 359.472L359.576 358.136Z" fill="#9C9C9C"/>
<path d="M219.28 367.944L216.696 369.056L220.832 369.28L219.28 367.944Z" fill="#9C9C9C"/>
<path d="M372.72 353.904L370.128 355.016L374.272 355.24L372.72 353.904Z" fill="#9C9C9C"/>
<path d="M287.184 359.144L283.16 358.248L280.808 359.016L287.184 359.144Z" fill="#92E3A9"/>
<path d="M263.6 359.472L259.576 358.584L257.224 359.344L263.6 359.472Z" fill="#92E3A9"/>
<path d="M361.832 368.848L357.816 367.952L355.464 368.72L361.832 368.848Z" fill="#92E3A9"/>
<path d="M345.168 354.328L341.152 353.432L338.8 354.2L345.168 354.328Z" fill="#92E3A9"/>
<path d="M314.4 355.496L319.104 354.768L315.928 354.16L314.4 355.496Z" fill="#92E3A9"/>
<path d="M261.44 354.336L266.144 353.608L262.968 353L261.44 354.336Z" fill="#92E3A9"/>
<path d="M344.344 357.8L349.048 357.08L345.872 356.464L344.344 357.8Z" fill="#92E3A9"/>
<path d="M342.024 361.784L346.728 361.064L343.552 360.448L342.024 361.784Z" fill="#92E3A9"/>
<path d="M313.392 375.136L310.8 376.248L314.944 376.472L313.392 375.136Z" fill="#9C9C9C"/>
<path d="M339.68 375.968L337.096 377.08L341.232 377.304L339.68 375.968Z" fill="#9C9C9C"/>
<path d="M325.272 372.16L321.256 371.264L318.904 372.032L325.272 372.16Z" fill="#92E3A9"/>
<path d="M324.448 375.632L329.152 374.912L325.976 374.296L324.448 375.632Z" fill="#92E3A9"/>
<path d="M322.128 379.616L326.832 378.896L323.656 378.28L322.128 379.616Z" fill="#92E3A9"/>
<path d="M246.384 373.152L251.088 372.424L247.912 371.816L246.384 373.152Z" fill="#92E3A9"/>
<path d="M101.992 361.376L106.704 360.648L103.528 360.04L101.992 361.376Z" fill="#92E3A9"/>
<path d="M88.3199 367.072L92.4319 367.944L94.7039 367.168L88.3199 367.072Z" fill="#9C9C9C"/>
<path d="M104.864 370.928L100.848 370.04L98.496 370.8L104.864 370.928Z" fill="#92E3A9"/>
<path d="M70.8479 367.608L66.8239 366.712L64.4719 367.48L70.8479 367.608Z" fill="#92E3A9"/>
<path d="M67.072 373.848L71.784 373.12L68.608 372.512L67.072 373.848Z" fill="#92E3A9"/>
</svg>
